<svg width="24" height="24" viewBox="0 0 24 24" fill="none" xmlns="http://www.w3.org/2000/svg">
<path d="M11.703 5.61576C11.7321 4.71134 11.9812 3.379 12.8483 2.50372C13.6531 1.69124 14.6328 1.29525 15.243 1.11423C15.4786 1.04434 15.7046 1.22198 15.693 1.46743C15.6521 2.33323 15.4244 3.62462 14.8371 4.31644C14.2834 4.9686 13.3926 5.83342 12.0879 5.97892C11.8744 6.00274 11.6961 5.83052 11.703 5.61576Z" fill="#6C6D6D"/>
<path d="M13.937 22.1697C14.5635 22.4097 15.197 22.6523 15.7703 22.6523C16.9966 22.6523 20.5678 19.8228 20.6964 16.884C20.703 16.733 20.6128 16.5982 20.481 16.5245C19.5726 16.0162 18.0893 14.7505 18.0376 12.9091C17.9775 10.7633 19.0549 9.05891 19.8703 8.35388C20.0538 8.19521 20.1169 7.91543 19.953 7.73651C19.2111 6.9263 17.7186 5.81185 16.3568 5.8392C15.366 5.85911 14.4734 6.22816 13.7074 6.54484C13.1197 6.7878 12.6066 6.99994 12.181 6.99994C11.7778 6.99994 11.2938 6.78916 10.7383 6.54725C9.99015 6.22146 9.11236 5.8392 8.12768 5.8392C6.30374 5.8392 2.69996 7.35168 2.69995 13.1905C2.69995 16.2858 5.89531 22.7344 8.59166 22.6523C9.1739 22.6523 9.79613 22.4112 10.4136 22.172C11.0216 21.9364 11.625 21.7026 12.181 21.7026C12.7178 21.7026 13.3241 21.9349 13.937 22.1697Z" fill="#6C6D6D"/>
</svg>
