<svg width="24" height="24" viewBox="0 0 24 24" fill="none" xmlns="http://www.w3.org/2000/svg">
<path d="M6.66073 3.25278C6.5624 3.19015 6.43669 3.19015 6.33836 3.2528L1.39711 6.40086C1.21203 6.51876 1.21203 6.78897 1.3971 6.90688L6.33836 10.055C6.43669 10.1177 6.56241 10.1177 6.66074 10.055L11.6028 6.90681C11.7879 6.7889 11.7879 6.51867 11.6028 6.40076L6.66073 3.25278Z" fill="#6C6D6D"/>
<path d="M17.6612 3.25281C17.5628 3.19016 17.4371 3.19016 17.3388 3.25281L12.3971 6.4012C12.212 6.51911 12.212 6.78931 12.3971 6.90722L17.3388 10.0556C17.4371 10.1183 17.5628 10.1183 17.6612 10.0556L22.6028 6.90722C22.7879 6.78931 22.7879 6.51911 22.6028 6.4012L17.6612 3.25281Z" fill="#6C6D6D"/>
<path d="M1.3971 13.9151C1.21203 13.7972 1.21203 13.527 1.39711 13.4091L6.33836 10.261C6.43669 10.1984 6.5624 10.1984 6.66073 10.261L11.6028 13.409C11.7879 13.5269 11.7879 13.7971 11.6028 13.915L6.66074 17.0632C6.56241 17.1259 6.43669 17.1259 6.33836 17.0632L1.3971 13.9151Z" fill="#6C6D6D"/>
<path d="M17.6612 10.261C17.5628 10.1984 17.4371 10.1984 17.3388 10.261L12.3971 13.4094C12.212 13.5273 12.212 13.7975 12.3971 13.9154L17.3388 17.0637C17.4371 17.1264 17.5628 17.1264 17.6612 17.0637L22.6028 13.9154C22.7879 13.7975 22.7879 13.5273 22.6028 13.4094L17.6612 10.261Z" fill="#6C6D6D"/>
<path d="M6.89718 18.5944C6.71209 18.4765 6.71209 18.2063 6.89719 18.0883L11.8392 14.9403C11.9375 14.8776 12.0633 14.8777 12.1616 14.9403L17.1028 18.0883C17.2879 18.2062 17.2879 18.4764 17.1028 18.5943L12.1616 21.7425C12.0633 21.8052 11.9375 21.8052 11.8392 21.7425L6.89718 18.5944Z" fill="#6C6D6D"/>
</svg>
