<svg width="24" height="24" viewBox="0 0 24 24" fill="none" xmlns="http://www.w3.org/2000/svg">
<path d="M20.1938 18.4239C19.775 18.4745 18.6179 16.6467 18.4594 16.3929C18.454 16.3844 18.4412 16.3888 18.4411 16.3989C18.4293 17.6144 17.8021 19.1858 16.4609 20.3282C16.4549 20.3334 16.4564 20.343 16.4639 20.3454C17.1296 20.5525 18.5864 21.0939 18.2363 21.6845C17.9507 22.167 13.3338 21.9926 12.0007 21.842C10.6676 21.992 6.05068 22.1664 5.76505 21.6845C5.41233 21.0895 6.89106 20.5445 7.55093 20.3408C7.55129 20.3407 7.55154 20.3404 7.5516 20.34L7.55169 20.3395C7.55174 20.3391 7.55161 20.3388 7.55134 20.3386C6.19024 19.1861 5.56008 17.5909 5.55881 16.3676C5.55881 16.3674 5.55877 16.3673 5.55871 16.3672L5.55866 16.367C5.55832 16.3663 5.55773 16.3656 5.55731 16.3663C5.50798 16.4461 4.24808 18.4778 3.8063 18.4239C3.59693 18.3982 3.3213 17.2657 4.1713 14.5295C4.57193 13.2395 5.03068 12.167 5.73943 10.3976C5.62005 5.83136 7.50693 2.00073 11.9994 2.00073C16.4426 2.00136 18.3726 5.75573 18.2601 10.3976C18.9676 12.1639 19.4282 13.2432 19.8282 14.5295C20.6788 17.2664 20.4038 18.3989 20.1938 18.4239Z" fill="#6C6D6D"/>
</svg>
