<svg width="24" height="24" viewBox="0 0 24 24" fill="none" xmlns="http://www.w3.org/2000/svg">
<path d="M9.87729 3.1528C9.95817 3.04834 9.87429 2.89791 9.74292 2.9118L6.24041 3.28212C6.15783 3.29086 6.09805 3.36502 6.10706 3.44757L6.50436 7.08766C6.519 7.22179 6.68947 7.2699 6.77208 7.16322L9.87729 3.1528Z" fill="#6C6D6D"/>
<path d="M17.2238 7.16322C17.3064 7.26991 17.4769 7.2218 17.4915 7.08767L17.8889 3.44756C17.8979 3.36501 17.8381 3.29084 17.7555 3.28211L14.253 2.91179C14.1216 2.8979 14.0377 3.04833 14.1186 3.15279L17.2238 7.16322Z" fill="#6C6D6D"/>
<path d="M7.83571 8.63466C7.71103 8.63466 7.64078 8.49141 7.7171 8.39283L11.8793 3.01724C11.9394 2.93968 12.0565 2.93968 12.1165 3.01724L16.2787 8.39283C16.355 8.49141 16.2848 8.63466 16.1601 8.63466H7.83571Z" fill="#6C6D6D"/>
<path d="M8.99333 18.2609C9.06103 18.4186 8.85353 18.548 8.74169 18.4177L1.84142 10.3825C1.75789 10.2852 1.827 10.1348 1.95522 10.1348H5.40744C5.46742 10.1348 5.52163 10.1705 5.54529 10.2256L8.99333 18.2609Z" fill="#6C6D6D"/>
<path d="M18.5884 10.1348C18.5285 10.1348 18.4742 10.1705 18.4506 10.2256L15.0025 18.261C14.9348 18.4188 15.1423 18.5481 15.2541 18.4179L22.1545 10.3825C22.238 10.2852 22.1689 10.1348 22.0407 10.1348H18.5884Z" fill="#6C6D6D"/>
<path d="M18.8498 8.46849C18.8401 8.55725 18.9096 8.63477 18.9989 8.63477L21.7785 8.63476C21.9019 8.63476 21.9725 8.4941 21.8988 8.39515L19.4744 5.14069C19.393 5.0314 19.2198 5.07854 19.205 5.21403L18.8498 8.46849Z" fill="#6C6D6D"/>
<path d="M4.79093 5.21417C4.77614 5.07869 4.60294 5.03154 4.52152 5.14084L2.09728 8.39515C2.02357 8.4941 2.09419 8.63476 2.21757 8.63476H4.99696C5.08625 8.63476 5.15576 8.55725 5.14608 8.46849L4.79093 5.21417Z" fill="#6C6D6D"/>
<path d="M7.22836 10.3439C7.18588 10.2449 7.25848 10.1348 7.3662 10.1348H16.6296C16.7373 10.1348 16.81 10.2449 16.7675 10.3439L12.1358 21.1376C12.0838 21.2588 11.9121 21.2588 11.8601 21.1376L7.22836 10.3439Z" fill="#6C6D6D"/>
</svg>
