<svg width="24" height="24" viewBox="0 0 24 24" fill="none" xmlns="http://www.w3.org/2000/svg">
<path fill-rule="evenodd" clip-rule="evenodd" d="M16.6763 2.62755C13.5301 1.92428 10.2675 1.92428 7.12126 2.62755L6.78224 2.70333C4.97745 3.10675 3.553 4.49102 3.09811 6.28353C2.30063 9.42602 2.30063 12.7179 3.09811 15.8604C3.53263 17.5727 4.85186 18.9124 6.5422 19.3806L7.00686 22.1564C7.03695 22.3361 7.16246 22.4852 7.33443 22.5456C7.5064 22.6059 7.69758 22.5679 7.8334 22.4464L10.5641 20.0031C12.6086 20.128 14.6662 19.9657 16.6763 19.5164L17.0153 19.4406C18.8201 19.0372 20.2446 17.6529 20.6995 15.8604C21.4969 12.7179 21.4969 9.42602 20.6995 6.28353C20.2446 4.49102 18.8201 3.10675 17.0153 2.70333L16.6763 2.62755ZM7.96472 6.2019C7.77897 6.17476 7.58952 6.21205 7.42791 6.30756H7.41413C7.03892 6.52749 6.70092 6.80547 6.41269 7.13115C6.17316 7.40809 6.04322 7.68831 6.0091 7.95803C5.98875 8.11881 6.00253 8.27959 6.05044 8.43315L6.0675 8.44365C6.33722 9.2364 6.68963 9.99896 7.12013 10.7169C7.67467 11.7255 8.35713 12.6583 9.15057 13.4922L9.17419 13.5263L9.2116 13.5539L9.23522 13.5814L9.26278 13.6051C10.0997 14.4008 11.0347 15.0865 12.0453 15.6453C13.2003 16.274 13.9012 16.5713 14.3218 16.6947V16.7012C14.4452 16.7387 14.5574 16.7557 14.6703 16.7557C15.0288 16.7294 15.3682 16.5839 15.6343 16.3423C15.9585 16.054 16.2334 15.7146 16.4481 15.3376V15.331C16.6495 14.9517 16.5813 14.5927 16.2906 14.3499C15.7083 13.841 15.0788 13.389 14.4104 13C13.9628 12.7572 13.5081 12.9042 13.3237 13.1503L12.9306 13.6457C12.7291 13.8918 12.3629 13.8577 12.3629 13.8577L12.3524 13.8643C9.62175 13.1667 8.89332 10.4019 8.89332 10.4019C8.89332 10.4019 8.85919 10.0259 9.11185 9.83425L9.60403 9.43787C9.83963 9.24625 10.0037 8.79212 9.75103 8.3439C9.36477 7.67463 8.91373 7.04489 8.40441 6.46375C8.29306 6.32674 8.13685 6.23353 7.96341 6.20059L7.96472 6.2019ZM12.5792 5.00009C12.3031 5.00009 12.0792 5.22395 12.0792 5.50009C12.0792 5.77623 12.3031 6.00009 12.5792 6.00009C13.8437 6.00009 14.8944 6.41341 15.7245 7.20484C16.1518 7.63824 16.4844 8.15124 16.7028 8.71263C16.922 9.27613 17.0217 9.877 16.9961 10.4789C16.9844 10.7547 17.1985 10.9879 17.4744 10.9996C17.7503 11.0114 17.9835 10.7972 17.9952 10.5213C18.0267 9.7809 17.9039 9.04214 17.6347 8.35009C17.3655 7.65807 16.9558 7.02746 16.4307 6.49657L16.4207 6.48696C15.3907 5.50193 14.0851 5.00009 12.5792 5.00009ZM12.5452 6.64442C12.2691 6.64442 12.0452 6.86828 12.0452 7.14442C12.0452 7.42056 12.2691 7.64442 12.5452 7.64442H12.5615C13.474 7.70872 14.1379 8.01286 14.6034 8.5121C15.0799 9.02626 15.3267 9.66489 15.3084 10.4551C15.302 10.7311 15.5207 10.9601 15.7967 10.9665C16.0728 10.9729 16.3018 10.7543 16.3082 10.4782C16.3322 9.44071 15.9985 8.54607 15.3363 7.83174L15.3354 7.8308C14.6588 7.10472 13.7305 6.72061 12.6122 6.64554L12.5955 6.64442H12.5452ZM12.5263 8.31877C12.2505 8.30426 12.0152 8.51604 12.0007 8.7918C11.9862 9.06756 12.198 9.30287 12.4737 9.31739C12.8924 9.33943 13.1592 9.46499 13.327 9.63443C13.4956 9.8046 13.6216 10.0771 13.6446 10.5043C13.6595 10.7801 13.895 10.9916 14.1708 10.9767C14.4465 10.9619 14.658 10.7264 14.6432 10.4506C14.6109 9.85058 14.4231 9.32011 14.0376 8.93078C13.6513 8.54072 13.1238 8.35022 12.5263 8.31877Z" fill="#6C6D6D"/>
</svg>
