<svg width="24" height="24" viewBox="0 0 24 24" fill="none" xmlns="http://www.w3.org/2000/svg">
<path fill-rule="evenodd" clip-rule="evenodd" d="M11.9729 12.1399H11.9989C14.5359 12.1399 16.5999 10.0769 16.5999 7.54092C16.5999 5.00392 14.5359 2.94092 11.9989 2.94092C9.46294 2.94092 7.39894 5.00392 7.39894 7.53892C7.39294 10.0679 9.44294 12.1319 11.9729 12.1399ZM8.89894 7.54092C8.89894 5.83192 10.2899 4.44092 11.9989 4.44092C13.7089 4.44092 15.0999 5.83192 15.0999 7.54092C15.0999 9.24992 13.7089 10.6399 11.9989 10.6399H11.9749C10.2739 10.6339 8.89494 9.24492 8.89894 7.54092Z" fill="currentColor"/>
<path fill-rule="evenodd" clip-rule="evenodd" d="M5.24316 17.857C5.24316 21.059 10.3282 21.059 11.9992 21.059C13.6702 21.059 18.7552 21.059 18.7552 17.84C18.7552 15.413 15.7252 13.437 11.9992 13.437C8.27316 13.437 5.24316 15.419 5.24316 17.857ZM6.74316 17.857C6.74316 16.479 8.99116 14.937 11.9992 14.937C15.0072 14.937 17.2552 16.47 17.2552 17.84C17.2552 19.261 14.3962 19.559 11.9992 19.559C9.60216 19.559 6.74316 19.264 6.74316 17.857Z" fill="currentColor"/>
<path d="M18.3897 11.0825C18.0577 11.0825 17.7547 10.8615 17.6647 10.5265C17.5577 10.1265 17.7957 9.7155 18.1957 9.6075C19.1327 9.3565 19.7877 8.5025 19.7877 7.5305C19.7877 6.5135 19.0677 5.6275 18.0737 5.4255C17.6677 5.3425 17.4067 4.9455 17.4887 4.5395C17.5727 4.1345 17.9667 3.8785 18.3737 3.9545C20.0627 4.2995 21.2877 5.8035 21.2877 7.5305C21.2877 9.1805 20.1757 10.6305 18.5837 11.0575C18.5187 11.0745 18.4527 11.0825 18.3897 11.0825Z" fill="currentColor"/>
<path d="M20.1912 17.3991C20.2732 17.7451 20.5802 17.9771 20.9202 17.9771C20.9782 17.9771 21.0352 17.9701 21.0932 17.9571C22.1642 17.7051 22.9732 16.7501 22.9732 15.7371C22.9732 14.1661 21.0662 12.7361 18.9712 12.7361C18.5572 12.7361 18.2212 13.0721 18.2212 13.4861C18.2212 13.9001 18.5572 14.2361 18.9712 14.2361C20.4412 14.2361 21.4732 15.2091 21.4732 15.7371C21.4732 15.9841 21.2222 16.3861 20.7492 16.4971C20.3462 16.5921 20.0962 16.9961 20.1912 17.3991Z" fill="currentColor"/>
<path d="M5.61143 11.0825C5.54843 11.0825 5.48243 11.0745 5.41843 11.0575C3.82443 10.6315 2.71143 9.1815 2.71143 7.5305C2.71143 5.8035 3.93743 4.2995 5.62643 3.9545C6.03343 3.8785 6.42843 4.1345 6.51143 4.5395C6.59343 4.9455 6.33243 5.3425 5.92643 5.4255C4.93243 5.6275 4.21143 6.5135 4.21143 7.5305C4.21143 8.5025 4.86643 9.3565 5.80443 9.6075C6.20543 9.7155 6.44243 10.1265 6.33643 10.5255C6.24643 10.8615 5.94343 11.0825 5.61143 11.0825Z" fill="currentColor"/>
<path d="M2.90686 17.9571C2.96486 17.9711 3.02186 17.9771 3.07986 17.9771C3.41986 17.9771 3.72686 17.7451 3.80886 17.3991C3.90386 16.9961 3.65386 16.5911 3.25086 16.4971C2.77786 16.3861 2.52686 15.9841 2.52686 15.7371C2.52686 15.2091 3.55886 14.2361 5.02886 14.2361C5.44286 14.2361 5.77886 13.9001 5.77886 13.4861C5.77886 13.0721 5.44286 12.7361 5.02886 12.7361C2.93386 12.7361 1.02686 14.1661 1.02686 15.7371C1.02686 16.7501 1.83586 17.7061 2.90686 17.9571Z" fill="currentColor"/>
</svg>
