<svg width="24" height="24" viewBox="0 0 24 24" fill="none" xmlns="http://www.w3.org/2000/svg">
<path fill-rule="evenodd" clip-rule="evenodd" d="M9.87628 11.9864H9.90828C12.8213 11.9864 15.1913 9.61639 15.1913 6.70339C15.1913 3.79039 12.8213 1.42139 9.90828 1.42139C6.99528 1.42139 4.62528 3.79039 4.62528 6.70039C4.61528 9.60539 6.96928 11.9774 9.87628 11.9864ZM6.12528 6.70339C6.12528 4.61739 7.82228 2.92139 9.90828 2.92139C11.9943 2.92139 13.6913 4.61739 13.6913 6.70339C13.6913 8.78939 11.9943 10.4864 9.90828 10.4864H9.87928C7.80228 10.4804 6.11828 8.78339 6.12528 6.70339Z" fill="#484848"/>
<path fill-rule="evenodd" clip-rule="evenodd" d="M2.08667 18.9418C2.08667 22.2018 6.55067 22.5788 9.90867 22.5788C11.8437 22.5788 17.7307 22.5788 17.7307 18.9218C17.7307 16.1348 14.1487 13.7808 9.90867 13.7808C5.66867 13.7808 2.08667 16.1438 2.08667 18.9418ZM3.58667 18.9418C3.58667 17.2138 6.29067 15.2808 9.90867 15.2808C13.5267 15.2808 16.2307 17.2028 16.2307 18.9218C16.2307 20.3528 14.1037 21.0788 9.90867 21.0788C5.71367 21.0788 3.58667 20.3598 3.58667 18.9418Z" fill="#484848"/>
<path d="M19.1165 12.9097C18.7025 12.9097 18.3665 12.5737 18.3665 12.1597V10.9048H17.0735C16.6595 10.9048 16.3235 10.5688 16.3235 10.1548C16.3235 9.74079 16.6595 9.40479 17.0735 9.40479H18.3665V8.14966C18.3665 7.73566 18.7025 7.39966 19.1165 7.39966C19.5305 7.39966 19.8665 7.73566 19.8665 8.14966V9.40479H21.1635C21.5775 9.40479 21.9135 9.74079 21.9135 10.1548C21.9135 10.5688 21.5775 10.9048 21.1635 10.9048H19.8665V12.1597C19.8665 12.5737 19.5305 12.9097 19.1165 12.9097Z" fill="#484848"/>
</svg>
