<svg width="24" height="24" viewBox="0 0 24 24" fill="none" xmlns="http://www.w3.org/2000/svg">
<path fill-rule="evenodd" clip-rule="evenodd" d="M17.0398 14.8627C17.2278 14.4097 17.3938 13.9267 17.3938 13.4967C17.3938 13.1877 17.3088 12.9067 17.0848 12.6837C16.6194 12.2201 14.7608 11.9629 12.75 11.9123L12.75 3.69551C12.75 3.28151 12.414 2.94551 12 2.94551C11.586 2.94551 11.25 3.28151 11.25 3.69551L11.25 11.9127C9.24348 11.9642 7.39096 12.2215 6.92684 12.6847C6.36384 13.2487 6.65084 14.1817 6.96084 14.9347C7.61184 16.5077 10.3588 21.0547 12.0068 21.0547C13.7078 21.0547 16.4428 16.3047 17.0398 14.8627ZM15.8748 13.6847C15.6348 14.9807 12.9638 19.0477 12.0048 19.5337C11.0088 19.0497 8.31384 14.9817 8.11584 13.7087C9.36984 13.2957 14.6728 13.3027 15.8748 13.6847Z" fill="currentColor"/>
</svg>
