<svg width="24" height="24" viewBox="0 0 24 24" fill="none" xmlns="http://www.w3.org/2000/svg">
<path d="M10.1949 18.684C10.3069 18.746 10.4289 18.774 10.5489 18.774C10.8169 18.774 11.0739 18.631 11.2099 18.38C11.4059 18.015 11.2709 17.5601 10.9059 17.364C9.02474 16.349 6.195 14.3574 5.44043 12.7498L19.5004 12.7498C19.9144 12.7498 20.2504 12.4138 20.2504 11.9998C20.2504 11.5858 19.9144 11.2498 19.5004 11.2498L5.44204 11.2498C6.19903 9.6406 9.02608 7.65019 10.9059 6.63505C11.2709 6.43805 11.4059 5.98405 11.2099 5.61905C11.0129 5.25505 10.5559 5.12005 10.1949 5.31505C9.53394 5.67005 3.74994 8.87905 3.74994 12.002C3.74994 15.121 9.53394 18.329 10.1949 18.684Z" fill="#484848"/>
</svg>
