<svg width="24" height="24" viewBox="0 0 24 24" fill="none" xmlns="http://www.w3.org/2000/svg">
<path fill-rule="evenodd" clip-rule="evenodd" d="M14.8625 6.96017C14.4095 6.77217 13.9265 6.60617 13.4965 6.60617C13.1875 6.60617 12.9065 6.69117 12.6835 6.91517C12.2199 7.38058 11.9627 9.23922 11.9121 11.25L3.69531 11.25C3.28131 11.25 2.94531 11.586 2.94531 12C2.94531 12.414 3.28131 12.75 3.69531 12.75L11.9125 12.75C11.964 14.7565 12.2213 16.609 12.6845 17.0732C13.2485 17.6362 14.1815 17.3492 14.9345 17.0392C16.5075 16.3882 21.0545 13.6412 21.0545 11.9932C21.0545 10.2922 16.3045 7.55717 14.8625 6.96017ZM13.6845 8.12517C14.9805 8.36517 19.0475 11.0362 19.5335 11.9952C19.0495 12.9912 14.9815 15.6862 13.7085 15.8842C13.2955 14.6302 13.3025 9.32717 13.6845 8.12517Z" fill="currentColor"/>
</svg>
