<svg width="24" height="24" viewBox="0 0 24 24" fill="none" xmlns="http://www.w3.org/2000/svg">
<path fill-rule="evenodd" clip-rule="evenodd" d="M9.13731 17.0398C9.59031 17.2278 10.0733 17.3938 10.5033 17.3938C10.8123 17.3938 11.0933 17.3088 11.3163 17.0848C11.7799 16.6194 12.0371 14.7608 12.0877 12.75H20.3045C20.7185 12.75 21.0545 12.414 21.0545 12C21.0545 11.586 20.7185 11.25 20.3045 11.25H12.0873C12.0358 9.24346 11.7785 7.39095 11.3153 6.92683C10.7513 6.36383 9.81831 6.65083 9.06531 6.96083C7.49231 7.61183 2.94531 10.3588 2.94531 12.0068C2.94531 13.7078 7.69531 16.4428 9.13731 17.0398ZM10.3153 15.8748C9.01931 15.6348 4.95231 12.9638 4.46631 12.0048C4.95031 11.0088 9.01831 8.31383 10.2913 8.11583C10.7043 9.36983 10.6973 14.6728 10.3153 15.8748Z" fill="currentColor"/>
</svg>
