<svg width="24" height="24" viewBox="0 0 24 24" fill="none" xmlns="http://www.w3.org/2000/svg">
<path d="M13.8054 5.31595C13.6934 5.25395 13.5714 5.22595 13.4514 5.22595C13.1834 5.22595 12.9264 5.36895 12.7904 5.61995C12.5944 5.98495 12.7294 6.43995 13.0944 6.63595C14.9756 7.65095 17.8054 9.64262 18.5599 11.2502L4.49994 11.2502C4.08594 11.2502 3.74994 11.5862 3.74994 12.0002C3.74994 12.4142 4.08594 12.7502 4.49994 12.7502L18.5583 12.7502C17.8013 14.3594 14.9743 16.3498 13.0944 17.365C12.7294 17.562 12.5944 18.016 12.7904 18.381C12.9874 18.745 13.4444 18.88 13.8054 18.685C14.4664 18.33 20.2504 15.1209 20.2504 11.998C20.2504 8.87895 14.4664 5.67095 13.8054 5.31595Z" fill="#484848"/>
</svg>
