<svg width="24" height="24" viewBox="0 0 24 24" fill="none" xmlns="http://www.w3.org/2000/svg">
<path d="M18.6841 13.8052C18.7461 13.6932 18.7741 13.5712 18.7741 13.4512C18.7741 13.1832 18.6311 12.9262 18.3801 12.7902C18.0151 12.5942 17.5601 12.7292 17.3641 13.0942C16.3491 14.9754 14.3574 17.8052 12.7498 18.5598L12.7498 4.49976C12.7498 4.08576 12.4138 3.74976 11.9998 3.74976C11.5858 3.74976 11.2498 4.08576 11.2498 4.49976L11.2498 18.5581C9.64066 17.8012 7.65025 14.9741 6.63511 13.0942C6.43811 12.7292 5.98411 12.5942 5.61911 12.7902C5.25511 12.9872 5.12011 13.4442 5.31511 13.8052C5.67011 14.4662 8.87911 20.2502 12.0021 20.2502C15.1211 20.2502 18.3291 14.4662 18.6841 13.8052Z" fill="#484848"/>
</svg>
