<svg width="24" height="24" viewBox="0 0 24 24" fill="none" xmlns="http://www.w3.org/2000/svg">
<path fill-rule="evenodd" clip-rule="evenodd" d="M6.95996 9.13731C6.77196 9.59031 6.60596 10.0733 6.60596 10.5033C6.60596 10.8123 6.69096 11.0933 6.91496 11.3163C7.38037 11.7799 9.23901 12.0371 11.2498 12.0877L11.2498 20.3045C11.2498 20.7185 11.5858 21.0545 11.9998 21.0545C12.4138 21.0545 12.7498 20.7185 12.7498 20.3045L12.7498 12.0873C14.7563 12.0358 16.6088 11.7785 17.073 11.3153C17.636 10.7513 17.349 9.81831 17.039 9.06531C16.388 7.49231 13.641 2.94531 11.993 2.94531C10.292 2.94531 7.55696 7.69531 6.95996 9.13731ZM8.12496 10.3153C8.36496 9.01931 11.036 4.95231 11.995 4.46631C12.991 4.95031 15.686 9.01831 15.884 10.2913C14.63 10.7043 9.32696 10.6973 8.12496 10.3153Z" fill="currentColor"/>
</svg>
