<svg width="24" height="24" viewBox="0 0 24 24" fill="none" xmlns="http://www.w3.org/2000/svg">
<path fill-rule="evenodd" clip-rule="evenodd" d="M7.43793 6.42087C7.44392 3.91874 9.47634 1.89487 11.9794 1.89967C14.4811 1.90566 16.5052 3.93853 16.4999 6.44019C16.4999 6.44062 16.4999 6.44104 16.4999 6.44146L15.7499 6.43967L16.4999 6.44019V9.47167C16.4999 9.88588 16.1641 10.2217 15.7499 10.2217C15.3357 10.2217 14.9999 9.88588 14.9999 9.47167V6.43967L14.9999 6.43787C15.0039 4.76423 13.6501 3.40387 11.9765 3.39966C10.302 3.39665 8.94239 4.75025 8.93793 6.42361V9.47167C8.93793 9.88588 8.60214 10.2217 8.18793 10.2217C7.77371 10.2217 7.43793 9.88588 7.43793 9.47167L7.43793 6.42087Z" fill="currentColor"/>
<path fill-rule="evenodd" clip-rule="evenodd" d="M5.38527 9.28329C4.24829 10.1732 3.70001 11.6442 3.70001 14.2074C3.70001 16.7701 4.24827 18.2409 5.38524 19.1307C6.57928 20.0651 8.60344 20.5154 11.969 20.5154C15.3346 20.5154 17.3587 20.0651 18.5528 19.1307C19.6898 18.2409 20.238 16.7701 20.238 14.2074C20.238 11.6442 19.6897 10.1732 18.5528 9.28329C17.3587 8.34875 15.3346 7.89844 11.969 7.89844C8.60344 7.89844 6.5793 8.34875 5.38527 9.28329ZM4.46075 8.10208C6.08523 6.83063 8.57059 6.39844 11.969 6.39844C15.3674 6.39844 17.8528 6.83063 19.4773 8.10208C21.1588 9.41818 21.738 11.4767 21.738 14.2074C21.738 16.9377 21.1588 18.996 19.4772 20.3119C17.8528 21.5832 15.3674 22.0154 11.969 22.0154C8.57058 22.0154 6.08525 21.5832 4.46079 20.3119C2.77926 18.996 2.20001 16.9377 2.20001 14.2074C2.20001 11.4767 2.77924 9.41818 4.46075 8.10208Z" fill="currentColor"/>
</svg>
