<svg width="24" height="24" viewBox="0 0 24 24" fill="none" xmlns="http://www.w3.org/2000/svg">
<path d="M14.8923 12.1042H14.9383C15.3523 12.1042 15.6653 11.7682 15.6653 11.3542C15.6653 10.9402 15.3063 10.6042 14.8923 10.6042C14.4783 10.6042 14.1423 10.9402 14.1423 11.3542C14.1423 11.7682 14.4783 12.1042 14.8923 12.1042Z" fill="#484848"/>
<path d="M9.10728 12.1042H9.06128C8.64728 12.1042 8.31128 11.7682 8.31128 11.3542C8.31128 10.9402 8.64728 10.6042 9.06128 10.6042C9.47528 10.6042 9.83428 10.9402 9.83428 11.3542C9.83428 11.7682 9.52128 12.1042 9.10728 12.1042Z" fill="#484848"/>
<path fill-rule="evenodd" clip-rule="evenodd" d="M6.95516 6.2676C7.08759 5.11684 7.597 4.06622 8.42165 3.24927C9.38365 2.29527 10.6817 1.81427 12.0137 1.78027C14.6091 1.78027 16.7568 3.7453 17.0464 6.26802C18.8314 6.69446 20.0791 7.40952 20.8653 8.43589C21.9263 9.82089 22.1143 11.7049 21.4423 14.1979C19.9423 19.7609 18.9843 22.2199 12.0003 22.2199C5.01634 22.2199 4.05834 19.7609 2.55834 14.1979C1.88534 11.7049 2.07434 9.82089 3.13434 8.43589C3.92084 7.40919 5.16911 6.69399 6.95516 6.2676ZM15.4753 5.98444C15.0926 4.42963 13.6987 3.27942 11.9937 3.28027C11.0427 3.28027 10.1507 3.64627 9.47765 4.31427C9.0067 4.78105 8.68189 5.35623 8.52612 5.98426C9.54707 5.85112 10.7022 5.78589 12.0003 5.78589C13.2988 5.78589 14.4542 5.85118 15.4753 5.98444ZM4.32534 9.34889C5.38834 7.96089 7.89834 7.28589 12.0003 7.28589C16.1013 7.28589 18.6113 7.96089 19.6743 9.34889C20.4323 10.3369 20.5363 11.7959 19.9943 13.8069C18.5993 18.9779 18.1293 20.7199 12.0003 20.7199C5.87034 20.7199 5.40034 18.9779 4.00634 13.8069C3.46334 11.7959 3.56734 10.3369 4.32534 9.34889Z" fill="#484848"/>
</svg>
