<svg width="24" height="24" viewBox="0 0 24 24" fill="none" xmlns="http://www.w3.org/2000/svg">
<path fill-rule="evenodd" clip-rule="evenodd" d="M7.79248 9.21777C7.79248 8.80356 8.12827 8.46777 8.54248 8.46777H15.3975C15.8117 8.46777 16.1475 8.80356 16.1475 9.21777C16.1475 9.63199 15.8117 9.96777 15.3975 9.96777H8.54248C8.12827 9.96777 7.79248 9.63199 7.79248 9.21777Z" fill="currentColor"/>
<path fill-rule="evenodd" clip-rule="evenodd" d="M7.9588 2.02799C9.03824 1.80708 10.3689 1.75 11.9702 1.75C13.5716 1.75 14.9023 1.80708 15.9817 2.02799C17.0747 2.25168 17.9755 2.65608 18.6523 3.39749C19.3211 4.13015 19.6932 5.10742 19.9065 6.31915C20.1194 7.52872 20.1862 9.04736 20.1862 10.929C20.1862 11.6552 20.1875 12.337 20.1886 12.9766C20.1941 16.0013 20.1979 18.0807 20.0615 19.4369C19.9801 20.2461 19.8398 20.9329 19.5313 21.4262C19.3654 21.6915 19.145 21.9113 18.8589 22.0577C18.5779 22.2015 18.2812 22.25 17.9972 22.25C17.3485 22.25 16.7194 21.8931 16.2116 21.5403C15.7159 21.1959 15.1941 20.7499 14.7006 20.3282C14.6615 20.2948 14.6226 20.2615 14.5838 20.2284C14.0389 19.7633 13.5271 19.3339 13.0468 19.0186C12.5486 18.6915 12.1984 18.566 11.9702 18.566C11.7421 18.566 11.3919 18.6915 10.8937 19.0186C10.4134 19.3339 9.90158 19.7633 9.35667 20.2284C9.31793 20.2615 9.27899 20.2948 9.23987 20.3282C8.74641 20.7499 8.2246 21.1959 7.72889 21.5403C7.22111 21.8931 6.59202 22.25 5.94325 22.25C5.65927 22.25 5.36259 22.2015 5.0816 22.0577C4.79548 21.9113 4.57513 21.6915 4.40921 21.4262C4.10069 20.9329 3.96038 20.2461 3.87901 19.4369C3.74264 18.0807 3.74639 16.0013 3.75186 12.9766C3.75302 12.337 3.75425 11.6552 3.75425 10.929C3.75425 9.04736 3.82109 7.52872 4.03399 6.31915C4.24729 5.10742 4.6194 4.13015 5.2882 3.39749C5.96498 2.65608 6.86579 2.25168 7.9588 2.02799ZM5.51128 6.57919C5.32229 7.65291 5.25425 9.06214 5.25425 10.929C5.25425 11.6729 5.25307 12.3658 5.25198 13.011C5.24685 16.0367 5.24349 18.014 5.37149 19.2868C5.45037 20.0713 5.57005 20.4535 5.68097 20.6309C5.72477 20.7009 5.754 20.7168 5.76478 20.7223C5.78068 20.7305 5.82823 20.75 5.94325 20.75C6.09197 20.75 6.38664 20.6464 6.87298 20.3085C7.30412 20.0089 7.77052 19.6105 8.28259 19.1732C8.31581 19.1448 8.34922 19.1162 8.38283 19.0876C8.91692 18.6317 9.49861 18.1401 10.0704 17.7647C10.6244 17.401 11.2849 17.066 11.9702 17.066C12.6556 17.066 13.3161 17.401 13.8701 17.7647C14.4419 18.1401 15.0236 18.6317 15.5577 19.0876C15.5913 19.1162 15.6247 19.1448 15.6579 19.1731C16.17 19.6105 16.6364 20.0089 17.0675 20.3085C17.5539 20.6464 17.8485 20.75 17.9972 20.75C18.1123 20.75 18.1598 20.7305 18.1757 20.7223C18.1865 20.7168 18.2157 20.7009 18.2595 20.6309C18.3704 20.4535 18.4901 20.0713 18.569 19.2868C18.697 18.014 18.6937 16.0367 18.6885 13.0109C18.6874 12.3657 18.6862 11.6729 18.6862 10.929C18.6862 9.06214 18.6182 7.65291 18.4292 6.57919C18.2406 5.50764 17.9438 4.84622 17.5445 4.40876C17.1531 3.98004 16.5866 3.68288 15.681 3.49754C14.7617 3.30942 13.5624 3.25 11.9702 3.25C10.3781 3.25 9.17876 3.30942 8.25954 3.49754C7.35389 3.68288 6.7874 3.98004 6.39605 4.40876C5.99672 4.84622 5.6999 5.50764 5.51128 6.57919Z" fill="currentColor"/>
</svg>
