<svg width="24" height="24" viewBox="0 0 24 24" fill="none" xmlns="http://www.w3.org/2000/svg">
<path d="M13.02 10.892H15.793C16.207 10.892 16.543 10.556 16.543 10.142C16.543 9.72803 16.207 9.39203 15.793 9.39203H13.02C12.605 9.39203 12.27 9.72803 12.27 10.142C12.27 10.556 12.605 10.892 13.02 10.892Z" fill="#484848"/>
<path fill-rule="evenodd" clip-rule="evenodd" d="M12.3318 17.8023C12.5808 17.8093 12.8358 17.8133 13.0978 17.8133C15.0608 17.8133 17.3148 17.5823 18.8778 16.3673C20.5978 15.0303 21.7528 11.8943 21.4518 9.37534C21.2518 7.69834 20.4158 6.44834 19.0988 5.85534C18.1458 5.42534 17.1168 5.45834 16.2108 5.48934L16.2018 5.48964C16.0269 5.49554 15.8539 5.50137 15.6828 5.50334C14.6048 5.51734 13.5258 5.55034 12.4468 5.58834C10.4218 5.6602 8.39777 5.75597 6.37274 5.85178L6.36084 5.85234L6.31684 5.85434C6.31784 5.70234 6.31684 5.55234 6.31384 5.40534C6.36784 3.35334 4.58184 2.54234 3.62984 2.40034C3.22584 2.33634 2.83884 2.62134 2.77684 3.03134C2.71684 3.44134 2.99884 3.82234 3.40884 3.88334C3.46784 3.89234 4.84784 4.11334 4.81384 5.40334C4.83484 6.27134 4.76084 7.25034 4.68184 8.28634L4.68172 8.28802C4.45275 11.3076 4.19326 14.7296 6.45384 16.3393C8.15084 17.5483 10.4868 17.7563 12.3318 17.8023ZM6.18563 8.2984C6.20999 7.97954 6.23396 7.66572 6.25384 7.35934L6.43284 7.35134C8.45484 7.25534 10.4778 7.15934 12.4998 7.08734C13.5668 7.04934 14.6358 7.01734 15.7018 7.00334C15.8819 7.0004 16.0639 6.99459 16.2478 6.98872L16.2598 6.98834L16.2781 6.98778C17.0864 6.96297 17.8516 6.93948 18.4828 7.22334C19.3258 7.60234 19.8228 8.38634 19.9628 9.55234C20.1988 11.5383 19.2628 14.1693 17.9578 15.1823C16.5458 16.2803 14.0948 16.3493 12.3698 16.3033C10.7378 16.2623 8.69084 16.0903 7.32484 15.1183C5.75284 13.9983 5.96884 11.1523 6.17784 8.40034L6.18563 8.2984Z" fill="#484848"/>
<path d="M5.98816 20.3129C5.98816 21.0269 6.56916 21.6079 7.28416 21.6079C7.99816 21.6079 8.57816 21.0269 8.57816 20.3129C8.57816 19.5999 7.99816 19.0189 7.28416 19.0189C6.56916 19.0189 5.98816 19.5999 5.98816 20.3129Z" fill="#484848"/>
<path d="M16.3203 20.3129C16.3203 21.0269 16.9013 21.6079 17.6153 21.6079C18.3293 21.6079 18.9103 21.0269 18.9103 20.3129C18.9103 19.5999 18.3293 19.0189 17.6153 19.0189C16.9013 19.0189 16.3203 19.5999 16.3203 20.3129Z" fill="#484848"/>
</svg>
