<svg width="24" height="24" viewBox="0 0 24 24" fill="none" xmlns="http://www.w3.org/2000/svg">
<path fill-rule="evenodd" clip-rule="evenodd" d="M5.30894 6.06032C4.08225 7.2869 3.49976 9.33903 3.49976 12.7755C3.49976 16.2119 4.08225 18.264 5.30894 19.4906C6.53564 20.7172 8.58779 21.2995 12.0238 21.2995C15.4602 21.2995 17.5126 20.7172 18.7395 19.4906C19.9663 18.264 20.5488 16.2119 20.5488 12.7755C20.5488 9.33903 19.9663 7.28692 18.7395 6.06034C17.5126 4.83373 15.4602 4.25146 12.0238 4.25146C8.58779 4.25146 6.53564 4.83372 5.30894 6.06032ZM4.24832 4.99961C5.91987 3.32821 8.50472 2.75146 12.0238 2.75146C15.5433 2.75146 18.1284 3.3282 19.8 4.99959C21.4718 6.67101 22.0488 9.2559 22.0488 12.7755C22.0488 16.295 21.4718 18.8799 19.8 20.5513C18.1284 22.2227 15.5433 22.7995 12.0238 22.7995C8.50472 22.7995 5.91987 22.2227 4.24832 20.5513C2.57676 18.8799 1.99976 16.295 1.99976 12.7755C1.99976 9.2559 2.57676 6.67103 4.24832 4.99961Z" fill="#484848"/>
<path fill-rule="evenodd" clip-rule="evenodd" d="M2.27515 9.32397C2.27515 8.90976 2.61093 8.57397 3.02515 8.57397H21.0331C21.4474 8.57397 21.7831 8.90976 21.7831 9.32397C21.7831 9.73819 21.4474 10.074 21.0331 10.074H3.02515C2.61093 10.074 2.27515 9.73819 2.27515 9.32397Z" fill="#484848"/>
<path fill-rule="evenodd" clip-rule="evenodd" d="M15.6785 13.261C15.6785 12.8468 16.0143 12.511 16.4285 12.511H16.4375C16.8517 12.511 17.1875 12.8468 17.1875 13.261C17.1875 13.6752 16.8517 14.011 16.4375 14.011H16.4285C16.0143 14.011 15.6785 13.6752 15.6785 13.261Z" fill="#484848"/>
<path fill-rule="evenodd" clip-rule="evenodd" d="M11.2791 13.261C11.2791 12.8468 11.6148 12.511 12.0291 12.511H12.0381C12.4523 12.511 12.7881 12.8468 12.7881 13.261C12.7881 13.6752 12.4523 14.011 12.0381 14.011H12.0291C11.6148 14.011 11.2791 13.6752 11.2791 13.261Z" fill="#484848"/>
<path fill-rule="evenodd" clip-rule="evenodd" d="M6.87134 13.261C6.87134 12.8468 7.20712 12.511 7.62134 12.511H7.63034C8.04455 12.511 8.38034 12.8468 8.38034 13.261C8.38034 13.6752 8.04455 14.011 7.63034 14.011H7.62134C7.20712 14.011 6.87134 13.6752 6.87134 13.261Z" fill="#484848"/>
<path fill-rule="evenodd" clip-rule="evenodd" d="M15.6785 17.113C15.6785 16.6988 16.0143 16.363 16.4285 16.363H16.4375C16.8517 16.363 17.1875 16.6988 17.1875 17.113C17.1875 17.5273 16.8517 17.863 16.4375 17.863H16.4285C16.0143 17.863 15.6785 17.5273 15.6785 17.113Z" fill="#484848"/>
<path fill-rule="evenodd" clip-rule="evenodd" d="M11.2791 17.113C11.2791 16.6988 11.6148 16.363 12.0291 16.363H12.0381C12.4523 16.363 12.7881 16.6988 12.7881 17.113C12.7881 17.5273 12.4523 17.863 12.0381 17.863H12.0291C11.6148 17.863 11.2791 17.5273 11.2791 17.113Z" fill="#484848"/>
<path fill-rule="evenodd" clip-rule="evenodd" d="M6.87134 17.113C6.87134 16.6988 7.20712 16.363 7.62134 16.363H7.63034C8.04455 16.363 8.38034 16.6988 8.38034 17.113C8.38034 17.5273 8.04455 17.863 7.63034 17.863H7.62134C7.20712 17.863 6.87134 17.5273 6.87134 17.113Z" fill="#484848"/>
<path fill-rule="evenodd" clip-rule="evenodd" d="M16.033 1.30005C16.4472 1.30005 16.783 1.63584 16.783 2.05005V5.31205C16.783 5.72626 16.4472 6.06205 16.033 6.06205C15.6187 6.06205 15.283 5.72626 15.283 5.31205V2.05005C15.283 1.63584 15.6187 1.30005 16.033 1.30005Z" fill="#484848"/>
<path fill-rule="evenodd" clip-rule="evenodd" d="M8.02466 1.30005C8.43887 1.30005 8.77466 1.63584 8.77466 2.05005V5.31205C8.77466 5.72626 8.43887 6.06205 8.02466 6.06205C7.61044 6.06205 7.27466 5.72626 7.27466 5.31205V2.05005C7.27466 1.63584 7.61044 1.30005 8.02466 1.30005Z" fill="#484848"/>
</svg>
