<svg width="24" height="24" viewBox="0 0 24 24" fill="none" xmlns="http://www.w3.org/2000/svg">
<path d="M21.7038 10.1435C21.3268 10.1435 21.0028 9.86047 20.9598 9.47747C20.5798 6.10147 17.9568 3.48147 14.5808 3.10647C14.1698 3.06047 13.8728 2.69047 13.9188 2.27847C13.9638 1.86747 14.3328 1.56047 14.7468 1.61647C18.8238 2.06847 21.9918 5.23247 22.4498 9.30947C22.4968 9.72147 22.1998 10.0925 21.7888 10.1385C21.7608 10.1415 21.7318 10.1435 21.7038 10.1435Z" fill="#484848"/>
<path d="M18.1625 10.1542C17.8105 10.1542 17.4975 9.90623 17.4275 9.54823C17.1395 8.06823 15.9985 6.92723 14.5205 6.64023C14.1135 6.56123 13.8485 6.16823 13.9275 5.76123C14.0065 5.35423 14.4095 5.08923 14.8065 5.16823C16.8875 5.57223 18.4945 7.17823 18.8995 9.26023C18.9785 9.66823 18.7135 10.0612 18.3075 10.1402C18.2585 10.1492 18.2105 10.1542 18.1625 10.1542Z" fill="#484848"/>
<path fill-rule="evenodd" clip-rule="evenodd" d="M7.48215 16.4404C12.1952 21.1544 15.3332 22.3904 17.3152 22.3904C18.2932 22.3904 18.9912 22.0894 19.4562 21.7554C19.4772 21.7434 21.6292 20.4274 22.0062 18.4354C22.1842 17.5004 21.9242 16.5754 21.2562 15.7594C18.5042 12.4184 17.1022 12.7304 15.5542 13.4834C14.6032 13.9494 13.8522 14.3114 11.7312 12.1924C9.6114 10.0716 9.97707 9.32053 10.44 8.36969C11.194 6.82169 11.5042 5.41935 8.16215 2.66535C7.34815 2.00035 6.42915 1.74035 5.49515 1.91535C3.53215 2.28235 2.20815 4.39935 2.21015 4.39935C1.15815 5.87635 0.444153 9.40335 7.48215 16.4404ZM5.80115 3.38335C5.88915 3.36935 5.97615 3.36135 6.06215 3.36135C6.45415 3.36135 6.83215 3.51435 7.20915 3.82435C9.90413 6.04434 9.56316 6.74434 9.09116 7.71333C8.38216 9.17033 8.01115 10.5924 10.6702 13.2534C13.3322 15.9144 14.7552 15.5434 16.2102 14.8324L16.2126 14.8311C17.1804 14.3608 17.8801 14.0207 20.0972 16.7124C20.4762 17.1744 20.6212 17.6364 20.5392 18.1234C20.3502 19.2434 19.0482 20.2464 18.6542 20.4904C17.2432 21.4964 13.8462 20.6834 8.54215 15.3804C3.24015 10.0774 2.42615 6.68035 3.46815 5.21535C3.67615 4.87635 4.68315 3.57235 5.80115 3.38335Z" fill="#484848"/>
</svg>
