<svg width="24" height="24" viewBox="0 0 24 24" fill="none" xmlns="http://www.w3.org/2000/svg">
<path fill-rule="evenodd" clip-rule="evenodd" d="M3.66751 4.58512C3.66308 4.59174 3.66138 4.59428 3.66246 4.59235C3.64982 4.61482 3.63604 4.63661 3.62117 4.65765C3.4191 4.94345 3.09435 5.60277 3.33545 6.82373C3.58257 8.07511 4.43091 9.94247 6.67848 12.57C6.94773 12.8848 6.91083 13.3582 6.59606 13.6275C6.2813 13.8967 5.80786 13.8598 5.53861 13.5451C3.20021 10.8113 2.17966 8.71345 1.86387 7.11432C1.54559 5.50256 1.95138 4.43187 2.38209 3.81207C2.5378 3.56347 3.18137 2.65443 4.12081 1.99459C4.6346 1.63372 5.28532 1.31299 6.03001 1.2582C6.79857 1.20165 7.59137 1.43455 8.34504 2.05209L8.34698 2.05368L8.34698 2.05368C9.58861 3.07803 10.3478 3.92869 10.7492 4.69883C11.1746 5.51524 11.185 6.21696 11.0018 6.85075C10.9174 7.14298 10.7958 7.40726 10.6891 7.62927C10.665 7.67934 10.6419 7.72683 10.6198 7.77243C10.5367 7.94324 10.4666 8.08757 10.4053 8.24193C10.2662 8.59189 10.206 8.91473 10.3315 9.34333C10.4479 9.74084 10.22 10.1575 9.82252 10.2739C9.42501 10.3903 9.00838 10.1624 8.89196 9.76492C8.64593 8.92485 8.7886 8.24843 9.01127 7.68803C9.09534 7.47646 9.19638 7.26896 9.28182 7.09351C9.30122 7.05367 9.31982 7.01548 9.33723 6.97927C9.43881 6.768 9.51332 6.59866 9.56079 6.43438C9.64146 6.15517 9.65882 5.8523 9.41897 5.39209C9.15508 4.88575 8.5768 4.188 7.39343 3.21159C6.91658 2.8212 6.49857 2.72778 6.14008 2.75416C5.75748 2.78231 5.36474 2.95391 4.98296 3.22207C4.604 3.48824 4.27632 3.82129 4.03364 4.10653C3.82 4.35763 3.69421 4.54529 3.66751 4.58512Z" fill="#484848"/>
<path fill-rule="evenodd" clip-rule="evenodd" d="M11.0452 11.7939C11.3326 11.4956 11.8074 11.4867 12.1057 11.774C13.2883 12.9131 14.0178 13.1976 14.4777 13.237C14.9155 13.2746 15.2414 13.1172 15.7733 12.8604C15.808 12.8436 15.8437 12.8264 15.8803 12.8088C16.4495 12.535 17.2209 12.1987 18.229 12.5116C19.1655 12.8023 20.1768 13.6137 21.4423 15.1496L21.4436 15.1511C22.0631 15.9069 22.2979 16.7009 22.242 17.4707C22.1879 18.2168 21.8664 18.8679 21.5045 19.3815C20.8456 20.3165 19.9388 20.9557 19.6868 21.1137C18.9863 21.6103 17.725 22.0463 15.7905 21.4896C13.8718 20.9374 11.2971 19.4134 7.87371 16.0328C7.57898 15.7417 7.576 15.2669 7.86704 14.9722C8.15809 14.6774 8.63295 14.6744 8.92768 14.9655C12.2665 18.2626 14.6286 19.5944 16.2054 20.0481C17.7438 20.4908 18.5299 20.0997 18.8313 19.8814C18.8544 19.8646 18.8785 19.8492 18.9035 19.8352C18.9019 19.8361 18.9041 19.8346 18.9097 19.8309C18.9472 19.806 19.1377 19.6796 19.3923 19.4641C19.6782 19.2222 20.0119 18.8956 20.2783 18.5174C20.5467 18.1366 20.7182 17.7446 20.746 17.3621C20.772 17.0034 20.6778 16.5834 20.284 16.1027C19.0611 14.6188 18.2843 14.0994 17.7843 13.9442C17.356 13.8112 17.0427 13.9142 16.5305 14.1605C16.486 14.1819 16.4394 14.2049 16.3907 14.2289C15.9083 14.4665 15.219 14.8061 14.3495 14.7316C13.3856 14.6489 12.3459 14.0881 11.0651 12.8544C10.7668 12.567 10.7579 12.0922 11.0452 11.7939Z" fill="#484848"/>
<path fill-rule="evenodd" clip-rule="evenodd" d="M21.0303 2.46967C21.3232 2.76256 21.3232 3.23744 21.0303 3.53033L2.53033 22.0303C2.23744 22.3232 1.76256 22.3232 1.46967 22.0303C1.17678 21.7374 1.17678 21.2626 1.46967 20.9697L19.9697 2.46967C20.2626 2.17678 20.7374 2.17678 21.0303 2.46967Z" fill="#484848"/>
</svg>
