<svg width="24" height="24" viewBox="0 0 24 24" fill="none" xmlns="http://www.w3.org/2000/svg">
<path d="M15.6721 9.11157C15.4801 9.11157 15.2881 9.03857 15.1421 8.89157C14.8491 8.59857 14.8491 8.12457 15.1421 7.83157L17.6121 5.36157L15.1421 2.89157C14.8491 2.59857 14.8491 2.12457 15.1421 1.83157C15.4351 1.53857 15.9091 1.53857 16.2021 1.83157L18.6721 4.30157L21.1421 1.83157C21.4351 1.53857 21.9091 1.53857 22.2021 1.83157C22.4951 2.12457 22.4951 2.59857 22.2021 2.89157L19.7321 5.36157L22.2021 7.83157C22.4951 8.12457 22.4951 8.59857 22.2021 8.89157C22.0561 9.03857 21.8641 9.11157 21.6721 9.11157C21.4801 9.11157 21.2881 9.03857 21.1421 8.89157L18.6721 6.42157L16.2021 8.89157C16.0561 9.03857 15.8641 9.11157 15.6721 9.11157Z" fill="#484848"/>
<path fill-rule="evenodd" clip-rule="evenodd" d="M7.5146 16.4406C12.2236 21.1506 15.3606 22.3886 17.3456 22.3886C18.3266 22.3886 19.0276 22.0866 19.4956 21.7506C19.5176 21.7376 21.6786 20.4106 22.0416 18.4136C22.2116 17.4866 21.9506 16.5696 21.2876 15.7596C18.5336 12.4166 17.1316 12.7306 15.5846 13.4836C14.6346 13.9486 13.8836 14.3136 11.7626 12.1926C9.64285 10.0718 10.0085 9.32077 10.4714 8.36993C11.2264 6.82193 11.5366 5.4196 8.1946 2.6656C7.3806 2.0006 6.4616 1.7406 5.5236 1.9156C3.5576 2.2856 2.2406 4.3986 2.2426 4.3986C1.1906 5.8756 0.475603 9.4026 7.5146 16.4406ZM5.8326 3.3836C5.9206 3.3696 6.0076 3.3616 6.0936 3.3616C6.4866 3.3616 6.8646 3.5146 7.2416 3.8246C9.9366 6.0446 9.5956 6.7446 9.1226 7.7136C8.4126 9.1706 8.0416 10.5926 10.7016 13.2536C13.3636 15.9146 14.7856 15.5436 16.2416 14.8326L16.2441 14.8314C17.2118 14.361 17.9115 14.0209 20.1286 16.7126C20.5076 17.1746 20.6526 17.6346 20.5716 18.1196C20.3846 19.2346 19.0766 20.2466 18.6856 20.4906C17.2746 21.4966 13.8766 20.6836 8.5746 15.3806C3.2716 10.0776 2.4576 6.6796 3.5006 5.2136C3.7086 4.8756 4.7136 3.5726 5.8326 3.3836Z" fill="#484848"/>
</svg>
