<svg width="24" height="24" viewBox="0 0 24 24" fill="none" xmlns="http://www.w3.org/2000/svg">
<path fill-rule="evenodd" clip-rule="evenodd" d="M6.25917 3.23475C6.17317 3.23475 6.08617 3.24275 5.99817 3.25675C4.88017 3.44575 3.87317 4.74975 3.66517 5.08875C2.62317 6.55375 3.43717 9.95075 8.73917 15.2537C14.0432 20.5567 17.4402 21.3687 18.8512 20.3637C19.2452 20.1197 20.5472 19.1167 20.7362 17.9967C20.8182 17.5097 20.6732 17.0477 20.2942 16.5857C18.0772 13.8937 17.3752 14.2347 16.4082 14.7057C14.9522 15.4157 13.5302 15.7887 10.8672 13.1267C8.20818 10.4657 8.57917 9.04375 9.28817 7.58675C9.76017 6.61775 10.1012 5.91775 7.40617 3.69775C7.02917 3.38775 6.65118 3.23475 6.25917 3.23475ZM17.5122 22.2637C15.5302 22.2637 12.3922 21.0277 7.67917 16.3137C0.641174 9.27675 1.35517 5.74975 2.40717 4.27275C2.40517 4.27275 3.72917 2.15575 5.69217 1.78875C6.62617 1.61475 7.54517 1.87375 8.35917 2.53875C11.7012 5.29275 11.3912 6.69475 10.6372 8.24275C10.1742 9.19375 9.80818 9.94475 11.9282 12.0657C14.0492 14.1847 14.8012 13.8227 15.7512 13.3567C17.3002 12.6037 18.7012 12.2917 21.4532 15.6327C22.1212 16.4487 22.3812 17.3737 22.2032 18.3087C21.8262 20.3007 19.6742 21.6167 19.6532 21.6287C19.1882 21.9627 18.4902 22.2637 17.5122 22.2637Z" fill="currentColor"/>
</svg>
