<svg width="24" height="24" viewBox="0 0 24 24" fill="none" xmlns="http://www.w3.org/2000/svg">
<path fill-rule="evenodd" clip-rule="evenodd" d="M8.39758 12.4983C8.39758 10.3472 10.1418 8.60303 12.2928 8.60303C14.4439 8.60303 16.1881 10.3472 16.1881 12.4983C16.1881 14.6493 14.4439 16.3936 12.2928 16.3936C10.1418 16.3936 8.39758 14.6493 8.39758 12.4983ZM12.2928 10.103C10.9702 10.103 9.89758 11.1757 9.89758 12.4983C9.89758 13.8209 10.9702 14.8936 12.2928 14.8936C13.6155 14.8936 14.6881 13.8209 14.6881 12.4983C14.6881 11.1757 13.6155 10.103 12.2928 10.103Z" fill="#484848"/>
<path fill-rule="evenodd" clip-rule="evenodd" d="M14.1094 2.36839C14.6331 2.41861 15.1657 2.50133 15.5265 2.65306L15.5271 2.65333C16.2632 2.96372 16.6863 3.60507 16.9501 4.08364C17.0432 4.25255 17.1334 4.43465 17.2084 4.58612C17.239 4.64793 17.2671 4.70465 17.2918 4.75328C17.3955 4.95721 17.4498 5.03875 17.4739 5.06517L17.4749 5.06632C17.6193 5.22515 17.8033 5.329 17.9767 5.38563C19.6475 5.8501 20.7333 6.6643 21.3493 7.95538C21.9321 9.17692 22.0457 10.7384 22.0457 12.5665C22.0457 15.1552 21.8302 17.3712 20.3436 18.8702C18.8652 20.3609 16.3269 20.9502 12.2925 20.9502C8.2581 20.9502 5.71989 20.3609 4.24144 18.8702C2.75487 17.3712 2.53937 15.1552 2.53937 12.5665C2.53937 10.7384 2.65293 9.17692 3.23576 7.95538C3.85182 6.66419 4.9377 5.84996 6.6088 5.38551C6.78201 5.32919 6.96527 5.2257 7.11011 5.06632L7.11115 5.06517C7.13577 5.0382 7.1911 4.95498 7.29635 4.74911C7.32167 4.69959 7.3504 4.6419 7.38169 4.5791C7.45752 4.42685 7.54833 4.24454 7.64173 4.07565C7.90487 3.59984 8.33 2.9513 9.06522 2.65031L9.06613 2.64994C9.41887 2.50608 9.94443 2.42459 10.4657 2.37382C11.0147 2.32035 11.6527 2.29325 12.2852 2.29204C12.9174 2.29082 13.5572 2.31543 14.1094 2.36839ZM9.633 4.0387C9.40421 4.1326 9.19053 4.37455 8.95437 4.80158C8.87664 4.94213 8.81185 5.07239 8.74328 5.21023C8.70793 5.2813 8.67157 5.35438 8.63192 5.43193C8.53406 5.62336 8.398 5.88006 8.21974 6.07563C7.86453 6.4663 7.43369 6.69853 7.04813 6.81983C7.0397 6.82249 7.03121 6.82499 7.02269 6.82734C5.6526 7.20569 4.97617 7.79101 4.58956 8.60132C4.16791 9.48504 4.03937 10.7335 4.03937 12.5665C4.03937 15.2009 4.30281 16.8018 5.3065 17.8139C6.31832 18.8342 8.28168 19.4502 12.2925 19.4502C16.3034 19.4502 18.2667 18.8342 19.2785 17.8139C20.2822 16.8018 20.5457 15.2009 20.5457 12.5665C20.5457 10.7335 20.4171 9.48504 19.9955 8.60132C19.6089 7.79101 18.9325 7.20569 17.5624 6.82734C17.5536 6.82492 17.5448 6.82233 17.5362 6.81959C17.153 6.69858 16.721 6.46678 16.3654 6.07569C16.1866 5.87956 16.0515 5.62351 15.9547 5.43309C15.9157 5.35626 15.8799 5.28397 15.8452 5.21374C15.7774 5.07672 15.7135 4.94754 15.6365 4.80779C15.4051 4.38809 15.1894 4.13894 14.9445 4.03559C14.8145 3.98103 14.4868 3.91146 13.9662 3.86154C13.4736 3.81429 12.8841 3.79088 12.2881 3.79203C11.6922 3.79318 11.1029 3.81885 10.6111 3.86676C10.0919 3.91732 9.76317 3.98575 9.633 4.0387Z" fill="#484848"/>
<path fill-rule="evenodd" clip-rule="evenodd" d="M16.4545 9C16.4545 8.58579 16.7903 8.25 17.2045 8.25H17.2135C17.6277 8.25 17.9635 8.58579 17.9635 9C17.9635 9.41421 17.6277 9.75 17.2135 9.75H17.2045C16.7903 9.75 16.4545 9.41421 16.4545 9Z" fill="#484848"/>
</svg>
