<svg width="24" height="24" viewBox="0 0 24 24" fill="none" xmlns="http://www.w3.org/2000/svg">
<path fill-rule="evenodd" clip-rule="evenodd" d="M17.3266 3.75C15.7124 3.75 14.4037 5.05917 14.4037 6.6738C14.4037 8.28843 15.7124 9.5976 17.3266 9.5976C18.941 9.5976 20.2504 8.28819 20.2504 6.6738C20.2504 5.05941 18.941 3.75 17.3266 3.75ZM12.9037 6.6738C12.9037 4.23123 14.8835 2.25 17.3266 2.25C19.7694 2.25 21.7504 4.23099 21.7504 6.6738C21.7504 9.11661 19.7694 11.0976 17.3266 11.0976C14.8835 11.0976 12.9037 9.11637 12.9037 6.6738Z" fill="currentColor"/>
<path fill-rule="evenodd" clip-rule="evenodd" d="M6.6729 3.75C5.05953 3.75 3.75 5.05929 3.75 6.6738C3.75 8.28831 5.05953 9.5976 6.6729 9.5976C8.28807 9.5976 9.5967 8.28831 9.5967 6.6738C9.5967 5.05929 8.28807 3.75 6.6729 3.75ZM2.25 6.6738C2.25 4.23111 4.23087 2.25 6.6729 2.25C9.11673 2.25 11.0967 4.23111 11.0967 6.6738C11.0967 9.11649 9.11673 11.0976 6.6729 11.0976C4.23087 11.0976 2.25 9.11649 2.25 6.6738Z" fill="currentColor"/>
<path fill-rule="evenodd" clip-rule="evenodd" d="M17.3266 14.3381C15.7124 14.3381 14.4037 15.6473 14.4037 17.2619C14.4037 18.8763 15.7122 20.1848 17.3266 20.1848C18.9412 20.1848 20.2504 18.8761 20.2504 17.2619C20.2504 15.6475 18.941 14.3381 17.3266 14.3381ZM12.9037 17.2619C12.9037 14.8194 14.8835 12.8381 17.3266 12.8381C19.7694 12.8381 21.7504 14.8191 21.7504 17.2619C21.7504 19.705 19.7692 21.6848 17.3266 21.6848C14.8838 21.6848 12.9037 19.7047 12.9037 17.2619Z" fill="currentColor"/>
<path fill-rule="evenodd" clip-rule="evenodd" d="M6.6729 14.3381C5.05953 14.3381 3.75 15.6474 3.75 17.2619C3.75 18.8762 5.05929 20.1848 6.6729 20.1848C8.28831 20.1848 9.5967 18.8762 9.5967 17.2619C9.5967 15.6474 8.28807 14.3381 6.6729 14.3381ZM2.25 17.2619C2.25 14.8192 4.23087 12.8381 6.6729 12.8381C9.11673 12.8381 11.0967 14.8192 11.0967 17.2619C11.0967 19.7049 9.11649 21.6848 6.6729 21.6848C4.23111 21.6848 2.25 19.7049 2.25 17.2619Z" fill="currentColor"/>
</svg>
