<svg width="24" height="24" viewBox="0 0 24 24" fill="none" xmlns="http://www.w3.org/2000/svg">
<path fill-rule="evenodd" clip-rule="evenodd" d="M7.48303 9.51099C7.89725 9.51099 8.23303 9.84677 8.23303 10.261V16.9547C8.23303 17.3689 7.89725 17.7047 7.48303 17.7047C7.06882 17.7047 6.73303 17.3689 6.73303 16.9547V10.261C6.73303 9.84677 7.06882 9.51099 7.48303 9.51099Z" fill="currentColor"/>
<path fill-rule="evenodd" clip-rule="evenodd" d="M12.0368 6.30737C12.451 6.30737 12.7868 6.64316 12.7868 7.05737V16.9553C12.7868 17.3695 12.451 17.7053 12.0368 17.7053C11.6226 17.7053 11.2868 17.3695 11.2868 16.9553V7.05737C11.2868 6.64316 11.6226 6.30737 12.0368 6.30737Z" fill="currentColor"/>
<path fill-rule="evenodd" clip-rule="evenodd" d="M16.5157 13.0483C16.9299 13.0483 17.2657 13.3841 17.2657 13.7983V16.9552C17.2657 17.3694 16.9299 17.7052 16.5157 17.7052C16.1015 17.7052 15.7657 17.3694 15.7657 16.9552V13.7983C15.7657 13.3841 16.1015 13.0483 16.5157 13.0483Z" fill="currentColor"/>
<path fill-rule="evenodd" clip-rule="evenodd" d="M4.96045 4.96051C3.6614 6.25956 3.04999 8.42744 3.04999 12.0369C3.04999 15.6463 3.6614 17.8142 4.96045 19.1133C6.25949 20.4123 8.42738 21.0237 12.0368 21.0237C15.6463 21.0237 17.8142 20.4123 19.1132 19.1133C20.4123 17.8142 21.0237 15.6463 21.0237 12.0369C21.0237 8.42744 20.4123 6.25956 19.1132 4.96051C17.8142 3.66147 15.6463 3.05005 12.0368 3.05005C8.42738 3.05005 6.25949 3.66147 4.96045 4.96051ZM3.89979 3.89985C5.64364 2.156 8.34418 1.55005 12.0368 1.55005C15.7295 1.55005 18.43 2.156 20.1739 3.89985C21.9177 5.6437 22.5237 8.34424 22.5237 12.0369C22.5237 15.7295 21.9177 18.4301 20.1739 20.1739C18.43 21.9178 15.7295 22.5237 12.0368 22.5237C8.34418 22.5237 5.64364 21.9178 3.89979 20.1739C2.15594 18.4301 1.54999 15.7295 1.54999 12.0369C1.54999 8.34424 2.15594 5.6437 3.89979 3.89985Z" fill="currentColor"/>
</svg>
