<svg width="24" height="24" viewBox="0 0 24 24" fill="none" xmlns="http://www.w3.org/2000/svg">
<path fill-rule="evenodd" clip-rule="evenodd" d="M14.9394 12.4131C14.9394 11.8608 15.3871 11.4131 15.9394 11.4131H15.9484C16.5007 11.4131 16.9484 11.8608 16.9484 12.4131C16.9484 12.9654 16.5007 13.4131 15.9484 13.4131H15.9394C15.3871 13.4131 14.9394 12.9654 14.9394 12.4131Z" fill="#484848"/>
<path fill-rule="evenodd" clip-rule="evenodd" d="M10.9304 12.4131C10.9304 11.8608 11.3781 11.4131 11.9304 11.4131H11.9394C12.4916 11.4131 12.9394 11.8608 12.9394 12.4131C12.9394 12.9654 12.4916 13.4131 11.9394 13.4131H11.9304C11.3781 13.4131 10.9304 12.9654 10.9304 12.4131Z" fill="#484848"/>
<path fill-rule="evenodd" clip-rule="evenodd" d="M6.92139 12.4131C6.92139 11.8608 7.3691 11.4131 7.92139 11.4131H7.93039C8.48267 11.4131 8.93039 11.8608 8.93039 12.4131C8.93039 12.9654 8.48267 13.4131 7.93039 13.4131H7.92139C7.3691 13.4131 6.92139 12.9654 6.92139 12.4131Z" fill="#484848"/>
<path fill-rule="evenodd" clip-rule="evenodd" d="M18.5406 5.45733C14.9322 1.84756 9.06897 1.84756 5.46062 5.45733L5.46047 5.45748C2.63458 8.28282 2.02089 12.4709 3.60695 15.8984C3.61227 15.9099 3.61731 15.9215 3.62204 15.9333C3.71421 16.1623 3.71214 16.4218 3.70799 16.5686C3.70278 16.7529 3.6824 16.9652 3.65723 17.1812C3.63344 17.3854 3.60322 17.6104 3.57251 17.8391L3.56613 17.8867C3.53286 18.1345 3.49899 18.3889 3.46942 18.6437C3.40946 19.1604 3.37181 19.643 3.38856 20.029C3.39691 20.2214 3.41794 20.3639 3.44479 20.4616C3.45384 20.4945 3.46212 20.5172 3.46823 20.5318C3.48284 20.5379 3.5055 20.5462 3.53842 20.5552C3.63615 20.582 3.77872 20.603 3.97108 20.6114C4.35711 20.6281 4.83965 20.5904 5.35634 20.5305C5.6111 20.501 5.86549 20.4671 6.1133 20.4339L6.16053 20.4276C6.38931 20.3969 6.6144 20.3667 6.81867 20.3429C7.03465 20.3178 7.24696 20.2974 7.43122 20.2923C7.578 20.2881 7.83748 20.2861 8.06641 20.3783C8.0781 20.383 8.08967 20.388 8.10111 20.3933C11.5293 21.9787 15.7158 21.3658 18.5406 18.5396L18.5407 18.5396C22.1495 14.9302 22.1567 9.07296 18.5407 5.45746L18.5406 5.45733ZM19.6013 4.39674C15.4071 0.201042 8.59389 0.201088 4.39975 4.39687C1.13571 7.66041 0.414461 12.4848 2.2088 16.4479C2.20934 16.4654 2.20959 16.491 2.20859 16.5262C2.20529 16.6431 2.19115 16.803 2.16731 17.0076C2.14511 17.1982 2.11657 17.4107 2.08527 17.6438L2.07946 17.6871C2.04627 17.9344 2.01072 18.201 1.97942 18.4708C1.91765 19.0031 1.86781 19.5835 1.88997 20.094C1.90108 20.35 1.9311 20.6142 1.99843 20.8591C2.06422 21.0985 2.18061 21.3749 2.40296 21.5973L2.40331 21.5976C2.62572 21.8198 2.90206 21.936 3.14132 22.0017C3.3862 22.0689 3.65031 22.0989 3.90619 22.11C4.41665 22.1321 4.99685 22.0823 5.5291 22.0205C5.7988 21.9893 6.06543 21.9538 6.31266 21.9206L6.35558 21.9149C6.58877 21.8836 6.80137 21.8551 6.99202 21.8329C7.19666 21.8091 7.35648 21.795 7.47337 21.7917C7.50859 21.7907 7.53426 21.7909 7.55179 21.7915C11.5152 23.585 16.3381 22.8649 19.6014 19.6001C23.7951 15.4059 23.804 8.5989 19.6013 4.39674Z" fill="#484848"/>
</svg>
