<svg width="24" height="24" viewBox="0 0 24 24" fill="none" xmlns="http://www.w3.org/2000/svg">
<path d="M12.0005 13.145C11.5865 13.145 11.2505 12.809 11.2505 12.395V8.5C11.2505 8.086 11.5865 7.75 12.0005 7.75C12.4145 7.75 12.7505 8.086 12.7505 8.5V12.395C12.7505 12.809 12.4145 13.145 12.0005 13.145Z" fill="#484848"/>
<path d="M11.2495 15.895C11.2495 16.309 11.5905 16.645 12.0045 16.645C12.4185 16.645 12.7545 16.309 12.7545 15.895C12.7545 15.481 12.4185 15.145 12.0045 15.145H11.9955C11.5815 15.145 11.2495 15.481 11.2495 15.895Z" fill="#484848"/>
<path fill-rule="evenodd" clip-rule="evenodd" d="M12.0006 21.75C6.20657 21.75 2.36657 21.512 1.80557 18.334C1.42657 16.195 3.06857 12.936 4.72657 10.029L4.93557 9.661C7.97357 4.259 9.88857 2.25 12.0006 2.25C14.1136 2.25 16.0276 4.259 19.0646 9.661L19.2736 10.029C20.9316 12.936 22.5736 16.195 22.1946 18.334C21.6346 21.512 17.7946 21.75 12.0006 21.75ZM12.0006 3.75C10.5846 3.75 8.86157 5.738 6.24157 10.396L6.02857 10.772L6.02556 10.7773C5.18124 12.2594 2.94697 16.1813 3.28157 18.073C3.58057 19.762 5.53657 20.25 12.0006 20.25C18.4646 20.25 20.4206 19.762 20.7186 18.073C21.0532 16.1813 18.8189 12.2594 17.9746 10.7773L17.9716 10.772L17.7586 10.396C15.1396 5.738 13.4176 3.75 12.0006 3.75Z" fill="#484848"/>
</svg>
