<svg width="24" height="24" viewBox="0 0 24 24" fill="none" xmlns="http://www.w3.org/2000/svg">
<path fill-rule="evenodd" clip-rule="evenodd" d="M5.30374 5.30396C4.08077 6.52693 3.49979 8.5731 3.49979 12C3.49979 15.4269 4.08077 17.4731 5.30374 18.696C6.52671 19.919 8.57289 20.5 11.9998 20.5C15.4267 20.5 17.4729 19.919 18.6958 18.696C19.9188 17.4731 20.4998 15.4269 20.4998 12C20.4998 8.5731 19.9188 6.52693 18.6958 5.30396C17.4729 4.08098 15.4267 3.5 11.9998 3.5C8.57289 3.5 6.52671 4.08098 5.30374 5.30396ZM4.24308 4.24329C5.91086 2.57552 8.48969 2 11.9998 2C15.5099 2 18.0887 2.57552 19.7565 4.24329C21.4243 5.91107 21.9998 8.4899 21.9998 12C21.9998 15.5101 21.4243 18.0889 19.7565 19.7567C18.0887 21.4245 15.5099 22 11.9998 22C8.48969 22 5.91086 21.4245 4.24308 19.7567C2.5753 18.0889 1.99979 15.5101 1.99979 12C1.99979 8.4899 2.5753 5.91107 4.24308 4.24329Z" fill="currentColor"/>
<path fill-rule="evenodd" clip-rule="evenodd" d="M11.9998 7.35498C12.414 7.35498 12.7498 7.69077 12.7498 8.10498V12C12.7498 12.4142 12.414 12.75 11.9998 12.75C11.5856 12.75 11.2498 12.4142 11.2498 12V8.10498C11.2498 7.69077 11.5856 7.35498 11.9998 7.35498Z" fill="currentColor"/>
<path fill-rule="evenodd" clip-rule="evenodd" d="M11.2455 15.5C11.2455 15.0858 11.5813 14.75 11.9955 14.75H12.0045C12.4187 14.75 12.7545 15.0858 12.7545 15.5C12.7545 15.9142 12.4187 16.25 12.0045 16.25H11.9955C11.5813 16.25 11.2455 15.9142 11.2455 15.5Z" fill="currentColor"/>
</svg>
