<svg width="24" height="24" viewBox="0 0 24 24" fill="none" xmlns="http://www.w3.org/2000/svg">
<path fill-rule="evenodd" clip-rule="evenodd" d="M7.81166 5.77466C7.85456 5.07987 8.05238 4.08786 8.74916 3.28657C9.48616 2.43757 10.5802 2.00757 11.9992 2.00757C13.4192 2.00757 14.5122 2.43757 15.2502 3.28657C15.9468 4.08769 16.1443 5.07981 16.187 5.77466H20.0756C20.4896 5.77466 20.8256 6.11066 20.8256 6.52466C20.8256 6.93866 20.4896 7.27466 20.0756 7.27466H3.92456C3.51056 7.27466 3.17456 6.93866 3.17456 6.52466C3.17456 6.11066 3.51056 5.77466 3.92456 5.77466H7.81166ZM14.6842 5.77466C14.6464 5.32276 14.5136 4.72145 14.1122 4.26357C13.6722 3.76157 12.9612 3.50757 11.9992 3.50757C11.0382 3.50757 10.3272 3.76157 9.88616 4.26357C9.48476 4.72145 9.35218 5.32276 9.31447 5.77466H14.6842Z" fill="currentColor"/>
<path d="M11.989 21.9924C9.03002 21.9924 7.20802 21.4794 6.08202 20.3314C4.49397 18.7124 4.54596 16.0586 4.6179 12.387L4.61802 12.3804C4.63502 11.5194 4.65302 10.5934 4.65302 9.59741C4.65302 9.18341 4.98902 8.84741 5.40302 8.84741C5.81702 8.84741 6.15302 9.18341 6.15302 9.59741C6.15302 10.6034 6.13502 11.5404 6.11702 12.4104C6.05002 15.8434 6.00602 18.1104 7.15302 19.2804C7.96302 20.1074 9.50002 20.4924 11.989 20.4924C14.483 20.4924 16.023 20.1054 16.837 19.2764C17.991 18.0995 17.948 15.8187 17.883 12.366L17.8812 12.2693C17.8657 11.4405 17.849 10.5495 17.849 9.59741C17.849 9.18341 18.185 8.84741 18.599 8.84741C19.013 8.84741 19.349 9.18341 19.349 9.59741C19.349 10.5764 19.366 11.4884 19.383 12.3374L19.3832 12.3451C19.4521 16.0351 19.5019 18.7025 17.907 20.3274C16.778 21.4784 14.952 21.9924 11.989 21.9924Z" fill="currentColor"/>
</svg>
