<svg width="24" height="24" viewBox="0 0 24 24" fill="none" xmlns="http://www.w3.org/2000/svg">
<path fill-rule="evenodd" clip-rule="evenodd" d="M4.24329 4.24329C5.91107 2.57552 8.4899 2 12 2C15.5101 2 18.0889 2.57552 19.7567 4.24329C21.4245 5.91107 22 8.4899 22 12C22 15.5101 21.4245 18.0889 19.7567 19.7567C18.0889 21.4245 15.5101 22 12 22C8.4899 22 5.91107 21.4245 4.24329 19.7567C2.57552 18.0889 2 15.5101 2 12C2 8.4899 2.57552 5.91107 4.24329 4.24329ZM5.30396 5.30396C4.08098 6.52693 3.5 8.5731 3.5 12C3.5 15.4269 4.08098 17.4731 5.30396 18.696C6.52693 19.919 8.5731 20.5 12 20.5C15.4269 20.5 17.4731 19.919 18.696 18.696C19.919 17.4731 20.5 15.4269 20.5 12C20.5 8.5731 19.919 6.52693 18.696 5.30396C17.4731 4.08098 15.4269 3.5 12 3.5C8.5731 3.5 6.52693 4.08098 5.30396 5.30396Z" fill="#484848"/>
<path fill-rule="evenodd" clip-rule="evenodd" d="M15.8321 8.16795C16.0295 8.36531 16.1009 8.65593 16.0175 8.92228L14.4435 13.9513C14.3701 14.1858 14.1864 14.3696 13.9519 14.443L8.92188 16.018C8.65552 16.1014 8.36487 16.03 8.16749 15.8326C7.97011 15.6353 7.89864 15.3447 7.982 15.0783L9.556 10.0483C9.62942 9.81365 9.81317 9.62991 10.0478 9.55649L15.0778 7.98249C15.3442 7.89914 15.6348 7.97059 15.8321 8.16795ZM10.8703 10.8708L9.84164 14.1582L13.1292 13.1288L14.1579 9.84207L10.8703 10.8708Z" fill="#484848"/>
</svg>
