<svg width="24" height="24" viewBox="0 0 24 24" fill="none" xmlns="http://www.w3.org/2000/svg">
<path fill-rule="evenodd" clip-rule="evenodd" d="M7.62573 15.6963C7.62573 15.2821 7.96152 14.9463 8.37573 14.9463H15.5957C16.0099 14.9463 16.3457 15.2821 16.3457 15.6963C16.3457 16.1105 16.0099 16.4463 15.5957 16.4463H8.37573C7.96152 16.4463 7.62573 16.1105 7.62573 15.6963Z" fill="#484848"/>
<path fill-rule="evenodd" clip-rule="evenodd" d="M7.62573 11.9365C7.62573 11.5223 7.96152 11.1865 8.37573 11.1865H15.5957C16.0099 11.1865 16.3457 11.5223 16.3457 11.9365C16.3457 12.3507 16.0099 12.6865 15.5957 12.6865H8.37573C7.96152 12.6865 7.62573 12.3507 7.62573 11.9365Z" fill="#484848"/>
<path fill-rule="evenodd" clip-rule="evenodd" d="M7.62598 8.17725C7.62598 7.76303 7.96176 7.42725 8.37598 7.42725H11.131C11.5452 7.42725 11.881 7.76303 11.881 8.17725C11.881 8.59146 11.5452 8.92725 11.131 8.92725H8.37598C7.96176 8.92725 7.62598 8.59146 7.62598 8.17725Z" fill="#484848"/>
<path fill-rule="evenodd" clip-rule="evenodd" d="M4.89011 4.26972C6.42204 2.58093 8.79844 2 12.001 2C15.204 2 17.5804 2.58091 19.1123 4.26975C20.624 5.93649 21.142 8.50173 21.142 12C21.142 15.4983 20.624 18.0635 19.1123 19.7303C17.5804 21.4191 15.204 22 12.001 22C8.79844 22 6.42204 21.4191 4.89011 19.7303C3.37819 18.0636 2.85999 15.4983 2.85999 12C2.85999 8.50166 3.37819 5.93645 4.89011 4.26972ZM6.00111 5.27753C4.89078 6.50155 4.35999 8.56134 4.35999 12C4.35999 15.4387 4.89078 17.4984 6.00111 18.7225C7.09143 19.9244 8.91053 20.5 12.001 20.5C15.092 20.5 16.911 19.9244 18.0012 18.7225C19.1114 17.4985 19.642 15.4387 19.642 12C19.642 8.56127 19.1114 6.50151 18.0012 5.2775C16.911 4.07559 15.092 3.5 12.001 3.5C8.91053 3.5 7.09143 4.07557 6.00111 5.27753Z" fill="#484848"/>
</svg>
