<svg width="24" height="24" viewBox="0 0 24 24" fill="none" xmlns="http://www.w3.org/2000/svg">
<path fill-rule="evenodd" clip-rule="evenodd" d="M11.8791 2C12.2933 2 12.6291 2.33579 12.6291 2.75V14.791C12.6291 15.2052 12.2933 15.541 11.8791 15.541C11.4649 15.541 11.1291 15.2052 11.1291 14.791V2.75C11.1291 2.33579 11.4649 2 11.8791 2Z" fill="currentColor"/>
<path fill-rule="evenodd" clip-rule="evenodd" d="M8.43386 11.3328C8.72736 11.0405 9.20223 11.0415 9.49452 11.335L11.8791 13.7294L14.2637 11.335C14.556 11.0415 15.0308 11.0405 15.3243 11.3328C15.6178 11.6251 15.6188 12.1 15.3265 12.3935L12.4105 15.3215C12.2698 15.4628 12.0786 15.5423 11.8791 15.5423C11.6797 15.5423 11.4884 15.4628 11.3477 15.3215L8.43169 12.3935C8.1394 12.1 8.14037 11.6251 8.43386 11.3328Z" fill="currentColor"/>
<path fill-rule="evenodd" clip-rule="evenodd" d="M15.6235 7.18973C15.6615 6.77727 16.0267 6.47373 16.4392 6.51176C18.2864 6.68209 19.7854 7.12881 20.755 8.43702C21.6846 9.69132 22.0003 11.5811 22.0003 14.2586C22.0003 17.808 21.4435 19.9903 19.6199 21.1102C18.7508 21.6439 17.6745 21.8798 16.4425 21.9944C15.2153 22.1086 13.741 22.1086 12.0319 22.1086H11.9687C10.2591 22.1086 8.78458 22.1086 7.55729 21.9944C6.32516 21.8798 5.24889 21.6439 4.37989 21.1102C2.55658 19.9902 2.00031 17.8079 2.00031 14.2586C2.00031 11.5812 2.31576 9.69138 3.24521 8.43707C4.21466 7.12879 5.71375 6.68208 7.56146 6.51176C7.97393 6.47374 8.33912 6.77729 8.37714 7.18975C8.41516 7.60222 8.11161 7.96741 7.69915 8.00543C5.96686 8.16511 5.02595 8.5534 4.4504 9.33012C3.83485 10.1608 3.50031 11.606 3.50031 14.2586C3.50031 17.8093 4.09854 19.177 5.16497 19.832C5.74085 20.1858 6.54326 20.3936 7.69623 20.5009C8.84647 20.6079 10.2529 20.6086 12.0003 20.6086C13.7473 20.6086 15.1534 20.6079 16.3035 20.5009C17.4564 20.3936 18.2589 20.1858 18.8349 19.832C19.9016 19.1769 20.5003 17.8091 20.5003 14.2586C20.5003 11.6061 20.1655 10.1609 19.5499 9.33017C18.9742 8.55338 18.0332 8.1651 16.3014 8.00543C15.889 7.9674 15.5854 7.6022 15.6235 7.18973Z" fill="currentColor"/>
</svg>
