<svg width="24" height="24" viewBox="0 0 24 24" fill="none" xmlns="http://www.w3.org/2000/svg">
<path fill-rule="evenodd" clip-rule="evenodd" d="M16.058 11.1918L17.2852 9.55689C17.8932 8.74689 18.1492 7.7489 18.0062 6.74589C17.8632 5.74289 17.3392 4.85689 16.5292 4.24889C14.8582 2.99489 12.4762 3.33189 11.2212 5.00489L4.46919 13.9999C2.45719 16.6829 4.24719 19.8789 4.32419 20.0139C4.42819 20.1949 4.60319 20.3239 4.80719 20.3709C4.86519 20.3849 5.42519 20.5089 6.20619 20.5089C7.46919 20.5089 9.30719 20.1859 10.5332 18.5519L15.9018 11.3999C15.933 11.3705 15.9621 11.3381 15.9887 11.3027C16.0154 11.2672 16.0385 11.2301 16.058 11.1918ZM5.47719 18.9619C6.25819 19.0569 8.22819 19.1239 9.33319 17.6509L14.3293 10.9951L10.6646 8.24362L5.66819 14.8999C4.54119 16.4039 5.16119 18.2449 5.47719 18.9619ZM11.5648 7.04449L15.23 9.79514L16.0852 8.65589C16.8442 7.6459 16.6392 6.20689 15.6292 5.44789C14.6182 4.69089 13.1782 4.8959 12.4202 5.90489L11.5648 7.04449Z" fill="#484848"/>
<path d="M19.733 20.2471H13.356C12.942 20.2471 12.606 19.9111 12.606 19.4971C12.606 19.0831 12.942 18.7471 13.356 18.7471H19.733C20.147 18.7471 20.483 19.0831 20.483 19.4971C20.483 19.9111 20.147 20.2471 19.733 20.2471Z" fill="#484848"/>
</svg>
