<svg width="24" height="24" viewBox="0 0 24 24" fill="none" xmlns="http://www.w3.org/2000/svg">
<path fill-rule="evenodd" clip-rule="evenodd" d="M3.26135 17.2444C3.26135 16.8302 3.59714 16.4944 4.01135 16.4944H10.4839C10.8981 16.4944 11.2339 16.8302 11.2339 17.2444C11.2339 17.6586 10.8981 17.9944 10.4839 17.9944H4.01135C3.59714 17.9944 3.26135 17.6586 3.26135 17.2444Z" fill="#484848"/>
<path fill-rule="evenodd" clip-rule="evenodd" d="M14.6105 14.5885C15.2582 13.9409 16.205 13.7737 17.267 13.7737C18.3289 13.7737 19.2757 13.9409 19.9234 14.5885C20.5713 15.2361 20.7387 16.183 20.7387 17.2455C20.7387 18.308 20.5713 19.2548 19.9234 19.9024C19.2757 20.55 18.3289 20.7173 17.267 20.7173C16.205 20.7173 15.2582 20.55 14.6105 19.9024C13.9627 19.2548 13.7952 18.308 13.7952 17.2455C13.7952 16.183 13.9627 15.2361 14.6105 14.5885ZM15.671 15.6493C15.4681 15.8521 15.2952 16.2662 15.2952 17.2455C15.2952 18.2248 15.4681 18.6388 15.671 18.8416C15.8739 19.0445 16.288 19.2173 17.267 19.2173C18.2459 19.2173 18.66 19.0445 18.8629 18.8416C19.0658 18.6388 19.2387 18.2248 19.2387 17.2455C19.2387 16.2662 19.0658 15.8521 18.8629 15.6493C18.66 15.4465 18.2459 15.2737 17.267 15.2737C16.288 15.2737 15.8739 15.4465 15.671 15.6493Z" fill="#484848"/>
<path fill-rule="evenodd" clip-rule="evenodd" d="M12.7668 6.75586C12.7668 6.34165 13.1026 6.00586 13.5168 6.00586H19.9884C20.4026 6.00586 20.7384 6.34165 20.7384 6.75586C20.7384 7.17007 20.4026 7.50586 19.9884 7.50586H13.5168C13.1026 7.50586 12.7668 7.17007 12.7668 6.75586Z" fill="#484848"/>
<path fill-rule="evenodd" clip-rule="evenodd" d="M4.0764 4.09787C4.72422 3.45022 5.67114 3.28271 6.73367 3.28271C7.79582 3.28271 8.74253 3.45024 9.39023 4.09794C10.0379 4.74564 10.2055 5.69236 10.2055 6.7545C10.2055 7.817 10.038 8.76383 9.39016 9.41147C8.7424 10.0591 7.79562 10.2263 6.73367 10.2263C5.67135 10.2263 4.72435 10.0591 4.07647 9.41154C3.42847 8.76389 3.26099 7.81699 3.26099 6.7545C3.26099 5.69236 3.42851 4.74559 4.0764 4.09787ZM5.13692 5.15867C4.93391 5.36163 4.76099 5.77575 4.76099 6.7545C4.76099 7.73381 4.93395 8.14781 5.13685 8.3506C5.33985 8.5535 5.7542 8.72629 6.73367 8.72629C7.71262 8.72629 8.12673 8.55352 8.32964 8.35067C8.5325 8.14786 8.70546 7.7338 8.70546 6.7545C8.70546 5.77576 8.53254 5.36158 8.32957 5.1586C8.1266 4.95563 7.71242 4.78271 6.73367 4.78271C5.75441 4.78271 5.33999 4.95566 5.13692 5.15867Z" fill="#484848"/>
</svg>
