<svg width="24" height="24" viewBox="0 0 24 24" fill="none" xmlns="http://www.w3.org/2000/svg">
<path d="M7.19458 15.4756H16.7876C17.2016 15.4756 17.5376 15.1396 17.5376 14.7256C17.5376 14.3116 17.2016 13.9756 16.7876 13.9756H7.19458C6.78058 13.9756 6.44458 14.3116 6.44458 14.7256C6.44458 15.1396 6.78058 15.4756 7.19458 15.4756Z" fill="#484848"/>
<path fill-rule="evenodd" clip-rule="evenodd" d="M1.63989 14.0154C1.63989 21.5054 6.12989 22.1004 11.9999 22.1004C17.8699 22.1004 22.3599 21.5054 22.3599 13.9884C22.3599 12.1664 22.3599 9.11842 20.4749 7.08442C19.3019 5.81842 17.7799 5.84742 16.5579 5.87142C15.8209 5.88742 15.1229 5.89942 14.6599 5.63642C14.0779 5.30542 13.8799 4.93642 13.6299 4.46942C13.3429 3.93142 12.9839 3.26242 12.0379 2.75242C10.3589 1.84642 8.39489 1.66842 5.86089 2.18942C3.29689 2.71542 1.63989 4.97642 1.63989 7.94942V14.0154ZM6.16289 3.65842C6.99589 3.48742 7.75089 3.40142 8.44189 3.40142C9.54989 3.40142 10.4929 3.62342 11.3259 4.07242C11.8753 4.3691 12.0565 4.70768 12.3071 5.17589L12.3084 5.17842C12.5993 5.72025 12.9615 6.39476 13.9189 6.94042C14.7322 7.40208 15.6594 7.38675 16.5614 7.37184L16.5869 7.37142C17.6979 7.34842 18.6589 7.33242 19.3749 8.10342C20.8599 9.70642 20.8599 12.2824 20.8599 14.0154C20.8599 19.9514 18.0229 20.6004 11.9999 20.6004C5.83889 20.6004 3.13989 19.9774 3.13989 14.0154V7.94942C3.13989 6.17542 3.93389 4.11542 6.16289 3.65842Z" fill="#484848"/>
</svg>
