<svg width="24" height="24" viewBox="0 0 24 24" fill="none" xmlns="http://www.w3.org/2000/svg">
<path d="M8.24048 15.8748C8.24048 16.2888 8.57648 16.6248 8.99048 16.6248C9.40448 16.6248 9.74048 16.2888 9.74048 15.8748V14.8367H10.8147C11.2287 14.8367 11.5647 14.5007 11.5647 14.0867C11.5647 13.6727 11.2287 13.3367 10.8147 13.3367H9.74048V12.2998C9.74048 11.8858 9.40448 11.5498 8.99048 11.5498C8.57648 11.5498 8.24048 11.8858 8.24048 12.2998V13.3367H7.16675C6.75275 13.3367 6.41675 13.6727 6.41675 14.0867C6.41675 14.5007 6.75275 14.8367 7.16675 14.8367H8.24048V15.8748Z" fill="#484848"/>
<path d="M15.2126 13.1584H15.1106C14.6966 13.1584 14.3606 12.8224 14.3606 12.4084C14.3606 11.9944 14.6966 11.6584 15.1106 11.6584H15.2126C15.6266 11.6584 15.9626 11.9944 15.9626 12.4084C15.9626 12.8224 15.6266 13.1584 15.2126 13.1584Z" fill="#484848"/>
<path d="M16.8406 16.5706H16.9436C17.3576 16.5706 17.6936 16.2346 17.6936 15.8206C17.6936 15.4066 17.3576 15.0706 16.9436 15.0706H16.8406C16.4266 15.0706 16.0906 15.4066 16.0906 15.8206C16.0906 16.2346 16.4266 16.5706 16.8406 16.5706Z" fill="#484848"/>
<path fill-rule="evenodd" clip-rule="evenodd" d="M11.8338 5.96885C4.35662 5.99997 1.7019 8.14861 1.7019 14.1325C1.7019 20.1595 4.3959 22.2965 11.9999 22.2965C19.6029 22.2965 22.2979 20.1595 22.2979 14.1325C22.2979 8.4713 19.9209 6.24286 13.3338 5.99263V5.70137C13.3128 4.19037 12.0498 2.99137 10.5638 2.98337H9.54878C9.53063 2.97863 9.51088 2.97399 9.49008 2.96911C9.38363 2.94414 9.24961 2.91269 9.16178 2.82737C9.05878 2.72637 9.00078 2.59137 8.99978 2.44737C8.99678 2.03437 8.66178 1.70337 8.24978 1.70337H8.24378C7.82978 1.70637 7.49678 2.04537 7.49978 2.45937C7.50378 3.00537 7.72178 3.51637 8.11178 3.89937C8.50178 4.28037 8.99378 4.46737 9.55578 4.48337H10.5698C11.2638 4.46637 11.8248 5.03337 11.8338 5.71137V5.96885ZM3.2019 14.1325C3.2019 9.02551 5.2569 7.46851 11.9999 7.46851C18.7419 7.46851 20.7979 9.02551 20.7979 14.1325C20.7979 19.2395 18.7419 20.7965 11.9999 20.7965C5.2569 20.7965 3.2019 19.2395 3.2019 14.1325Z" fill="#484848"/>
</svg>
