<svg width="24" height="24" viewBox="0 0 24 24" fill="none" xmlns="http://www.w3.org/2000/svg">
<path fill-rule="evenodd" clip-rule="evenodd" d="M3.58279 20.4173C3.72879 20.5643 3.92079 20.6373 4.11279 20.6373C4.30479 20.6373 4.49679 20.5643 4.64279 20.4173L6.8693 18.1908C6.92208 18.1507 6.97024 18.103 7.01201 18.0481L20.4168 4.6433C20.7098 4.3503 20.7098 3.8753 20.4168 3.5823C20.1238 3.2893 19.6498 3.2893 19.3568 3.5823L17.4787 5.46054C15.8036 4.47214 13.9202 3.95239 11.9958 3.95239C6.45585 3.95239 1.99585 8.35639 1.99585 12.0024C1.99585 13.9521 3.25178 16.1086 5.25638 17.6836L3.58279 19.3573C3.28979 19.6503 3.28979 20.1243 3.58279 20.4173ZM6.32619 16.6137C4.61299 15.3187 3.49585 13.522 3.49585 12.0024C3.49585 9.05439 7.41785 5.45239 11.9958 5.45239C13.5225 5.45239 15.0206 5.83377 16.3776 6.5617L14.1842 8.75519C13.5423 8.3229 12.7766 8.08398 11.9977 8.08398H11.9887C10.9437 8.08598 9.96272 8.49498 9.22472 9.23498C8.48772 9.97498 8.08272 10.958 8.08572 11.998C8.0827 12.7781 8.32084 13.5446 8.75435 14.1854L6.32619 16.6137ZM9.84732 13.0924L13.0907 9.84876C12.754 9.67688 12.3779 9.58398 11.9967 9.58398H11.9917C11.3467 9.58498 10.7417 9.83698 10.2877 10.293C9.83372 10.75 9.58372 11.355 9.58572 11.999C9.58392 12.3814 9.67612 12.757 9.84732 13.0924Z" fill="currentColor"/>
<path d="M11.9942 20.0532C11.0472 20.0532 10.0962 19.9232 9.16418 19.6652C8.76518 19.5552 8.53118 19.1422 8.64118 18.7432C8.75118 18.3432 9.16718 18.1102 9.56418 18.2202C10.3652 18.4412 11.1822 18.5532 11.9942 18.5532C16.5772 18.5532 20.5042 14.9512 20.5042 12.0022C20.5042 11.0472 20.0602 9.95817 19.2552 8.93817C18.9992 8.61317 19.0552 8.14117 19.3802 7.88417C19.7052 7.62817 20.1772 7.68317 20.4332 8.00817C21.4462 9.29317 22.0042 10.7112 22.0042 12.0022C22.0042 15.6492 17.5392 20.0532 11.9942 20.0532Z" fill="currentColor"/>
<path d="M12.5662 15.8539C12.2112 15.8539 11.8962 15.6009 11.8292 15.2399C11.7542 14.8329 12.0242 14.4409 12.4322 14.3669C13.4112 14.1859 14.1892 13.4079 14.3662 12.4279C14.4402 12.0199 14.8292 11.7519 15.2382 11.8239C15.6452 11.8979 15.9162 12.2879 15.8422 12.6959C15.5542 14.2859 14.2932 15.5489 12.7022 15.8409C12.6572 15.8499 12.6112 15.8539 12.5662 15.8539Z" fill="currentColor"/>
</svg>
