<svg width="24" height="24" viewBox="0 0 24 24" fill="none" xmlns="http://www.w3.org/2000/svg">
<path fill-rule="evenodd" clip-rule="evenodd" d="M8.32874 16.1355C8.32874 15.7213 8.66452 15.3855 9.07874 15.3855H14.8937C15.3079 15.3855 15.6437 15.7213 15.6437 16.1355C15.6437 16.5497 15.3079 16.8855 14.8937 16.8855H9.07874C8.66452 16.8855 8.32874 16.5497 8.32874 16.1355Z" fill="#484848"/>
<path fill-rule="evenodd" clip-rule="evenodd" d="M6.80988 5.97765C6.39734 6.35978 6.02692 6.68822 5.69765 6.97845C5.65117 7.01941 5.60566 7.05949 5.56107 7.09875C5.28216 7.34435 5.03927 7.55824 4.8211 7.75963C4.31579 8.22608 3.9966 8.57827 3.77087 8.97216C3.31837 9.76176 3.15002 10.869 3.15002 13.713C3.15002 15.7691 3.27309 17.2451 3.55118 18.3153C3.82418 19.3658 4.23114 19.9679 4.77024 20.3548C5.33328 20.759 6.13707 20.9997 7.34747 21.1245C8.55668 21.2491 10.065 21.25 11.986 21.25C13.907 21.25 15.4154 21.2491 16.6246 21.1245C17.835 20.9997 18.6388 20.759 19.2018 20.3548C19.7409 19.9679 20.1479 19.3658 20.4209 18.3153C20.699 17.2451 20.822 15.7691 20.822 13.713C20.822 10.8689 20.6539 9.76166 20.2016 8.97204C19.976 8.57818 19.6569 8.22601 19.1517 7.75958C18.9334 7.55801 18.6903 7.34391 18.4111 7.09801C18.3668 7.05898 18.3215 7.01914 18.2753 6.97843C17.9461 6.6882 17.5757 6.35976 17.1631 5.97762C16.9189 5.78041 16.6659 5.56703 16.4037 5.34588C15.8326 4.86414 15.2177 4.34554 14.5544 3.87695C13.5695 3.18118 12.6775 2.75 11.958 2.75C11.2409 2.75 10.3611 3.18121 9.38915 3.87803C8.75487 4.33278 8.17464 4.827 7.62945 5.29137C7.34778 5.53128 7.07547 5.76323 6.80988 5.97765ZM8.51515 2.65897C9.51548 1.94179 10.7322 1.25 11.958 1.25C13.1805 1.25 14.4071 1.93632 15.4199 2.6518C16.1359 3.15759 16.8441 3.75449 17.4371 4.25416C17.69 4.46729 17.9219 4.66274 18.1244 4.82587C18.138 4.83681 18.1512 4.84822 18.164 4.86008C18.57 5.23662 18.9354 5.5607 19.2672 5.85318C19.3122 5.89284 19.3567 5.93205 19.4008 5.97083C19.6787 6.21553 19.9369 6.4429 20.1693 6.65748C20.7085 7.15537 21.1624 7.63157 21.5032 8.22646C22.1836 9.41434 22.322 10.9261 22.322 13.713C22.322 15.8004 22.2002 17.432 21.8727 18.6926C21.54 19.9727 20.9805 20.9245 20.0765 21.5734C19.1964 22.2051 18.0804 22.4824 16.7784 22.6166C15.4837 22.75 13.8994 22.75 12.0232 22.75H11.9489C10.0726 22.75 8.48833 22.75 7.19367 22.6166C5.89167 22.4824 4.77565 22.2051 3.89555 21.5734C2.99153 20.9245 2.43206 19.9727 2.0994 18.6926C1.77184 17.432 1.65002 15.8004 1.65002 13.713C1.65002 10.926 1.78868 9.41424 2.46943 8.22634C2.81033 7.63148 3.26432 7.1553 3.80367 6.65743C4.03585 6.4431 4.29378 6.216 4.57133 5.97161C4.61567 5.93257 4.66051 5.89309 4.70582 5.85316C5.03764 5.56069 5.40302 5.23661 5.80904 4.86008C5.82186 4.84818 5.8351 4.83674 5.84873 4.82577C6.06085 4.65502 6.30841 4.44454 6.57995 4.21367C7.15394 3.72566 7.83507 3.14655 8.51515 2.65897Z" fill="#484848"/>
</svg>
