<svg width="24" height="24" viewBox="0 0 24 24" fill="none" xmlns="http://www.w3.org/2000/svg">
<path fill-rule="evenodd" clip-rule="evenodd" d="M8.58093 11.4129C7.30893 11.4129 6.27393 10.3779 6.27393 9.10588C6.27393 7.83187 7.30893 6.79688 8.58093 6.79688C9.85393 6.79787 10.8889 7.83388 10.8889 9.10588C10.8889 10.3779 9.85293 11.4129 8.58093 11.4129ZM8.57993 8.29688C8.13593 8.29688 7.77393 8.65887 7.77393 9.10588C7.77393 9.55088 8.13593 9.91288 8.58093 9.91288C9.02693 9.91288 9.38893 9.55088 9.38893 9.10588C9.38893 8.65987 9.02593 8.29787 8.57993 8.29688Z" fill="#484848"/>
<path d="M6.06878 17.208C5.95678 17.208 5.84178 17.183 5.73478 17.129C5.36478 16.944 5.21478 16.496 5.39778 16.126C5.50278 15.915 6.46278 14.072 8.06378 14.072C8.88778 14.072 9.49078 14.52 9.97578 14.882C10.4478 15.232 10.7568 15.447 11.1598 15.447C11.4448 15.443 12.1838 14.554 12.5808 14.075C13.4278 13.055 14.3048 11.999 15.4218 11.999C17.3358 11.999 18.5258 14.544 18.6548 14.834C18.8228 15.212 18.6538 15.654 18.2758 15.823C17.9008 15.994 17.4548 15.824 17.2848 15.446C16.9998 14.811 16.1678 13.499 15.4218 13.499C15.0097 13.499 14.2454 14.4187 13.7384 15.0287L13.7348 15.033C12.9178 16.018 12.1458 16.947 11.1598 16.947C10.2398 16.947 9.59678 16.469 9.08078 16.085C8.65278 15.768 8.37578 15.572 8.06378 15.572C7.52878 15.572 6.94178 16.396 6.74078 16.794C6.60878 17.057 6.34378 17.208 6.06878 17.208Z" fill="#484848"/>
<path fill-rule="evenodd" clip-rule="evenodd" d="M2 12C2 19.383 4.617 22 12 22C19.383 22 22 19.383 22 12C22 4.617 19.383 2 12 2C4.617 2 2 4.617 2 12ZM3.5 12C3.5 5.486 5.486 3.5 12 3.5C18.514 3.5 20.5 5.486 20.5 12C20.5 18.514 18.514 20.5 12 20.5C5.486 20.5 3.5 18.514 3.5 12Z" fill="#484848"/>
</svg>
