<svg width="24" height="24" viewBox="0 0 24 24" fill="none" xmlns="http://www.w3.org/2000/svg">
<path fill-rule="evenodd" clip-rule="evenodd" d="M8.83693 11.2944C7.45193 11.2944 6.32593 10.1694 6.32593 8.78444C6.32593 7.39944 7.45193 6.27344 8.83693 6.27344C10.2219 6.27344 11.3479 7.39944 11.3479 8.78444C11.3479 10.1694 10.2219 11.2944 8.83693 11.2944ZM8.83693 7.77344C8.27893 7.77344 7.82593 8.22644 7.82593 8.78444C7.82593 9.34144 8.27893 9.79444 8.83693 9.79444C9.39493 9.79444 9.84793 9.34144 9.84793 8.78444C9.84793 8.22644 9.39493 7.77344 8.83693 7.77344Z" fill="currentColor"/>
<path fill-rule="evenodd" clip-rule="evenodd" d="M21.8671 14.6035C21.9572 13.8107 22 12.9443 22 12C22 4.617 19.383 2 12 2C4.617 2 2 4.617 2 12C2 19.383 4.617 22 12 22C18.3151 22 21.1432 20.0853 21.8292 14.9112C21.8632 14.812 21.8758 14.707 21.8671 14.6035ZM12 3.5C5.486 3.5 3.5 5.486 3.5 12C3.5 14.3386 3.75598 16.0937 4.38559 17.3827C4.94241 16.4128 5.83627 15.1385 6.90781 14.635C8.02881 14.11 8.92881 14.433 9.79981 14.746L9.80242 14.7469C10.4466 14.9786 11.1121 15.218 12.0288 15.218C12.7368 15.218 13.1428 14.586 13.7458 13.555C14.3648 12.496 15.1348 11.18 16.7038 11.18C18.4161 11.18 19.6132 12.0349 20.4866 12.888C20.4956 12.6018 20.5 12.3059 20.5 12C20.5 5.486 18.514 3.5 12 3.5ZM20.3202 14.9089C20.267 14.8501 20.2125 14.7893 20.1566 14.7269L20.145 14.7139C19.3313 13.8073 18.3196 12.68 16.7038 12.68C16.0288 12.68 15.6328 13.3 15.0408 14.312C14.4139 15.3839 13.6336 16.718 12.0288 16.718C10.8504 16.718 9.98812 16.4078 9.2936 16.158L9.29081 16.157C8.46681 15.859 8.07981 15.74 7.54681 15.992C6.74958 16.3668 5.86354 17.7327 5.35679 18.7415C6.67131 20.0158 8.78372 20.5 12 20.5C17.4209 20.5 19.7059 19.1246 20.3202 14.9089Z" fill="currentColor"/>
</svg>
