<svg width="24" height="24" viewBox="0 0 24 24" fill="none" xmlns="http://www.w3.org/2000/svg">
<path fill-rule="evenodd" clip-rule="evenodd" d="M18.6963 18.696C19.9192 17.4731 20.5002 15.4269 20.5002 12C20.5002 8.5731 19.9192 6.52693 18.6963 5.30396C17.4733 4.08098 15.4271 3.5 12.0002 3.5C8.57331 3.5 6.52714 4.08098 5.30417 5.30396C4.0812 6.52693 3.50021 8.5731 3.50021 12C3.50021 15.4269 4.0812 17.4731 5.30417 18.696C6.52714 19.919 8.57331 20.5 12.0002 20.5C15.4271 20.5 17.4733 19.919 18.6963 18.696ZM19.7569 19.7567C18.0891 21.4245 15.5103 22 12.0002 22C8.49012 22 5.91129 21.4245 4.24351 19.7567C2.57573 18.0889 2.00021 15.5101 2.00021 12C2.00021 8.4899 2.57573 5.91107 4.24351 4.2433C5.91129 2.57552 8.49012 2 12.0002 2C15.5103 2 18.0891 2.57552 19.7569 4.2433C21.4247 5.91107 22.0002 8.4899 22.0002 12C22.0002 15.5101 21.4247 18.0889 19.7569 19.7567Z" fill="currentColor"/>
<path fill-rule="evenodd" clip-rule="evenodd" d="M12.0002 16.645C11.586 16.645 11.2502 16.3092 11.2502 15.895V12C11.2502 11.5858 11.586 11.25 12.0002 11.25C12.4144 11.25 12.7502 11.5858 12.7502 12V15.895C12.7502 16.3092 12.4144 16.645 12.0002 16.645Z" fill="currentColor"/>
<path fill-rule="evenodd" clip-rule="evenodd" d="M12.7545 8.5C12.7545 8.91421 12.4187 9.25 12.0045 9.25H11.9955C11.5813 9.25 11.2455 8.91421 11.2455 8.5C11.2455 8.08579 11.5813 7.75 11.9955 7.75H12.0045C12.4187 7.75 12.7545 8.08579 12.7545 8.5Z" fill="currentColor"/>
</svg>
