<svg width="24" height="24" viewBox="0 0 24 24" fill="none" xmlns="http://www.w3.org/2000/svg">
<path d="M21.9399 7.87712C21.8912 6.81266 21.7221 6.08572 21.4749 5.44973C21.2239 4.78246 20.8303 4.17806 20.3215 3.67848C19.8221 3.16975 19.2176 2.77592 18.5503 2.52475C17.9142 2.27771 17.1874 2.1088 16.1229 2.06043C15.0565 2.0116 14.7158 2 12 2C9.28424 2 8.94351 2.0116 7.87708 2.06012C6.81262 2.1088 6.08585 2.27786 5.44971 2.52506C4.78244 2.77607 4.17804 3.16975 3.67847 3.67848C3.16974 4.1779 2.77591 4.78231 2.52475 5.44958C2.27771 6.08572 2.1088 6.81266 2.06042 7.87697C2.0116 8.94356 2 9.28414 2 11.9999C2 14.7159 2.0116 15.0566 2.06042 16.123C2.10895 17.1873 2.27802 17.9143 2.52521 18.5504C2.77621 19.2175 3.16989 19.8221 3.67862 20.3215C4.17804 20.8303 4.78259 21.2239 5.44986 21.4749C6.08585 21.7223 6.81277 21.8912 7.87723 21.9399C8.94382 21.9886 9.28439 22 12.0002 22C14.7159 22 15.0566 21.9886 16.1231 21.9399C17.1875 21.8912 17.9143 21.7223 18.5504 21.4749C19.8937 20.9555 20.9555 19.8937 21.4749 18.5504C21.7223 17.9143 21.8912 17.1873 21.9399 16.123C21.9884 15.0564 22 14.7159 22 12.0001C22 9.28414 21.9884 8.94356 21.9399 7.87712ZM20.1398 16.0411C20.0954 17.0161 19.9324 17.5456 19.7956 17.8979C19.4591 18.7701 18.7699 19.4594 17.8977 19.7959C17.5453 19.9327 17.0159 20.0957 16.0408 20.1401C14.9866 20.1883 14.6703 20.1984 12 20.1984C9.32956 20.1984 9.0134 20.1883 7.95901 20.1401C6.98413 20.0957 6.45465 19.9327 6.10217 19.7959C5.66791 19.6355 5.27499 19.3799 4.95242 19.0477C4.62024 18.7251 4.36465 18.3324 4.20428 17.8979C4.06741 17.5456 3.90445 17.0161 3.86005 16.0411C3.81198 14.9867 3.80176 14.6704 3.80176 12.0002C3.80176 9.32992 3.81198 9.01376 3.86005 7.95921C3.9046 6.98417 4.06741 6.45468 4.20428 6.10236C4.36465 5.66794 4.62039 5.27502 4.95242 4.95245C5.27499 4.62026 5.66791 4.36467 6.10233 4.20445C6.45465 4.06743 6.98413 3.90462 7.95917 3.86006C9.01355 3.812 9.32986 3.80177 12 3.80177H11.9998C14.67 3.80177 14.9863 3.812 16.0408 3.86021C17.0159 3.90462 17.5452 4.06758 17.8977 4.20445C18.3319 4.36483 18.7249 4.62041 19.0474 4.95245C19.3796 5.27502 19.6352 5.66794 19.7954 6.10236C19.9324 6.45468 20.0954 6.98417 20.1398 7.95921C20.1879 9.0136 20.1981 9.32992 20.1981 12.0001C20.1981 14.6704 20.188 14.9865 20.1398 16.0411Z" fill="url(#paint0_linear_3740_988)"/>
<path d="M11.9998 6.86475C9.16385 6.86475 6.86481 9.16396 6.86481 12C6.86481 14.836 9.16385 17.1351 11.9998 17.1351C14.836 17.1351 17.135 14.836 17.135 12C17.135 9.16396 14.836 6.86475 11.9998 6.86475ZM11.9998 15.3333C10.159 15.3331 8.66656 13.8408 8.66672 11.9998C8.66672 10.159 10.159 8.66652 12 8.66652C13.841 8.66667 15.3333 10.159 15.3333 11.9998C15.3333 13.8408 13.8408 15.3333 11.9998 15.3333Z" fill="url(#paint1_linear_3740_988)"/>
<path d="M18.5379 6.66203C18.5379 7.32472 18.0007 7.86199 17.338 7.86199C16.6751 7.86199 16.1379 7.32472 16.1379 6.66203C16.1379 5.99918 16.6751 5.46191 17.338 5.46191C18.0007 5.46191 18.5379 5.99918 18.5379 6.66203Z" fill="url(#paint2_linear_3740_988)"/>
<defs>
<linearGradient id="paint0_linear_3740_988" x1="3.67837" y1="20.3216" x2="20.3218" y2="3.67834" gradientUnits="userSpaceOnUse">
<stop stop-color="#FFD600"/>
<stop offset="0.5" stop-color="#FF0100"/>
<stop offset="1" stop-color="#D800B9"/>
</linearGradient>
<linearGradient id="paint1_linear_3740_988" x1="8.36887" y1="15.631" x2="15.6311" y2="8.36887" gradientUnits="userSpaceOnUse">
<stop stop-color="#FF6400"/>
<stop offset="0.5" stop-color="#FF0100"/>
<stop offset="1" stop-color="#FD0056"/>
</linearGradient>
<linearGradient id="paint2_linear_3740_988" x1="16.4894" y1="7.51047" x2="18.1864" y2="5.81345" gradientUnits="userSpaceOnUse">
<stop stop-color="#F30072"/>
<stop offset="1" stop-color="#E50097"/>
</linearGradient>
</defs>
</svg>
