<svg width="24" height="24" viewBox="0 0 24 24" fill="none" xmlns="http://www.w3.org/2000/svg">
<path d="M12.0005 17.0682C11.5865 17.0682 11.2505 16.7322 11.2505 16.3182V14.0972C11.2505 13.6832 11.5865 13.3472 12.0005 13.3472C12.4145 13.3472 12.7505 13.6832 12.7505 14.0972V16.3182C12.7505 16.7322 12.4145 17.0682 12.0005 17.0682Z" fill="#484848"/>
<path fill-rule="evenodd" clip-rule="evenodd" d="M17.3099 8.86611C19.5076 9.86713 20.4103 11.8146 20.4103 15.0364C20.4103 20.1554 18.1313 22.0584 12.0003 22.0584C5.86933 22.0584 3.59033 20.1554 3.59033 15.0364C3.59033 11.815 4.49286 9.86759 6.68994 8.86647V7.17541C6.73694 4.27141 9.03894 1.97841 11.9299 1.94141C13.3679 1.94841 14.6919 2.45941 15.7069 3.44941C16.7239 4.44141 17.2929 5.76741 17.3099 7.18641V8.86611ZM16.2062 10.0058C16.2687 10.0393 16.3365 10.0642 16.4079 10.079C18.2742 10.7985 18.9103 12.2927 18.9103 15.0364C18.9103 19.3204 17.3603 20.5584 12.0003 20.5584C6.64033 20.5584 5.09033 19.3204 5.09033 15.0364C5.09033 12.2922 5.72663 10.7981 7.59364 10.0786C7.66395 10.064 7.73067 10.0394 7.79227 10.0066C8.81976 9.65604 10.1936 9.51538 12.0003 9.51538C13.8058 9.51538 15.179 9.65585 16.2062 10.0058ZM8.18994 8.37134V7.18741C8.22294 5.11341 9.87394 3.46741 11.9499 3.44141C12.9859 3.43441 13.9319 3.81341 14.6609 4.52441C15.3899 5.23541 15.7979 6.18641 15.8099 7.19541V8.37116C14.7525 8.12769 13.4901 8.01538 12.0003 8.01538C10.5102 8.01538 9.24757 8.12774 8.18994 8.37134Z" fill="#484848"/>
</svg>
