<svg width="24" height="24" viewBox="0 0 24 24" fill="none" xmlns="http://www.w3.org/2000/svg">
<path fill-rule="evenodd" clip-rule="evenodd" d="M2 12.1208C2 11.7066 2.33579 11.3708 2.75 11.3708H14.791C15.2052 11.3708 15.541 11.7066 15.541 12.1208C15.541 12.5351 15.2052 12.8708 14.791 12.8708H2.75C2.33579 12.8708 2 12.5351 2 12.1208Z" fill="currentColor"/>
<path fill-rule="evenodd" clip-rule="evenodd" d="M11.3329 8.67559C11.6252 8.3821 12.1 8.38112 12.3935 8.67342L15.3215 11.5894C15.4628 11.7302 15.5423 11.9214 15.5423 12.1208C15.5423 12.3203 15.4628 12.5115 15.3215 12.6523L12.3935 15.5683C12.1 15.8605 11.6252 15.8596 11.3329 15.5661C11.0406 15.2726 11.0416 14.7977 11.335 14.5054L13.7294 12.1208L11.335 9.73625C11.0416 9.44396 11.0406 8.96909 11.3329 8.67559Z" fill="currentColor"/>
<path fill-rule="evenodd" clip-rule="evenodd" d="M9.33033 4.45009C8.55362 5.02564 8.16532 5.96655 8.00564 7.69884C7.96762 8.11131 7.60243 8.41485 7.18997 8.37683C6.7775 8.33881 6.47395 7.97362 6.51197 7.56116C6.68229 5.71345 7.129 4.21436 8.43728 3.24491C9.69159 2.31546 11.5814 2 14.2588 2C17.8086 2 19.9912 2.55654 21.1112 4.37994C21.6451 5.249 21.881 6.3253 21.9956 7.55739C22.1098 8.78465 22.1098 10.259 22.1098 11.9684V12.0316C22.1098 13.741 22.1098 15.2154 21.9956 16.4426C21.881 17.6747 21.6451 18.751 21.1112 19.6201C19.9912 21.4435 17.8086 22 14.2588 22C11.5814 22 9.69159 21.6845 8.43728 20.7551C7.129 19.7856 6.68229 18.2866 6.51197 16.4388C6.47395 16.0264 6.7775 15.6612 7.18997 15.6232C7.60243 15.5851 7.96762 15.8887 8.00564 16.3012C8.16532 18.0334 8.55362 18.9744 9.33033 19.5499C10.161 20.1655 11.6062 20.5 14.2588 20.5C17.81 20.5 19.1779 19.9015 19.8331 18.8349C20.1869 18.259 20.3948 17.4565 20.5021 16.3036C20.6091 15.1535 20.6098 13.7472 20.6098 12C20.6098 10.2528 20.6091 8.84654 20.5021 7.69636C20.3948 6.54345 20.1869 5.741 19.8331 5.16506C19.1779 4.09846 17.81 3.5 14.2588 3.5C11.6062 3.5 10.161 3.83454 9.33033 4.45009Z" fill="currentColor"/>
</svg>
