<svg width="24" height="24" viewBox="0 0 24 24" fill="none" xmlns="http://www.w3.org/2000/svg">
<path fill-rule="evenodd" clip-rule="evenodd" d="M9 12.1208C9 11.7066 9.33579 11.3708 9.75 11.3708H21.791C22.2052 11.3708 22.541 11.7066 22.541 12.1208C22.541 12.5351 22.2052 12.8708 21.791 12.8708H9.75C9.33579 12.8708 9 12.5351 9 12.1208Z" fill="currentColor"/>
<path fill-rule="evenodd" clip-rule="evenodd" d="M18.3329 8.67559C18.6252 8.3821 19.1 8.38112 19.3935 8.67342L22.3215 11.5894C22.4628 11.7302 22.5423 11.9214 22.5423 12.1208C22.5423 12.3203 22.4628 12.5115 22.3215 12.6523L19.3935 15.5683C19.1 15.8605 18.6252 15.8596 18.3329 15.5661C18.0406 15.2726 18.0416 14.7977 18.335 14.5054L20.7294 12.1208L18.335 9.73625C18.0416 9.44396 18.0406 8.96909 18.3329 8.67559Z" fill="currentColor"/>
<path fill-rule="evenodd" clip-rule="evenodd" d="M14.2883 4.45009C15.065 5.02564 15.4533 5.96655 15.6129 7.69884C15.651 8.11131 16.0162 8.41485 16.4286 8.37683C16.8411 8.33881 17.1446 7.97362 17.1066 7.56116C16.9363 5.71345 16.4896 4.21436 15.1813 3.24491C13.927 2.31546 12.0372 2 9.35978 2C5.80996 2 3.62741 2.55654 2.50735 4.37994C1.97351 5.249 1.7376 6.3253 1.62296 7.55739C1.50877 8.78465 1.50878 10.259 1.50878 11.9684V12.0316C1.50878 13.741 1.50877 15.2154 1.62296 16.4426C1.7376 17.6747 1.97351 18.751 2.50735 19.6201C3.62741 21.4435 5.80996 22 9.35978 22C12.0372 22 13.927 21.6845 15.1813 20.7551C16.4896 19.7856 16.9363 18.2866 17.1066 16.4388C17.1446 16.0264 16.8411 15.6612 16.4286 15.6232C16.0162 15.5851 15.651 15.8887 15.6129 16.3012C15.4533 18.0334 15.065 18.9744 14.2883 19.5499C13.4576 20.1655 12.0124 20.5 9.35978 20.5C5.80861 20.5 4.44065 19.9015 3.78547 18.8349C3.43168 18.259 3.22378 17.4565 3.11651 16.3036C3.00949 15.1535 3.00878 13.7472 3.00878 12C3.00878 10.2528 3.00949 8.84654 3.11651 7.69636C3.22378 6.54345 3.43168 5.741 3.78547 5.16506C4.44065 4.09846 5.80861 3.5 9.35978 3.5C12.0124 3.5 13.4576 3.83454 14.2883 4.45009Z" fill="currentColor"/>
</svg>
