<svg width="24" height="24" viewBox="0 0 24 24" fill="none" xmlns="http://www.w3.org/2000/svg">
<path fill-rule="evenodd" clip-rule="evenodd" d="M5.30414 5.30396C4.08117 6.52693 3.50018 8.5731 3.50018 12C3.50018 15.4269 4.08117 17.4731 5.30414 18.696C6.52711 19.919 8.57328 20.5 12.0002 20.5C15.4271 20.5 17.4733 19.919 18.6962 18.696C19.9192 17.4731 20.5002 15.4269 20.5002 12C20.5002 8.5731 19.9192 6.52693 18.6962 5.30396C17.4733 4.08098 15.4271 3.5 12.0002 3.5C8.57328 3.5 6.52711 4.08098 5.30414 5.30396ZM4.24348 4.24329C5.91126 2.57552 8.49008 2 12.0002 2C15.5103 2 18.0891 2.57552 19.7569 4.24329C21.4247 5.91107 22.0002 8.4899 22.0002 12C22.0002 15.5101 21.4247 18.0889 19.7569 19.7567C18.0891 21.4245 15.5103 22 12.0002 22C8.49008 22 5.91126 21.4245 4.24348 19.7567C2.5757 18.0889 2.00018 15.5101 2.00018 12C2.00018 8.4899 2.5757 5.91107 4.24348 4.24329Z" fill="currentColor"/>
<path fill-rule="evenodd" clip-rule="evenodd" d="M14.2045 13.8999C14.2045 13.3476 14.6522 12.8999 15.2045 12.8999H15.2135C15.7658 12.8999 16.2135 13.3476 16.2135 13.8999C16.2135 14.4522 15.7658 14.8999 15.2135 14.8999H15.2045C14.6522 14.8999 14.2045 14.4522 14.2045 13.8999Z" fill="currentColor"/>
<path fill-rule="evenodd" clip-rule="evenodd" d="M11.2045 9.8999C11.2045 9.34762 11.6522 8.8999 12.2045 8.8999H12.2135C12.7658 8.8999 13.2135 9.34762 13.2135 9.8999C13.2135 10.4522 12.7658 10.8999 12.2135 10.8999H12.2045C11.6522 10.8999 11.2045 10.4522 11.2045 9.8999Z" fill="currentColor"/>
<path fill-rule="evenodd" clip-rule="evenodd" d="M8.1955 13.8999C8.1955 13.3476 8.64321 12.8999 9.1955 12.8999H9.2045C9.75678 12.8999 10.2045 13.3476 10.2045 13.8999C10.2045 14.4522 9.75678 14.8999 9.2045 14.8999H9.1955C8.64321 14.8999 8.1955 14.4522 8.1955 13.8999Z" fill="currentColor"/>
</svg>
