<svg width="24" height="24" viewBox="0 0 24 24" fill="none" xmlns="http://www.w3.org/2000/svg">
<path fill-rule="evenodd" clip-rule="evenodd" d="M5.30396 5.30396C4.08098 6.52693 3.5 8.5731 3.5 12C3.5 15.4269 4.08098 17.4731 5.30396 18.696C6.52693 19.919 8.5731 20.5 12 20.5C15.4269 20.5 17.4731 19.919 18.696 18.696C19.919 17.4731 20.5 15.4269 20.5 12C20.5 8.5731 19.919 6.52693 18.696 5.30396C17.4731 4.08098 15.4269 3.5 12 3.5C8.5731 3.5 6.52693 4.08098 5.30396 5.30396ZM4.24329 4.24329C5.91107 2.57552 8.4899 2 12 2C15.5101 2 18.0889 2.57552 19.7567 4.24329C21.4245 5.91107 22 8.4899 22 12C22 15.5101 21.4245 18.0889 19.7567 19.7567C18.0889 21.4245 15.5101 22 12 22C8.4899 22 5.91107 21.4245 4.24329 19.7567C2.57552 18.0889 2 15.5101 2 12C2 8.4899 2.57552 5.91107 4.24329 4.24329Z" fill="currentColor"/>
<path fill-rule="evenodd" clip-rule="evenodd" d="M14.9935 12C14.9935 11.4477 15.4412 11 15.9935 11H16.0025C16.5548 11 17.0025 11.4477 17.0025 12C17.0025 12.5523 16.5548 13 16.0025 13H15.9935C15.4412 13 14.9935 12.5523 14.9935 12Z" fill="currentColor"/>
<path fill-rule="evenodd" clip-rule="evenodd" d="M10.9945 12C10.9945 11.4477 11.4422 11 11.9945 11H12.0035C12.5558 11 13.0035 11.4477 13.0035 12C13.0035 12.5523 12.5558 13 12.0035 13H11.9945C11.4422 13 10.9945 12.5523 10.9945 12Z" fill="currentColor"/>
<path fill-rule="evenodd" clip-rule="evenodd" d="M6.99548 12C6.99548 11.4477 7.4432 11 7.99548 11H8.00448C8.55677 11 9.00448 11.4477 9.00448 12C9.00448 12.5523 8.55677 13 8.00448 13H7.99548C7.4432 13 6.99548 12.5523 6.99548 12Z" fill="currentColor"/>
</svg>
