<svg width="24" height="24" viewBox="0 0 24 24" fill="none" xmlns="http://www.w3.org/2000/svg">
<path fill-rule="evenodd" clip-rule="evenodd" d="M6.56025 4.3939C7.72169 2.89651 9.52151 1.76416 11.9962 1.76416C14.4705 1.76416 16.2702 2.89654 17.4318 4.39386C18.575 5.86761 19.1072 7.69867 19.1072 9.18368C19.1072 9.60992 19.0942 9.92636 19.0844 10.1665C19.0824 10.2159 19.0805 10.262 19.0788 10.3052C19.0692 10.5635 19.0711 10.6876 19.091 10.8105C19.1362 11.0901 19.2792 11.4345 19.8506 12.6938C19.8563 12.7064 19.8617 12.7191 19.8667 12.732C20.2795 13.7945 20.1872 14.7719 19.6962 15.6001C19.2276 16.3904 18.4401 16.9724 17.5889 17.3971C15.8866 18.2463 13.6362 18.6118 11.9962 18.6118C10.3558 18.6118 8.10515 18.2463 6.40283 17.3971C5.55157 16.9724 4.76406 16.3904 4.29564 15.6C3.80475 14.7717 3.71265 13.7943 4.12576 12.7319C4.13076 12.719 4.1361 12.7063 4.1418 12.6938C4.71321 11.4345 4.85623 11.0901 4.9014 10.8105C4.92126 10.6876 4.92322 10.5635 4.91356 10.3052C4.91194 10.262 4.91005 10.2159 4.90803 10.1665C4.8982 9.92637 4.88525 9.60993 4.88525 9.18368C4.88525 7.69875 5.4171 5.86768 6.56025 4.3939ZM7.7455 5.31323C6.81673 6.51064 6.38525 8.01433 6.38525 9.18368C6.38525 9.57678 6.39683 9.86076 6.40658 10.0998C6.40869 10.1515 6.41071 10.201 6.41251 10.2491C6.42246 10.515 6.42769 10.7681 6.3822 11.0497C6.29769 11.5728 6.04077 12.139 5.5268 13.2716L5.51677 13.2937C5.26789 13.9464 5.34773 14.4331 5.58605 14.8353C5.84906 15.2791 6.35322 15.696 7.07243 16.0548C8.51107 16.7725 10.5167 17.1118 11.9962 17.1118C13.4752 17.1118 15.4806 16.7725 16.9193 16.0548C17.6385 15.696 18.1427 15.279 18.4059 14.8352C18.6443 14.4329 18.7242 13.9462 18.4756 13.2936L18.4656 13.2716C17.9516 12.139 17.6947 11.5728 17.6102 11.0497C17.5647 10.7681 17.57 10.515 17.5799 10.2491C17.5817 10.201 17.5837 10.1515 17.5858 10.0998C17.5956 9.86077 17.6072 9.57679 17.6072 9.18368C17.6072 8.01441 17.1755 6.51071 16.2466 5.31327C15.336 4.1394 13.9553 3.26416 11.9962 3.26416C10.0366 3.26416 8.65595 4.13943 7.7455 5.31323Z" fill="currentColor"/>
<path fill-rule="evenodd" clip-rule="evenodd" d="M9.18641 19.9529C9.49534 19.6769 9.96946 19.7037 10.2454 20.0126C11.251 21.1384 12.7482 21.1279 13.7473 20.012C14.0235 19.7033 14.4977 19.6771 14.8063 19.9534C15.1149 20.2297 15.1411 20.7039 14.8648 21.0125C13.2754 22.7879 10.7345 22.8118 9.12669 21.0118C8.85076 20.7029 8.87749 20.2288 9.18641 19.9529Z" fill="currentColor"/>
</svg>
