<svg width="24" height="24" viewBox="0 0 24 24" fill="none" xmlns="http://www.w3.org/2000/svg">
<path fill-rule="evenodd" clip-rule="evenodd" d="M4.93071 4.27249C6.46255 2.58293 8.83843 2 12.0401 2C12.9668 2 13.8216 2.05142 14.5919 2.15694C14.7479 2.17832 14.8933 2.24827 15.0073 2.3569L20.6773 7.7569C20.7925 7.86656 20.8698 8.00998 20.8981 8.16645C21.0985 9.27377 21.1901 10.5511 21.1901 12C21.1901 15.4998 20.6714 18.0653 19.1578 19.7318C17.6243 21.42 15.2457 22 12.0401 22C8.83916 22 6.46302 21.4199 4.93092 19.7315C3.41881 18.0651 2.90009 15.4999 2.90009 12C2.90009 8.5048 3.41892 5.93992 4.93071 4.27249ZM6.04196 5.28001C4.93125 6.50508 4.40009 8.5652 4.40009 12C4.40009 15.4401 4.93137 17.4999 6.04175 18.7235C7.13216 19.9251 8.95101 20.5 12.0401 20.5C15.1344 20.5 16.9558 19.925 18.0474 18.7232C19.1588 17.4997 19.6901 15.4402 19.6901 12C19.6901 10.7185 19.6151 9.61383 19.4628 8.67165L14.151 3.61282C13.5202 3.53823 12.8148 3.5 12.0401 3.5C8.95175 3.5 7.13262 4.07707 6.04196 5.28001Z" fill="#484848"/>
<path fill-rule="evenodd" clip-rule="evenodd" d="M13.934 2.08276C14.3482 2.08276 14.684 2.41855 14.684 2.83276V5.49376C14.684 6.93726 15.8539 8.10676 17.298 8.10676H20.249C20.6632 8.10676 20.999 8.44255 20.999 8.85676C20.999 9.27098 20.6632 9.60676 20.249 9.60676H17.298C15.026 9.60676 13.184 7.76627 13.184 5.49376V2.83276C13.184 2.41855 13.5197 2.08276 13.934 2.08276Z" fill="#484848"/>
<path fill-rule="evenodd" clip-rule="evenodd" d="M8.66241 12.9807C8.66241 12.5665 8.9982 12.2307 9.41241 12.2307H14.3124C14.7266 12.2307 15.0624 12.5665 15.0624 12.9807C15.0624 13.3949 14.7266 13.7307 14.3124 13.7307H9.41241C8.9982 13.7307 8.66241 13.3949 8.66241 12.9807Z" fill="#484848"/>
<path fill-rule="evenodd" clip-rule="evenodd" d="M11.8632 9.78076C12.2774 9.78076 12.6132 10.1165 12.6132 10.5308V15.4308C12.6132 15.845 12.2774 16.1808 11.8632 16.1808C11.4489 16.1808 11.1132 15.845 11.1132 15.4308V10.5308C11.1132 10.1165 11.4489 9.78076 11.8632 9.78076Z" fill="#484848"/>
</svg>
