<svg width="24" height="24" viewBox="0 0 24 24" fill="none" xmlns="http://www.w3.org/2000/svg">
<path fill-rule="evenodd" clip-rule="evenodd" d="M4.93071 4.27249C6.46255 2.58293 8.83843 2 12.0401 2C12.9668 2 13.8216 2.05142 14.5919 2.15694C14.7479 2.17832 14.8933 2.24827 15.0073 2.3569L20.6773 7.7569C20.7925 7.86656 20.8698 8.00998 20.8981 8.16645C21.0985 9.27377 21.1901 10.5511 21.1901 12C21.1901 15.4998 20.6714 18.0653 19.1578 19.7318C17.6243 21.42 15.2457 22 12.0401 22C8.83916 22 6.46302 21.4199 4.93092 19.7315C3.41881 18.0651 2.90009 15.4999 2.90009 12C2.90009 8.5048 3.41892 5.93992 4.93071 4.27249ZM6.04196 5.28001C4.93125 6.50508 4.40009 8.5652 4.40009 12C4.40009 15.4401 4.93137 17.4999 6.04175 18.7235C7.13216 19.9251 8.95101 20.5 12.0401 20.5C15.1344 20.5 16.9558 19.925 18.0474 18.7232C19.1588 17.4997 19.6901 15.4402 19.6901 12C19.6901 10.7185 19.6151 9.61383 19.4628 8.67165L14.151 3.61282C13.5202 3.53823 12.8148 3.5 12.0401 3.5C8.95175 3.5 7.13262 4.07707 6.04196 5.28001Z" fill="#484848"/>
<path fill-rule="evenodd" clip-rule="evenodd" d="M13.934 2.08276C14.3482 2.08276 14.684 2.41855 14.684 2.83276V5.49376C14.684 6.93726 15.8539 8.10676 17.298 8.10676H20.249C20.6632 8.10676 20.999 8.44255 20.999 8.85676C20.999 9.27098 20.6632 9.60676 20.249 9.60676H17.298C15.026 9.60676 13.184 7.76627 13.184 5.49376V2.83276C13.184 2.41855 13.5197 2.08276 13.934 2.08276Z" fill="#484848"/>
<path fill-rule="evenodd" clip-rule="evenodd" d="M9.59876 10.7182C9.89165 10.4253 10.3665 10.4253 10.6594 10.7182L14.1254 14.1842C14.4183 14.4771 14.4183 14.952 14.1254 15.2449C13.8325 15.5378 13.3577 15.5378 13.0648 15.2449L9.59876 11.7789C9.30587 11.486 9.30587 11.0111 9.59876 10.7182Z" fill="#484848"/>
<path fill-rule="evenodd" clip-rule="evenodd" d="M14.1261 10.7182C14.419 11.0111 14.419 11.486 14.1261 11.7789L10.6601 15.2449C10.3672 15.5378 9.89232 15.5378 9.59943 15.2449C9.30654 14.952 9.30654 14.4771 9.59943 14.1842L13.0654 10.7182C13.3583 10.4253 13.8332 10.4253 14.1261 10.7182Z" fill="#484848"/>
</svg>
