<svg width="24" height="24" viewBox="0 0 24 24" fill="none" xmlns="http://www.w3.org/2000/svg">
<path fill-rule="evenodd" clip-rule="evenodd" d="M8.8368 10.8979C8.22802 10.8979 7.7348 11.3912 7.7348 11.9999C7.7348 12.6087 8.22802 13.1019 8.8368 13.1019C9.44559 13.1019 9.9388 12.6087 9.9388 11.9999C9.9388 11.3914 9.44669 10.8987 8.83939 10.8979H8.8368ZM6.2348 11.9999C6.2348 10.5627 7.39959 9.39795 8.8368 9.39795H8.8398C10.2764 9.39936 11.4388 10.5647 11.4388 11.9999C11.4388 13.4372 10.274 14.6019 8.8368 14.6019C7.39959 14.6019 6.2348 13.4372 6.2348 11.9999Z" fill="#484848"/>
<path fill-rule="evenodd" clip-rule="evenodd" d="M9.9418 12C9.9418 11.5858 10.2776 11.25 10.6918 11.25H17.0098C17.424 11.25 17.7598 11.5858 17.7598 12V13.852C17.7598 14.2662 17.424 14.602 17.0098 14.602C16.5956 14.602 16.2598 14.2662 16.2598 13.852V12.75H10.6918C10.2776 12.75 9.9418 12.4142 9.9418 12Z" fill="#484848"/>
<path fill-rule="evenodd" clip-rule="evenodd" d="M14.182 11.25C14.5962 11.25 14.932 11.5858 14.932 12V13.852C14.932 14.2662 14.5962 14.602 14.182 14.602C13.7678 14.602 13.432 14.2662 13.432 13.852V12C13.432 11.5858 13.7678 11.25 14.182 11.25Z" fill="#484848"/>
<path fill-rule="evenodd" clip-rule="evenodd" d="M5.30386 5.30396C4.08089 6.52693 3.49991 8.5731 3.49991 12C3.49991 15.4269 4.08089 17.4731 5.30386 18.696C6.52684 19.919 8.57301 20.5 11.9999 20.5C15.4268 20.5 17.473 19.919 18.696 18.696C19.9189 17.4731 20.4999 15.4269 20.4999 12C20.4999 8.5731 19.9189 6.52693 18.696 5.30396C17.473 4.08098 15.4268 3.5 11.9999 3.5C8.57301 3.5 6.52684 4.08098 5.30386 5.30396ZM4.2432 4.24329C5.91098 2.57552 8.48981 2 11.9999 2C15.51 2 18.0888 2.57552 19.7566 4.24329C21.4244 5.91107 21.9999 8.4899 21.9999 12C21.9999 15.5101 21.4244 18.0889 19.7566 19.7567C18.0888 21.4245 15.51 22 11.9999 22C8.48981 22 5.91098 21.4245 4.2432 19.7567C2.57543 18.0889 1.99991 15.5101 1.99991 12C1.99991 8.4899 2.57543 5.91107 4.2432 4.24329Z" fill="#484848"/>
</svg>
