<svg width="24" height="24" viewBox="0 0 24 24" fill="none" xmlns="http://www.w3.org/2000/svg">
<path fill-rule="evenodd" clip-rule="evenodd" d="M12.0368 7.71265C12.451 7.71265 12.7868 8.04843 12.7868 8.46265V15.6111C12.7868 16.0253 12.451 16.3611 12.0368 16.3611C11.6226 16.3611 11.2868 16.0253 11.2868 15.6111V8.46265C11.2868 8.04843 11.6226 7.71265 12.0368 7.71265Z" fill="currentColor"/>
<path fill-rule="evenodd" clip-rule="evenodd" d="M7.7088 12.0369C7.7088 11.6227 8.04459 11.2869 8.4588 11.2869H15.6146C16.0288 11.2869 16.3646 11.6227 16.3646 12.0369C16.3646 12.4511 16.0288 12.7869 15.6146 12.7869H8.4588C8.04459 12.7869 7.7088 12.4511 7.7088 12.0369Z" fill="currentColor"/>
<path fill-rule="evenodd" clip-rule="evenodd" d="M4.96045 4.96051C3.6614 6.25956 3.04999 8.42744 3.04999 12.0369C3.04999 15.6463 3.6614 17.8142 4.96045 19.1133C6.25949 20.4123 8.42738 21.0237 12.0368 21.0237C15.6463 21.0237 17.8142 20.4123 19.1132 19.1133C20.4123 17.8142 21.0237 15.6463 21.0237 12.0369C21.0237 8.42744 20.4123 6.25956 19.1132 4.96051C17.8142 3.66147 15.6463 3.05005 12.0368 3.05005C8.42738 3.05005 6.25949 3.66147 4.96045 4.96051ZM3.89979 3.89985C5.64364 2.156 8.34418 1.55005 12.0368 1.55005C15.7295 1.55005 18.43 2.156 20.1739 3.89985C21.9177 5.6437 22.5237 8.34424 22.5237 12.0369C22.5237 15.7295 21.9177 18.4301 20.1739 20.1739C18.43 21.9178 15.7295 22.5237 12.0368 22.5237C8.34418 22.5237 5.64364 21.9178 3.89979 20.1739C2.15594 18.4301 1.54999 15.7295 1.54999 12.0369C1.54999 8.34424 2.15594 5.6437 3.89979 3.89985Z" fill="currentColor"/>
</svg>
