<svg width="24" height="24" viewBox="0 0 24 24" fill="none" xmlns="http://www.w3.org/2000/svg">
<path fill-rule="evenodd" clip-rule="evenodd" d="M0.699951 12.8C0.699951 12.3858 1.03574 12.05 1.44995 12.05H22.582C22.9962 12.05 23.332 12.3858 23.332 12.8C23.332 13.2143 22.9962 13.55 22.582 13.55H1.44995C1.03574 13.55 0.699951 13.2143 0.699951 12.8Z" fill="currentColor"/>
<path fill-rule="evenodd" clip-rule="evenodd" d="M9.50622 2.82884C9.57318 3.2376 9.29608 3.62325 8.88732 3.6902C7.24369 3.95942 6.1097 4.48461 5.32017 5.27415C4.53063 6.06368 4.00544 7.19767 3.73622 8.84129C3.66927 9.25006 3.28362 9.52716 2.87486 9.4602C2.46609 9.39325 2.189 9.0076 2.25595 8.59884C2.55673 6.76246 3.17654 5.29645 4.25951 4.21349C5.34247 3.13052 6.80848 2.51071 8.64486 2.20993C9.05362 2.14298 9.43927 2.42007 9.50622 2.82884Z" fill="currentColor"/>
<path fill-rule="evenodd" clip-rule="evenodd" d="M2.76819 12.0544C3.1823 12.0451 3.52554 12.3732 3.53485 12.7874C3.55375 13.6285 3.61761 14.3842 3.72618 15.0487C3.73005 15.0652 3.73339 15.082 3.73618 15.099C4.00534 16.7423 4.53039 17.8737 5.31976 18.662C6.10957 19.4508 7.24423 19.9762 8.88934 20.2504C9.29791 20.3185 9.57393 20.7049 9.50583 21.1135C9.43774 21.5221 9.05132 21.7981 8.64274 21.73C6.80784 21.4242 5.3425 20.8046 4.25981 19.7234C3.1874 18.6524 2.56904 17.207 2.26492 15.3958C2.26127 15.3802 2.25809 15.3645 2.25541 15.3485C2.12714 14.5852 2.05584 13.7382 2.03523 12.8211C2.02592 12.4069 2.35408 12.0637 2.76819 12.0544Z" fill="currentColor"/>
<path fill-rule="evenodd" clip-rule="evenodd" d="M21.2613 12.0541C21.6755 12.0635 22.0036 12.4067 21.9943 12.8208C21.9741 13.7188 21.9044 14.5483 21.7825 15.2974C21.781 15.312 21.779 15.3267 21.7766 15.3414C21.4752 17.178 20.855 18.6416 19.7718 19.7232C18.689 20.8044 17.2237 21.4239 15.3888 21.7298C14.9802 21.7979 14.5938 21.5218 14.5257 21.1133C14.4576 20.7047 14.7336 20.3183 15.1422 20.2502C16.7873 19.976 17.922 19.4505 18.7119 18.6617C19.4939 17.8809 20.0167 16.7635 20.2886 15.1454C20.2902 15.1305 20.2922 15.1156 20.2947 15.1007C20.4077 14.4227 20.4753 13.6492 20.4947 12.7871C20.504 12.373 20.8472 12.0448 21.2613 12.0541Z" fill="currentColor"/>
<path fill-rule="evenodd" clip-rule="evenodd" d="M14.526 2.82884C14.5929 2.42007 14.9786 2.14298 15.3873 2.20993C17.2237 2.51071 18.6897 3.13052 19.7727 4.21349C20.8556 5.29645 21.4755 6.76246 21.7762 8.59884C21.8432 9.0076 21.5661 9.39325 21.1573 9.4602C20.7486 9.52716 20.3629 9.25006 20.296 8.84129C20.0268 7.19767 19.5016 6.06368 18.712 5.27415C17.9225 4.48461 16.7885 3.95942 15.1449 3.6902C14.7361 3.62325 14.459 3.2376 14.526 2.82884Z" fill="currentColor"/>
</svg>
