<svg width="24" height="24" viewBox="0 0 24 24" fill="none" xmlns="http://www.w3.org/2000/svg">
<path fill-rule="evenodd" clip-rule="evenodd" d="M11.2754 3.46436C6.96107 3.46436 3.46448 6.96095 3.46448 11.2753C3.46448 15.5897 6.96107 19.0863 11.2754 19.0863C15.5889 19.0863 19.0864 15.5896 19.0864 11.2753C19.0864 6.961 15.5889 3.46436 11.2754 3.46436ZM1.96448 11.2753C1.96448 6.13252 6.13264 1.96436 11.2754 1.96436C16.4172 1.96436 20.5864 6.13247 20.5864 11.2753C20.5864 16.4181 16.4172 20.5863 11.2754 20.5863C6.13264 20.5863 1.96448 16.4181 1.96448 11.2753Z" fill="#484848"/>
<path fill-rule="evenodd" clip-rule="evenodd" d="M19.899 19.2378C19.5338 19.2378 19.2375 19.5347 19.2375 19.8983C19.2375 20.2637 19.5338 20.5597 19.899 20.5597C20.2635 20.5597 20.5595 20.2644 20.5595 19.8983C20.5595 19.5341 20.2635 19.2378 19.899 19.2378ZM17.7375 19.8983C17.7375 18.7056 18.706 17.7378 19.899 17.7378C21.0926 17.7378 22.0595 18.7063 22.0595 19.8983C22.0595 21.0922 21.0926 22.0597 19.899 22.0597C18.706 22.0597 17.7375 21.0928 17.7375 19.8983Z" fill="#484848"/>
</svg>
