<svg width="24" height="24" viewBox="0 0 24 24" fill="none" xmlns="http://www.w3.org/2000/svg">
<path fill-rule="evenodd" clip-rule="evenodd" d="M13.2141 4.87707C9.54189 5.88816 5.71948 7.24598 4.0535 8.20762C3.65556 8.43734 3.56769 8.5906 3.552 8.62434C3.5594 8.65024 3.58839 8.71244 3.68949 8.81967C3.87478 9.0162 4.20124 9.2467 4.67161 9.49435C5.13192 9.73671 5.68575 9.97276 6.28653 10.1961C7.48782 10.6427 8.82598 11.0199 9.87231 11.2868C10.3936 11.4198 10.8386 11.5244 11.1527 11.5956C11.3097 11.6313 11.4338 11.6585 11.5182 11.6767L11.6141 11.6972L11.6381 11.7023L11.645 11.7037C11.938 11.7644 12.1671 11.9933 12.2277 12.2862L12.2292 12.2934L12.2342 12.3174L12.2548 12.4133C12.273 12.4977 12.3002 12.6218 12.3358 12.7788C12.4071 13.0929 12.5117 13.5379 12.6447 14.0592C12.9116 15.1055 13.2888 16.4437 13.7354 17.645C13.9587 18.2457 14.1948 18.7996 14.4371 19.2599C14.6848 19.7302 14.9153 20.0567 15.1118 20.242C15.219 20.3431 15.2812 20.3721 15.3071 20.3795C15.3409 20.3638 15.4941 20.2759 15.7239 19.878C16.6855 18.212 18.0433 14.3896 19.0544 10.7173C19.5565 8.89368 19.9638 7.14058 20.1897 5.74933C20.303 5.05203 20.3676 4.46366 20.3795 4.01131C20.3842 3.83098 20.3802 3.68164 20.3698 3.56168C20.2498 3.55128 20.1005 3.5473 19.9202 3.55202C19.4678 3.56386 18.8795 3.62852 18.1822 3.74176C16.7909 3.96768 15.0378 4.37496 13.2141 4.87707ZM15.3214 20.3813C15.3215 20.3819 15.3182 20.3822 15.3113 20.3806C15.3179 20.38 15.3213 20.3808 15.3214 20.3813ZM10.8634 13.0681C10.8495 13.065 10.8353 13.0618 10.8209 13.0585C10.4962 12.9849 10.038 12.8771 9.50157 12.7403C8.43234 12.4675 7.03646 12.0752 5.76383 11.6021C5.12765 11.3656 4.50955 11.1042 3.97279 10.8216C3.44609 10.5443 2.95033 10.2223 2.59809 9.84867C2.24704 9.47634 1.93532 8.93318 2.08978 8.28396C2.2331 7.6816 2.72537 7.24232 3.3036 6.90853C5.14977 5.84287 9.13543 4.44425 12.816 3.43089C14.6687 2.92078 16.4781 2.49882 17.9417 2.26115C18.6718 2.14259 19.334 2.06685 19.8809 2.05254C20.1544 2.04538 20.4139 2.05311 20.6468 2.08305C20.8708 2.11184 21.1186 2.16686 21.3382 2.28385C21.4698 2.35394 21.5775 2.46166 21.6476 2.59326C21.7646 2.81293 21.8196 3.06072 21.8484 3.28464C21.8784 3.51758 21.8861 3.77704 21.8789 4.05055C21.8646 4.59753 21.7889 5.25965 21.6703 5.98977C21.4327 7.45335 21.0107 9.26282 20.5006 11.1155C19.4872 14.796 18.0886 18.7817 17.023 20.6279C16.6892 21.2061 16.2499 21.6984 15.6475 21.8417C14.9983 21.9962 14.4551 21.6844 14.0828 21.3334C13.7092 20.9812 13.3872 20.4854 13.1099 19.9587C12.8272 19.4219 12.5659 18.8038 12.3294 18.1676C11.8563 16.895 11.4639 15.4991 11.1912 14.4299C11.0544 13.8934 10.9466 13.4352 10.873 13.1106C10.8697 13.0962 10.8665 13.082 10.8634 13.0681ZM3.55014 8.61006C3.55069 8.61016 3.55149 8.61361 3.55091 8.62014C3.5493 8.61323 3.5496 8.60997 3.55014 8.61006Z" fill="#484848"/>
<path fill-rule="evenodd" clip-rule="evenodd" d="M21.516 2.41547C21.8089 2.70836 21.8089 3.18324 21.516 3.47613L12.0236 12.9685C11.7307 13.2614 11.2558 13.2614 10.9629 12.9685C10.67 12.6756 10.67 12.2008 10.9629 11.9079L20.4553 2.41547C20.7482 2.12258 21.2231 2.12258 21.516 2.41547Z" fill="#484848"/>
</svg>
