<svg width="24" height="24" viewBox="0 0 24 24" fill="none" xmlns="http://www.w3.org/2000/svg">
<path d="M10.7618 14.1209C10.9028 14.2619 11.0938 14.3409 11.2928 14.3409C11.4918 14.3409 11.6828 14.2619 11.8228 14.1209L15.7208 10.2219C16.0138 9.92891 16.0138 9.45391 15.7208 9.16091C15.4278 8.86791 14.9538 8.86791 14.6608 9.16091L11.2928 12.5289L9.93175 11.1659C9.63875 10.8729 9.16275 10.8729 8.87075 11.1659C8.57775 11.4579 8.57775 11.9339 8.86975 12.2269L10.7618 14.1209Z" fill="currentColor"/>
<path fill-rule="evenodd" clip-rule="evenodd" d="M3.57802 12.7005C3.57802 19.3975 9.06302 22.1775 12 22.1775C14.937 22.1775 20.422 19.3975 20.422 12.7005C20.422 10.8066 20.4464 9.4299 20.4643 8.41564L20.4651 8.37086C20.511 5.83386 20.5206 5.30411 19.866 4.64951C19.034 3.81751 15.59 1.82251 12 1.82251C8.40902 1.82251 4.96602 3.81751 4.13602 4.64951C3.47941 5.30412 3.489 5.83487 3.53493 8.37592L3.53572 8.42006C3.55366 9.43339 3.57802 10.8092 3.57802 12.7005ZM5.19702 5.71051C5.68202 5.22351 8.73402 3.32251 12 3.32251C15.266 3.32251 18.319 5.22351 18.805 5.71051C18.997 5.90251 19.004 6.22051 18.966 8.34751C18.947 9.37351 18.922 10.7685 18.922 12.7005C18.922 18.7875 13.848 20.6775 12 20.6775C10.152 20.6775 5.07802 18.7875 5.07802 12.7005C5.07802 10.8002 5.05373 9.41762 5.03579 8.39682L5.03502 8.35251C4.99602 6.22151 5.00302 5.90251 5.19702 5.71051Z" fill="currentColor"/>
</svg>
