<svg width="24" height="24" viewBox="0 0 24 24" fill="none" xmlns="http://www.w3.org/2000/svg">
<path d="M13.8791 14.3967C13.6871 14.3967 13.4951 14.3237 13.3491 14.1767L11.9999 12.8278L10.6506 14.1767C10.5046 14.3237 10.3126 14.3967 10.1206 14.3967C9.9286 14.3967 9.7366 14.3237 9.5906 14.1767C9.2976 13.8837 9.2976 13.4097 9.5906 13.1167L10.9397 11.7679L9.59011 10.4187C9.29711 10.1257 9.29711 9.65167 9.59011 9.35867C9.88311 9.06567 10.3581 9.06567 10.6501 9.35867L11.9999 10.7081L13.3496 9.35867C13.6416 9.06567 14.1166 9.06567 14.4096 9.35867C14.7026 9.65167 14.7026 10.1257 14.4096 10.4187L13.06 11.7679L14.4091 13.1167C14.7021 13.4097 14.7021 13.8837 14.4091 14.1767C14.2631 14.3237 14.0711 14.3967 13.8791 14.3967Z" fill="currentColor"/>
<path fill-rule="evenodd" clip-rule="evenodd" d="M12.0002 22.1775C9.06317 22.1775 3.57717 19.3975 3.57717 12.7005C3.57717 10.8092 3.55281 9.43339 3.53487 8.42006L3.53417 8.38051C3.48817 5.83551 3.47917 5.30451 4.13517 4.64951C4.96717 3.81751 8.41217 1.82251 12.0002 1.82251C15.5892 1.82251 19.0332 3.81751 19.8652 4.64951C20.5206 5.30391 20.5112 5.83453 20.4663 8.37449L20.4662 8.38151C20.4472 9.39951 20.4222 10.7855 20.4222 12.7005C20.4222 19.3975 14.9372 22.1775 12.0002 22.1775ZM12.0002 3.32251C8.73617 3.32251 5.68117 5.22351 5.19517 5.71051C5.00217 5.90251 4.99517 6.22151 5.03417 8.35251L5.03495 8.39685C5.05288 9.41764 5.07717 10.8002 5.07717 12.7005C5.07717 18.7875 10.1512 20.6775 12.0002 20.6775C13.8482 20.6775 18.9222 18.7875 18.9222 12.7005C18.9222 10.7735 18.9472 9.37951 18.9662 8.35451C19.0042 6.22151 18.9972 5.90351 18.8042 5.71051C18.3182 5.22351 15.2652 3.32251 12.0002 3.32251Z" fill="currentColor"/>
</svg>
