<svg width="24" height="24" viewBox="0 0 24 24" fill="none" xmlns="http://www.w3.org/2000/svg">
<path fill-rule="evenodd" clip-rule="evenodd" d="M12.0023 9.63989C10.6704 9.63989 9.59033 10.7193 9.59033 12.0519C9.59033 13.3837 10.6705 14.4639 12.0023 14.4639C13.3341 14.4639 14.4143 13.3837 14.4143 12.0519C14.4143 10.7193 13.3343 9.63989 12.0023 9.63989ZM8.09033 12.0519C8.09033 9.89052 9.84227 8.13989 12.0023 8.13989C14.1624 8.13989 15.9143 9.89052 15.9143 12.0519C15.9143 14.2121 14.1625 15.9639 12.0023 15.9639C9.84212 15.9639 8.09033 14.2121 8.09033 12.0519Z" fill="currentColor"/>
<path fill-rule="evenodd" clip-rule="evenodd" d="M4.97583 6.59826C6.77023 5.08118 9.25104 4 12.0023 4C14.7529 4 17.2337 5.08034 19.0283 6.59706C20.8033 8.09726 22.0043 10.114 22.0043 12.052C22.0043 13.99 20.8033 16.0067 19.0283 17.5069C17.2337 19.0237 14.7529 20.104 12.0023 20.104C9.25104 20.104 6.77023 19.0228 4.97583 17.5057C3.20105 16.0052 2.00031 13.9885 2.00031 12.052C2.00031 10.1155 3.20105 8.09876 4.97583 6.59826ZM5.94428 7.74374C4.37056 9.07424 3.50031 10.7085 3.50031 12.052C3.50031 13.3955 4.37056 15.0298 5.94428 16.3603C7.49838 17.6742 9.64357 18.604 12.0023 18.604C14.3607 18.604 16.5059 17.6748 18.0601 16.3613C19.6338 15.0313 20.5043 13.397 20.5043 12.052C20.5043 10.707 19.6338 9.07274 18.0601 7.74269C16.5059 6.42916 14.3607 5.5 12.0023 5.5C9.64357 5.5 7.49838 6.42982 5.94428 7.74374Z" fill="currentColor"/>
</svg>
