<svg width="24" height="24" viewBox="0 0 24 24" fill="none" xmlns="http://www.w3.org/2000/svg">
<path d="M2.6099 9.34969C2.7219 9.40769 2.8419 9.43569 2.9589 9.43569C3.2289 9.43569 3.4889 9.28969 3.6229 9.03569C4.23212 7.87849 5.34598 6.29234 6.27905 5.63739V17.2049C6.27905 17.6189 6.61505 17.9549 7.02905 17.9549C7.44305 17.9549 7.77905 17.6189 7.77905 17.2049V5.63771C8.7135 6.29305 9.83287 7.8796 10.4459 9.03669C10.6399 9.40169 11.0939 9.54269 11.4599 9.34869C11.8259 9.15469 11.9659 8.70069 11.7719 8.33469C11.3749 7.58369 9.2769 3.83569 7.0289 3.83569C4.7809 3.83569 2.6919 7.58469 2.2969 8.33569C2.1039 8.70269 2.2439 9.15669 2.6099 9.34969Z" fill="currentColor"/>
<path d="M17.7097 18.3623V6.79541C17.7097 6.38141 17.3737 6.04541 16.9597 6.04541C16.5457 6.04541 16.2097 6.38141 16.2097 6.79541V18.3626C15.2752 17.7074 14.1556 16.1206 13.5425 14.9634C13.3495 14.5984 12.8945 14.4574 12.5285 14.6514C12.1625 14.8454 12.0225 15.2994 12.2165 15.6644C12.6135 16.4164 14.7115 20.1644 16.9595 20.1644C19.2075 20.1644 21.3055 16.4164 21.7025 15.6644C21.8965 15.2994 21.7565 14.8454 21.3905 14.6514C21.0245 14.4574 20.5705 14.5984 20.3765 14.9634C19.7635 16.1204 18.6441 17.707 17.7097 18.3623Z" fill="currentColor"/>
</svg>
