<svg width="24" height="24" viewBox="0 0 24 24" fill="none" xmlns="http://www.w3.org/2000/svg">
<path fill-rule="evenodd" clip-rule="evenodd" d="M16.0905 9.09662C16.3834 9.38952 16.3834 9.86439 16.0905 10.1573L11.3445 14.9033C11.0517 15.1961 10.5769 15.1962 10.284 14.9034L7.90998 12.5304C7.61703 12.2376 7.61693 11.7627 7.90976 11.4697C8.20259 11.1768 8.67746 11.1767 8.97042 11.4695L10.8141 13.3124L15.0299 9.09662C15.3228 8.80373 15.7976 8.80373 16.0905 9.09662Z" fill="currentColor"/>
<path fill-rule="evenodd" clip-rule="evenodd" d="M4.2431 4.24329C5.91087 2.57552 8.4897 2 11.9998 2C15.5099 2 18.0887 2.57552 19.7565 4.24329C21.4243 5.91107 21.9998 8.4899 21.9998 12C21.9998 15.5101 21.4243 18.0889 19.7565 19.7567C18.0887 21.4245 15.5099 22 11.9998 22C8.4897 22 5.91087 21.4245 4.2431 19.7567C2.57532 18.0889 1.9998 15.5101 1.9998 12C1.9998 8.4899 2.57532 5.91107 4.2431 4.24329ZM5.30376 5.30396C4.08078 6.52693 3.4998 8.5731 3.4998 12C3.4998 15.4269 4.08078 17.4731 5.30376 18.696C6.52673 19.919 8.5729 20.5 11.9998 20.5C15.4267 20.5 17.4729 19.919 18.6958 18.696C19.9188 17.4731 20.4998 15.4269 20.4998 12C20.4998 8.5731 19.9188 6.52693 18.6958 5.30396C17.4729 4.08098 15.4267 3.5 11.9998 3.5C8.5729 3.5 6.52673 4.08098 5.30376 5.30396Z" fill="currentColor"/>
</svg>
