<svg width="24" height="24" viewBox="0 0 24 24" fill="none" xmlns="http://www.w3.org/2000/svg">
<path fill-rule="evenodd" clip-rule="evenodd" d="M9.71816 15.2786C9.96816 15.4506 10.2182 15.5146 10.4542 15.5146C10.9272 15.5146 11.3472 15.2606 11.6142 15.0986C11.7342 15.0246 11.9362 14.9026 11.9922 14.8926C12.0639 14.9023 12.2561 15.0183 12.378 15.0919L12.3892 15.0986C12.7892 15.3426 13.5342 15.7946 14.2852 15.2776C15.0818 14.7263 14.8356 13.8389 14.7162 13.4085L14.7152 13.4046C14.6782 13.2726 14.6222 13.0736 14.6092 13.0626C14.6452 13.0066 14.8032 12.8876 14.9082 12.8086C15.2722 12.5336 15.9501 12.0215 15.7272 11.1496C15.4882 10.2186 14.5332 10.1756 14.0202 10.1526L14.0105 10.1522C13.8695 10.1462 13.6615 10.1373 13.6752 10.1676C13.6262 10.1136 13.5402 9.91364 13.4832 9.78064L13.4824 9.77892C13.2862 9.3255 12.922 8.48364 12.0012 8.48364C11.0782 8.48364 10.7142 9.32764 10.5192 9.78164C10.5127 9.79627 10.506 9.81175 10.499 9.82776C10.4549 9.9289 10.4013 10.0519 10.3582 10.1226C10.2747 10.1379 10.1316 10.1451 10.0193 10.1508C10.0065 10.1514 9.99405 10.152 9.98216 10.1526C9.46916 10.1756 8.51416 10.2186 8.27416 11.1506C8.05221 12.0215 8.72987 12.5334 9.09392 12.8085C9.10047 12.8134 9.10746 12.8186 9.11438 12.8238C9.21726 12.901 9.35529 13.0046 9.37216 13.0046C9.3791 13.0731 9.32507 13.2694 9.28807 13.4014L9.28716 13.4046L9.2861 13.4085C9.16669 13.8389 8.92053 14.7263 9.71816 15.2786ZM13.1662 13.8156C12.8552 13.6266 12.4682 13.3926 12.0012 13.3926C11.5342 13.3926 11.1472 13.6266 10.8362 13.8156C10.8292 13.8198 10.8221 13.8242 10.8148 13.8286C10.7821 13.8485 10.7459 13.8704 10.7092 13.8916L10.7322 13.8086C10.8222 13.4866 10.9342 13.0856 10.8332 12.6636C10.7162 12.1766 10.3442 11.8736 10.0502 11.6506C10.4682 11.6316 10.9872 11.6076 11.3642 11.2516C11.6262 11.0026 11.7702 10.6696 11.8962 10.3756C11.9252 10.3086 11.9632 10.2216 12.0012 10.1416C12.034 10.2108 12.0661 10.2852 12.0929 10.3473C12.0971 10.3571 12.1012 10.3665 12.1052 10.3756C12.2322 10.6696 12.3762 11.0026 12.6402 11.2536C13.0152 11.6076 13.5342 11.6316 13.9512 11.6506C13.6582 11.8736 13.2852 12.1776 13.1682 12.6646C13.0682 13.0856 13.1802 13.4866 13.2702 13.8086L13.2932 13.8916C13.2564 13.8704 13.2203 13.8485 13.1875 13.8286C13.1802 13.8242 13.1731 13.8198 13.1662 13.8156Z" fill="currentColor"/>
<path fill-rule="evenodd" clip-rule="evenodd" d="M1.85498 14.0566C1.85498 19.4216 2.34598 21.2766 12 21.2766C21.654 21.2766 22.145 19.4216 22.145 14.0566C22.145 13.6426 21.809 13.3066 21.395 13.3066C20.476 13.3066 20.149 12.6026 20.149 11.9996C20.149 11.3966 20.476 10.6926 21.395 10.6926C21.809 10.6926 22.145 10.3566 22.145 9.94263C22.145 4.57863 21.654 2.72363 12 2.72363C2.34598 2.72363 1.85498 4.57863 1.85498 9.94263C1.85498 10.3566 2.19098 10.6926 2.60498 10.6926C3.52398 10.6926 3.85098 11.3966 3.85098 11.9996C3.85098 12.6026 3.52398 13.3066 2.60498 13.3066C2.19098 13.3066 1.85498 13.6426 1.85498 14.0566ZM12 19.7766C3.78198 19.7766 3.37598 18.7836 3.35598 14.7166C4.66898 14.3836 5.35098 13.1856 5.35098 11.9996C5.35098 10.8126 4.66898 9.61463 3.35598 9.28163C3.37598 5.21563 3.78198 4.22363 12 4.22363C20.218 4.22363 20.624 5.21563 20.644 9.28163C19.331 9.61463 18.649 10.8126 18.649 11.9996C18.649 13.1856 19.331 14.3836 20.644 14.7166C20.624 18.7836 20.218 19.7766 12 19.7766Z" fill="currentColor"/>
</svg>
