<svg width="24" height="24" viewBox="0 0 24 24" fill="none" xmlns="http://www.w3.org/2000/svg">
<path fill-rule="evenodd" clip-rule="evenodd" d="M4.24342 4.24329C5.91119 2.57552 8.49002 2 12.0001 2C15.5102 2 18.0891 2.57552 19.7568 4.24329C21.4246 5.91107 22.0001 8.4899 22.0001 12C22.0001 15.5101 21.4246 18.0889 19.7568 19.7567C18.0891 21.4245 15.5102 22 12.0001 22C8.49002 22 5.91119 21.4245 4.24342 19.7567C2.57564 18.0889 2.00012 15.5101 2.00012 12C2.00012 8.4899 2.57564 5.91107 4.24342 4.24329ZM5.30408 5.30396C4.0811 6.52693 3.50012 8.5731 3.50012 12C3.50012 15.4269 4.0811 17.4731 5.30408 18.696C6.52705 19.919 8.57322 20.5 12.0001 20.5C15.427 20.5 17.4732 19.919 18.6962 18.696C19.9191 17.4731 20.5001 15.4269 20.5001 12C20.5001 8.5731 19.9191 6.52693 18.6962 5.30396C17.4732 4.08098 15.427 3.5 12.0001 3.5C8.57322 3.5 6.52705 4.08098 5.30408 5.30396Z" fill="currentColor"/>
<path fill-rule="evenodd" clip-rule="evenodd" d="M11.9993 6.88403C12.4135 6.88403 12.7493 7.21982 12.7493 7.63403V11.5691L15.7745 13.3739C16.1302 13.5862 16.2466 14.0466 16.0344 14.4023C15.8221 14.758 15.3617 14.8743 15.006 14.6621L11.615 12.6391C11.3882 12.5038 11.2493 12.2592 11.2493 11.995V7.63403C11.2493 7.21982 11.5851 6.88403 11.9993 6.88403Z" fill="currentColor"/>
</svg>
