<svg width="24" height="24" viewBox="0 0 24 24" fill="none" xmlns="http://www.w3.org/2000/svg">
<path fill-rule="evenodd" clip-rule="evenodd" d="M11.9998 3.5C7.30598 3.5 3.49982 7.30527 3.49982 12C3.49982 16.6938 7.30603 20.5 11.9998 20.5C16.6946 20.5 20.4998 16.6938 20.4998 12C20.4998 7.30521 16.6946 3.5 11.9998 3.5ZM1.99982 12C1.99982 6.47673 6.47766 2 11.9998 2C17.523 2 21.9998 6.47679 21.9998 12C21.9998 17.5222 17.5231 22 11.9998 22C6.4776 22 1.99982 17.5222 1.99982 12Z" fill="#484848"/>
<path fill-rule="evenodd" clip-rule="evenodd" d="M11.6607 7.09619C12.0749 7.09619 12.4107 7.43198 12.4107 7.84619V11.9553L16.203 12.0173C16.6171 12.0241 16.9474 12.3653 16.9406 12.7794C16.9338 13.1936 16.5926 13.5239 16.1785 13.5171L11.6485 13.4431C11.2391 13.4364 10.9107 13.1026 10.9107 12.6932V7.84619C10.9107 7.43198 11.2465 7.09619 11.6607 7.09619Z" fill="#484848"/>
</svg>
