<svg width="24" height="24" viewBox="0 0 24 24" fill="none" xmlns="http://www.w3.org/2000/svg">
<path d="M11.9998 17.0677C11.5858 17.0677 11.2498 16.7317 11.2498 16.3177V14.0967C11.2498 13.6827 11.5858 13.3467 11.9998 13.3467C12.4138 13.3467 12.7498 13.6827 12.7498 14.0967V16.3177C12.7498 16.7317 12.4138 17.0677 11.9998 17.0677Z" fill="currentColor"/>
<path fill-rule="evenodd" clip-rule="evenodd" d="M8.17944 8.37322V7.19189C8.22244 5.11489 9.87744 3.46689 11.9494 3.44189H11.9964C13.6664 3.44189 15.1604 4.54689 15.6404 6.14489C15.7604 6.53989 16.1764 6.76689 16.5754 6.64789C16.9714 6.52889 17.1974 6.10989 17.0774 5.71289C16.4084 3.48389 14.3254 1.94189 11.9964 1.94189H11.9304C9.04544 1.97689 6.73944 4.26989 6.67944 7.17589V8.87067C4.48981 9.87317 3.59009 11.8195 3.59009 15.0359C3.59009 20.1549 5.86909 22.0579 12.0001 22.0579C18.1311 22.0579 20.4101 20.1549 20.4101 15.0359C20.4101 9.91689 18.1311 8.01489 12.0001 8.01489C10.5051 8.01489 9.23917 8.12798 8.17944 8.37322ZM7.60135 10.0751C7.65956 10.0614 7.71517 10.0409 7.76728 10.0146C8.79743 9.65783 10.1788 9.51489 12.0001 9.51489C17.3601 9.51489 18.9101 10.7529 18.9101 15.0359C18.9101 19.3199 17.3601 20.5579 12.0001 20.5579C6.64009 20.5579 5.09009 19.3199 5.09009 15.0359C5.09009 12.2878 5.72819 10.7933 7.60135 10.0751Z" fill="currentColor"/>
</svg>
