<svg width="24" height="24" viewBox="0 0 24 24" fill="none" xmlns="http://www.w3.org/2000/svg">
<path fill-rule="evenodd" clip-rule="evenodd" d="M12.1207 15C11.7065 15 11.3707 14.6642 11.3707 14.25V2.209C11.3707 1.79479 11.7065 1.459 12.1207 1.459C12.5349 1.459 12.8707 1.79479 12.8707 2.209V14.25C12.8707 14.6642 12.5349 15 12.1207 15Z" fill="#484848"/>
<path fill-rule="evenodd" clip-rule="evenodd" d="M8.67546 5.66716C8.38196 5.37487 8.38099 4.9 8.67328 4.6065L11.5893 1.6785C11.73 1.53718 11.9213 1.45774 12.1207 1.45774C12.3201 1.45774 12.5114 1.53718 12.6521 1.6785L15.5681 4.6065C15.8604 4.9 15.8594 5.37487 15.5659 5.66716C15.2724 5.95945 14.7976 5.95848 14.5053 5.66498L12.1207 3.27059L9.73611 5.66498C9.44382 5.95848 8.96895 5.95945 8.67546 5.66716Z" fill="#484848"/>
<path fill-rule="evenodd" clip-rule="evenodd" d="M4.44998 9.71171C5.02554 8.93499 5.96644 8.5467 7.69874 8.38702C8.1112 8.349 8.41475 7.98381 8.37673 7.57134C8.33871 7.15888 7.97352 6.85533 7.56105 6.89335C5.71334 7.06367 4.21425 7.51038 3.2448 8.81866C2.31535 10.073 1.99989 11.9628 1.99989 14.6402C1.99989 18.19 2.55644 20.3726 4.37984 21.4926C5.24889 22.0265 6.32519 22.2624 7.55729 22.377C8.78454 22.4912 10.2589 22.4912 11.9683 22.4912H12.0315C13.7409 22.4912 15.2152 22.4912 16.4425 22.377C17.6746 22.2624 18.7509 22.0265 19.62 21.4926C21.4433 20.3726 21.9999 18.19 21.9999 14.6402C21.9999 11.9628 21.6844 10.073 20.755 8.81866C19.7855 7.51038 18.2864 7.06367 16.4387 6.89335C16.0263 6.85533 15.6611 7.15888 15.6231 7.57134C15.585 7.98381 15.8886 8.349 16.3011 8.38702C18.0333 8.5467 18.9743 8.93499 19.5498 9.71171C20.1653 10.5424 20.4999 11.9876 20.4999 14.6402C20.4999 18.1914 19.9014 19.5593 18.8348 20.2145C18.2589 20.5683 17.4564 20.7762 16.3035 20.8835C15.1534 20.9905 13.7471 20.9912 11.9999 20.9912C10.2527 20.9912 8.84644 20.9905 7.69625 20.8835C6.54335 20.7762 5.7409 20.5683 5.16495 20.2145C4.09835 19.5593 3.49989 18.1914 3.49989 14.6402C3.49989 11.9876 3.83444 10.5424 4.44998 9.71171Z" fill="#484848"/>
</svg>
