<svg width="24" height="24" viewBox="0 0 24 24" fill="none" xmlns="http://www.w3.org/2000/svg">
<path fill-rule="evenodd" clip-rule="evenodd" d="M19.398 8.42123C18.5435 8.86645 17.5071 9.55513 16.6173 10.2605C16.2927 10.5178 15.821 10.4633 15.5637 10.1387C15.3064 9.81409 15.3609 9.34236 15.6855 9.08504C16.6338 8.33326 17.7498 7.58861 18.7048 7.09098C19.1775 6.84472 19.6454 6.64054 20.0517 6.53579C20.2531 6.48389 20.4795 6.44558 20.704 6.459C20.9262 6.47229 21.234 6.54337 21.4725 6.80062C21.611 6.94964 21.6971 7.12576 21.7533 7.26498C21.8136 7.41456 21.8623 7.58071 21.9028 7.75081C21.9839 8.09127 22.046 8.50567 22.0933 8.95535C22.1882 9.85818 22.2306 10.9738 22.2264 12.0756C22.2222 13.1778 22.1712 14.2873 22.0742 15.1785C22.026 15.6224 21.9646 16.0289 21.887 16.3598C21.8484 16.5249 21.8022 16.6862 21.7455 16.8306C21.694 16.9616 21.6111 17.1391 21.4718 17.2885C21.2241 17.5556 20.9016 17.6118 20.6929 17.6179C20.4747 17.6242 20.2539 17.5816 20.0577 17.5273C19.6604 17.4174 19.1971 17.2118 18.7249 16.9646C17.771 16.4651 16.6476 15.7248 15.6903 14.9786C15.3636 14.7239 15.3052 14.2527 15.5599 13.926C15.8145 13.5993 16.2858 13.5409 16.6125 13.7955C17.5123 14.4969 18.5603 15.1852 19.4207 15.6357C19.8308 15.8505 20.1695 15.9958 20.4141 16.0691C20.4182 16.0527 20.4224 16.0356 20.4266 16.0177C20.4846 15.7701 20.538 15.4306 20.583 15.0164C20.6727 14.1916 20.7223 13.1368 20.7264 12.0699C20.7305 11.0027 20.689 9.9445 20.6015 9.11221C20.5576 8.69433 20.5038 8.35084 20.4436 8.09852C20.4342 8.05907 20.425 8.02327 20.4161 7.99093C20.1717 8.05537 19.8242 8.19911 19.398 8.42123ZM20.3321 16.321C20.3321 16.321 20.3325 16.3203 20.3332 16.319C20.3325 16.3204 20.3322 16.321 20.3321 16.321Z" fill="#484848"/>
<path fill-rule="evenodd" clip-rule="evenodd" d="M4.55499 7.15778C3.69851 8.017 3.2644 9.48175 3.2644 12.0369C3.2644 14.5915 3.69849 16.0563 4.55502 16.9156C5.41083 17.7743 6.86928 18.2097 9.41536 18.2097C11.9609 18.2097 13.4191 17.7743 14.2748 16.9157C15.1313 16.0563 15.5654 14.5915 15.5654 12.0369C15.5654 9.48176 15.1313 8.01698 14.2749 7.15775C13.4192 6.29925 11.961 5.86401 9.41536 5.86401C6.86919 5.86401 5.41077 6.29926 4.55499 7.15778ZM3.49263 6.09882C4.79328 4.79401 6.78533 4.36401 9.41536 4.36401C12.0449 4.36401 14.0368 4.79402 15.3373 6.09885C16.6371 7.40295 17.0654 9.3996 17.0654 12.0369C17.0654 14.6737 16.6371 16.6703 15.3373 17.9745C14.0368 19.2795 12.045 19.7097 9.41536 19.7097C6.78524 19.7097 4.79322 19.2795 3.4926 17.9745C2.1927 16.6703 1.7644 14.6737 1.7644 12.0369C1.7644 9.39961 2.19268 7.40293 3.49263 6.09882Z" fill="#484848"/>
</svg>
