<svg width="24" height="24" viewBox="0 0 24 24" fill="none" xmlns="http://www.w3.org/2000/svg">
<path fill-rule="evenodd" clip-rule="evenodd" d="M6.36487 12.9285C6.77908 12.9285 7.11487 13.2643 7.11487 13.6785C7.11487 16.3953 9.31708 18.5975 12.0339 18.5975C14.7517 18.5975 16.9539 16.3952 16.9539 13.6785C16.9539 13.2643 17.2897 12.9285 17.7039 12.9285C18.1181 12.9285 18.4539 13.2643 18.4539 13.6785C18.4539 17.2238 15.58 20.0975 12.0339 20.0975C8.48865 20.0975 5.61487 17.2237 5.61487 13.6785C5.61487 13.2643 5.95065 12.9285 6.36487 12.9285Z" fill="currentColor"/>
<path fill-rule="evenodd" clip-rule="evenodd" d="M5.61475 8.169C5.61475 4.62379 8.48853 1.75 12.0337 1.75C15.5799 1.75 18.4537 4.6237 18.4537 8.169V10.423C18.4537 10.8372 18.118 11.173 17.7037 11.173C17.2895 11.173 16.9537 10.8372 16.9537 10.423V8.169C16.9537 5.4523 14.7516 3.25 12.0337 3.25C9.31696 3.25 7.11475 5.45221 7.11475 8.169V10.423C7.11475 10.8372 6.77896 11.173 6.36475 11.173C5.95053 11.173 5.61475 10.8372 5.61475 10.423V8.169Z" fill="currentColor"/>
<path fill-rule="evenodd" clip-rule="evenodd" d="M12.0338 18.5977C12.448 18.5977 12.7838 18.9334 12.7838 19.3477V21.4997C12.7838 21.9139 12.448 22.2497 12.0338 22.2497C11.6196 22.2497 11.2838 21.9139 11.2838 21.4997V19.3477C11.2838 18.9334 11.6196 18.5977 12.0338 18.5977Z" fill="currentColor"/>
<path fill-rule="evenodd" clip-rule="evenodd" d="M4.15002 13.6785C4.15002 13.2643 4.48581 12.9285 4.90002 12.9285H19.168C19.5822 12.9285 19.918 13.2643 19.918 13.6785C19.918 14.0927 19.5822 14.4285 19.168 14.4285H4.90002C4.48581 14.4285 4.15002 14.0927 4.15002 13.6785Z" fill="currentColor"/>
</svg>
