<svg width="24" height="24" viewBox="0 0 24 24" fill="none" xmlns="http://www.w3.org/2000/svg">
<path fill-rule="evenodd" clip-rule="evenodd" d="M6.60376 13.0823C7.01797 13.0823 7.35376 13.4181 7.35376 13.8323C7.35376 16.3924 9.42899 18.4678 11.9903 18.4678C14.5505 18.4678 16.6258 16.3925 16.6258 13.8323C16.6258 13.4181 16.9616 13.0823 17.3758 13.0823C17.79 13.0823 18.1258 13.4181 18.1258 13.8323C18.1258 17.2209 15.3789 19.9678 11.9903 19.9678C8.60073 19.9678 5.85376 17.221 5.85376 13.8323C5.85376 13.4181 6.18955 13.0823 6.60376 13.0823Z" fill="currentColor"/>
<path fill-rule="evenodd" clip-rule="evenodd" d="M5.85364 8.59844C5.85364 5.20969 8.60061 2.46289 11.9901 2.46289C15.3788 2.46289 18.1257 5.20978 18.1257 8.59844V10.7397C18.1257 11.154 17.7899 11.4897 17.3757 11.4897C16.9615 11.4897 16.6257 11.154 16.6257 10.7397V8.59844C16.6257 6.0382 14.5504 3.96289 11.9901 3.96289C9.42886 3.96289 7.35364 6.03829 7.35364 8.59844V10.7397C7.35364 11.154 7.01785 11.4897 6.60364 11.4897C6.18942 11.4897 5.85364 11.154 5.85364 10.7397V8.59844Z" fill="currentColor"/>
<path fill-rule="evenodd" clip-rule="evenodd" d="M11.9902 18.4683C12.4044 18.4683 12.7402 18.804 12.7402 19.2183V21.2627C12.7402 21.6769 12.4044 22.0127 11.9902 22.0127C11.576 22.0127 11.2402 21.6769 11.2402 21.2627V19.2183C11.2402 18.804 11.576 18.4683 11.9902 18.4683Z" fill="currentColor"/>
<path fill-rule="evenodd" clip-rule="evenodd" d="M4.46216 13.8323C4.46216 13.4181 4.79794 13.0823 5.21216 13.0823H18.7677C19.1819 13.0823 19.5177 13.4181 19.5177 13.8323C19.5177 14.2465 19.1819 14.5823 18.7677 14.5823H5.21216C4.79794 14.5823 4.46216 14.2465 4.46216 13.8323Z" fill="currentColor"/>
<path fill-rule="evenodd" clip-rule="evenodd" d="M9.74744 10.4517C9.74744 10.0374 10.0832 9.70166 10.4974 9.70166H13.4823C13.8966 9.70166 14.2323 10.0374 14.2323 10.4517C14.2323 10.8659 13.8966 11.2017 13.4823 11.2017H10.4974C10.0832 11.2017 9.74744 10.8659 9.74744 10.4517Z" fill="currentColor"/>
<path fill-rule="evenodd" clip-rule="evenodd" d="M10.7379 7.68188C10.7379 7.26767 11.0737 6.93188 11.4879 6.93188H12.4911C12.9053 6.93188 13.2411 7.26767 13.2411 7.68188C13.2411 8.0961 12.9053 8.43188 12.4911 8.43188H11.4879C11.0737 8.43188 10.7379 8.0961 10.7379 7.68188Z" fill="currentColor"/>
</svg>
