<svg width="24" height="24" viewBox="0 0 24 24" fill="none" xmlns="http://www.w3.org/2000/svg">
<path fill-rule="evenodd" clip-rule="evenodd" d="M9.56302 17.9027C10.368 18.5197 11.47 19.3637 12.726 19.3637C13.208 19.3637 13.712 19.2397 14.231 18.9307C15.648 17.9247 16.15 16.1127 16.15 12.0057C16.15 7.8467 15.666 6.0987 14.18 5.0467C12.359 3.9697 10.677 5.2567 9.56402 6.1087L9.56154 6.1106C9.14031 6.43401 8.70546 6.76788 8.41902 6.8607C7.99803 7.00003 7.62656 7.04428 7.26716 7.08708L7.26202 7.0877C6.57102 7.1697 5.85702 7.2547 5.06002 7.9317C3.78102 9.0177 3.78502 10.7437 3.78902 12.0057C3.78502 13.2667 3.78102 14.9917 5.06002 16.0797C5.85702 16.7577 6.57202 16.8427 7.26302 16.9247C7.62402 16.9677 7.99702 17.0127 8.41802 17.1497C8.70212 17.2437 9.13224 17.573 9.55024 17.8929L9.56302 17.9027ZM10.476 7.2997C11.374 6.6117 12.077 6.1237 12.722 6.1237C12.941 6.1237 13.153 6.1797 13.363 6.3037C14.158 6.8677 14.65 8.0187 14.65 12.0057C14.65 15.9927 14.158 17.1437 13.414 17.6747C12.532 18.1957 11.678 17.6347 10.475 16.7117L10.4734 16.7105C9.93001 16.2939 9.4155 15.8995 8.88702 15.7257C8.32302 15.5407 7.85402 15.4837 7.44002 15.4357L7.43737 15.4354C6.84295 15.3636 6.48335 15.3201 6.03102 14.9367C5.28262 14.3012 5.28602 13.0846 5.28901 12.0103L5.28902 12.0077V12.0037L5.28901 12.0011C5.28602 10.9267 5.28262 9.71019 6.03102 9.0747C6.48302 8.6907 6.84302 8.6477 7.43902 8.5777L7.45693 8.57553C7.86657 8.52609 8.33115 8.47 8.88802 8.2857C9.41602 8.1117 9.93102 7.7177 10.476 7.2997Z" fill="currentColor"/>
<path d="M18.1649 16.3148C18.2799 16.3788 18.4049 16.4088 18.5279 16.4088C18.7919 16.4088 19.0479 16.2688 19.1849 16.0218C20.5539 13.5498 20.5539 10.4718 19.1849 7.99084C18.9849 7.62784 18.5279 7.49684 18.1659 7.69684C17.8029 7.89684 17.6719 8.35284 17.8719 8.71584C18.9939 10.7488 18.9939 13.2698 17.8719 15.2958C17.6719 15.6578 17.8029 16.1138 18.1649 16.3148Z" fill="currentColor"/>
</svg>
