<svg width="24" height="24" viewBox="0 0 24 24" fill="none" xmlns="http://www.w3.org/2000/svg">
<path fill-rule="evenodd" clip-rule="evenodd" d="M10.3397 7.70213C9.9623 7.98625 9.51018 8.31008 9.04934 8.46158L9.0479 8.46206C8.47361 8.64958 7.94776 8.71266 7.55095 8.76026C7.43848 8.77376 7.33639 8.786 7.24648 8.79949C6.83922 8.86058 6.5334 8.95067 6.16911 9.26016C5.8323 9.54629 5.63667 9.94596 5.53015 10.4645C5.42091 10.9964 5.4179 11.5862 5.42245 12.2084L5.42253 12.2193L5.42245 12.2193C5.4179 12.8415 5.42091 13.4313 5.53015 13.9631C5.63654 14.4811 5.8318 14.8804 6.16781 15.1664C6.49712 15.4432 6.7759 15.5397 7.10839 15.5992C7.25508 15.6254 7.40088 15.6426 7.57834 15.6636C7.62924 15.6696 7.68273 15.6759 7.7396 15.6829C7.98329 15.7126 8.2631 15.751 8.5726 15.8226C8.97615 15.916 9.22759 16.3188 9.13421 16.7224C9.04083 17.1259 8.63798 17.3774 8.23443 17.284C8.00262 17.2304 7.78474 17.1995 7.55813 17.1718C7.51566 17.1667 7.47162 17.1615 7.42641 17.1562C7.24258 17.1345 7.03943 17.1106 6.84444 17.0758C6.31396 16.9809 5.77437 16.7958 5.20059 16.3129L5.19793 16.3107C4.52368 15.7379 4.20931 14.9878 4.06083 14.2649C3.91552 13.5575 3.91806 12.8165 3.92245 12.2138C3.91806 11.6112 3.91552 10.8702 4.06083 10.1627C4.20931 9.43988 4.52368 8.68981 5.19793 8.117C5.84469 7.56753 6.44703 7.40263 7.02397 7.31608C7.18091 7.29254 7.32498 7.27507 7.46319 7.2583C7.83299 7.21344 8.16091 7.17366 8.58148 7.03641C8.77376 6.97302 9.04063 6.80256 9.43757 6.50374C9.5239 6.43875 9.61596 6.36805 9.71247 6.29392C10.0169 6.06012 10.3657 5.7922 10.7198 5.56158C11.6567 4.95134 12.9662 4.37896 14.3679 5.2064C14.3856 5.2168 14.4027 5.22791 14.4194 5.23972C15.5111 6.01099 16.0324 7.23455 16.2365 9.39649C16.2754 9.80887 15.9727 10.1747 15.5603 10.2137C15.148 10.2526 14.7821 9.94988 14.7432 9.5375C14.5565 7.56077 14.1222 6.87767 13.5794 6.48305C12.9588 6.13113 12.3418 6.29524 11.5384 6.81847C11.2377 7.01435 10.9565 7.23024 10.6635 7.45523C10.5576 7.53651 10.4502 7.61898 10.3397 7.70213Z" fill="#484848"/>
<path fill-rule="evenodd" clip-rule="evenodd" d="M15.6084 12.9227C16.0223 12.9387 16.3448 13.2872 16.3288 13.7011C16.2116 16.7295 15.691 18.2758 14.421 19.1778C14.4045 19.1895 14.3876 19.2006 14.3702 19.2109C12.9336 20.0654 11.5884 19.4381 10.6495 18.8027C10.3065 18.5706 10.2166 18.1043 10.4488 17.7612C10.6809 17.4182 11.1472 17.3283 11.4903 17.5605C12.3118 18.1165 12.9468 18.2972 13.5776 17.9368C14.2106 17.4739 14.716 16.5885 14.8299 13.6431C14.8459 13.2292 15.1945 12.9067 15.6084 12.9227Z" fill="#484848"/>
<path fill-rule="evenodd" clip-rule="evenodd" d="M20.8158 4.14057C21.1087 4.43346 21.1087 4.90834 20.8158 5.20123L5.47106 20.546C5.17817 20.8389 4.7033 20.8389 4.4104 20.546C4.11751 20.2531 4.11751 19.7782 4.4104 19.4853L19.7551 4.14057C20.048 3.84768 20.5229 3.84768 20.8158 4.14057Z" fill="#484848"/>
</svg>
