<svg width="24" height="24" viewBox="0 0 24 24" fill="none" xmlns="http://www.w3.org/2000/svg">
<path fill-rule="evenodd" clip-rule="evenodd" d="M19.0181 5.15151C19.3621 4.92087 19.828 5.01282 20.0587 5.35689C22.7213 9.32902 22.7293 14.5681 20.0585 18.5496C19.8278 18.8936 19.3619 18.9854 19.0179 18.7546C18.6739 18.5239 18.5821 18.0579 18.8128 17.714C21.1439 14.239 21.1373 9.65996 18.8127 6.1921C18.5821 5.84803 18.674 5.38215 19.0181 5.15151Z" fill="currentColor"/>
<path fill-rule="evenodd" clip-rule="evenodd" d="M16.6265 7.56053C16.9892 7.3604 17.4454 7.49215 17.6456 7.8548C19.0516 10.4027 19.0522 13.5113 17.645 16.0524C17.4443 16.4147 16.9879 16.5458 16.6256 16.3451C16.2632 16.1444 16.1321 15.688 16.3328 15.3256C17.4892 13.2376 17.4898 10.6771 16.3323 8.57956C16.1321 8.2169 16.2639 7.76067 16.6265 7.56053Z" fill="currentColor"/>
<path fill-rule="evenodd" clip-rule="evenodd" d="M8.83799 5.2061C9.79013 4.58745 11.1159 4.01082 12.5328 4.85047C12.5506 4.86099 12.5679 4.87223 12.5847 4.88417C13.321 5.40698 13.817 6.14025 14.1214 7.26787C14.416 8.35935 14.5405 9.85346 14.5405 11.953C14.5405 14.0547 14.4098 15.5525 14.1121 16.6458C13.8054 17.7722 13.3106 18.506 12.5848 19.0216C12.5681 19.0336 12.5508 19.0448 12.533 19.0553C11.1161 19.8956 9.79028 19.3193 8.83799 18.7005C8.47797 18.4666 8.12333 18.1948 7.81327 17.9572C7.7151 17.8819 7.62139 17.8101 7.5334 17.744C7.129 17.4402 6.85456 17.2647 6.65488 17.1989C6.22743 17.0583 5.89366 17.0184 5.51675 16.9733C5.37842 16.9567 5.23427 16.9394 5.07754 16.9163C4.49312 16.8298 3.88269 16.6641 3.22596 16.1065C2.54215 15.526 2.22496 14.7663 2.07513 14.034C1.92928 13.3211 1.93093 12.5726 1.93227 11.9646L1.9323 11.9546V11.9513L1.93227 11.9413C1.93093 11.3333 1.92928 10.5849 2.07513 9.87196C2.22496 9.13957 2.54216 8.37993 3.226 7.79939L3.22625 7.79918C3.88304 7.2421 4.49343 7.07676 5.07754 6.99036C5.23352 6.96728 5.37708 6.95006 5.51488 6.93353C5.89243 6.88825 6.22673 6.84815 6.65473 6.70704L6.65532 6.70685C6.85481 6.64126 7.12914 6.46604 7.53352 6.16236C7.62171 6.09613 7.71565 6.02415 7.81409 5.94873C8.12394 5.71132 8.47832 5.43979 8.83799 5.2061ZM7.12382 8.13181C6.53934 8.32443 6.0057 8.38762 5.60227 8.43539C5.48984 8.44871 5.38753 8.46082 5.29705 8.47421C4.88262 8.53551 4.56987 8.62652 4.19677 8.9429C3.85153 9.23599 3.65282 9.64408 3.54469 10.1726C3.43365 10.7154 3.4309 11.3153 3.4323 11.9513V11.9546C3.4309 12.5906 3.43365 13.1905 3.54469 13.7333C3.65282 14.2618 3.85153 14.6699 4.19677 14.963L4.19682 14.9631C4.57008 15.28 4.88284 15.3711 5.29705 15.4324C5.38772 15.4458 5.49033 15.4579 5.60313 15.4713C6.00641 15.519 6.53999 15.582 7.12397 15.7742L7.12426 15.7743C7.59095 15.928 8.04957 16.2556 8.43437 16.5447C8.5464 16.6289 8.65543 16.7124 8.76294 16.7948C9.0617 17.0237 9.34867 17.2435 9.65524 17.4427C10.4735 17.9744 11.1056 18.143 11.7417 17.7804C12.1192 17.5044 12.4353 17.0944 12.6648 16.2517C12.9084 15.357 13.0405 14.0221 13.0405 11.953C13.0405 9.88156 12.9141 8.55112 12.6732 7.65874C12.447 6.8208 12.132 6.41031 11.7419 6.12568C11.1059 5.76331 10.4737 5.93214 9.65524 6.46391C9.34892 6.66295 9.06222 6.88253 8.76376 7.11111C8.65596 7.19368 8.54662 7.27743 8.43426 7.3618C8.04943 7.6508 7.5907 7.9783 7.12382 8.13181Z" fill="currentColor"/>
</svg>
