<svg width="24" height="24" viewBox="0 0 24 24" fill="none" xmlns="http://www.w3.org/2000/svg">
<path fill-rule="evenodd" clip-rule="evenodd" d="M17.2845 10.2988C16.2835 10.2988 15.4717 11.1107 15.4717 12.1117C15.4717 13.1138 16.2837 13.9255 17.2845 13.9255H21.1712C21.5854 13.9255 21.9212 14.2613 21.9212 14.6755C21.9212 15.0897 21.5854 15.4255 21.1712 15.4255H17.2845C15.4549 15.4255 13.9717 13.9419 13.9717 12.1117C13.9717 10.2822 15.4551 8.79883 17.2845 8.79883H21.1407C21.5549 8.79883 21.8907 9.13461 21.8907 9.54883C21.8907 9.96304 21.5549 10.2988 21.1407 10.2988H17.2845Z" fill="#484848"/>
<path fill-rule="evenodd" clip-rule="evenodd" d="M16.6749 12.0532C16.6749 11.639 17.0107 11.3032 17.4249 11.3032H17.7221C18.1363 11.3032 18.4721 11.639 18.4721 12.0532C18.4721 12.4674 18.1363 12.8032 17.7221 12.8032H17.4249C17.0107 12.8032 16.6749 12.4674 16.6749 12.0532Z" fill="#484848"/>
<path fill-rule="evenodd" clip-rule="evenodd" d="M6.8562 8.1438C6.8562 7.72959 7.19199 7.3938 7.6062 7.3938H11.6662C12.0804 7.3938 12.4162 7.72959 12.4162 8.1438C12.4162 8.55801 12.0804 8.8938 11.6662 8.8938H7.6062C7.19199 8.8938 6.8562 8.55801 6.8562 8.1438Z" fill="#484848"/>
<path fill-rule="evenodd" clip-rule="evenodd" d="M5.25573 6.13433C4.04345 7.2473 3.46411 9.10479 3.46411 12.2532C3.46411 15.401 4.04343 17.2585 5.25576 18.3717C6.48734 19.5025 8.5581 20.0422 12.0151 20.0422C15.4715 20.0422 17.542 19.5025 18.7735 18.3717C19.9857 17.2586 20.5651 15.401 20.5651 12.2532C20.5651 9.10479 19.9857 7.24728 18.7735 6.13431C17.5421 5.00364 15.4716 4.46411 12.0151 4.46411C8.55804 4.46411 6.4873 5.00365 5.25573 6.13433ZM4.2413 5.02937C5.91616 3.49172 8.4959 2.96411 12.0151 2.96411C15.5338 2.96411 18.1133 3.49172 19.788 5.02939C21.482 6.58475 22.0651 8.99677 22.0651 12.2532C22.0651 15.5091 21.482 17.9211 19.788 19.4765C18.1133 21.0143 15.5338 21.5422 12.0151 21.5422C8.49584 21.5422 5.91612 21.0143 4.24127 19.4766C2.54717 17.9211 1.96411 15.5091 1.96411 12.2532C1.96411 8.99677 2.54716 6.58473 4.2413 5.02937Z" fill="#484848"/>
</svg>
