<svg width="24" height="24" viewBox="0 0 24 24" fill="none" xmlns="http://www.w3.org/2000/svg">
<path fill-rule="evenodd" clip-rule="evenodd" d="M14.3875 13.1691C14.009 13.3238 13.7672 13.9164 13.5219 14.2191C13.3961 14.3742 13.2461 14.3984 13.0528 14.3207C11.6321 13.7547 10.543 12.8066 9.75905 11.4992C9.62624 11.2965 9.65006 11.1363 9.81022 10.948C10.0469 10.6691 10.3446 10.3523 10.4087 9.97656C10.5508 9.14531 9.46413 6.5668 8.02898 7.73516C3.89931 11.1004 14.918 20.0258 16.9067 15.1984C17.4692 13.8301 15.0149 12.9121 14.3875 13.1691ZM12.0001 20.2531C10.5395 20.2531 9.10241 19.8648 7.84421 19.1297C7.64226 19.0113 7.39812 18.9801 7.17234 19.0414L4.43837 19.7918L5.39071 17.6938C5.5204 17.4082 5.4872 17.0758 5.30399 16.8219C4.28525 15.4098 3.74658 13.7426 3.74658 12C3.74658 7.44883 7.4489 3.74648 12.0001 3.74648C16.5512 3.74648 20.2531 7.44883 20.2531 12C20.2531 16.5508 16.5508 20.2531 12.0001 20.2531ZM12.0001 2C6.48602 2 2.0001 6.48594 2.0001 12C2.0001 13.9398 2.55088 15.8027 3.59736 17.4195L2.07823 20.7652C1.938 21.0742 1.98917 21.4359 2.2087 21.6934C2.37745 21.8906 2.62159 22 2.87354 22C3.43682 22 6.50828 21.0348 7.28992 20.8203C8.73483 21.5934 10.3555 22 12.0001 22C17.5137 22 22 17.5137 22 12C22 6.48594 17.5137 2 12.0001 2Z" fill="#39AE41"/>
</svg>
