<svg width="24" height="24" viewBox="0 0 24 24" fill="none" xmlns="http://www.w3.org/2000/svg">
<path fill-rule="evenodd" clip-rule="evenodd" d="M11.9611 13.1387C12.3753 13.1387 12.7111 13.4745 12.7111 13.8887V16.5167C12.7111 16.9309 12.3753 17.2667 11.9611 17.2667C11.5469 17.2667 11.2111 16.9309 11.2111 16.5167V13.8887C11.2111 13.4745 11.5469 13.1387 11.9611 13.1387Z" fill="currentColor"/>
<path fill-rule="evenodd" clip-rule="evenodd" d="M2.21807 11.0475C2.4556 10.7082 2.92325 10.6256 3.26259 10.8632L3.27438 10.8714C5.5628 12.2763 8.60538 13.1416 11.9565 13.1416C15.3055 13.1416 18.3549 12.2775 20.6436 10.8745L20.6496 10.8702C20.9851 10.6272 21.454 10.7022 21.6969 11.0377C21.9399 11.3732 21.8649 11.8421 21.5294 12.0851L21.5004 12.1061C21.4853 12.117 21.4697 12.1274 21.4539 12.1372C18.9011 13.7097 15.564 14.6416 11.9565 14.6416C8.3486 14.6416 5.0205 13.7095 2.46901 12.1371C2.45657 12.1294 2.44436 12.1214 2.4324 12.113L2.4024 12.092C2.06306 11.8545 1.98053 11.3868 2.21807 11.0475Z" fill="currentColor"/>
<path fill-rule="evenodd" clip-rule="evenodd" d="M5.264 7.5023C4.07201 8.56384 3.5002 10.3338 3.5002 13.3507C3.5002 16.3676 4.07201 18.1376 5.264 19.1991C6.48237 20.2842 8.53508 20.8037 11.9612 20.8037C15.3878 20.8037 17.4405 20.2842 18.6588 19.1991C19.8506 18.1376 20.4222 16.3677 20.4222 13.3507C20.4222 10.3337 19.8506 8.5638 18.6588 7.50227C17.4405 6.41726 15.3878 5.89771 11.9612 5.89771C8.53508 5.89771 6.48237 6.41725 5.264 7.5023ZM4.2664 6.38212C5.92652 4.90366 8.47932 4.39771 11.9612 4.39771C15.4435 4.39771 17.9964 4.90365 19.6564 6.38214C21.3428 7.88412 21.9222 10.2157 21.9222 13.3507C21.9222 16.4857 21.3428 18.8173 19.6564 20.3193C17.9964 21.7978 15.4435 22.3037 11.9612 22.3037C8.47932 22.3037 5.92652 21.7977 4.2664 20.3193C2.57989 18.8173 2.0002 16.4858 2.0002 13.3507C2.0002 10.2156 2.57989 7.88407 4.2664 6.38212Z" fill="currentColor"/>
<path fill-rule="evenodd" clip-rule="evenodd" d="M7.94879 4.7392C7.94879 3.13717 9.13529 1.7002 10.7588 1.7002H13.1638C14.7873 1.7002 15.9738 3.13717 15.9738 4.7392V5.3692C15.9738 5.78341 15.638 6.11919 15.2238 6.11919C14.8096 6.11919 14.4738 5.78341 14.4738 5.3692V4.7392C14.4738 3.81322 13.8143 3.2002 13.1638 3.2002H10.7588C10.1083 3.2002 9.44879 3.81322 9.44879 4.7392V5.3692C9.44879 5.78341 9.11301 6.11919 8.69879 6.11919C8.28458 6.11919 7.94879 5.78341 7.94879 5.3692V4.7392Z" fill="currentColor"/>
</svg>
