<svg width="24" height="24" viewBox="0 0 24 24" fill="none" xmlns="http://www.w3.org/2000/svg">
<path fill-rule="evenodd" clip-rule="evenodd" d="M12.0099 22.5971C11.2729 22.6728 9.82643 22.7479 8.51026 22.7499C7.82291 22.751 7.14821 22.7323 6.61728 22.6796C6.35503 22.6535 6.1009 22.6167 5.88869 22.5609C5.78344 22.5332 5.66318 22.4945 5.54855 22.4366C5.44877 22.3862 5.26407 22.2778 5.13892 22.0667C5.01848 21.8635 4.95999 21.6283 4.98696 21.3825C5.0127 21.1479 5.11014 20.9566 5.21239 20.8145C5.40536 20.5461 5.68853 20.3516 5.92038 20.2173C6.02235 20.1583 6.12954 20.1025 6.23843 20.0502C5.77055 19.4776 5.42147 18.8543 5.18754 18.2317C5.0636 18.3861 4.93495 18.5353 4.80886 18.6635C4.70201 18.7721 4.57493 18.8884 4.43625 18.98C4.32818 19.0514 4.06689 19.2087 3.73424 19.1681C3.38578 19.1254 3.1945 18.8856 3.12255 18.778C3.03596 18.6484 2.98443 18.5081 2.95143 18.3882C2.88382 18.1427 2.85437 17.8357 2.8607 17.4796C2.87351 16.7593 3.03534 15.7192 3.47411 14.3067C3.81314 13.2151 4.1925 12.2754 4.70272 11.0115L4.70963 10.9944C4.80338 10.7622 4.90168 10.5186 5.00538 10.2603C4.96698 7.94188 5.42662 5.73408 6.53487 4.07073C7.69052 2.33623 9.51455 1.25548 12.0012 1.25051C12.0041 1.25051 12.007 1.25049 12.0099 1.25049C12.0127 1.25049 12.0156 1.25049 12.0185 1.25049C14.5052 1.25546 16.3292 2.33623 17.4848 4.07073C18.5931 5.73408 19.0527 7.94188 19.0143 10.2603C19.118 10.5186 19.2163 10.7622 19.3101 10.9944L19.317 11.0115C19.8272 12.2754 20.2066 13.2151 20.5456 14.3067C20.9844 15.7192 21.1462 16.7593 21.159 17.4796C21.1653 17.8357 21.1359 18.1427 21.0683 18.3882C21.0353 18.5081 20.9838 18.6484 20.8972 18.778C20.8252 18.8856 20.6339 19.1254 20.2855 19.1681C19.9528 19.2087 19.6915 19.0514 19.5835 18.98C19.4448 18.8884 19.3177 18.7721 19.2109 18.6635C19.0848 18.5353 18.9561 18.3861 18.8322 18.2317C18.5982 18.8543 18.2492 19.4776 17.7813 20.0502C17.8902 20.1025 17.9974 20.1583 18.0993 20.2173C18.3312 20.3516 18.6144 20.5461 18.8073 20.8145C18.9096 20.9566 19.007 21.1479 19.0328 21.3825C19.0597 21.6283 19.0012 21.8635 18.8808 22.0667C18.7556 22.2778 18.5709 22.3862 18.4712 22.4366C18.3565 22.4945 18.2363 22.5332 18.131 22.5609C17.9188 22.6167 17.6647 22.6535 17.4024 22.6796C16.8715 22.7323 16.1968 22.751 15.5094 22.7499C14.1933 22.7479 12.7468 22.6728 12.0099 22.5971ZM6.50822 10.3778C6.45094 8.18697 6.87964 6.25853 7.78317 4.90244C8.66031 3.58596 10.0176 2.75289 12.0099 2.75049C14.0022 2.75289 15.3594 3.58596 16.2365 4.90244C17.1401 6.25853 17.5688 8.18697 17.5115 10.3778C17.5088 10.4799 17.527 10.5814 17.565 10.6762C17.6906 10.9897 17.8083 11.2812 17.9188 11.5551C18.4365 12.8374 18.794 13.7242 19.1131 14.7517C19.3687 15.5744 19.5139 16.2313 19.5894 16.7394C19.3158 16.3503 19.1005 16.006 19.0804 15.9737C18.924 15.7225 18.6346 15.5868 18.3415 15.6271L18.3403 15.6273C17.9696 15.6783 17.6932 15.9946 17.6925 16.3688C17.6905 17.3653 17.1616 18.7535 15.9659 19.7666C15.8318 19.8802 15.7418 20.0374 15.7118 20.2106L15.7115 20.2119C15.6718 20.441 15.7406 20.6757 15.8978 20.8471L15.8987 20.8481C15.9886 20.9461 16.103 21.0185 16.2301 21.0578C16.3709 21.1012 16.5413 21.1584 16.7164 21.2253C16.3563 21.243 15.9451 21.2506 15.5118 21.2499C14.1867 21.2479 12.6525 21.1634 12.0099 21.0928C11.3672 21.1634 9.83303 21.2479 8.50793 21.2499C8.07459 21.2506 7.6634 21.243 7.30336 21.2253C7.47842 21.1584 7.64885 21.1012 7.78962 21.0578C7.91671 21.0185 8.03108 20.9461 8.12099 20.8481L8.12195 20.8471C8.27915 20.6757 8.34793 20.441 8.30817 20.2119L8.30794 20.2106C8.27789 20.0374 8.18794 19.8802 8.05381 19.7666C6.85811 18.7535 6.32926 17.3653 6.32725 16.3688C6.3265 15.9946 6.05011 15.6783 5.67946 15.6273L5.67819 15.6271C5.3851 15.5868 5.0957 15.7225 4.93932 15.9737C4.91917 16.006 4.70394 16.3503 4.43029 16.7394C4.50585 16.2313 4.65103 15.5744 4.9066 14.7517C5.2257 13.7242 5.58297 12.8381 6.10064 11.5557C6.21117 11.2819 6.32917 10.9896 6.4547 10.6762C6.49267 10.5814 6.51089 10.4799 6.50822 10.3778Z" fill="#6C6D6D"/>
</svg>
