<svg width="24" height="24" viewBox="0 0 24 24" fill="none" xmlns="http://www.w3.org/2000/svg">
<path fill-rule="evenodd" clip-rule="evenodd" d="M21.094 12.7558C21.0738 12.749 21.0522 12.7453 21.0298 12.7453H12.4766C12.4542 12.7453 12.4326 12.749 12.4124 12.7558C12.3335 12.7825 12.2766 12.8572 12.2766 12.9453V19.3674C12.2766 19.4654 12.3477 19.549 12.4445 19.5648L20.9976 20.9575C21.1193 20.9773 21.2298 20.8834 21.2298 20.7601V12.9453C21.2298 12.8572 21.1729 12.7825 21.094 12.7558ZM19.7298 19.2313V14.2453H13.7766V18.2619L19.7298 19.2313ZM12.4124 11.2464C12.4326 11.2533 12.4542 11.257 12.4766 11.257H21.0298C21.0522 11.257 21.0738 11.2533 21.094 11.2464C21.1729 11.2197 21.2298 11.145 21.2298 11.057V3.23813C21.2298 3.11462 21.1189 3.02063 20.9971 3.04083L12.4439 4.45814C12.3474 4.47413 12.2766 4.55761 12.2766 4.65545V11.057C12.2766 11.145 12.3335 11.2197 12.4124 11.2464ZM19.7298 4.77128L13.7766 5.75776V9.75697H19.7298V4.77128ZM10.2405 11.2462C10.3229 11.2215 10.3829 11.1451 10.3829 11.0546V4.96782C10.3829 4.84431 10.2721 4.75032 10.1502 4.77051L2.98225 5.95814C2.88573 5.97414 2.81494 6.05761 2.81494 6.15545V11.0546C2.81494 11.1451 2.87497 11.2215 2.95735 11.2462C2.97559 11.2517 2.99492 11.2546 3.01494 11.2546H10.1829C10.2029 11.2546 10.2222 11.2517 10.2405 11.2462ZM8.8829 6.50094L4.31494 7.25778V9.75462H8.8829V6.50094ZM10.2405 12.7537C10.2222 12.7482 10.2029 12.7453 10.1829 12.7453H3.01494C2.99492 12.7453 2.97559 12.7482 2.95735 12.7537C2.87497 12.7784 2.81494 12.8548 2.81494 12.9453V17.8908C2.81494 17.9889 2.88602 18.0725 2.98279 18.0882L10.1507 19.2559C10.2724 19.2757 10.3829 19.1818 10.3829 19.0585V12.9453C10.3829 12.8548 10.3229 12.7784 10.2405 12.7537ZM8.8829 17.5296V14.2453H4.31494V16.7855L8.8829 17.5296Z" fill="#6C6D6D"/>
</svg>
