<svg width="24" height="24" viewBox="0 0 24 24" fill="none" xmlns="http://www.w3.org/2000/svg">
<path fill-rule="evenodd" clip-rule="evenodd" d="M1.39308 13.2525C0.573727 12.6185 0.573726 11.3816 1.39308 10.7476C3.55215 9.07696 5.96306 7.76018 8.53556 6.84652L9.00161 6.681C10.0251 6.31748 11.1019 7.00997 11.2399 8.06204C11.3536 8.92905 11.4293 9.80792 11.4669 10.6907C13.607 9.04706 15.9923 7.74979 18.5356 6.84652L19.0016 6.681C20.0251 6.31748 21.1019 7.00997 21.2399 8.06204C21.5796 10.6521 21.5796 13.348 21.2399 15.9381C21.1019 16.9901 20.0251 17.6826 19.0016 17.3191L18.5356 17.1536C15.9923 16.2503 13.607 14.953 11.4669 13.3094C11.4293 14.1922 11.3536 15.0711 11.2399 15.9381C11.1019 16.9901 10.0251 17.6826 9.00161 17.3191L8.53556 17.1536C5.96306 16.2399 3.55215 14.9231 1.39308 13.2525ZM2.31102 11.9339C2.26775 11.9674 2.26775 12.0327 2.31102 12.0662C4.34437 13.6395 6.61488 14.8796 9.03758 15.7401L9.50363 15.9056C9.60384 15.9412 9.73557 15.8733 9.75266 15.743C10.0754 13.2824 10.0754 10.7177 9.75266 8.25709C9.73557 8.12679 9.60384 8.05891 9.50364 8.0945L9.03759 8.26002C6.61489 9.12047 4.34436 10.3606 2.31102 11.9339ZM12.311 11.9339C12.2677 11.9674 12.2677 12.0327 12.311 12.0662C14.3444 13.6395 16.6149 14.8796 19.0376 15.7401L19.5036 15.9056C19.6038 15.9412 19.7356 15.8733 19.7527 15.743C20.0754 13.2824 20.0754 10.7177 19.7527 8.25709C19.7356 8.12679 19.6038 8.05891 19.5036 8.0945L19.0376 8.26002C16.6149 9.12047 14.3444 10.3606 12.311 11.9339Z" fill="#6C6D6D"/>
</svg>
