<svg width="24" height="24" viewBox="0 0 24 24" fill="none" xmlns="http://www.w3.org/2000/svg">
<path fill-rule="evenodd" clip-rule="evenodd" d="M12.5332 13.3094C10.393 14.953 8.00773 16.2503 5.46449 17.1536L4.99844 17.3191C3.97492 17.6826 2.89811 16.9901 2.76013 15.9381C2.42045 13.348 2.42045 10.6521 2.76013 8.06204C2.89811 7.00997 3.97492 6.31748 4.99844 6.681L5.46449 6.84652C8.00773 7.74979 10.393 9.04706 12.5332 10.6907C12.5708 9.80792 12.6464 8.92905 12.7601 8.06204C12.8981 7.00997 13.9749 6.31748 14.9984 6.681L15.4645 6.84652C18.037 7.76018 20.4479 9.07696 22.607 10.7476C23.4263 11.3816 23.4263 12.6185 22.607 13.2525C20.4479 14.9231 18.037 16.2399 15.4645 17.1536L14.9984 17.3191C13.9749 17.6826 12.8981 16.9901 12.7601 15.9381C12.6464 15.0711 12.5708 14.1922 12.5332 13.3094ZM11.689 11.9339C11.7323 11.9674 11.7323 12.0327 11.689 12.0662C9.65569 13.6395 7.38517 14.8796 4.96247 15.7401L4.49642 15.9056C4.39621 15.9412 4.26449 15.8733 4.2474 15.743C3.9247 13.2824 3.9247 10.7177 4.2474 8.25709C4.26449 8.12679 4.39621 8.05891 4.49642 8.0945L4.96247 8.26002C7.38517 9.12047 9.65569 10.3606 11.689 11.9339ZM21.689 11.9339C21.7323 11.9674 21.7323 12.0327 21.689 12.0662C19.6557 13.6395 17.3852 14.8796 14.9625 15.7401L14.4964 15.9056C14.3962 15.9412 14.2645 15.8733 14.2474 15.743C13.9247 13.2824 13.9247 10.7177 14.2474 8.25709C14.2645 8.12679 14.3962 8.05891 14.4964 8.0945L14.9625 8.26002C17.3852 9.12047 19.6557 10.3606 21.689 11.9339Z" fill="#6C6D6D"/>
</svg>
