<svg width="24" height="24" viewBox="0 0 24 24" fill="none" xmlns="http://www.w3.org/2000/svg">
<path fill-rule="evenodd" clip-rule="evenodd" d="M6.94575 1.35113C6.32185 1.2814 5.67806 1.2814 5.05416 1.35113C4.43467 1.42036 3.93109 1.90761 3.85732 2.53839C3.78259 3.17735 3.78259 3.82283 3.85732 4.46179C3.93109 5.09256 4.43467 5.57981 5.05416 5.64905C5.67806 5.71878 6.32185 5.71878 6.94575 5.64905C7.56523 5.57981 8.06881 5.09256 8.14258 4.46179C8.21732 3.82283 8.21732 3.17734 8.14258 2.53839C8.06881 1.90761 7.56523 1.42036 6.94575 1.35113ZM5.33446 4.17007C5.29021 3.72451 5.29021 3.27566 5.33446 2.8301C5.77422 2.7884 6.22568 2.7884 6.66544 2.8301C6.7097 3.27566 6.7097 3.72451 6.66544 4.17007C6.22568 4.21178 5.77422 4.21178 5.33446 4.17007Z" fill="#6C6D6D"/>
<path fill-rule="evenodd" clip-rule="evenodd" d="M12.9457 1.35113C12.3218 1.2814 11.6781 1.2814 11.0542 1.35113C10.4347 1.42036 9.93109 1.90761 9.85732 2.53839C9.78259 3.17735 9.78259 3.82283 9.85732 4.46179C9.93109 5.09256 10.4347 5.57981 11.0542 5.64905C11.6781 5.71878 12.3218 5.71878 12.9457 5.64905C13.5652 5.57981 14.0688 5.09256 14.1426 4.46179C14.2173 3.82283 14.2173 3.17734 14.1426 2.53839C14.0688 1.90761 13.5652 1.42036 12.9457 1.35113ZM11.3345 4.17007C11.2902 3.72451 11.2902 3.27566 11.3345 2.8301C11.7742 2.7884 12.2257 2.7884 12.6654 2.8301C12.7097 3.27566 12.7097 3.72451 12.6654 4.17007C12.2257 4.21178 11.7742 4.21178 11.3345 4.17007Z" fill="#6C6D6D"/>
<path fill-rule="evenodd" clip-rule="evenodd" d="M17.0542 1.35113C17.6781 1.2814 18.3218 1.2814 18.9457 1.35113C19.5652 1.42036 20.0688 1.90761 20.1426 2.53839C20.2173 3.17734 20.2173 3.82283 20.1426 4.46179C20.0688 5.09256 19.5652 5.57981 18.9457 5.64905C18.3218 5.71878 17.6781 5.71878 17.0542 5.64905C16.4347 5.57981 15.9311 5.09256 15.8573 4.46179C15.7826 3.82283 15.7826 3.17735 15.8573 2.53839C15.9311 1.90761 16.4347 1.42036 17.0542 1.35113ZM17.3345 2.8301C17.2902 3.27566 17.2902 3.72451 17.3345 4.17007C17.7742 4.21178 18.2257 4.21178 18.6654 4.17007C18.7097 3.72451 18.7097 3.27566 18.6654 2.8301C18.2257 2.7884 17.7742 2.7884 17.3345 2.8301Z" fill="#6C6D6D"/>
<path fill-rule="evenodd" clip-rule="evenodd" d="M6.94575 6.85113C6.32185 6.7814 5.67806 6.7814 5.05416 6.85113C4.43467 6.92036 3.93109 7.40761 3.85732 8.03839C3.78259 8.67735 3.78259 9.32283 3.85732 9.96179C3.93109 10.5926 4.43467 11.0798 5.05416 11.1491C5.67806 11.2188 6.32185 11.2188 6.94575 11.1491C7.56523 11.0798 8.06881 10.5926 8.14258 9.96179C8.21732 9.32283 8.21732 8.67734 8.14258 8.03839C8.06881 7.40761 7.56523 6.92036 6.94575 6.85113ZM5.33446 9.67007C5.29021 9.22451 5.29021 8.77566 5.33446 8.3301C5.77422 8.2884 6.22568 8.2884 6.66544 8.3301C6.7097 8.77566 6.7097 9.22451 6.66544 9.67007C6.22568 9.71177 5.77422 9.71177 5.33446 9.67007Z" fill="#6C6D6D"/>
<path fill-rule="evenodd" clip-rule="evenodd" d="M11.0542 6.85113C11.6781 6.7814 12.3218 6.7814 12.9457 6.85113C13.5652 6.92036 14.0688 7.40761 14.1426 8.03839C14.2173 8.67734 14.2173 9.32283 14.1426 9.96179C14.0688 10.5926 13.5652 11.0798 12.9457 11.1491C12.3218 11.2188 11.6781 11.2188 11.0542 11.1491C10.4347 11.0798 9.93109 10.5926 9.85732 9.96179C9.78259 9.32283 9.78259 8.67735 9.85732 8.03839C9.93109 7.40761 10.4347 6.92036 11.0542 6.85113ZM11.3345 8.3301C11.2902 8.77566 11.2902 9.22451 11.3345 9.67007C11.7742 9.71177 12.2257 9.71177 12.6654 9.67007C12.7097 9.22451 12.7097 8.77566 12.6654 8.3301C12.2257 8.2884 11.7742 8.2884 11.3345 8.3301Z" fill="#6C6D6D"/>
<path fill-rule="evenodd" clip-rule="evenodd" d="M18.9457 6.85113C18.3218 6.7814 17.6781 6.7814 17.0542 6.85113C16.4347 6.92036 15.9311 7.40761 15.8573 8.03839C15.7826 8.67735 15.7826 9.32283 15.8573 9.96179C15.9311 10.5926 16.4347 11.0798 17.0542 11.1491C17.6781 11.2188 18.3218 11.2188 18.9457 11.1491C19.5652 11.0798 20.0688 10.5926 20.1426 9.96179C20.2173 9.32283 20.2173 8.67734 20.1426 8.03839C20.0688 7.40761 19.5652 6.92036 18.9457 6.85113ZM17.3345 9.67007C17.2902 9.22451 17.2902 8.77566 17.3345 8.3301C17.7742 8.2884 18.2257 8.2884 18.6654 8.3301C18.7097 8.77566 18.7097 9.22451 18.6654 9.67007C18.2257 9.71177 17.7742 9.71177 17.3345 9.67007Z" fill="#6C6D6D"/>
<path fill-rule="evenodd" clip-rule="evenodd" d="M5.05416 12.3511C5.67806 12.2814 6.32185 12.2814 6.94575 12.3511C7.56523 12.4204 8.06881 12.9076 8.14258 13.5384C8.21732 14.1773 8.21732 14.8228 8.14258 15.4618C8.06881 16.0926 7.56523 16.5798 6.94575 16.6491C6.32185 16.7188 5.67806 16.7188 5.05416 16.6491C4.43467 16.5798 3.93109 16.0926 3.85732 15.4618C3.78259 14.8228 3.78259 14.1773 3.85732 13.5384C3.93109 12.9076 4.43467 12.4204 5.05416 12.3511ZM5.33446 13.8301C5.29021 14.2757 5.29021 14.7245 5.33446 15.1701C5.77422 15.2118 6.22568 15.2118 6.66544 15.1701C6.7097 14.7245 6.7097 14.2757 6.66544 13.8301C6.22568 13.7884 5.77422 13.7884 5.33446 13.8301Z" fill="#6C6D6D"/>
<path fill-rule="evenodd" clip-rule="evenodd" d="M12.9457 12.3511C12.3218 12.2814 11.6781 12.2814 11.0542 12.3511C10.4347 12.4204 9.93109 12.9076 9.85732 13.5384C9.78259 14.1773 9.78259 14.8228 9.85732 15.4618C9.93109 16.0926 10.4347 16.5798 11.0542 16.6491C11.6781 16.7188 12.3218 16.7188 12.9457 16.6491C13.5652 16.5798 14.0688 16.0926 14.1426 15.4618C14.2173 14.8228 14.2173 14.1773 14.1426 13.5384C14.0688 12.9076 13.5652 12.4204 12.9457 12.3511ZM11.3345 15.1701C11.2902 14.7245 11.2902 14.2757 11.3345 13.8301C11.7742 13.7884 12.2257 13.7884 12.6654 13.8301C12.7097 14.2757 12.7097 14.7245 12.6654 15.1701C12.2257 15.2118 11.7742 15.2118 11.3345 15.1701Z" fill="#6C6D6D"/>
<path fill-rule="evenodd" clip-rule="evenodd" d="M11.0542 17.8511C11.6781 17.7814 12.3218 17.7814 12.9457 17.8511C13.5652 17.9204 14.0688 18.4076 14.1426 19.0384C14.2173 19.6773 14.2173 20.3228 14.1426 20.9618C14.0688 21.5926 13.5652 22.0798 12.9457 22.1491C12.3218 22.2188 11.6781 22.2188 11.0542 22.1491C10.4347 22.0798 9.93109 21.5926 9.85732 20.9618C9.78259 20.3228 9.78259 19.6773 9.85732 19.0384C9.93109 18.4076 10.4347 17.9204 11.0542 17.8511ZM11.3345 19.3301C11.2902 19.7757 11.2902 20.2245 11.3345 20.6701C11.7742 20.7118 12.2257 20.7118 12.6654 20.6701C12.7097 20.2245 12.7097 19.7757 12.6654 19.3301C12.2257 19.2884 11.7742 19.2884 11.3345 19.3301Z" fill="#6C6D6D"/>
<path fill-rule="evenodd" clip-rule="evenodd" d="M18.9457 12.3511C18.3218 12.2814 17.6781 12.2814 17.0542 12.3511C16.4347 12.4204 15.9311 12.9076 15.8573 13.5384C15.7826 14.1773 15.7826 14.8228 15.8573 15.4618C15.9311 16.0926 16.4347 16.5798 17.0542 16.6491C17.6781 16.7188 18.3218 16.7188 18.9457 16.6491C19.5652 16.5798 20.0688 16.0926 20.1426 15.4618C20.2173 14.8228 20.2173 14.1773 20.1426 13.5384C20.0688 12.9076 19.5652 12.4204 18.9457 12.3511ZM17.3345 15.1701C17.2902 14.7245 17.2902 14.2757 17.3345 13.8301C17.7742 13.7884 18.2257 13.7884 18.6654 13.8301C18.7097 14.2757 18.7097 14.7245 18.6654 15.1701C18.2257 15.2118 17.7742 15.2118 17.3345 15.1701Z" fill="#6C6D6D"/>
</svg>
