<svg width="24" height="24" viewBox="0 0 24 24" fill="none" xmlns="http://www.w3.org/2000/svg">
<path fill-rule="evenodd" clip-rule="evenodd" d="M7.3445 4.01727C10.4136 3.67426 13.5864 3.67426 16.6555 4.01727C18.3682 4.20869 19.7499 5.5581 19.9511 7.27759C20.318 10.4152 20.318 13.5849 19.9511 16.7225C19.7499 18.442 18.3682 19.7914 16.6555 19.9829C13.5864 20.3259 10.4136 20.3259 7.3445 19.9829C5.63178 19.7914 4.25002 18.442 4.04891 16.7225C3.68194 13.5849 3.68194 10.4152 4.04891 7.27759C4.25002 5.5581 5.63178 4.20869 7.3445 4.01727ZM12 7.00742C12.4142 7.00742 12.75 7.3432 12.75 7.75742V11.2501H16.2427C16.6569 11.2501 16.9927 11.5858 16.9927 12.0001C16.9927 12.4143 16.6569 12.7501 16.2427 12.7501H12.75V16.2427C12.75 16.6569 12.4142 16.9927 12 16.9927C11.5858 16.9927 11.25 16.6569 11.25 16.2427V12.7501H7.75739C7.34317 12.7501 7.00739 12.4143 7.00739 12.0001C7.00739 11.5858 7.34317 11.2501 7.75739 11.2501H11.25V7.75742C11.25 7.3432 11.5858 7.00742 12 7.00742Z" fill="#6C6D6D"/>
</svg>
