<svg width="24" height="24" viewBox="0 0 24 24" fill="none" xmlns="http://www.w3.org/2000/svg">
<path d="M6.20558 2.63158C5.41062 2.54273 4.58949 2.54273 3.79453 2.63158C3.19587 2.69849 2.71071 3.16969 2.63983 3.77577C2.5447 4.58912 2.5447 5.41079 2.63983 6.22414C2.71071 6.83022 3.19587 7.30142 3.79453 7.36833C4.58949 7.45718 5.41062 7.45718 6.20558 7.36833C6.80425 7.30142 7.2894 6.83022 7.36029 6.22414C7.45541 5.41079 7.45541 4.58912 7.36029 3.77577C7.2894 3.16969 6.80425 2.69849 6.20558 2.63158Z" fill="#6C6D6D"/>
<path d="M13.2056 2.63158C12.4106 2.54273 11.5895 2.54273 10.7945 2.63158C10.1959 2.69849 9.71071 3.16969 9.63982 3.77577C9.54469 4.58912 9.54469 5.41079 9.63982 6.22414C9.71071 6.83022 10.1959 7.30142 10.7945 7.36833C11.5895 7.45718 12.4106 7.45718 13.2056 7.36833C13.8042 7.30142 14.2894 6.83022 14.3603 6.22414C14.4554 5.41079 14.4554 4.58912 14.3603 3.77577C14.2894 3.16969 13.8042 2.69849 13.2056 2.63158Z" fill="#6C6D6D"/>
<path d="M20.2056 2.63158C19.4106 2.54273 18.5895 2.54273 17.7945 2.63158C17.1959 2.69849 16.7107 3.16969 16.6398 3.77577C16.5447 4.58912 16.5447 5.41079 16.6398 6.22414C16.7107 6.83022 17.1959 7.30142 17.7945 7.36833C18.5895 7.45718 19.4106 7.45718 20.2056 7.36833C20.8042 7.30142 21.2894 6.83022 21.3603 6.22414C21.4554 5.41079 21.4554 4.58912 21.3603 3.77577C21.2894 3.16969 20.8042 2.69849 20.2056 2.63158Z" fill="#6C6D6D"/>
<path d="M6.20558 9.63158C5.41062 9.54273 4.58949 9.54273 3.79453 9.63158C3.19587 9.69849 2.71071 10.1697 2.63983 10.7758C2.5447 11.5891 2.5447 12.4108 2.63983 13.2241C2.71071 13.8302 3.19587 14.3014 3.79453 14.3683C4.58949 14.4572 5.41062 14.4572 6.20558 14.3683C6.80425 14.3014 7.2894 13.8302 7.36029 13.2241C7.45541 12.4108 7.45541 11.5891 7.36029 10.7758C7.2894 10.1697 6.80425 9.69849 6.20558 9.63158Z" fill="#6C6D6D"/>
<path d="M13.2056 9.63158C12.4106 9.54273 11.5895 9.54273 10.7945 9.63158C10.1959 9.69849 9.71071 10.1697 9.63982 10.7758C9.54469 11.5891 9.54469 12.4108 9.63982 13.2241C9.71071 13.8302 10.1959 14.3014 10.7945 14.3683C11.5895 14.4572 12.4106 14.4572 13.2056 14.3683C13.8042 14.3014 14.2894 13.8302 14.3603 13.2241C14.4554 12.4108 14.4554 11.5891 14.3603 10.7758C14.2894 10.1697 13.8042 9.69849 13.2056 9.63158Z" fill="#6C6D6D"/>
<path d="M20.2056 9.63158C19.4106 9.54273 18.5895 9.54273 17.7945 9.63158C17.1959 9.69849 16.7107 10.1697 16.6398 10.7758C16.5447 11.5891 16.5447 12.4108 16.6398 13.2241C16.7107 13.8302 17.1959 14.3014 17.7945 14.3683C18.5895 14.4572 19.4106 14.4572 20.2056 14.3683C20.8042 14.3014 21.2894 13.8302 21.3603 13.2241C21.4554 12.4108 21.4554 11.5891 21.3603 10.7758C21.2894 10.1697 20.8042 9.69849 20.2056 9.63158Z" fill="#6C6D6D"/>
<path d="M6.20558 16.6316C5.41062 16.5427 4.58949 16.5427 3.79453 16.6316C3.19587 16.6985 2.71071 17.1697 2.63983 17.7758C2.5447 18.5891 2.5447 19.4108 2.63983 20.2241C2.71071 20.8302 3.19587 21.3014 3.79453 21.3683C4.58949 21.4572 5.41062 21.4572 6.20558 21.3683C6.80425 21.3014 7.2894 20.8302 7.36029 20.2241C7.45541 19.4108 7.45541 18.5891 7.36029 17.7758C7.2894 17.1697 6.80425 16.6985 6.20558 16.6316Z" fill="#6C6D6D"/>
<path d="M13.2056 16.6316C12.4106 16.5427 11.5895 16.5427 10.7945 16.6316C10.1959 16.6985 9.71071 17.1697 9.63982 17.7758C9.54469 18.5891 9.54469 19.4108 9.63982 20.2241C9.71071 20.8302 10.1959 21.3014 10.7945 21.3683C11.5895 21.4572 12.4106 21.4572 13.2056 21.3683C13.8042 21.3014 14.2894 20.8302 14.3603 20.2241C14.4554 19.4108 14.4554 18.5891 14.3603 17.7758C14.2894 17.1697 13.8042 16.6985 13.2056 16.6316Z" fill="#6C6D6D"/>
<path d="M20.2056 16.6316C19.4106 16.5427 18.5895 16.5427 17.7945 16.6316C17.1959 16.6985 16.7107 17.1697 16.6398 17.7758C16.5447 18.5891 16.5447 19.4108 16.6398 20.2241C16.7107 20.8302 17.1959 21.3014 17.7945 21.3683C18.5895 21.4572 19.4106 21.4572 20.2056 21.3683C20.8042 21.3014 21.2894 20.8302 21.3603 20.2241C21.4554 19.4108 21.4554 18.5891 21.3603 17.7758C21.2894 17.1697 20.8042 16.6985 20.2056 16.6316Z" fill="#6C6D6D"/>
</svg>
