<svg width="24" height="24" viewBox="0 0 24 24" fill="none" xmlns="http://www.w3.org/2000/svg">
<path fill-rule="evenodd" clip-rule="evenodd" d="M13.6642 6.34302C13.6642 6.75723 14 7.09302 14.4142 7.09302L16.9069 7.09302V9.58566C16.9069 9.99987 17.2427 10.3357 17.6569 10.3357C18.0711 10.3357 18.4069 9.99987 18.4069 9.58566V6.34302C18.4069 5.9288 18.0711 5.59302 17.6569 5.59302L14.4142 5.59302C14 5.59302 13.6642 5.9288 13.6642 6.34302Z" fill="#6C6D6D"/>
<path fill-rule="evenodd" clip-rule="evenodd" d="M17.6569 13.6641C17.2426 13.6641 16.9069 13.9999 16.9069 14.4141L16.9069 16.9067L14.4142 16.9067C14 16.9067 13.6642 17.2425 13.6642 17.6567C13.6642 18.071 14 18.4067 14.4142 18.4067L17.6569 18.4067C18.0711 18.4067 18.4069 18.071 18.4069 17.6567L18.4069 14.4141C18.4069 13.9999 18.0711 13.6641 17.6569 13.6641Z" fill="#6C6D6D"/>
<path fill-rule="evenodd" clip-rule="evenodd" d="M6.34317 13.6641C6.75738 13.6641 7.09317 13.9999 7.09317 14.4141L7.09317 16.9067L9.58581 16.9067C10 16.9067 10.3358 17.2425 10.3358 17.6567C10.3358 18.071 10 18.4067 9.58581 18.4067L6.34317 18.4067C5.92895 18.4067 5.59317 18.071 5.59317 17.6567L5.59317 14.4141C5.59317 13.9999 5.92895 13.6641 6.34317 13.6641Z" fill="#6C6D6D"/>
<path fill-rule="evenodd" clip-rule="evenodd" d="M10.3358 6.34302C10.3358 6.75723 9.99999 7.09302 9.58578 7.09302L7.09314 7.09302L7.09314 9.58566C7.09314 9.99987 6.75735 10.3357 6.34314 10.3357C5.92893 10.3357 5.59314 9.99987 5.59314 9.58566L5.59314 6.34302C5.59314 5.9288 5.92893 5.59302 6.34314 5.59302L9.58578 5.59302C9.99999 5.59302 10.3358 5.9288 10.3358 6.34302Z" fill="#6C6D6D"/>
</svg>
