<svg width="24" height="24" viewBox="0 0 24 24" fill="none" xmlns="http://www.w3.org/2000/svg">
<path d="M12 8.75006C10.2051 8.75006 8.75 10.2051 8.75 12.0001C8.75 13.795 10.2051 15.2501 12 15.2501C13.7949 15.2501 15.25 13.795 15.25 12.0001C15.25 10.2051 13.7949 8.75006 12 8.75006Z" fill="#6C6D6D"/>
<path fill-rule="evenodd" clip-rule="evenodd" d="M12.6799 2.80582C12.2571 2.57091 11.743 2.57091 11.3201 2.80582L4.12012 6.80582C3.67567 7.05274 3.40002 7.5212 3.40002 8.02964V15.9705C3.40002 16.4789 3.67567 16.9474 4.12012 17.1943L11.3201 21.1943C11.743 21.4292 12.2571 21.4292 12.6799 21.1943L19.8799 17.1943C20.3244 16.9474 20.6 16.4789 20.6 15.9705V8.02964C20.6 7.5212 20.3244 7.05274 19.8799 6.80582L12.6799 2.80582ZM7.25 12.0001C7.25 9.37671 9.37665 7.25006 12 7.25006C14.6234 7.25006 16.75 9.37671 16.75 12.0001C16.75 14.6234 14.6234 16.7501 12 16.7501C9.37665 16.7501 7.25 14.6234 7.25 12.0001Z" fill="#6C6D6D"/>
</svg>
