<svg width="24" height="24" viewBox="0 0 24 24" fill="none" xmlns="http://www.w3.org/2000/svg">
<path d="M8.75 11.9999C8.75 10.205 10.2051 8.74989 12 8.74989C13.7949 8.74989 15.25 10.205 15.25 11.9999C15.25 13.7948 13.7949 15.2499 12 15.2499C10.2051 15.2499 8.75 13.7948 8.75 11.9999Z" fill="#6C6D6D"/>
<path fill-rule="evenodd" clip-rule="evenodd" d="M11.4607 1.8384C11.7555 1.53336 12.2445 1.53336 12.5393 1.8384L15.1116 4.49989H18.75C19.1642 4.49989 19.5 4.83567 19.5 5.24989V8.88828L22.1615 11.4606C22.4665 11.7554 22.4665 12.2444 22.1615 12.5392L19.5 15.1115V18.7499C19.5 19.1641 19.1642 19.4999 18.75 19.4999H15.1116L12.5393 22.1614C12.2445 22.4664 11.7555 22.4664 11.4607 22.1614L8.88839 19.4999H5.25001C4.8358 19.4999 4.50001 19.1641 4.50001 18.7499V15.1115L1.83852 12.5392C1.53348 12.2444 1.53348 11.7554 1.83852 11.4606L4.50001 8.88828V5.24989C4.50001 4.83567 4.83579 4.49989 5.25001 4.49989H8.8884L11.4607 1.8384ZM12 7.24989C9.37665 7.24989 7.25 9.37653 7.25 11.9999C7.25 14.6232 9.37665 16.7499 12 16.7499C14.6234 16.7499 16.75 14.6232 16.75 11.9999C16.75 9.37653 14.6234 7.24989 12 7.24989Z" fill="#6C6D6D"/>
</svg>
