<svg width="24" height="24" viewBox="0 0 24 24" fill="none" xmlns="http://www.w3.org/2000/svg">
<path fill-rule="evenodd" clip-rule="evenodd" d="M5.39854 14.9446C7.85532 17.4014 11.7348 17.5685 14.385 15.4458L19.5407 20.6014C19.8335 20.8943 20.3084 20.8943 20.6013 20.6014C20.8942 20.3085 20.8942 19.8337 20.6013 19.5408L15.4457 14.3851C17.5683 11.7349 17.4013 7.85544 14.9445 5.39866C12.3084 2.76262 8.03458 2.76262 5.39854 5.39866C2.7625 8.0347 2.7625 12.3086 5.39854 14.9446ZM7.69995 9.45007C7.28574 9.45007 6.94995 9.78586 6.94995 10.2001C6.94995 10.6143 7.28574 10.9501 7.69995 10.9501H12.7C13.1142 10.9501 13.45 10.6143 13.45 10.2001C13.45 9.78586 13.1142 9.45007 12.7 9.45007H7.69995Z" fill="#6C6D6D"/>
</svg>
