<svg width="24" height="24" viewBox="0 0 24 24" fill="none" xmlns="http://www.w3.org/2000/svg">
<path fill-rule="evenodd" clip-rule="evenodd" d="M14.3851 15.4458C11.7349 17.5685 7.85544 17.4014 5.39866 14.9446C2.76262 12.3086 2.76262 8.0347 5.39866 5.39866C8.0347 2.76262 12.3086 2.76262 14.9446 5.39866C17.4014 7.85544 17.5685 11.7349 15.4458 14.3851L20.6014 19.5408C20.8943 19.8337 20.8943 20.3085 20.6014 20.6014C20.3085 20.8943 19.8337 20.8943 19.5408 20.6014L14.3851 15.4458ZM6.95007 10.2001C6.95007 9.78586 7.28586 9.45007 7.70007 9.45007H9.45007V7.70007C9.45007 7.28586 9.78586 6.95007 10.2001 6.95007C10.6143 6.95007 10.9501 7.28586 10.9501 7.70007V9.45007H12.7001C13.1143 9.45007 13.4501 9.78586 13.4501 10.2001C13.4501 10.6143 13.1143 10.9501 12.7001 10.9501H10.9501V12.7001C10.9501 13.1143 10.6143 13.4501 10.2001 13.4501C9.78586 13.4501 9.45007 13.1143 9.45007 12.7001V10.9501H7.70007C7.28586 10.9501 6.95007 10.6143 6.95007 10.2001Z" fill="#6C6D6D"/>
</svg>
