<svg width="24" height="24" viewBox="0 0 24 24" fill="none" xmlns="http://www.w3.org/2000/svg">
<path fill-rule="evenodd" clip-rule="evenodd" d="M2.1145 13.519C2.0385 13.021 2.0005 12.51 2.0005 12C2.0005 6.486 6.4865 2 12.0005 2C17.5145 2 22.0005 6.486 22.0005 12C22.0005 17.514 17.5145 22 12.0005 22C8.8725 22 5.9835 20.577 4.0735 18.098C3.8285 17.78 3.8885 17.322 4.2055 17.078C4.5235 16.832 4.9795 16.893 5.2265 17.21C6.8575 19.331 9.3275 20.546 12.0005 20.546C16.7125 20.546 20.5465 16.713 20.5465 12C20.5465 7.288 16.7125 3.455 12.0005 3.455C7.2885 3.455 3.4545 7.288 3.4545 12C3.4545 12.437 3.4875 12.874 3.5525 13.299C3.6125 13.695 3.3405 14.066 2.9435 14.127C2.5445 14.193 2.1755 13.916 2.1145 13.519ZM14.7947 12.0008C14.7947 12.1998 14.7157 12.3908 14.5737 12.5318L11.0877 16.0028C10.7937 16.2958 10.3187 16.2948 10.0267 16.0008C9.7347 15.7068 9.7347 15.2328 10.0287 14.9408L12.9817 12.0008L10.0287 9.0608C9.7347 8.7688 9.7347 8.2938 10.0267 7.9998C10.3187 7.7068 10.7937 7.7058 11.0877 7.9978L14.5737 11.4698C14.7157 11.6098 14.7947 11.8008 14.7947 12.0008Z" fill="black"/>
</svg>
