<svg width="24" height="24" viewBox="0 0 24 24" fill="none" xmlns="http://www.w3.org/2000/svg">
<path fill-rule="evenodd" clip-rule="evenodd" d="M21.2318 14.988C21.6538 14.988 21.9968 15.331 21.9968 15.753C21.9998 19.608 19.6078 22 15.7558 22L8.2528 22C4.3918 22 1.9998 19.608 1.9998 15.756L1.9998 8.256C1.9998 4.393 4.3918 2 8.2528 2L15.7528 2C19.5898 2 21.9998 4.393 21.9998 8.253V10.822C21.9998 11.239 21.6608 11.578 21.2438 11.578H21.2348V11.561C20.8128 11.561 20.4708 11.219 20.4698 10.797V10.795V8.253C20.4698 5.2 18.7998 3.53 15.7558 3.53L8.2558 3.53C5.2098 3.53 3.5298 5.21 3.5298 8.253L3.5298 15.753C3.5298 18.787 5.2098 20.467 8.2528 20.467L15.7528 20.467C18.7958 20.467 20.4668 18.787 20.4668 15.753C20.4668 15.331 20.8098 14.988 21.2318 14.988ZM16.0857 11.2501H9.7297L12.2067 8.7831C12.5007 8.4911 12.5017 8.0171 12.2087 7.7231C11.9167 7.4281 11.4417 7.4301 11.1487 7.7211L7.3847 11.4691C7.3837 11.4691 7.3837 11.4691 7.3837 11.4701C7.3147 11.5381 7.2597 11.6211 7.2217 11.7131C7.1837 11.8041 7.1637 11.9011 7.1637 11.9991V12.0001C7.1637 12.0071 7.16543 12.0129 7.16719 12.0188C7.1687 12.0239 7.17024 12.0291 7.1707 12.0351C7.1747 12.1201 7.1887 12.2051 7.2217 12.2861C7.2557 12.3681 7.3067 12.4401 7.3657 12.5061C7.36894 12.5093 7.37111 12.513 7.37329 12.5167C7.37583 12.521 7.3784 12.5253 7.3827 12.5291C7.4517 12.5991 7.5347 12.6541 7.6257 12.6921C7.7187 12.7301 7.8147 12.7501 7.9137 12.7501H16.0857C16.4997 12.7501 16.8357 12.4141 16.8357 12.0001C16.8357 11.5861 16.4997 11.2501 16.0857 11.2501ZM9.864 15.0011L11.148 16.2791C11.295 16.4251 11.486 16.4981 11.677 16.4981C11.87 16.4981 12.062 16.4251 12.21 16.2771C12.502 15.9831 12.501 15.5091 12.207 15.2171L10.923 13.9391C10.629 13.6471 10.155 13.6471 9.862 13.9401C9.57 14.2341 9.571 14.7091 9.864 15.0011Z" fill="black"/>
</svg>
