<svg width="24" height="24" viewBox="0 0 24 24" fill="none" xmlns="http://www.w3.org/2000/svg">
<path fill-rule="evenodd" clip-rule="evenodd" d="M10.4815 2.114C10.9795 2.038 11.4905 2 12.0005 2C17.5145 2 22.0005 6.486 22.0005 12C22.0005 17.514 17.5145 22 12.0005 22C6.4865 22 2.0005 17.514 2.0005 12C2.0005 8.872 3.4235 5.983 5.9025 4.073C6.2205 3.828 6.6785 3.888 6.9225 4.205C7.1685 4.523 7.1075 4.979 6.7905 5.226C4.6695 6.857 3.4545 9.327 3.4545 12C3.4545 16.712 7.2875 20.546 12.0005 20.546C16.7125 20.546 20.5455 16.712 20.5455 12C20.5455 7.288 16.7125 3.454 12.0005 3.454C11.5635 3.454 11.1265 3.487 10.7015 3.552C10.3055 3.612 9.9345 3.34 9.8735 2.943C9.8075 2.544 10.0845 2.175 10.4815 2.114ZM11.9997 14.7942C11.8007 14.7942 11.6097 14.7152 11.4687 14.5732L7.9977 11.0872C7.7047 10.7932 7.7057 10.3182 7.9997 10.0262C8.2937 9.7342 8.7677 9.7342 9.0597 10.0282L11.9997 12.9812L14.9397 10.0282C15.2317 9.7342 15.7067 9.7342 16.0007 10.0262C16.2937 10.3182 16.2947 10.7932 16.0027 11.0872L12.5307 14.5732C12.3907 14.7152 12.1997 14.7942 11.9997 14.7942Z" fill="black"/>
</svg>
