<svg width="24" height="24" viewBox="0 0 24 24" fill="none" xmlns="http://www.w3.org/2000/svg">
<path fill-rule="evenodd" clip-rule="evenodd" d="M1.99991 12C1.99991 6.485 6.48591 2 11.9999 2C17.5139 2 21.9999 6.485 21.9999 12C21.9999 17.514 17.5139 22 11.9999 22C8.87291 22 5.98291 20.577 4.07291 18.098C3.82791 17.779 3.88691 17.322 4.20591 17.078C4.52291 16.832 4.97891 16.893 5.22491 17.21C6.85791 19.33 9.32691 20.546 11.9999 20.546C16.7119 20.546 20.5459 16.713 20.5459 12C20.5459 7.288 16.7119 3.454 11.9999 3.454C7.28791 3.454 3.45391 7.288 3.45391 12C3.45391 12.438 3.48691 12.873 3.55191 13.299C3.61191 13.695 3.33991 14.066 2.94291 14.127C2.54391 14.193 2.17491 13.916 2.11491 13.519C2.03891 13.021 1.99991 12.51 1.99991 12ZM11.9999 7.4541C11.5859 7.4541 11.2499 7.7901 11.2499 8.2041V12.6241C11.2499 13.0381 11.5859 13.3741 11.9999 13.3741C12.4139 13.3741 12.7499 13.0381 12.7499 12.6241V8.2041C12.7499 7.7901 12.4139 7.4541 11.9999 7.4541ZM12.0101 15.0459H12.0001C11.5861 15.0459 11.2551 15.3819 11.2551 15.7959C11.2551 16.2099 11.5961 16.5459 12.0101 16.5459C12.4241 16.5459 12.7601 16.2099 12.7601 15.7959C12.7601 15.3819 12.4241 15.0459 12.0101 15.0459Z" fill="black"/>
</svg>
