<svg width="24" height="24" viewBox="0 0 24 24" fill="none" xmlns="http://www.w3.org/2000/svg">
<path fill-rule="evenodd" clip-rule="evenodd" d="M15.7472 2H8.25419C4.41019 2 2.00019 4.393 2.00019 8.253V10.575C1.99919 10.997 2.34119 11.34 2.76319 11.34H2.76519H2.77419C3.19119 11.34 3.53019 11.002 3.53019 10.584V10.566V8.253C3.53019 5.21 5.21019 3.53 8.25319 3.53H15.7472C18.8002 3.53 20.4702 5.21 20.4702 8.253V15.753C20.4702 18.796 18.7902 20.467 15.7472 20.467H8.25419C5.20219 20.467 3.53119 18.787 3.53119 15.753C3.53119 15.331 3.18819 14.988 2.76619 14.988C2.34319 14.988 2.00119 15.331 2.00119 15.753C2.00019 19.608 4.39219 22 8.24419 22H15.7472C19.6082 22 22.0002 19.608 22.0002 15.756V8.256C22.0002 4.393 19.6082 2 15.7472 2ZM11.9947 16.5459C11.5807 16.5459 11.2447 16.2099 11.2447 15.7959V11.3759C11.2447 10.9619 11.5807 10.6259 11.9947 10.6259C12.4087 10.6259 12.7447 10.9619 12.7447 11.3759V15.7959C12.7447 16.2099 12.4087 16.5459 11.9947 16.5459ZM11.995 8.9541H12.005C12.419 8.9541 12.755 8.6181 12.755 8.2041C12.755 7.7901 12.419 7.4541 12.005 7.4541C11.591 7.4541 11.25 7.7901 11.25 8.2041C11.25 8.6181 11.581 8.9541 11.995 8.9541Z" fill="black"/>
</svg>
