<svg width="24" height="24" viewBox="0 0 24 24" fill="none" xmlns="http://www.w3.org/2000/svg">
<path fill-rule="evenodd" clip-rule="evenodd" d="M8.25382 2H15.7468C19.6078 2 21.9998 4.393 21.9998 8.256V15.756C21.9998 19.608 19.6078 22 15.7468 22H8.24382C4.39182 22 1.99982 19.608 2.00082 15.753C2.00082 15.331 2.34382 14.988 2.76582 14.988C3.18882 14.988 3.53082 15.331 3.53082 15.753C3.53082 18.787 5.20182 20.467 8.25382 20.467H15.7468C18.7898 20.467 20.4698 18.796 20.4698 15.753V8.253C20.4698 5.21 18.7998 3.53 15.7468 3.53H8.25282C5.20982 3.53 3.52982 5.21 3.52982 8.253V10.566V10.584C3.52982 11.002 3.19182 11.34 2.77382 11.34H2.76482H2.76282C2.34082 11.34 1.99882 10.997 1.99982 10.575V8.253C1.99982 4.393 4.40982 2 8.25382 2ZM7.52052 10.804C8.18152 10.804 8.71852 11.341 8.71852 12C8.71852 12.66 8.18152 13.197 7.52052 13.197C6.86052 13.197 6.32252 12.66 6.32252 12C6.32252 11.341 6.86052 10.804 7.52052 10.804ZM12 10.804C12.661 10.804 13.198 11.341 13.198 12C13.198 12.66 12.661 13.197 12 13.197C11.34 13.197 10.802 12.66 10.802 12C10.802 11.341 11.34 10.804 12 10.804ZM17.677 12C17.677 11.341 17.14 10.804 16.479 10.804C15.819 10.804 15.281 11.341 15.281 12C15.281 12.66 15.819 13.197 16.479 13.197C17.14 13.197 17.677 12.66 17.677 12Z" fill="black"/>
</svg>
