<svg width="24" height="24" viewBox="0 0 24 24" fill="none" xmlns="http://www.w3.org/2000/svg">
<path fill-rule="evenodd" clip-rule="evenodd" d="M2.00018 12C2.00018 6.485 6.48618 2 12.0002 2C17.5142 2 22.0002 6.485 22.0002 12C22.0002 17.514 17.5142 22 12.0002 22C8.87218 22 5.98318 20.577 4.07318 18.098C3.82818 17.779 3.88718 17.322 4.20518 17.078C4.52318 16.832 4.97918 16.893 5.22518 17.21C6.85718 19.33 9.32718 20.546 12.0002 20.546C16.7122 20.546 20.5452 16.713 20.5452 12C20.5452 7.288 16.7122 3.454 12.0002 3.454C7.28818 3.454 3.45418 7.288 3.45418 12C3.45418 12.438 3.48718 12.873 3.55218 13.299C3.61218 13.695 3.33918 14.066 2.94318 14.127C2.54418 14.193 2.17518 13.916 2.11418 13.519C2.03818 13.021 2.00018 12.51 2.00018 12ZM7.52038 10.804C8.18138 10.804 8.71838 11.341 8.71838 12C8.71838 12.66 8.18138 13.197 7.52038 13.197C6.86038 13.197 6.32238 12.66 6.32238 12C6.32238 11.341 6.86038 10.804 7.52038 10.804ZM11.9999 10.804C12.6599 10.804 13.1979 11.341 13.1979 12C13.1979 12.66 12.6599 13.197 11.9999 13.197C11.3389 13.197 10.8019 12.66 10.8019 12C10.8019 11.341 11.3389 10.804 11.9999 10.804ZM17.6769 12C17.6769 11.341 17.1399 10.804 16.4789 10.804C15.8189 10.804 15.2809 11.341 15.2809 12C15.2809 12.66 15.8189 13.197 16.4789 13.197C17.1399 13.197 17.6769 12.66 17.6769 12Z" fill="black"/>
</svg>
