<svg width="24" height="24" viewBox="0 0 24 24" fill="none" xmlns="http://www.w3.org/2000/svg">
<path fill-rule="evenodd" clip-rule="evenodd" d="M2.00012 12C2.00012 6.485 6.48612 2 12.0001 2C17.5141 2 22.0001 6.485 22.0001 12C22.0001 17.514 17.5141 22 12.0001 22C10.6051 22 9.25512 21.719 7.98712 21.162C7.62112 21.002 7.45512 20.575 7.61512 20.209C7.77512 19.841 8.20112 19.676 8.56912 19.837C9.65212 20.312 10.8061 20.553 12.0001 20.553C16.7151 20.553 20.5521 16.715 20.5521 12C20.5521 7.284 16.7151 3.448 12.0001 3.448C7.28412 3.448 3.44812 7.284 3.44812 12C3.44812 13.847 4.02612 15.604 5.12212 17.084C5.35912 17.405 5.29212 17.858 4.97112 18.096C4.64912 18.335 4.19612 18.269 3.95812 17.945C2.67712 16.216 2.00012 14.16 2.00012 12ZM10.82 15.9694H10.856C11.149 15.9624 11.755 15.7104 11.761 15.7074C12.779 15.2784 14.794 13.9544 15.608 13.0784L15.657 13.0264C15.757 12.9204 15.906 12.7554 15.941 12.7084C16.091 12.5014 16.171 12.2554 16.171 12.0004C16.171 11.7314 16.08 11.4664 15.913 11.2534C15.886 11.2194 15.77 11.0934 15.676 10.9944L15.597 10.9094C14.805 10.0644 12.743 8.6734 11.66 8.2534C11.495 8.1884 11.087 8.0364 10.864 8.0304C10.652 8.0274 10.447 8.0724 10.251 8.1754C10.008 8.3074 9.81597 8.5194 9.71397 8.7664C9.63897 8.9424 9.53897 9.4654 9.53797 9.4734C9.43297 10.0524 9.37297 10.9734 9.37497 11.9994C9.37297 12.9694 9.42697 13.8584 9.52197 14.4364C9.52297 14.4424 9.63597 15.0894 9.75397 15.3184C9.95997 15.7164 10.378 15.9694 10.82 15.9694ZM10.962 9.7334C10.97 9.6874 10.984 9.6194 10.999 9.5504C11.053 9.5704 11.101 9.5884 11.132 9.6004C11.999 9.9374 13.91 11.2254 14.537 11.8964L14.621 11.9854C14.6229 11.9873 14.6246 11.9892 14.6263 11.991C14.6269 11.9917 14.6274 11.9923 14.628 11.9929C14.6291 11.9942 14.6303 11.9955 14.6315 11.9968C14.6326 11.998 14.6338 11.9992 14.635 12.0004C14.624 12.0104 14.614 12.0214 14.605 12.0314C14.604 12.0334 14.552 12.0924 14.547 12.0914C13.94 12.7474 12.126 13.9824 11.2 14.3724C11.1761 14.3821 11.1454 14.394 11.1118 14.407L11.1117 14.407C11.0764 14.4207 11.0379 14.4355 11.001 14.4504C10.98 14.3584 10.961 14.2634 10.951 14.2014C10.869 13.7064 10.821 12.8824 10.822 11.9994C10.821 11.0834 10.875 10.2144 10.962 9.7334Z" fill="black"/>
</svg>
