<svg width="24" height="24" viewBox="0 0 24 24" fill="none" xmlns="http://www.w3.org/2000/svg">
<path fill-rule="evenodd" clip-rule="evenodd" d="M2.774 11.3395C3.192 11.3395 3.53 11.0015 3.53 10.5835V10.5655V8.25251C3.53 5.20951 5.21 3.52951 8.253 3.52951H15.747C18.8 3.52951 20.47 5.20951 20.47 8.25251V15.7525C20.47 18.7955 18.79 20.4665 15.747 20.4665H8.254C5.202 20.4665 3.531 18.7865 3.531 15.7525C3.531 15.3305 3.189 14.9875 2.766 14.9875C2.343 14.9875 2.001 15.3305 2.001 15.7525C2 19.6075 4.392 21.9995 8.244 21.9995H15.747C19.608 21.9995 22 19.6075 22 15.7555V8.25551C22 4.39251 19.608 1.99951 15.747 1.99951H8.254C4.41 1.99951 2 4.39251 2 8.25251V10.5745C1.999 10.9965 2.341 11.3395 2.763 11.3395H2.765H2.774ZM11.2502 7.63331C11.2502 7.21931 11.5862 6.88331 12.0002 6.88331C12.4142 6.88331 12.7502 7.21931 12.7502 7.63331V11.5683L15.7762 13.3723C16.1312 13.5853 16.2482 14.0453 16.0362 14.4013C15.8962 14.6363 15.6462 14.7673 15.3912 14.7673C15.2602 14.7673 15.1282 14.7333 15.0072 14.6613L11.6162 12.6383C11.3892 12.5023 11.2502 12.2573 11.2502 11.9933V7.63331Z" fill="black"/>
</svg>
