<svg width="24" height="24" viewBox="0 0 24 24" fill="none" xmlns="http://www.w3.org/2000/svg">
<path fill-rule="evenodd" clip-rule="evenodd" d="M12.932 6.20825C11.3817 6.20825 10.0407 7.11058 9.40819 8.42206C9.23814 8.77467 8.82549 8.93718 8.46067 8.79522C7.96993 8.60427 7.43547 8.49913 6.87467 8.49913C4.4582 8.49913 2.49927 10.4581 2.49927 12.8745C2.49927 15.291 4.4582 17.2499 6.87467 17.2499H18.5233C20.1678 17.2499 21.5009 15.9168 21.5009 14.2724C21.5009 12.6279 20.1678 11.2948 18.5233 11.2948C18.2557 11.2948 17.9975 11.3299 17.7525 11.3954C17.5123 11.4595 17.2559 11.4005 17.0679 11.2377C16.88 11.0749 16.7849 10.8296 16.8141 10.5827C16.8321 10.4305 16.8414 10.2753 16.8414 10.1177C16.8414 7.95858 15.0911 6.20825 12.932 6.20825ZM8.38009 7.19396C9.34183 5.69967 11.0205 4.70825 12.932 4.70825C15.8125 4.70825 18.1671 6.9597 18.3322 9.79883C18.3956 9.79616 18.4593 9.79481 18.5233 9.79481C20.9962 9.79481 23.0009 11.7995 23.0009 14.2724C23.0009 16.7453 20.9962 18.7499 18.5233 18.7499H6.87467C3.62978 18.7499 0.999268 16.1194 0.999268 12.8745C0.999268 9.62964 3.62978 6.99913 6.87467 6.99913C7.39433 6.99913 7.89905 7.06678 8.38009 7.19396Z" fill="#6C6D6D"/>
</svg>
