<svg width="24" height="24" viewBox="0 0 24 24" fill="none" xmlns="http://www.w3.org/2000/svg">
<path fill-rule="evenodd" clip-rule="evenodd" d="M21.0304 4.83038C21.3233 4.53749 21.3233 4.06261 21.0304 3.76972C20.7375 3.47683 20.2626 3.47683 19.9697 3.76972L3.96973 19.7697C3.67684 20.0626 3.67684 20.5375 3.96973 20.8304C4.26262 21.1233 4.7375 21.1233 5.03039 20.8304L7.11071 18.7501H18.5233C20.9962 18.7501 23.0009 16.7454 23.0009 14.2725C23.0009 11.7996 20.9962 9.79493 18.5233 9.79493C18.4593 9.79493 18.3956 9.79628 18.3322 9.79895C18.2945 9.15027 18.1425 8.53227 17.896 7.96479L21.0304 4.83038ZM16.7187 9.14209L8.61071 17.2501H18.5233C20.1678 17.2501 21.5009 15.917 21.5009 14.2725C21.5009 12.628 20.1678 11.2949 18.5233 11.2949C18.2557 11.2949 17.9975 11.33 17.7525 11.3955C17.5123 11.4596 17.2559 11.4006 17.0679 11.2378C16.88 11.075 16.7849 10.8297 16.8141 10.5828C16.8321 10.4306 16.8414 10.2755 16.8414 10.1178C16.8414 9.78093 16.7988 9.45399 16.7187 9.14209Z" fill="#6C6D6D"/>
<path d="M12.932 4.70837C14.0389 4.70837 15.0681 5.04083 15.9253 5.61134C16.0522 5.69579 16.0649 5.87451 15.9572 5.9823L15.2295 6.70991C15.1455 6.79392 15.0144 6.80644 14.912 6.74617C14.3313 6.4044 13.6545 6.20837 12.932 6.20837C11.3817 6.20837 10.0407 7.1107 9.40819 8.42218C9.23814 8.77479 8.82549 8.9373 8.46067 8.79534C7.96993 8.60439 7.43547 8.49926 6.87467 8.49926C4.4582 8.49926 2.49927 10.4582 2.49927 12.8747C2.49927 14.521 3.40852 15.9549 4.75224 16.7017C4.90503 16.7866 4.94319 16.9963 4.81959 17.1199L4.09647 17.843C4.01672 17.9227 3.89314 17.9397 3.79711 17.8805C2.11837 16.8462 0.999268 14.9911 0.999268 12.8747C0.999268 9.62976 3.62978 6.99925 6.87467 6.99925C7.39433 6.99925 7.89905 7.0669 8.38009 7.19408C9.34183 5.69979 11.0205 4.70837 12.932 4.70837Z" fill="#6C6D6D"/>
</svg>
