<svg width="24" height="24" viewBox="0 0 24 24" fill="none" xmlns="http://www.w3.org/2000/svg">
<path fill-rule="evenodd" clip-rule="evenodd" d="M16.0202 12.3073C14.8902 12.3073 13.8202 12.5373 12.9202 12.9173C16.0802 13.8373 18.3102 16.0273 18.3602 18.5773C20.0002 18.3573 21.7602 17.7473 21.7602 16.0473C21.7602 14.0173 19.1302 12.3073 16.0202 12.3073Z" fill="#484848"/>
<path fill-rule="evenodd" clip-rule="evenodd" d="M15.9902 10.8673H16.0202C18.1502 10.8673 19.8802 9.13734 19.8802 7.00734C19.8802 4.87734 18.1502 3.14734 16.0202 3.14734C15.6002 3.14734 15.2002 3.21734 14.8202 3.33734C15.5102 4.35734 15.9102 5.58734 15.9102 6.90734C15.9102 8.29734 15.4602 9.58734 14.7002 10.6373C15.1002 10.7873 15.5402 10.8673 15.9902 10.8673Z" fill="#484848"/>
<path fill-rule="evenodd" clip-rule="evenodd" d="M9.54875 13.9465C5.58675 13.9465 2.23975 16.1115 2.23975 18.6745C2.23975 21.6135 6.41075 21.9535 9.54875 21.9535C11.3567 21.9535 16.8577 21.9535 16.8577 18.6545C16.8577 16.1025 13.5107 13.9465 9.54875 13.9465Z" fill="#484848"/>
<path fill-rule="evenodd" clip-rule="evenodd" d="M9.51749 11.7756H9.54749C12.2305 11.7756 14.4125 9.59363 14.4125 6.91163C14.4125 4.22863 12.2305 2.04663 9.54749 2.04663C6.86649 2.04663 4.68449 4.22863 4.68449 6.90963C4.67949 8.20463 5.17849 9.42363 6.09149 10.3426C7.00449 11.2616 8.22049 11.7706 9.51749 11.7756Z" fill="#484848"/>
</svg>
