<svg width="26" height="24" viewBox="0 0 26 24" fill="none" xmlns="http://www.w3.org/2000/svg">
<path fill-rule="evenodd" clip-rule="evenodd" d="M19.4749 12.3085C18.3349 12.3085 17.2649 12.5385 16.3649 12.9285C19.5149 13.8385 21.7449 16.0185 21.8049 18.5685C23.4449 18.3585 25.2149 17.7385 25.2149 16.0485C25.2149 14.0185 22.5849 12.3085 19.4749 12.3085Z" fill="currentColor"/>
<path fill-rule="evenodd" clip-rule="evenodd" d="M19.4449 10.8685H19.4649C21.5949 10.8685 23.3349 9.12855 23.3349 7.00855C23.3349 4.87855 21.5949 3.13855 19.4649 3.13855C19.0449 3.13855 18.6449 3.20855 18.2649 3.32855C18.9549 4.34855 19.3549 5.57855 19.3549 6.90855C19.3649 8.25855 18.9449 9.55855 18.1549 10.6385C18.5649 10.7885 18.9949 10.8685 19.4449 10.8685Z" fill="currentColor"/>
<path fill-rule="evenodd" clip-rule="evenodd" d="M9.62491 12.9185C8.72491 12.5385 7.65491 12.3085 6.52491 12.3085C3.41491 12.3085 0.784912 14.0185 0.784912 16.0485C0.784912 17.7385 2.54491 18.3485 4.18491 18.5685C4.23491 16.0185 6.46491 13.8385 9.62491 12.9185Z" fill="currentColor"/>
<path fill-rule="evenodd" clip-rule="evenodd" d="M6.52492 10.8685H6.55492C7.00492 10.8685 7.43492 10.7885 7.84492 10.6385C7.08492 9.59855 6.63492 8.30855 6.63492 6.90855C6.63492 5.57855 7.03492 4.34855 7.72492 3.32855C7.34492 3.20855 6.94492 3.13855 6.52492 3.13855C4.39492 3.13855 2.66492 4.87855 2.66492 7.00855C2.66492 9.12855 4.39492 10.8685 6.52492 10.8685Z" fill="currentColor"/>
<path fill-rule="evenodd" clip-rule="evenodd" d="M12.9945 13.9456C9.03352 13.9456 5.68652 16.1016 5.68652 18.6536C5.68652 21.9536 11.1865 21.9536 12.9945 21.9536C16.1325 21.9536 20.3045 21.6136 20.3045 18.6746C20.3045 16.1106 16.9565 13.9456 12.9945 13.9456Z" fill="currentColor"/>
<path fill-rule="evenodd" clip-rule="evenodd" d="M12.9955 11.7746H13.0285C14.3235 11.7706 15.5395 11.2616 16.4515 10.3426C17.3645 9.42363 17.8645 8.20463 17.8595 6.91163C17.8595 4.22863 15.6785 2.04663 12.9955 2.04663C10.3135 2.04663 8.13251 4.22863 8.13251 6.91163C8.13251 9.59263 10.3135 11.7746 12.9955 11.7746Z" fill="currentColor"/>
</svg>
