<svg width="24" height="24" viewBox="0 0 24 24" fill="none" xmlns="http://www.w3.org/2000/svg">
<path fill-rule="evenodd" clip-rule="evenodd" d="M9.78318 14.0304C5.67918 14.0304 2.21118 16.2794 2.21118 18.9414C2.21118 21.9774 6.53218 22.3284 9.78318 22.3284C11.6562 22.3284 17.3552 22.3284 17.3552 18.9214C17.3552 16.2694 13.8872 14.0304 9.78318 14.0304Z" fill="currentColor"/>
<path fill-rule="evenodd" clip-rule="evenodd" d="M9.75085 11.7364H9.78285C12.5589 11.7364 14.8159 9.47839 14.8159 6.70339C14.8159 3.92839 12.5589 1.67139 9.78285 1.67139C7.00785 1.67139 4.74985 3.92839 4.74985 6.70139C4.73985 9.46739 6.98185 11.7264 9.75085 11.7364Z" fill="currentColor"/>
<path fill-rule="evenodd" clip-rule="evenodd" d="M21.039 9.40435H19.742V8.14935C19.742 7.73535 19.406 7.39935 18.992 7.39935C18.578 7.39935 18.242 7.73535 18.242 8.14935V9.40435H16.949C16.535 9.40435 16.199 9.74035 16.199 10.1544C16.199 10.5684 16.535 10.9044 16.949 10.9044H18.242V12.1594C18.242 12.5734 18.578 12.9094 18.992 12.9094C19.406 12.9094 19.742 12.5734 19.742 12.1594V10.9044H21.039C21.453 10.9044 21.789 10.5684 21.789 10.1544C21.789 9.74035 21.453 9.40435 21.039 9.40435Z" fill="currentColor"/>
</svg>
