<svg width="24" height="24" viewBox="0 0 24 24" fill="none" xmlns="http://www.w3.org/2000/svg">
<path fill-rule="evenodd" clip-rule="evenodd" d="M20.175 11.0001H11.948C11.882 9.09213 11.629 7.37113 11.186 6.92713C10.623 6.36413 9.68995 6.65013 8.93795 6.96113C7.36695 7.61113 2.82495 10.3571 2.82495 12.0071C2.82495 13.7101 7.57195 16.4451 9.01295 17.0421C9.46395 17.2291 9.94595 17.3941 10.374 17.3941C10.683 17.3941 10.964 17.3091 11.187 17.0851C11.631 16.6391 11.884 14.9121 11.949 13.0001H20.175C20.728 13.0001 21.175 12.5531 21.175 12.0001C21.175 11.4471 20.728 11.0001 20.175 11.0001Z" fill="#484848"/>
</svg>
