<svg width="24" height="24" viewBox="0 0 24 24" fill="none" xmlns="http://www.w3.org/2000/svg">
<path fill-rule="evenodd" clip-rule="evenodd" d="M16.169 12.3C16.04 12.387 15.895 12.428 15.751 12.428C15.51 12.428 15.273 12.312 15.128 12.097C14.335 10.917 13.419 9.819 12.75 9.194V16.086C12.75 16.5 12.414 16.836 12 16.836C11.586 16.836 11.25 16.5 11.25 16.086V9.187C10.588 9.81 9.669 10.912 8.872 12.097C8.642 12.44 8.177 12.532 7.831 12.3C7.488 12.07 7.397 11.603 7.628 11.26C8.455 10.029 10.538 7.164 12 7.164C13.462 7.164 15.545 10.029 16.372 11.26C16.604 11.603 16.512 12.07 16.169 12.3ZM12 2.25C4.802 2.25 2.25 4.802 2.25 12C2.25 19.198 4.802 21.75 12 21.75C19.198 21.75 21.75 19.198 21.75 12C21.75 4.802 19.198 2.25 12 2.25Z" fill="#484848"/>
</svg>
