<svg width="24" height="24" viewBox="0 0 24 24" fill="none" xmlns="http://www.w3.org/2000/svg">
<path fill-rule="evenodd" clip-rule="evenodd" d="M13.864 14.853C14.205 15.087 14.292 15.554 14.057 15.896C13.912 16.108 13.677 16.221 13.438 16.221C13.292 16.221 13.144 16.178 13.014 16.089C11.593 15.114 9.21 13.285 9.21 12.001C9.21 10.718 11.593 8.888 13.014 7.912C13.358 7.678 13.823 7.764 14.057 8.105C14.292 8.446 14.206 8.913 13.864 9.148C12.28 10.238 10.804 11.585 10.708 12.032C10.804 12.417 12.28 13.764 13.864 14.853ZM12 2.25C4.801 2.25 2.25 4.802 2.25 12C2.25 19.199 4.801 21.75 12 21.75C19.198 21.75 21.75 19.199 21.75 12C21.75 4.802 19.198 2.25 12 2.25Z" fill="#484848"/>
</svg>
