<svg width="24" height="24" viewBox="0 0 24 24" fill="none" xmlns="http://www.w3.org/2000/svg">
<path fill-rule="evenodd" clip-rule="evenodd" d="M15.894 14.061C15.553 14.295 15.084 14.207 14.852 13.867C13.763 12.28 12.416 10.802 11.97 10.705C11.583 10.802 10.237 12.28 9.149 13.867C9.004 14.079 8.769 14.193 8.53 14.193C8.384 14.193 8.237 14.15 8.107 14.061C7.765 13.828 7.678 13.361 7.913 13.019C8.888 11.595 10.717 9.207 12 9.207C13.284 9.207 15.113 11.595 16.088 13.019C16.323 13.361 16.236 13.828 15.894 14.061ZM12 2.25C4.802 2.25 2.25 4.802 2.25 12C2.25 19.199 4.802 21.75 12 21.75C19.199 21.75 21.75 19.199 21.75 12C21.75 4.802 19.199 2.25 12 2.25Z" fill="#484848"/>
</svg>
