<svg width="24" height="24" viewBox="0 0 24 24" fill="none" xmlns="http://www.w3.org/2000/svg">
<path fill-rule="evenodd" clip-rule="evenodd" d="M12.737 16.371C12.609 16.457 12.465 16.498 12.321 16.498C12.079 16.498 11.841 16.382 11.697 16.165C11.466 15.821 11.558 15.355 11.903 15.125C13.085 14.333 14.185 13.418 14.81 12.75H7.91C7.496 12.75 7.16 12.414 7.16 12C7.16 11.586 7.496 11.25 7.91 11.25H14.812C14.182 10.582 13.069 9.653 11.902 8.871C11.558 8.641 11.466 8.174 11.697 7.83C11.927 7.486 12.391 7.394 12.738 7.625C13.971 8.452 16.84 10.534 16.84 12C16.84 13.466 13.97 15.545 12.737 16.371ZM12 2.25C4.801 2.25 2.25 4.802 2.25 12C2.25 19.198 4.801 21.75 12 21.75C19.198 21.75 21.75 19.198 21.75 12C21.75 4.802 19.198 2.25 12 2.25Z" fill="#484848"/>
</svg>
