<svg width="24" height="24" viewBox="0 0 24 24" fill="none" xmlns="http://www.w3.org/2000/svg">
<path fill-rule="evenodd" clip-rule="evenodd" d="M19.5 11.0003H5.867C6.773 9.58133 9.194 7.84433 11.024 6.85533C11.511 6.59333 11.691 5.98633 11.43 5.50133C11.167 5.01633 10.562 4.83233 10.075 5.09633C8.978 5.68733 3.505 8.80033 3.5 11.9983C3.5 11.9993 3.5 11.9993 3.5 12.0003V12.0023C3.5 15.1993 8.978 18.3123 10.075 18.9043C10.227 18.9863 10.389 19.0243 10.549 19.0243C10.904 19.0243 11.249 18.8343 11.43 18.4993C11.691 18.0143 11.511 17.4063 11.024 17.1453C9.193 16.1553 6.77 14.4183 5.865 13.0003H19.5C20.053 13.0003 20.5 12.5533 20.5 12.0003C20.5 11.4473 20.053 11.0003 19.5 11.0003Z" fill="#484848"/>
</svg>
