<svg width="24" height="24" viewBox="0 0 24 24" fill="none" xmlns="http://www.w3.org/2000/svg">
<path fill-rule="evenodd" clip-rule="evenodd" d="M16.088 10.981C15.112 12.405 13.283 14.794 12 14.794C10.717 14.794 8.888 12.405 7.912 10.981C7.678 10.639 7.765 10.172 8.107 9.939C8.447 9.705 8.917 9.793 9.149 10.133C10.237 11.72 11.584 13.198 12.03 13.295C12.417 13.198 13.764 11.72 14.852 10.133C15.084 9.793 15.551 9.705 15.894 9.939C16.235 10.172 16.322 10.639 16.088 10.981ZM12 2.25C4.802 2.25 2.25 4.801 2.25 12C2.25 19.198 4.802 21.75 12 21.75C19.198 21.75 21.75 19.198 21.75 12C21.75 4.801 19.198 2.25 12 2.25Z" fill="#484848"/>
</svg>
