<svg width="24" height="24" viewBox="0 0 24 24" fill="none" xmlns="http://www.w3.org/2000/svg">
<path fill-rule="evenodd" clip-rule="evenodd" d="M16.09 12.75H9.187C9.818 13.417 10.931 14.346 12.098 15.129C12.442 15.359 12.533 15.826 12.303 16.17C12.158 16.386 11.921 16.502 11.679 16.502C11.535 16.502 11.391 16.461 11.262 16.375C10.028 15.548 7.16 13.466 7.16 12C7.16 10.534 10.029 8.455 11.263 7.629C11.607 7.397 12.073 7.49 12.303 7.835C12.533 8.179 12.442 8.645 12.097 8.875C10.915 9.667 9.815 10.582 9.19 11.25H16.09C16.504 11.25 16.84 11.586 16.84 12C16.84 12.414 16.504 12.75 16.09 12.75ZM12 2.25C4.802 2.25 2.25 4.802 2.25 12C2.25 19.198 4.802 21.75 12 21.75C19.198 21.75 21.75 19.198 21.75 12C21.75 4.802 19.198 2.25 12 2.25Z" fill="#484848"/>
</svg>
