<svg width="24" height="24" viewBox="0 0 24 24" fill="none" xmlns="http://www.w3.org/2000/svg">
<path fill-rule="evenodd" clip-rule="evenodd" d="M16.372 12.74C15.545 13.971 13.462 16.836 12 16.836C10.538 16.836 8.455 13.971 7.628 12.74C7.396 12.397 7.488 11.93 7.831 11.7C8.178 11.468 8.643 11.561 8.872 11.903C9.665 13.083 10.581 14.181 11.25 14.806V7.914C11.25 7.5 11.586 7.164 12 7.164C12.414 7.164 12.75 7.5 12.75 7.914V14.813C13.412 14.19 14.331 13.088 15.128 11.903C15.358 11.56 15.824 11.468 16.169 11.7C16.512 11.93 16.603 12.397 16.372 12.74ZM12 2.25C4.802 2.25 2.25 4.802 2.25 12C2.25 19.198 4.802 21.75 12 21.75C19.198 21.75 21.75 19.198 21.75 12C21.75 4.802 19.198 2.25 12 2.25Z" fill="currentColor"/>
</svg>
