<svg width="24" height="24" viewBox="0 0 24 24" fill="none" xmlns="http://www.w3.org/2000/svg">
<path fill-rule="evenodd" clip-rule="evenodd" d="M18.9049 10.075C18.3159 8.98 15.2139 3.527 12.0169 3.502C12.0129 3.502 12.0089 3.5 12.0059 3.5C12.0039 3.5 12.0029 3.501 12.0019 3.501C11.9989 3.501 11.9969 3.5 11.9949 3.5C8.79988 3.5 5.68588 8.977 5.09488 10.075C4.83288 10.561 5.01388 11.168 5.50088 11.429C5.65188 11.512 5.81388 11.55 5.97388 11.55C6.33088 11.55 6.67488 11.359 6.85488 11.024C7.81588 9.242 9.58188 6.783 11.0059 5.867V19.5C11.0059 20.053 11.4529 20.5 12.0059 20.5C12.5579 20.5 13.0059 20.053 13.0059 19.5V5.871C14.4259 6.781 16.1589 9.197 17.1449 11.024C17.4069 11.51 18.0119 11.69 18.4999 11.429C18.9859 11.168 19.1679 10.561 18.9049 10.075Z" fill="#484848"/>
</svg>
