<svg width="24" height="24" viewBox="0 0 24 24" fill="none" xmlns="http://www.w3.org/2000/svg">
<path fill-rule="evenodd" clip-rule="evenodd" d="M14.9393 12.4795H14.8933C14.3413 12.4795 13.8933 12.0315 13.8933 11.4795C13.8933 10.9275 14.3413 10.4795 14.8933 10.4795C15.4473 10.4795 15.9163 10.9375 15.9163 11.4795C15.9163 12.0405 15.4873 12.4795 14.9393 12.4795ZM8.4803 6.37652C8.6033 5.64652 8.9413 4.97152 9.4783 4.43952C10.1513 3.77252 11.0433 3.40552 11.9933 3.40552H12.0103C13.7743 3.40552 15.2333 4.69352 15.5203 6.37652C14.4883 6.23752 13.3303 6.16052 12.0003 6.16052C10.6713 6.16052 9.5123 6.23752 8.4803 6.37652ZM9.1083 12.4795H9.0623C8.5113 12.4795 8.0623 12.0315 8.0623 11.4795C8.0623 10.9275 8.5113 10.4795 9.0623 10.4795C9.6173 10.4795 10.0853 10.9375 10.0853 11.4795C10.0853 12.0405 9.6563 12.4795 9.1083 12.4795ZM20.6673 8.71252C19.9273 7.74752 18.7313 7.07752 17.0493 6.66352C16.8843 4.01552 14.6993 1.90552 12.0133 1.90552H11.9903C10.6453 1.90552 9.3783 2.42652 8.4223 3.37452C7.5343 4.25452 7.0333 5.40952 6.9523 6.66352C5.2693 7.07652 4.0733 7.74652 3.3333 8.71252C2.3233 10.0315 2.1483 11.8445 2.7993 14.2565C4.3023 19.8325 5.1843 22.0945 12.0003 22.0945C18.8153 22.0945 19.6973 19.8325 21.2013 14.2565C21.8513 11.8445 21.6773 10.0315 20.6673 8.71252Z" fill="#484848"/>
</svg>
