<svg width="24" height="24" viewBox="0 0 24 24" fill="none" xmlns="http://www.w3.org/2000/svg">
<path fill-rule="evenodd" clip-rule="evenodd" d="M16.53 6.61007V7.23007C16.07 7.13007 15.57 7.04007 15.03 6.98007V6.61007C15.03 4.94007 13.68 3.57007 12.01 3.57007H12C10.33 3.57007 8.96997 4.93007 8.96997 6.59007V6.98007C8.42997 7.04007 7.92997 7.13007 7.46997 7.23007V6.59007C7.46997 4.10007 9.50997 2.07007 12 2.07007H12.01C14.51 2.08007 16.54 4.11007 16.53 6.61007Z" fill="currentColor"/>
<path fill-rule="evenodd" clip-rule="evenodd" d="M21.52 14.3801C21.52 19.9601 19.03 21.9301 12 21.9301C4.96998 21.9301 2.47998 19.9601 2.47998 14.3801C2.47998 10.2301 3.85997 8.07007 7.46997 7.23007L7.46998 9.64007C7.46998 10.0601 7.79998 10.3901 8.21998 10.3901C8.62998 10.3901 8.96998 10.0601 8.96998 9.64007L8.96997 6.98007C9.86997 6.87007 10.88 6.82007 12 6.82007C13.12 6.82007 14.13 6.87007 15.03 6.98007L15.03 9.64007C15.03 10.0601 15.37 10.3901 15.78 10.3901C16.19 10.3901 16.53 10.0601 16.53 9.64007L16.53 7.23007C20.14 8.07007 21.52 10.2301 21.52 14.3801Z" fill="currentColor"/>
</svg>
