<svg width="24" height="24" viewBox="0 0 24 24" fill="none" xmlns="http://www.w3.org/2000/svg">
<path fill-rule="evenodd" clip-rule="evenodd" d="M18.9641 5.85C20.2841 6.45 21.1141 7.7 21.3141 9.37C21.3941 10 21.3741 10.67 21.2841 11.34C21.0041 13.35 20.0341 15.36 18.7441 16.37C17.7641 17.13 16.5141 17.5 15.2441 17.67C14.4741 17.78 13.6941 17.81 12.9641 17.81C12.7041 17.81 12.4441 17.81 12.1941 17.8C10.3541 17.75 8.01409 17.54 6.32409 16.34C4.05446 14.7303 4.314 11.3111 4.54397 8.2815L4.54409 8.28C4.54704 8.24195 4.55 8.20397 4.55295 8.16607C4.62985 7.17775 4.70298 6.23786 4.67409 5.4C4.71409 4.15 3.41409 3.9 3.26409 3.88C2.86409 3.81 2.58409 3.43 2.64409 3.02C2.71409 2.62 3.09409 2.35 3.49409 2.4C4.43409 2.54 6.18409 3.34 6.17409 5.34C6.17409 5.39028 6.17496 5.4405 6.17619 5.49071C6.18099 5.68651 6.34745 5.84276 6.54312 5.8341C8.46968 5.74608 10.3871 5.65847 12.3141 5.59C13.3941 5.55 14.4641 5.52 15.5441 5.5C15.6341 5.5 15.7216 5.4975 15.8091 5.495C15.8966 5.4925 15.9841 5.49 16.0741 5.49L16.1108 5.48878C17.0114 5.45901 18.017 5.42576 18.9641 5.85ZM12.8841 10.89H15.6541C16.0741 10.89 16.4041 10.55 16.4041 10.14C16.4041 9.73 16.0741 9.39 15.6541 9.39H12.8841C12.4741 9.39 12.1341 9.73 12.1341 10.14C12.1341 10.55 12.4741 10.89 12.8841 10.89Z" fill="#484848"/>
<path d="M7.14778 19.017C6.43378 19.017 5.85278 19.597 5.85278 20.311C5.85278 21.025 6.43378 21.606 7.14778 21.606C7.86178 21.606 8.44178 21.025 8.44178 20.311C8.44178 19.597 7.86178 19.017 7.14778 19.017Z" fill="#484848"/>
<path d="M17.4788 19.017C16.7648 19.017 16.1848 19.597 16.1848 20.311C16.1848 21.025 16.7648 21.606 17.4788 21.606C18.1928 21.606 18.7738 21.025 18.7738 20.311C18.7738 19.597 18.1928 19.017 17.4788 19.017Z" fill="#484848"/>
</svg>
