<svg width="24" height="24" viewBox="0 0 24 24" fill="none" xmlns="http://www.w3.org/2000/svg">
<path fill-rule="evenodd" clip-rule="evenodd" d="M16.9536 3.72824V2.12524C16.9536 1.71124 16.6176 1.37524 16.2036 1.37524C15.7896 1.37524 15.4536 1.71124 15.4536 2.12524V5.38824C15.4536 5.64824 15.5946 5.86724 15.7966 6.00124C15.6776 6.08124 15.5426 6.13824 15.3886 6.13824C14.9746 6.13824 14.6386 5.80224 14.6386 5.38824V3.22224C13.8366 3.12624 12.9626 3.07724 11.9996 3.07724C10.8656 3.07724 9.85459 3.14524 8.94559 3.28224V2.12524C8.94559 1.71124 8.60959 1.37524 8.19559 1.37524C7.78159 1.37524 7.44559 1.71124 7.44559 2.12524V5.38824C7.44559 5.64824 7.58659 5.86724 7.78859 6.00124C7.66959 6.08124 7.53459 6.13824 7.38059 6.13824C6.96659 6.13824 6.63059 5.80224 6.63059 5.38824V3.85824C4.49659 4.68124 3.24459 6.21224 2.65259 8.65024H21.3476C20.7196 6.06424 19.3316 4.51224 16.9536 3.72824Z" fill="#484848"/>
<path fill-rule="evenodd" clip-rule="evenodd" d="M16.4126 14.0866C15.9986 14.0866 15.6586 13.7506 15.6586 13.3366C15.6586 12.9226 15.9896 12.5866 16.4036 12.5866H16.4126C16.8266 12.5866 17.1626 12.9226 17.1626 13.3366C17.1626 13.7506 16.8266 14.0866 16.4126 14.0866ZM16.4126 17.9396C15.9986 17.9396 15.6586 17.6036 15.6586 17.1896C15.6586 16.7746 15.9896 16.4396 16.4036 16.4396H16.4126C16.8266 16.4396 17.1626 16.7746 17.1626 17.1896C17.1626 17.6036 16.8266 17.9396 16.4126 17.9396ZM12.0136 14.0866C11.5996 14.0866 11.2586 13.7506 11.2586 13.3366C11.2586 12.9226 11.5906 12.5866 12.0046 12.5866H12.0136C12.4276 12.5866 12.7636 12.9226 12.7636 13.3366C12.7636 13.7506 12.4276 14.0866 12.0136 14.0866ZM12.0136 17.9396C11.5996 17.9396 11.2586 17.6036 11.2586 17.1896C11.2586 16.7746 11.5906 16.4396 12.0046 16.4396H12.0136C12.4276 16.4396 12.7636 16.7746 12.7636 17.1896C12.7636 17.6036 12.4276 17.9396 12.0136 17.9396ZM7.60559 14.0866C7.19159 14.0866 6.85059 13.7506 6.85059 13.3366C6.85059 12.9226 7.18259 12.5866 7.59659 12.5866H7.60559C8.01959 12.5866 8.35559 12.9226 8.35559 13.3366C8.35559 13.7506 8.01959 14.0866 7.60559 14.0866ZM7.60559 17.9396C7.19159 17.9396 6.85059 17.6036 6.85059 17.1896C6.85059 16.7746 7.18259 16.4396 7.59659 16.4396H7.60559C8.01959 16.4396 8.35559 16.7746 8.35559 17.1896C8.35559 17.6036 8.01959 17.9396 7.60559 17.9396ZM21.6196 10.1496H2.38059C2.27859 10.9696 2.22559 11.8626 2.22559 12.8516C2.22559 20.0666 4.78359 22.6246 11.9996 22.6246C19.2166 22.6246 21.7746 20.0666 21.7746 12.8516C21.7746 11.8626 21.7216 10.9696 21.6196 10.1496Z" fill="#484848"/>
</svg>
