<svg width="24" height="24" viewBox="0 0 24 24" fill="none" xmlns="http://www.w3.org/2000/svg">
<path fill-rule="evenodd" clip-rule="evenodd" d="M19.595 5.50097L22.065 3.03097C22.358 2.73797 22.358 2.26397 22.065 1.97097C21.772 1.67797 21.297 1.67797 21.004 1.97097L18.534 4.43997L16.065 1.97097C15.772 1.67797 15.297 1.67797 15.004 1.97097C14.711 2.26397 14.711 2.73797 15.004 3.03097L17.474 5.50097L15.004 7.97097C14.711 8.26397 14.711 8.73797 15.004 9.03097C15.151 9.17797 15.342 9.25097 15.534 9.25097C15.727 9.25097 15.918 9.17797 16.065 9.03097L18.534 6.56197L21.004 9.03097C21.151 9.17797 21.342 9.25097 21.534 9.25097C21.727 9.25097 21.918 9.17797 22.065 9.03097C22.358 8.73797 22.358 8.26397 22.065 7.97097L19.595 5.50097Z" fill="currentColor"/>
<path fill-rule="evenodd" clip-rule="evenodd" d="M15.5579 13.8477C14.5599 14.3337 13.6969 14.7557 11.4499 12.5087C9.20387 10.2617 9.62287 9.39868 10.1109 8.39968C10.8149 6.95168 11.0999 5.63468 7.89787 2.99768C7.13487 2.37368 6.31287 2.13668 5.43887 2.29968C3.57887 2.64568 2.30787 4.68268 2.30987 4.68268C1.49887 5.81968 0.386873 9.23768 7.55387 16.4037C12.2659 21.1157 15.3579 22.2487 17.2339 22.2487C18.2109 22.2487 18.8599 21.9417 19.2359 21.6727C19.2559 21.6597 21.3249 20.3557 21.6609 18.5047C21.8169 17.6407 21.5809 16.8187 20.9579 16.0577C18.3249 12.8607 17.0069 13.1427 15.5579 13.8477Z" fill="currentColor"/>
</svg>
