<svg width="24" height="24" viewBox="0 0 24 24" fill="none" xmlns="http://www.w3.org/2000/svg">
<path fill-rule="evenodd" clip-rule="evenodd" d="M6.46406 13.6827H6.48406C6.61606 13.6827 6.74306 13.6297 6.83706 13.5367L10.3401 10.0327C10.4691 9.90371 10.5181 9.71371 10.4661 9.53771C10.2601 8.83471 10.4991 8.34371 10.7761 7.77671C11.4791 6.32871 11.7631 5.01171 8.56106 2.36971C7.79606 1.74471 6.96406 1.51271 6.09506 1.67571C4.24906 2.02671 2.97306 4.06171 2.97506 4.06171C2.13806 5.24471 1.43306 8.04671 6.10406 13.5077C6.19406 13.6137 6.32506 13.6767 6.46406 13.6827Z" fill="#484848"/>
<path fill-rule="evenodd" clip-rule="evenodd" d="M21.6243 15.4338C18.9893 12.2378 17.6733 12.5228 16.2233 13.2268C15.3073 13.6737 14.5093 14.0598 12.6563 12.4038L21.4043 3.65575C21.6973 3.36275 21.6973 2.88775 21.4043 2.59475C21.1113 2.30175 20.6373 2.30175 20.3443 2.59475L1.84426 21.0947C1.55126 21.3877 1.55126 21.8628 1.84426 22.1558C1.99026 22.3018 2.18226 22.3748 2.37426 22.3748C2.56626 22.3748 2.75826 22.3018 2.90426 22.1558L8.75826 16.3018C13.1753 20.5728 16.1013 21.6287 17.8983 21.6287C18.8783 21.6287 19.5223 21.3188 19.8933 21.0487C19.9133 21.0378 21.9803 19.7567 22.3263 17.8947C22.4873 17.0267 22.2513 16.1997 21.6243 15.4338Z" fill="#484848"/>
</svg>
