<svg width="24" height="24" viewBox="0 0 24 24" fill="none" xmlns="http://www.w3.org/2000/svg">
<path fill-rule="evenodd" clip-rule="evenodd" d="M14.6108 1.75606C14.1978 1.70406 13.8278 2.00706 13.7828 2.41806C13.7368 2.83006 14.0338 3.20006 14.4448 3.24606C17.8218 3.62106 20.4438 6.24106 20.8228 9.61706C20.8658 10.0001 21.1898 10.2831 21.5668 10.2831C21.5948 10.2831 21.6238 10.2811 21.6518 10.2781C22.0628 10.2331 22.3588 9.86106 22.3128 9.44906C21.8558 5.37306 18.6888 2.20906 14.6108 1.75606Z" fill="currentColor"/>
<path fill-rule="evenodd" clip-rule="evenodd" d="M17.2915 9.68765C17.3615 10.0457 17.6755 10.2937 18.0265 10.2937C18.0745 10.2937 18.1225 10.2897 18.1715 10.2807C18.5775 10.2017 18.8435 9.80665 18.7645 9.40065C18.3575 7.31865 16.7505 5.71165 14.6705 5.30765C14.2735 5.22865 13.8705 5.49465 13.7915 5.90165C13.7125 6.30765 13.9785 6.70165 14.3855 6.78065C15.8615 7.06765 17.0035 8.20865 17.2915 9.68765Z" fill="currentColor"/>
<path fill-rule="evenodd" clip-rule="evenodd" d="M15.5259 13.8479C14.5279 14.3339 13.6639 14.7559 11.4169 12.5089C9.17088 10.2619 9.59088 9.39886 10.0779 8.39986C10.7829 6.95186 11.0679 5.63486 7.86588 2.99786C7.10088 2.37286 6.27088 2.13286 5.40388 2.30086C3.57088 2.64386 2.27588 4.68386 2.27788 4.68386C1.46588 5.81986 0.353876 9.23586 7.52088 16.4039C12.2349 21.1189 15.3269 22.2499 17.2029 22.2499C18.1789 22.2499 18.8259 21.9439 19.1999 21.6749C19.2199 21.6629 21.2779 20.3879 21.6259 18.5189C21.7879 17.6499 21.5519 16.8229 20.9259 16.0579C18.2899 12.8589 16.9729 13.1429 15.5259 13.8479Z" fill="currentColor"/>
</svg>
