<svg width="24" height="24" viewBox="0 0 24 24" fill="none" xmlns="http://www.w3.org/2000/svg">
<path fill-rule="evenodd" clip-rule="evenodd" d="M21.2474 15.8086C18.6094 12.6086 17.2944 12.8956 15.8484 13.5986C14.8474 14.0846 13.9834 14.5066 11.7374 12.2596C9.49141 10.0126 9.91241 9.1496 10.3984 8.1506C11.1034 6.7036 11.3894 5.3856 8.18641 2.7486C7.42341 2.1236 6.59141 1.8836 5.72541 2.0516C3.89241 2.3946 2.59741 4.4346 2.59941 4.4346C1.78741 5.5706 0.675409 8.9866 7.84241 16.1546C12.5564 20.8696 15.6474 22.0006 17.5234 22.0006C18.5004 22.0006 19.1464 21.6946 19.5204 21.4256C19.5414 21.4136 21.5994 20.1386 21.9464 18.2696C22.1084 17.4006 21.8734 16.5736 21.2474 15.8086Z" fill="#484848"/>
</svg>
