<svg width="24" height="24" viewBox="0 0 24 24" fill="none" xmlns="http://www.w3.org/2000/svg">
<path fill-rule="evenodd" clip-rule="evenodd" d="M16.9216 10.1271C16.5076 10.1271 16.1676 9.7911 16.1676 9.3771C16.1676 8.9631 16.4986 8.6271 16.9126 8.6271H16.9216C17.3356 8.6271 17.6716 8.9631 17.6716 9.3771C17.6716 9.7911 17.3356 10.1271 16.9216 10.1271ZM12.0006 16.7711C9.85258 16.7711 8.10558 15.0231 8.10558 12.8751C8.10558 10.7281 9.85258 8.9811 12.0006 8.9811C14.1486 8.9811 15.8956 10.7281 15.8956 12.8751C15.8956 15.0231 14.1486 16.7711 12.0006 16.7711ZM17.6196 6.0031C17.4506 5.9501 17.2046 5.8391 16.9976 5.6121C16.9116 5.5181 16.7956 5.2831 16.6836 5.0571C16.3816 4.4461 15.9686 3.6101 15.1376 3.2601C14.0696 2.8121 9.96958 2.8101 8.86658 3.2581C8.04658 3.5951 7.62858 4.4351 7.32358 5.0481C7.20858 5.2781 7.09058 5.5161 7.00258 5.6121C6.79658 5.8401 6.55058 5.9501 6.39758 5.9991C3.10058 6.9111 2.49658 9.0541 2.49658 12.9441C2.49658 18.5681 3.86858 21.0771 12.0006 21.0771C20.1316 21.0771 21.5036 18.5681 21.5036 12.9441C21.5036 9.0541 20.9006 6.9111 17.6196 6.0031Z" fill="currentColor"/>
<path fill-rule="evenodd" clip-rule="evenodd" d="M12.0007 10.4806C10.6797 10.4806 9.60571 11.5546 9.60571 12.8756C9.60571 14.1966 10.6797 15.2706 12.0007 15.2706C13.3217 15.2706 14.3957 14.1966 14.3957 12.8756C14.3957 11.5546 13.3217 10.4806 12.0007 10.4806Z" fill="currentColor"/>
</svg>
