<svg width="24" height="24" viewBox="0 0 24 24" fill="none" xmlns="http://www.w3.org/2000/svg">
<path d="M20.995 6.64697C20.995 8.65831 19.3645 10.2888 17.3532 10.2888C15.3418 10.2888 13.7113 8.65831 13.7113 6.64697C13.7113 4.63564 15.3418 3.00513 17.3532 3.00513C19.3645 3.00513 20.995 4.63564 20.995 6.64697Z" fill="#484848"/>
<path d="M10.2888 6.64697C10.2888 8.65831 8.65831 10.2888 6.64697 10.2888C4.63564 10.2888 3.00513 8.65831 3.00513 6.64697C3.00513 4.63564 4.63564 3.00513 6.64697 3.00513C8.65831 3.00513 10.2888 4.63564 10.2888 6.64697Z" fill="#484848"/>
<path d="M20.995 17.3532C20.995 19.3645 19.3645 20.9951 17.3532 20.9951C15.3418 20.9951 13.7113 19.3645 13.7113 17.3532C13.7113 15.3419 15.3418 13.7114 17.3532 13.7114C19.3645 13.7114 20.995 15.3419 20.995 17.3532Z" fill="#484848"/>
<path d="M10.2888 17.3532C10.2888 19.3645 8.65831 20.9951 6.64697 20.9951C4.63564 20.9951 3.00513 19.3645 3.00513 17.3532C3.00513 15.3419 4.63564 13.7114 6.64697 13.7114C8.65831 13.7114 10.2888 15.3419 10.2888 17.3532Z" fill="#484848"/>
</svg>
