<svg width="24" height="24" viewBox="0 0 24 24" fill="none" xmlns="http://www.w3.org/2000/svg">
<path fill-rule="evenodd" clip-rule="evenodd" d="M17.2289 16.9179C17.2289 17.3319 16.8929 17.6679 16.4789 17.6679C16.0649 17.6679 15.7289 17.3319 15.7289 16.9179V13.7609C15.7289 13.3469 16.0649 13.0109 16.4789 13.0109C16.8929 13.0109 17.2289 13.3469 17.2289 13.7609V16.9179ZM12.7499 16.9179C12.7499 17.3319 12.4139 17.6679 11.9999 17.6679C11.5859 17.6679 11.2499 17.3319 11.2499 16.9179V7.01994C11.2499 6.60494 11.5859 6.26994 11.9999 6.26994C12.4139 6.26994 12.7499 6.60494 12.7499 7.01994V16.9179ZM8.19594 16.9179C8.19594 17.3319 7.85994 17.6679 7.44594 17.6679C7.03194 17.6679 6.69594 17.3319 6.69594 16.9179V10.2239C6.69594 9.80994 7.03194 9.47394 7.44594 9.47394C7.85994 9.47394 8.19594 9.80994 8.19594 10.2239V16.9179ZM11.9999 1.76294C4.44094 1.76294 1.76294 4.44094 1.76294 11.9999C1.76294 19.5589 4.44094 22.2369 11.9999 22.2369C19.5579 22.2369 22.2369 19.5589 22.2369 11.9999C22.2369 4.44094 19.5579 1.76294 11.9999 1.76294Z" fill="#484848"/>
</svg>
