<svg width="24" height="24" viewBox="0 0 24 24" fill="none" xmlns="http://www.w3.org/2000/svg">
<path fill-rule="evenodd" clip-rule="evenodd" d="M15.9506 13.4159C15.3986 13.4159 14.9456 12.9689 14.9456 12.4159C14.9456 11.8629 15.3886 11.4159 15.9416 11.4159H15.9506C16.5026 11.4159 16.9506 11.8629 16.9506 12.4159C16.9506 12.9689 16.5026 13.4159 15.9506 13.4159ZM11.9416 13.4159C11.3886 13.4159 10.9366 12.9689 10.9366 12.4159C10.9366 11.8629 11.3806 11.4159 11.9326 11.4159H11.9416C12.4936 11.4159 12.9416 11.8629 12.9416 12.4159C12.9416 12.9689 12.4936 13.4159 11.9416 13.4159ZM7.93264 13.4159C7.38064 13.4159 6.92864 12.9689 6.92864 12.4159C6.92864 11.8629 7.37064 11.4159 7.92364 11.4159H7.93264C8.48464 11.4159 8.93264 11.8629 8.93264 12.4159C8.93264 12.9689 8.48464 13.4159 7.93264 13.4159ZM19.4266 4.57593C17.4456 2.59493 14.8086 1.50293 12.0026 1.50293C9.19664 1.50293 6.55964 2.59493 4.57864 4.57593C1.47664 7.67893 0.630636 12.4409 2.45564 16.3749C2.48864 16.5369 2.39964 17.1959 2.33564 17.6779C2.09364 19.4839 1.96964 20.8099 2.58264 21.4239C3.19464 22.0369 4.51964 21.9129 6.32564 21.6699C6.80764 21.6059 7.47464 21.5199 7.57864 21.5309C8.98464 22.1819 10.4876 22.4969 11.9796 22.4969C14.7176 22.4969 17.4196 21.4349 19.4266 19.4269C23.5196 15.3319 23.5206 8.66993 19.4266 4.57593Z" fill="#484848"/>
</svg>
