<svg width="24" height="24" viewBox="0 0 24 24" fill="none" xmlns="http://www.w3.org/2000/svg">
<path fill-rule="evenodd" clip-rule="evenodd" d="M12.0051 16.645C11.5911 16.645 11.2511 16.309 11.2511 15.895C11.2511 15.481 11.5821 15.145 11.9961 15.145H12.0051C12.4191 15.145 12.7551 15.481 12.7551 15.895C12.7551 16.309 12.4191 16.645 12.0051 16.645ZM11.2501 8.5C11.2501 8.086 11.5861 7.75 12.0001 7.75C12.4141 7.75 12.7501 8.086 12.7501 8.5V12.395C12.7501 12.809 12.4141 13.145 12.0001 13.145C11.5861 13.145 11.2501 12.809 11.2501 12.395V8.5ZM19.0601 10.158L18.8481 9.784C15.8621 4.474 14.0061 2.5 12.0001 2.5C9.99408 2.5 8.13808 4.474 5.15208 9.784L4.94108 10.158C3.86808 12.04 1.63808 15.955 2.05208 18.291C2.54008 21.054 5.38508 21.5 12.0001 21.5C18.6161 21.5 21.4611 21.054 21.9481 18.291C22.3621 15.955 20.1321 12.04 19.0601 10.158Z" fill="currentColor"/>
</svg>
