<svg width="24" height="24" viewBox="0 0 24 24" fill="none" xmlns="http://www.w3.org/2000/svg">
<path fill-rule="evenodd" clip-rule="evenodd" d="M12.004 16.25C11.59 16.25 11.249 15.914 11.249 15.5C11.249 15.086 11.581 14.75 11.995 14.75H12.004C12.418 14.75 12.754 15.086 12.754 15.5C12.754 15.914 12.418 16.25 12.004 16.25ZM11.25 8.105C11.25 7.691 11.586 7.355 12 7.355C12.414 7.355 12.75 7.691 12.75 8.105V12C12.75 12.414 12.414 12.75 12 12.75C11.586 12.75 11.25 12.414 11.25 12V8.105ZM12 2.25C4.802 2.25 2.25 4.802 2.25 12C2.25 19.198 4.802 21.75 12 21.75C19.198 21.75 21.75 19.198 21.75 12C21.75 4.802 19.198 2.25 12 2.25Z" fill="currentColor"/>
</svg>
