<svg width="24" height="24" viewBox="0 0 24 24" fill="none" xmlns="http://www.w3.org/2000/svg">
<path fill-rule="evenodd" clip-rule="evenodd" d="M19.099 9.59753C19.099 9.32153 18.875 9.09753 18.599 9.09753H5.40304C5.12604 9.09753 4.90304 9.32153 4.90304 9.59753C4.90304 10.5945 4.88504 11.5235 4.86804 12.3845C4.79404 16.1335 4.74504 18.6105 6.26004 20.1555C7.33604 21.2525 9.10304 21.7425 11.99 21.7425C14.88 21.7425 16.65 21.2515 17.729 20.1525C19.251 18.6005 19.203 16.1115 19.132 12.3415C19.116 11.4925 19.099 10.5775 19.099 9.59753Z" fill="currentColor"/>
<path fill-rule="evenodd" clip-rule="evenodd" d="M20.075 5.77432H15.934C15.893 5.12032 15.712 4.19832 15.061 3.45032C14.373 2.65932 13.343 2.25732 11.999 2.25732C10.656 2.25732 9.62605 2.65932 8.93805 3.45032C8.28705 4.19832 8.10505 5.12032 8.06405 5.77432H3.92505C3.51105 5.77432 3.17505 6.11032 3.17505 6.52432C3.17505 6.93832 3.51105 7.27432 3.92505 7.27432H20.075C20.489 7.27432 20.825 6.93832 20.825 6.52432C20.825 6.11032 20.489 5.77432 20.075 5.77432Z" fill="currentColor"/>
</svg>
