<svg width="24" height="24" viewBox="0 0 24 24" fill="none" xmlns="http://www.w3.org/2000/svg">
<path fill-rule="evenodd" clip-rule="evenodd" d="M15.618 9.228L14.201 13.756C14.135 13.968 13.969 14.134 13.758 14.2L9.228 15.618C9.161 15.639 9.094 15.649 9.026 15.649C8.85 15.649 8.677 15.58 8.548 15.451C8.371 15.274 8.306 15.012 8.381 14.772L9.799 10.242C9.865 10.03 10.031 9.865 10.242 9.799L14.772 8.382C15.012 8.305 15.274 8.371 15.451 8.549C15.629 8.727 15.693 8.989 15.618 9.228ZM12 2.25C4.801 2.25 2.25 4.802 2.25 12C2.25 19.198 4.801 21.75 12 21.75C19.199 21.75 21.75 19.198 21.75 12C21.75 4.802 19.199 2.25 12 2.25Z" fill="currentColor"/>
</svg>
