<svg width="24" height="24" viewBox="0 0 24 24" fill="none" xmlns="http://www.w3.org/2000/svg">
<path fill-rule="evenodd" clip-rule="evenodd" d="M15.101 9.96L9.96 15.101C9.814 15.247 9.622 15.32 9.43 15.32C9.238 15.32 9.046 15.247 8.9 15.101C8.607 14.808 8.607 14.333 8.9 14.04L14.04 8.899C14.333 8.606 14.808 8.606 15.101 8.899C15.394 9.192 15.394 9.667 15.101 9.96ZM14.504 15.25C14.09 15.25 13.749 14.914 13.749 14.5C13.749 14.086 14.081 13.75 14.496 13.75H14.504C14.918 13.75 15.254 14.086 15.254 14.5C15.254 14.914 14.918 15.25 14.504 15.25ZM9.496 8.75H9.504C9.918 8.75 10.254 9.086 10.254 9.5C10.254 9.914 9.918 10.25 9.504 10.25C9.09 10.25 8.749 9.914 8.749 9.5C8.749 9.086 9.081 8.75 9.496 8.75ZM12 2.25C4.802 2.25 2.25 4.802 2.25 12C2.25 19.198 4.802 21.75 12 21.75C19.199 21.75 21.75 19.198 21.75 12C21.75 4.802 19.199 2.25 12 2.25Z" fill="currentColor"/>
</svg>
