<svg width="24" height="24" viewBox="0 0 24 24" fill="none" xmlns="http://www.w3.org/2000/svg">
<path fill-rule="evenodd" clip-rule="evenodd" d="M15.5949 12.6875H8.37489C7.96089 12.6875 7.62489 12.3515 7.62489 11.9375C7.62489 11.5235 7.96089 11.1875 8.37489 11.1875H15.5949C16.0089 11.1875 16.3449 11.5235 16.3449 11.9375C16.3449 12.3515 16.0089 12.6875 15.5949 12.6875ZM15.5949 16.4465H8.37489C7.96089 16.4465 7.62489 16.1105 7.62489 15.6965C7.62489 15.2825 7.96089 14.9465 8.37489 14.9465H15.5949C16.0089 14.9465 16.3449 15.2825 16.3449 15.6965C16.3449 16.1105 16.0089 16.4465 15.5949 16.4465ZM8.37489 7.42651H11.1299C11.5439 7.42651 11.8799 7.76251 11.8799 8.17651C11.8799 8.59051 11.5439 8.92651 11.1299 8.92651H8.37489C7.96089 8.92651 7.62489 8.59051 7.62489 8.17651C7.62489 7.76251 7.96089 7.42651 8.37489 7.42651ZM11.9999 2.24951C5.43489 2.24951 3.10889 4.80151 3.10889 12.0005C3.10889 19.1985 5.43489 21.7505 11.9999 21.7505C18.5639 21.7505 20.8909 19.1985 20.8909 12.0005C20.8909 4.80151 18.5639 2.24951 11.9999 2.24951Z" fill="currentColor"/>
</svg>
