<svg width="24" height="24" viewBox="0 0 24 24" fill="none" xmlns="http://www.w3.org/2000/svg">
<path fill-rule="evenodd" clip-rule="evenodd" d="M12.6301 2.82007C12.6301 2.41007 12.2901 2.07007 11.8801 2.07007C11.4701 2.07007 11.1301 2.41007 11.1301 2.82007V6.71007C11.6301 6.69007 12.1301 6.69007 12.6301 6.70007V2.82007Z" fill="#484848"/>
<path fill-rule="evenodd" clip-rule="evenodd" d="M16.42 6.83007H16.4C15.15 6.75007 13.9001 6.71007 12.6301 6.70007L12.63 13.0501L14.27 11.4001C14.56 11.1101 15.04 11.1101 15.33 11.4001C15.62 11.7001 15.62 12.1701 15.33 12.4601L12.41 15.3901C12.34 15.4601 12.26 15.5101 12.17 15.5501C12.08 15.5901 11.98 15.6101 11.88 15.6101C11.78 15.6101 11.68 15.5901 11.59 15.5501C11.5 15.5101 11.42 15.4601 11.35 15.3901L8.43 12.4601C8.14 12.1701 8.14 11.7001 8.43 11.4001C8.72 11.1101 9.2 11.1101 9.49 11.4001L11.13 13.0501L11.1301 6.71007C9.94013 6.71007 8.76 6.76007 7.58 6.83007C3.55 7.20007 2.25 9.03007 2.25 14.3301C2.25 21.9301 5.1 21.9301 12 21.9301C18.9 21.9301 21.75 21.9301 21.75 14.3301C21.75 9.03007 20.45 7.20007 16.42 6.83007Z" fill="#484848"/>
</svg>
