<svg width="24" height="24" viewBox="0 0 24 24" fill="none" xmlns="http://www.w3.org/2000/svg">
<path fill-rule="evenodd" clip-rule="evenodd" d="M16.77 10.11L16.21 10.74C16.19 10.71 12.75 7.66 12.71 7.64L13.27 7.01C14.13 6.05 15.61 5.96 16.57 6.81C17.09 7.27 17.36 7.92 17.36 8.56C17.36 9.11 17.17 9.66 16.77 10.11ZM11.35 16.24C10.61 17.07 9.61 17.27 8.82 17.27C8.1 17.27 7.54 17.1 7.53 17.1C7.5 17.09 7.47 17.06 7.46 17.03C7.45 17.01 6.42 14.76 7.85 13.14L11.73 8.75C11.76 8.78 15.2 11.83 15.23 11.85L11.35 16.24ZM12 2.25C4.8 2.25 2.25 4.8 2.25 12C2.25 19.2 4.8 21.75 12 21.75C19.2 21.75 21.75 19.2 21.75 12C21.75 4.8 19.2 2.25 12 2.25Z" fill="#484848"/>
</svg>
