<svg width="24" height="24" viewBox="0 0 24 24" fill="none" xmlns="http://www.w3.org/2000/svg">
<path fill-rule="evenodd" clip-rule="evenodd" d="M19.6085 18.748H13.2315C12.8175 18.748 12.4815 19.084 12.4815 19.498C12.4815 19.912 12.8175 20.248 13.2315 20.248H19.6085C20.0225 20.248 20.3585 19.912 20.3585 19.498C20.3585 19.084 20.0225 18.748 19.6085 18.748Z" fill="#484848"/>
<path fill-rule="evenodd" clip-rule="evenodd" d="M9.36667 7.7396C9.46611 7.60734 9.65387 7.58058 9.78631 7.67979L14.9663 11.5602C15.099 11.6596 15.1259 11.8478 15.0263 11.9804L10.2066 18.4002C9.04664 19.9502 7.29664 20.2602 6.08664 20.2602C5.33664 20.2602 4.79664 20.1402 4.73664 20.1302C4.60664 20.1002 4.48664 20.0102 4.41664 19.8902C4.34664 19.7602 2.62664 16.7002 4.54664 14.1502L9.36667 7.7396Z" fill="#484848"/>
<path fill-rule="evenodd" clip-rule="evenodd" d="M16.9566 9.41023L16.2866 10.301C16.1872 10.4332 15.9994 10.4599 15.867 10.3607L10.6862 6.47969C10.5538 6.38052 10.5267 6.19289 10.6256 6.06027L11.2966 5.16023C11.9866 4.23023 13.0566 3.74023 14.1366 3.74023C14.8766 3.74023 15.6166 3.97023 16.2566 4.45023C17.0066 5.02023 17.4966 5.85023 17.6366 6.78023C17.7666 7.72023 17.5266 8.65023 16.9566 9.41023Z" fill="#484848"/>
</svg>
