<svg width="24" height="24" viewBox="0 0 24 24" fill="none" xmlns="http://www.w3.org/2000/svg">
<path fill-rule="evenodd" clip-rule="evenodd" d="M19.023 2.90543C17.528 2.50043 15.324 2.50243 12.268 2.50143H11.729C8.682 2.49043 6.47 2.50043 4.976 2.90543C3.287 3.36343 2.5 4.37943 2.5 6.10143C2.5 8.23943 4.427 9.87743 6.29 11.4614C7.932 12.8554 9.483 14.1744 9.483 15.5994C9.483 19.0254 9.483 21.5014 12.003 21.5014C14.517 21.5014 14.517 19.0254 14.517 15.5994C14.517 14.1744 16.067 12.8554 17.71 11.4614C19.573 9.87743 21.5 8.23943 21.5 6.10143C21.5 4.37943 20.712 3.36343 19.023 2.90543Z" fill="#484848"/>
</svg>
