<svg width="24" height="24" viewBox="0 0 24 24" fill="none" xmlns="http://www.w3.org/2000/svg">
<path fill-rule="evenodd" clip-rule="evenodd" d="M10.4845 16.2443H4.01147C3.45947 16.2443 3.01147 16.6913 3.01147 17.2443C3.01147 17.7973 3.45947 18.2443 4.01147 18.2443H10.4845C11.0365 18.2443 11.4845 17.7973 11.4845 17.2443C11.4845 16.6913 11.0365 16.2443 10.4845 16.2443Z" fill="currentColor"/>
<path fill-rule="evenodd" clip-rule="evenodd" d="M17.2672 14.0236C14.9492 14.0236 14.0452 14.9266 14.0452 17.2456C14.0452 19.5646 14.9492 20.4676 17.2672 20.4676C19.5862 20.4676 20.4892 19.5646 20.4892 17.2456C20.4892 14.9266 19.5862 14.0236 17.2672 14.0236Z" fill="currentColor"/>
<path fill-rule="evenodd" clip-rule="evenodd" d="M19.9883 5.75513H13.5173C12.9653 5.75513 12.5173 6.20213 12.5173 6.75513C12.5173 7.30813 12.9653 7.75513 13.5173 7.75513H19.9883C20.5403 7.75513 20.9883 7.30813 20.9883 6.75513C20.9883 6.20213 20.5403 5.75513 19.9883 5.75513Z" fill="currentColor"/>
<path fill-rule="evenodd" clip-rule="evenodd" d="M6.73354 9.97671C9.05254 9.97671 9.95554 9.07371 9.95554 6.75371C9.95554 4.43571 9.05254 3.53271 6.73354 3.53271C4.41454 3.53271 3.51154 4.43571 3.51154 6.75371C3.51154 9.07371 4.41454 9.97671 6.73354 9.97671Z" fill="currentColor"/>
</svg>
