<svg width="24" height="24" viewBox="0 0 24 24" fill="none" xmlns="http://www.w3.org/2000/svg">
<path fill-rule="evenodd" clip-rule="evenodd" d="M16.7889 15.4756H7.19589C6.78189 15.4756 6.44589 15.1396 6.44589 14.7256C6.44589 14.3116 6.78189 13.9756 7.19589 13.9756H16.7889C17.2029 13.9756 17.5389 14.3116 17.5389 14.7256C17.5389 15.1396 17.2029 15.4756 16.7889 15.4756ZM20.2919 7.25362C19.1949 6.07162 17.7959 6.09962 16.5629 6.12162C15.7899 6.13562 15.0589 6.15062 14.5369 5.85262C13.8919 5.48562 13.6689 5.06962 13.4099 4.58662C13.1239 4.05262 12.7999 3.44762 11.9189 2.97162C10.2929 2.09562 8.38389 1.92462 5.91189 2.43462C3.46889 2.93462 1.88989 5.09962 1.88989 7.94962V14.0156C1.88989 21.2876 6.08089 21.8506 11.9999 21.8506C17.7279 21.8506 22.1099 21.2736 22.1099 13.9886C22.1099 12.2036 22.1099 9.21562 20.2919 7.25362Z" fill="currentColor"/>
</svg>
