<svg width="24" height="24" viewBox="0 0 24 24" fill="none" xmlns="http://www.w3.org/2000/svg">
<path fill-rule="evenodd" clip-rule="evenodd" d="M16.9439 16.6961H16.8419C16.4279 16.6961 16.0919 16.3601 16.0919 15.9461C16.0919 15.5321 16.4279 15.1961 16.8419 15.1961H16.9439C17.3579 15.1961 17.6939 15.5321 17.6939 15.9461C17.6939 16.3601 17.3579 16.6961 16.9439 16.6961ZM15.2129 13.2841H15.1109C14.6969 13.2841 14.3609 12.9481 14.3609 12.5341C14.3609 12.1201 14.6969 11.7841 15.1109 11.7841H15.2129C15.6269 11.7841 15.9629 12.1201 15.9629 12.5341C15.9629 12.9481 15.6269 13.2841 15.2129 13.2841ZM10.8149 14.9631H9.7409V16.0011C9.7409 16.4151 9.4049 16.7511 8.9909 16.7511C8.5769 16.7511 8.2409 16.4151 8.2409 16.0011V14.9631H7.1669C6.7529 14.9631 6.4169 14.6271 6.4169 14.2131C6.4169 13.7991 6.7529 13.4631 7.1669 13.4631H8.2409V12.4251C8.2409 12.0111 8.5769 11.6751 8.9909 11.6751C9.4049 11.6751 9.7409 12.0111 9.7409 12.4251V13.4631H10.8149C11.2289 13.4631 11.5649 13.7991 11.5649 14.2131C11.5649 14.6271 11.2289 14.9631 10.8149 14.9631ZM13.3339 6.36913V5.82613C13.3139 4.31713 12.0899 3.06213 10.5639 3.10913H9.5429C9.3999 3.10913 9.2649 3.05413 9.1629 2.95413C9.0589 2.85213 9.0019 2.71713 8.9999 2.57213C8.9959 2.15713 8.6399 1.80413 8.2429 1.82913C7.8289 1.83313 7.4959 2.17213 7.4999 2.58613C7.5109 3.70613 8.4249 4.60913 9.5359 4.60913H10.5779C11.2619 4.60913 11.8249 5.16313 11.8339 5.83713V6.34813C4.5469 6.38013 1.9519 8.46013 1.9519 14.2581C1.9519 20.1001 4.5819 22.1721 12.0009 22.1721C19.4189 22.1721 22.0479 20.1001 22.0479 14.2581C22.0479 8.77913 19.7369 6.61713 13.3339 6.36913Z" fill="currentColor"/>
</svg>
