<svg width="24" height="24" viewBox="0 0 24 24" fill="none" xmlns="http://www.w3.org/2000/svg">
<path fill-rule="evenodd" clip-rule="evenodd" d="M21.5184 7.74265C21.0814 5.65665 18.4194 3.09965 16.0394 2.48065C14.8724 2.17565 13.8884 2.40365 13.2684 3.11765C12.4074 4.10965 12.1224 9.55965 13.1264 10.5637C13.5364 10.9737 14.5714 11.1477 15.7634 11.1477C17.6534 11.1477 19.9354 10.7097 20.7444 10.0737C21.4434 9.52365 21.7184 8.69565 21.5184 7.74265Z" fill="currentColor"/>
<path fill-rule="evenodd" clip-rule="evenodd" d="M15.1317 12.9722C13.7227 13.0182 12.1277 13.0682 11.4377 12.3782C10.6907 11.6302 10.6327 9.98118 10.5857 8.65518C10.5417 7.40318 10.5067 6.41318 9.99872 5.90618C9.40572 5.31318 8.41472 5.24318 7.28072 5.71118C4.92372 6.68818 2.41772 9.73318 2.41772 13.4512C2.41772 17.9722 6.09672 21.6512 10.6187 21.6512C15.0397 21.6512 17.6127 18.2852 18.4367 16.2972C18.9557 15.0452 18.9637 14.0372 18.4587 13.5342C17.8117 12.8862 16.5677 12.9282 15.1317 12.9722Z" fill="currentColor"/>
</svg>
