<svg width="24" height="24" viewBox="0 0 24 24" fill="none" xmlns="http://www.w3.org/2000/svg">
<path fill-rule="evenodd" clip-rule="evenodd" d="M17.6568 10.698H17.6318C17.2178 10.683 16.8928 10.337 16.9068 9.92304C16.9388 8.97204 16.4738 8.35504 15.6628 8.27204C15.2508 8.23004 14.9508 7.86204 14.9928 7.45004C15.0358 7.03904 15.4058 6.73604 15.8158 6.78004C17.4238 6.94404 18.4648 8.22704 18.4058 9.97304C18.3918 10.379 18.0588 10.698 17.6568 10.698ZM17.5748 3.28404C15.8548 2.73404 13.4738 2.96204 11.9878 4.64804C10.4268 2.97404 8.12679 2.73104 6.41879 3.28504C2.50379 4.54504 1.28279 9.08104 2.39679 12.56V12.561C4.15479 18.032 9.99979 20.983 12.0018 20.983C13.7888 20.983 19.8658 18.087 21.6038 12.56C22.7178 9.08204 21.4938 4.54604 17.5748 3.28404Z" fill="currentColor"/>
</svg>
