<svg width="24" height="24" viewBox="0 0 24 24" fill="none" xmlns="http://www.w3.org/2000/svg">
<path fill-rule="evenodd" clip-rule="evenodd" d="M18.277 15.823C17.902 15.994 17.456 15.824 17.286 15.446C17.001 14.81 16.169 13.499 15.423 13.499C15.009 13.499 14.243 14.423 13.735 15.033C12.919 16.017 12.147 16.947 11.161 16.947C10.24 16.947 9.598 16.469 9.082 16.085C8.654 15.767 8.376 15.572 8.065 15.572C7.53 15.572 6.942 16.395 6.741 16.794C6.61 17.056 6.344 17.208 6.069 17.208C5.957 17.208 5.843 17.182 5.735 17.129C5.366 16.944 5.215 16.496 5.399 16.126C5.503 15.915 6.464 14.072 8.065 14.072C8.889 14.072 9.492 14.52 9.977 14.882C10.448 15.232 10.758 15.447 11.161 15.447C11.445 15.443 12.184 14.553 12.581 14.075C13.429 13.054 14.305 11.999 15.423 11.999C17.337 11.999 18.527 14.544 18.656 14.834C18.824 15.212 18.655 15.654 18.277 15.823ZM8.581 7.047C9.716 7.048 10.639 7.971 10.639 9.105C10.639 10.24 9.715 11.163 8.581 11.163C7.446 11.163 6.524 10.24 6.524 9.105C6.524 7.97 7.446 7.047 8.581 7.047ZM12 2.25C4.801 2.25 2.25 4.802 2.25 12C2.25 19.198 4.801 21.75 12 21.75C19.198 21.75 21.75 19.198 21.75 12C21.75 4.802 19.198 2.25 12 2.25Z" fill="#484848"/>
</svg>
