<svg width="24" height="24" viewBox="0 0 24 24" fill="none" xmlns="http://www.w3.org/2000/svg">
<path fill-rule="evenodd" clip-rule="evenodd" d="M8.838 6.52349C10.084 6.52349 11.099 7.53849 11.099 8.78449C11.099 10.0305 10.084 11.0445 8.838 11.0445C7.592 11.0445 6.577 10.0305 6.577 8.78449C6.577 7.53849 7.592 6.52349 8.838 6.52349ZM6.476 14.6265C7.661 14.0705 8.619 14.4145 9.546 14.7485C10.245 15.0005 10.969 15.2605 11.97 15.2605C12.748 15.2605 13.207 14.5735 13.87 13.4395C14.53 12.3125 15.351 10.9095 17.009 10.9095C19.313 10.9095 20.741 12.3625 21.709 13.4335C21.734 12.9755 21.75 12.5015 21.75 12.0005C21.75 4.80149 19.198 2.25049 12 2.25049C4.802 2.25049 2.25 4.80149 2.25 12.0005C2.25 14.6855 2.606 16.7235 3.426 18.2245C3.942 17.2075 5.064 15.2895 6.476 14.6265Z" fill="#484848"/>
<path fill-rule="evenodd" clip-rule="evenodd" d="M21.2315 15.1319C21.0845 14.9809 20.9285 14.8079 20.7615 14.6209C19.8775 13.6359 18.7765 12.4089 17.0085 12.4089C16.2645 12.4089 15.8155 13.0849 15.1655 14.1969C14.4965 15.3399 13.6655 16.7609 11.9695 16.7609C10.7065 16.7609 9.7815 16.4279 9.0375 16.1589C8.1615 15.8429 7.7095 15.7029 7.1145 15.9839C5.9825 16.5159 4.8465 18.6619 4.5045 19.4439C4.4845 19.4919 4.4535 19.5309 4.4245 19.5729C5.9615 21.1119 8.3995 21.7499 12.0005 21.7499C17.9595 21.7499 20.7275 19.9919 21.5065 15.3059C21.4055 15.2679 21.3115 15.2139 21.2315 15.1319Z" fill="#484848"/>
</svg>
