<svg width="24" height="24" viewBox="0 0 24 24" fill="none" xmlns="http://www.w3.org/2000/svg">
<path fill-rule="evenodd" clip-rule="evenodd" d="M12.005 9.25H11.996C11.582 9.25 11.246 8.914 11.246 8.5C11.246 8.086 11.582 7.75 11.996 7.75C12.41 7.75 12.751 8.086 12.751 8.5C12.751 8.914 12.419 9.25 12.005 9.25ZM12.75 15.895C12.75 16.309 12.414 16.645 12 16.645C11.586 16.645 11.25 16.309 11.25 15.895V12C11.25 11.586 11.586 11.25 12 11.25C12.414 11.25 12.75 11.586 12.75 12V15.895ZM12 2.25C4.802 2.25 2.25 4.802 2.25 12C2.25 19.198 4.802 21.75 12 21.75C19.198 21.75 21.75 19.198 21.75 12C21.75 4.802 19.198 2.25 12 2.25Z" fill="#484848"/>
</svg>
