<svg width="24" height="24" viewBox="0 0 24 24" fill="none" xmlns="http://www.w3.org/2000/svg">
<path fill-rule="evenodd" clip-rule="evenodd" d="M15.8096 8.74441C14.7636 8.50141 13.5026 8.39041 11.9996 8.39041C10.4966 8.39041 9.2356 8.50141 8.1896 8.74441V7.31241C8.2226 5.23841 9.8736 3.59341 11.9496 3.56641C12.9806 3.53841 13.9316 3.93841 14.6606 4.64941C15.3886 5.36041 15.7976 6.31141 15.8096 7.32041V8.74441ZM12.7496 16.4434C12.7496 16.8574 12.4136 17.1934 11.9996 17.1934C11.5856 17.1934 11.2496 16.8574 11.2496 16.4434V14.2224C11.2496 13.8084 11.5856 13.4724 11.9996 13.4724C12.4136 13.4724 12.7496 13.8084 12.7496 14.2224V16.4434ZM17.3096 9.25741V7.31141C17.2916 5.89241 16.7236 4.56541 15.7066 3.57541C14.6916 2.58541 13.3376 2.09441 11.9296 2.06641C9.0386 2.10341 6.7366 4.39741 6.6896 7.30141V9.25841C4.6556 10.2284 3.8396 12.0794 3.8396 15.1614C3.8396 20.1614 5.9756 21.9334 11.9996 21.9334C18.0246 21.9334 20.1606 20.1614 20.1606 15.1614C20.1606 12.0794 19.3436 10.2274 17.3096 9.25741Z" fill="currentColor"/>
</svg>
