<svg width="24" height="24" viewBox="0 0 24 24" fill="none" xmlns="http://www.w3.org/2000/svg">
<path fill-rule="evenodd" clip-rule="evenodd" d="M22.1702 11.5898L19.2422 8.67383C18.9482 8.38183 18.4742 8.38183 18.1822 8.67583C17.8902 8.96983 17.8912 9.44383 18.1842 9.73583L19.8242 11.3698H16.8892C16.8992 11.8698 16.8992 12.3698 16.8892 12.8698H19.8262L18.1842 14.5058C17.8912 14.7978 17.8902 15.2728 18.1822 15.5668C18.3282 15.7138 18.5212 15.7868 18.7132 15.7868C18.9042 15.7868 19.0962 15.7138 19.2422 15.5688L22.1702 12.6518C22.3122 12.5118 22.3912 12.3198 22.3912 12.1208C22.3912 11.9218 22.3122 11.7308 22.1702 11.5898Z" fill="#484848"/>
<path fill-rule="evenodd" clip-rule="evenodd" d="M8.63889 12.12C8.63889 11.71 8.96889 11.37 9.38889 11.37L16.8892 11.3698C16.8792 10.1098 16.8089 8.85 16.7089 7.59V7.58C16.3389 3.55 14.5089 2.25 9.20889 2.25C1.60889 2.25 1.60889 5.1 1.60889 12C1.60889 18.9 1.60889 21.75 9.20889 21.75C14.5089 21.75 16.3389 20.45 16.7089 16.41C16.8089 15.24 16.8692 14.0598 16.8892 12.8698L9.38889 12.87C8.96889 12.87 8.63889 12.54 8.63889 12.12Z" fill="#484848"/>
</svg>
