<svg width="24" height="24" viewBox="0 0 24 24" fill="none" xmlns="http://www.w3.org/2000/svg">
<path fill-rule="evenodd" clip-rule="evenodd" d="M18.1451 9.53006C17.7931 9.95206 14.6341 13.6531 12.0111 13.6531C9.39107 13.6531 6.20007 9.95506 5.84407 9.53306C5.57807 9.21606 5.61807 8.74306 5.93507 8.47606C6.25107 8.20806 6.72407 8.25006 6.99107 8.56606C8.16207 9.95306 10.5591 12.1531 12.0111 12.1531C13.4621 12.1531 15.8371 9.95506 16.9931 8.56906C17.2581 8.25206 17.7311 8.21006 18.0491 8.47306C18.3671 8.73906 18.4101 9.21206 18.1451 9.53006ZM12.0001 2.38306C4.59907 2.38306 1.97607 4.89906 1.97607 12.0001C1.97607 19.1001 4.59907 21.6171 12.0001 21.6171C19.4011 21.6171 22.0241 19.1001 22.0241 12.0001C22.0241 4.89906 19.4011 2.38306 12.0001 2.38306Z" fill="#484848"/>
</svg>
