<svg width="24" height="24" viewBox="0 0 24 24" fill="none" xmlns="http://www.w3.org/2000/svg">
<path fill-rule="evenodd" clip-rule="evenodd" d="M16.003 13C15.451 13 14.999 12.553 14.999 12C14.999 11.447 15.442 11 15.994 11H16.003C16.555 11 17.003 11.447 17.003 12C17.003 12.553 16.555 13 16.003 13ZM12.004 13C11.452 13 11 12.553 11 12C11 11.447 11.443 11 11.995 11H12.004C12.556 11 13.004 11.447 13.004 12C13.004 12.553 12.556 13 12.004 13ZM8.004 13C7.452 13 7 12.553 7 12C7 11.447 7.443 11 7.995 11H8.004C8.556 11 9.004 11.447 9.004 12C9.004 12.553 8.556 13 8.004 13ZM12 2.25C4.801 2.25 2.25 4.802 2.25 12C2.25 19.198 4.801 21.75 12 21.75C19.199 21.75 21.75 19.198 21.75 12C21.75 4.802 19.199 2.25 12 2.25Z" fill="currentColor"/>
</svg>
