<svg width="24" height="24" viewBox="0 0 24 24" fill="none" xmlns="http://www.w3.org/2000/svg">
<path fill-rule="evenodd" clip-rule="evenodd" d="M15.213 14.9C14.661 14.9 14.209 14.453 14.209 13.9C14.209 13.347 14.652 12.9 15.204 12.9H15.213C15.765 12.9 16.213 13.347 16.213 13.9C16.213 14.453 15.765 14.9 15.213 14.9ZM12.213 10.9C11.661 10.9 11.209 10.453 11.209 9.9C11.209 9.347 11.652 8.9 12.204 8.9H12.213C12.765 8.9 13.213 9.347 13.213 9.9C13.213 10.453 12.765 10.9 12.213 10.9ZM9.205 14.9C8.653 14.9 8.2 14.453 8.2 13.9C8.2 13.347 8.644 12.9 9.196 12.9H9.205C9.757 12.9 10.205 13.347 10.205 13.9C10.205 14.453 9.757 14.9 9.205 14.9ZM12 2.25C4.801 2.25 2.25 4.801 2.25 12C2.25 19.198 4.801 21.75 12 21.75C19.199 21.75 21.75 19.198 21.75 12C21.75 4.801 19.199 2.25 12 2.25Z" fill="currentColor"/>
</svg>
