<svg width="24" height="24" viewBox="0 0 24 24" fill="none" xmlns="http://www.w3.org/2000/svg">
<path fill-rule="evenodd" clip-rule="evenodd" d="M19.6274 13.9624C18.7804 12.0994 18.8024 11.3984 18.8414 10.1244C18.8514 9.82342 18.8614 9.49642 18.8614 9.12142C18.8614 6.14442 16.7324 1.95142 12.0004 1.95142C7.26836 1.95142 5.13936 6.14442 5.13936 9.12142C5.13936 9.49542 5.14936 9.82342 5.15936 10.1244C5.19836 11.3984 5.21936 12.0994 4.36336 13.9874C3.99736 14.9314 4.04136 15.7464 4.49636 16.4104C5.58836 18.0084 8.74836 18.2284 12.0004 18.2284C15.2524 18.2284 18.4124 18.0084 19.5044 16.4104C19.9604 15.7464 20.0044 14.9314 19.6274 13.9624Z" fill="currentColor"/>
<path fill-rule="evenodd" clip-rule="evenodd" d="M14.6977 19.2407C13.0667 19.4217 11.2987 19.4207 9.28865 19.2387C8.98765 19.2147 8.68965 19.3737 8.55165 19.6487C8.41265 19.9247 8.45666 20.2557 8.66165 20.4857C9.56166 21.4927 10.7457 22.0487 11.9957 22.0487H11.9977C13.2507 22.0487 14.4377 21.4937 15.3397 20.4857C15.5467 20.2547 15.5897 19.9187 15.4477 19.6417C15.3047 19.3667 15.0107 19.2127 14.6977 19.2407Z" fill="currentColor"/>
</svg>
