<svg width="24" height="24" viewBox="0 0 24 24" fill="none" xmlns="http://www.w3.org/2000/svg">
<path fill-rule="evenodd" clip-rule="evenodd" d="M17.01 8.674C15.364 8.674 14.02 7.34 14.02 5.694V3.652L19.302 8.674H17.01ZM13.731 13.823H12.032V15.523C12.032 15.937 11.696 16.273 11.282 16.273C10.868 16.273 10.532 15.937 10.532 15.523V13.823H8.83198C8.41698 13.823 8.08198 13.488 8.08198 13.073C8.08198 12.659 8.41698 12.323 8.83198 12.323H10.532V10.623C10.532 10.209 10.868 9.873 11.282 9.873C11.696 9.873 12.032 10.209 12.032 10.623V12.323H13.731C14.145 12.323 14.481 12.659 14.481 13.073C14.481 13.488 14.145 13.823 13.731 13.823ZM20.705 8.85C20.705 8.81 20.705 8.78 20.695 8.74C20.665 8.56 20.635 8.38 20.605 8.21C20.585 8.1 20.535 8.01 20.455 7.93L14.785 2.53C14.715 2.46 14.615 2.41 14.515 2.4C14.345 2.38 14.165 2.36 13.985 2.34C13.955 2.33 13.915 2.33 13.885 2.33C13.305 2.28 12.665 2.25 11.995 2.25C5.43498 2.25 3.10498 4.8 3.10498 12C3.10498 19.19 5.43498 21.75 11.995 21.75C18.565 21.75 20.895 19.19 20.895 12C20.895 10.8 20.835 9.76 20.705 8.85Z" fill="currentColor"/>
</svg>
