<svg width="24" height="24" viewBox="0 0 24 24" fill="none" xmlns="http://www.w3.org/2000/svg">
<path fill-rule="evenodd" clip-rule="evenodd" d="M17.01 8.674C15.364 8.674 14.02 7.34 14.02 5.694V3.652L19.302 8.674H17.01ZM13.565 14.277C13.858 14.57 13.858 15.044 13.565 15.337C13.419 15.484 13.227 15.557 13.035 15.557C12.843 15.557 12.651 15.484 12.505 15.337L11.303 14.135L10.1 15.337C9.95398 15.484 9.76298 15.557 9.56998 15.557C9.37798 15.557 9.18598 15.484 9.03998 15.337C8.74698 15.044 8.74698 14.57 9.03998 14.277L10.242 13.074L9.03898 11.871C8.74598 11.578 8.74598 11.104 9.03898 10.811C9.33198 10.518 9.80698 10.518 10.099 10.811L11.303 12.014L12.506 10.811C12.799 10.518 13.273 10.518 13.566 10.811C13.859 11.104 13.859 11.578 13.566 11.871L12.363 13.074L13.565 14.277ZM20.705 8.85C20.705 8.81 20.705 8.78 20.695 8.74C20.665 8.56 20.635 8.38 20.605 8.21C20.585 8.1 20.535 8.01 20.455 7.93L14.785 2.53C14.715 2.46 14.615 2.41 14.515 2.4C14.345 2.38 14.165 2.36 13.985 2.34C13.955 2.33 13.915 2.33 13.885 2.33C13.305 2.28 12.665 2.25 11.995 2.25C5.43498 2.25 3.10498 4.8 3.10498 12C3.10498 19.19 5.43498 21.75 11.995 21.75C18.565 21.75 20.895 19.19 20.895 12C20.895 10.8 20.835 9.76 20.705 8.85Z" fill="#484848"/>
</svg>
