<svg width="24" height="24" viewBox="0 0 24 24" fill="none" xmlns="http://www.w3.org/2000/svg">
<path fill-rule="evenodd" clip-rule="evenodd" d="M17.01 8.674C15.364 8.674 14.02 7.34 14.02 5.694V3.652L19.302 8.674H17.01ZM13.838 16.292H8.43898C8.02498 16.292 7.68898 15.956 7.68898 15.542C7.68898 15.128 8.02498 14.792 8.43898 14.792H13.838C14.253 14.792 14.588 15.128 14.588 15.542C14.588 15.956 14.253 16.292 13.838 16.292ZM8.43698 10.781H11.793C12.207 10.781 12.543 11.117 12.543 11.531C12.543 11.946 12.207 12.281 11.793 12.281H8.43698C8.02298 12.281 7.68698 11.946 7.68698 11.531C7.68698 11.117 8.02298 10.781 8.43698 10.781ZM20.705 8.85C20.705 8.81 20.705 8.78 20.695 8.74C20.665 8.56 20.635 8.38 20.605 8.21C20.585 8.1 20.535 8.01 20.455 7.93L14.785 2.53C14.715 2.46 14.615 2.41 14.515 2.4C14.345 2.38 14.165 2.36 13.985 2.34C13.955 2.33 13.915 2.33 13.885 2.33C13.305 2.28 12.665 2.25 11.995 2.25C5.43498 2.25 3.10498 4.8 3.10498 12C3.10498 19.19 5.43498 21.75 11.995 21.75C18.565 21.75 20.895 19.19 20.895 12C20.895 10.8 20.835 9.76 20.705 8.85Z" fill="currentColor"/>
</svg>
