<svg width="24" height="24" viewBox="0 0 24 24" fill="none" xmlns="http://www.w3.org/2000/svg">
<path fill-rule="evenodd" clip-rule="evenodd" d="M17.01 8.674C15.364 8.674 14.02 7.34 14.02 5.694V3.652L19.302 8.674H17.01ZM13.52 14.693L11.175 17.046C11.039 17.183 10.851 17.269 10.643 17.269C10.435 17.269 10.247 17.183 10.111 17.046L7.76698 14.693C7.47498 14.399 7.47598 13.924 7.76898 13.632C8.06298 13.34 8.53798 13.34 8.82998 13.634L9.89298 14.702V10.478C9.89298 10.064 10.229 9.728 10.643 9.728C11.057 9.728 11.393 10.064 11.393 10.478V14.703L12.458 13.634C12.75 13.34 13.224 13.34 13.518 13.632C13.812 13.924 13.812 14.4 13.52 14.693ZM20.705 8.85C20.705 8.81 20.705 8.78 20.695 8.74C20.665 8.56 20.635 8.38 20.605 8.21C20.585 8.1 20.535 8.01 20.455 7.93L14.785 2.53C14.715 2.46 14.615 2.41 14.515 2.4C14.345 2.38 14.165 2.36 13.985 2.34C13.955 2.33 13.915 2.33 13.885 2.33C13.305 2.28 12.665 2.25 11.995 2.25C5.43498 2.25 3.10498 4.8 3.10498 12C3.10498 19.19 5.43498 21.75 11.995 21.75C18.565 21.75 20.895 19.19 20.895 12C20.895 10.8 20.835 9.76 20.705 8.85Z" fill="#484848"/>
</svg>
