<svg width="24" height="24" viewBox="0 0 24 24" fill="none" xmlns="http://www.w3.org/2000/svg">
<path fill-rule="evenodd" clip-rule="evenodd" d="M17.01 8.674C15.364 8.674 14.02 7.34 14.02 5.694V3.652L19.302 8.674H17.01ZM13.518 13.365C13.372 13.511 13.18 13.584 12.989 13.584C12.796 13.584 12.604 13.511 12.458 13.364L11.394 12.295V16.519C11.394 16.933 11.058 17.269 10.644 17.269C10.23 17.269 9.89398 16.933 9.89398 16.519V12.294L8.82998 13.364C8.53798 13.657 8.06298 13.657 7.76898 13.365C7.47598 13.073 7.47498 12.599 7.76698 12.305L10.112 9.95C10.248 9.813 10.436 9.728 10.644 9.728C10.852 9.728 11.04 9.813 11.176 9.95L13.52 12.305C13.813 12.599 13.811 13.073 13.518 13.365ZM20.705 8.85C20.705 8.81 20.705 8.78 20.695 8.74C20.665 8.56 20.635 8.38 20.605 8.21C20.585 8.1 20.535 8.01 20.455 7.93L14.785 2.53C14.715 2.46 14.615 2.41 14.515 2.4C14.345 2.38 14.165 2.36 13.985 2.34C13.955 2.33 13.915 2.33 13.885 2.33C13.305 2.28 12.665 2.25 11.995 2.25C5.43498 2.25 3.10498 4.8 3.10498 12C3.10498 19.19 5.43498 21.75 11.995 21.75C18.565 21.75 20.895 19.19 20.895 12C20.895 10.8 20.835 9.76 20.705 8.85Z" fill="currentColor"/>
</svg>
