<svg width="24" height="24" viewBox="0 0 24 24" fill="none" xmlns="http://www.w3.org/2000/svg">
<path d="M12.8734 8.35613C12.1206 8.35456 11.3678 8.35743 10.6152 8.36472C10.5727 8.36533 10.5322 8.38256 10.5022 8.41272C10.4723 8.44287 10.4554 8.48356 10.4551 8.52605C10.4486 9.5073 10.4446 10.4885 10.4433 11.4698C10.4434 11.5122 10.4604 11.5528 10.4904 11.5828C10.5204 11.6127 10.5611 11.6296 10.6035 11.6296C11.2855 11.6296 11.9676 11.6296 12.6496 11.6296C13.6961 11.6296 14.5062 11.0663 14.5133 9.99441C14.5187 9.09441 13.7695 8.35847 12.8734 8.35613Z" fill="currentColor"/>
<path d="M17.2879 2.40628C16.0348 2.19807 14.3293 2.00276 12 2.00003C9.67073 1.99729 7.96527 2.19768 6.71214 2.40628C4.6469 2.77112 2.77112 4.6469 2.40628 6.71214C2.19807 7.96527 2.00276 9.67073 2.00003 12C1.99729 14.3293 2.19768 16.0348 2.40628 17.2879C2.77112 19.3532 4.6469 21.2289 6.71214 21.5938C7.96527 21.802 9.67073 21.9973 12 22C14.3293 22.0028 16.0348 21.802 17.2879 21.5938C19.3532 21.2289 21.2289 19.3532 21.5938 17.2879C21.802 16.0348 21.9973 14.3293 22 12C22.0028 9.67073 21.802 7.96527 21.5938 6.71214C21.2289 4.6469 19.3532 2.77112 17.2879 2.40628ZM12.9258 14.4375C12.1328 14.4375 11.3396 14.4356 10.5461 14.4317C10.5334 14.4315 10.5208 14.4339 10.509 14.4387C10.4972 14.4435 10.4864 14.4506 10.4774 14.4596C10.4684 14.4685 10.4613 14.4792 10.4564 14.491C10.4516 14.5028 10.4491 14.5154 10.4493 14.5282C10.4542 15.5959 10.4627 16.6642 10.4746 17.7332C10.4773 17.828 10.4607 17.9224 10.4258 18.0105C10.3909 18.0987 10.3385 18.1789 10.2716 18.2461C10.2048 18.3134 10.125 18.3664 10.0371 18.402C9.94921 18.4375 9.85499 18.4548 9.76019 18.4528C9.16644 18.4379 8.57282 18.418 7.97933 18.393C7.78391 18.3815 7.59965 18.2981 7.4621 18.1588C7.32454 18.0195 7.24343 17.8343 7.23441 17.6387C7.12503 13.8911 7.12503 10.1433 7.23441 6.39534C7.24324 6.19951 7.32429 6.01389 7.46193 5.87431C7.59957 5.73472 7.78403 5.65106 7.97972 5.63948C9.62633 5.57073 11.2727 5.53961 12.9188 5.54612C15.7141 5.568 17.7594 7.32308 17.7989 10.041C17.8227 12.7813 15.795 14.425 12.9258 14.4391V14.4375Z" fill="currentColor"/>
</svg>
