<svg width="24" height="24" viewBox="0 0 24 24" fill="none" xmlns="http://www.w3.org/2000/svg">
<path fill-rule="evenodd" clip-rule="evenodd" d="M11.753 15.235C11.453 15.359 11.11 15.476 10.79 15.476C10.542 15.476 10.309 15.406 10.119 15.216C9.98 15.077 9.553 14.651 9.565 11.837C9.576 9.038 9.985 8.63 10.119 8.495C10.591 8.024 11.372 8.345 11.706 8.484C12.53 8.825 15.756 10.602 15.756 11.856C15.756 13.13 12.46 14.942 11.753 15.235ZM12 2.25C4.802 2.25 2.25 4.802 2.25 12C2.25 19.198 4.802 21.75 12 21.75C19.199 21.75 21.75 19.198 21.75 12C21.75 4.802 19.199 2.25 12 2.25Z" fill="#484848"/>
</svg>
