<svg width="24" height="24" viewBox="0 0 24 24" fill="none" xmlns="http://www.w3.org/2000/svg">
<path fill-rule="evenodd" clip-rule="evenodd" d="M15.5779 12.7499H12.7499V15.5739C12.7499 15.9879 12.4139 16.3239 11.9999 16.3239C11.5859 16.3239 11.2499 15.9879 11.2499 15.5739V12.7499H8.42194C8.00794 12.7499 7.67194 12.4139 7.67194 11.9999C7.67194 11.5859 8.00794 11.2499 8.42194 11.2499H11.2499V8.42594C11.2499 8.01194 11.5859 7.67594 11.9999 7.67594C12.4139 7.67594 12.7499 8.01194 12.7499 8.42594V11.2499H15.5779C15.9919 11.2499 16.3279 11.5859 16.3279 11.9999C16.3279 12.4139 15.9919 12.7499 15.5779 12.7499ZM11.9999 1.76294C4.44094 1.76294 1.76294 4.44094 1.76294 11.9999C1.76294 19.5589 4.44094 22.2369 11.9999 22.2369C19.5579 22.2369 22.2369 19.5589 22.2369 11.9999C22.2369 4.44094 19.5579 1.76294 11.9999 1.76294Z" fill="currentColor"/>
</svg>
