<svg width="24" height="24" viewBox="0 0 24 24" fill="none" xmlns="http://www.w3.org/2000/svg">
<path fill-rule="evenodd" clip-rule="evenodd" d="M5.69506 10.5799H18.5051C18.1051 7.08987 16.2751 5.79987 12.1051 5.79987C7.93506 5.79987 6.10506 7.08987 5.69506 10.5799Z" fill="currentColor"/>
<path fill-rule="evenodd" clip-rule="evenodd" d="M22.5651 12.0798H1.43506C1.02506 12.0798 0.685059 12.4198 0.685059 12.8298C0.685059 13.2398 1.02506 13.5798 1.43506 13.5798H2.05506C2.09506 14.2198 2.14506 14.8398 2.24506 15.3798V15.4198C2.87506 19.1798 4.84506 21.1298 8.62506 21.7598C8.66506 21.7698 8.71506 21.7698 8.75506 21.7698C9.11506 21.7698 9.42506 21.5098 9.49506 21.1398C9.55506 20.7398 9.28506 20.3498 8.87506 20.2798C5.68506 19.7498 4.24506 18.2998 3.72506 15.1298C3.71506 15.1098 3.71506 15.0998 3.71506 15.0798C3.63506 14.6298 3.59506 14.1198 3.55506 13.5798H5.65506C5.96506 17.3998 7.76506 18.7998 12.1051 18.7998C16.4451 18.7998 18.2451 17.3998 18.5551 13.5798H20.4351C20.4051 14.1298 20.3551 14.6598 20.2751 15.1298V15.1698C19.7451 18.3198 18.2951 19.7498 15.1251 20.2798C14.7151 20.3498 14.4451 20.7398 14.5151 21.1398C14.5751 21.5098 14.8851 21.7698 15.2451 21.7698C15.2951 21.7698 15.3351 21.7698 15.3751 21.7598C19.1751 21.1298 21.1451 19.1598 21.7651 15.3698V15.3298C21.8551 14.7998 21.9051 14.1998 21.9451 13.5798H22.5651C22.9851 13.5798 23.3151 13.2398 23.3151 12.8298C23.3151 12.4198 22.9851 12.0798 22.5651 12.0798Z" fill="currentColor"/>
<path fill-rule="evenodd" clip-rule="evenodd" d="M2.86006 9.48985C2.90106 9.49685 2.94206 9.49985 2.98206 9.49985C3.34306 9.49985 3.66106 9.23885 3.72106 8.87085C4.23606 5.72685 5.72906 4.23485 8.87206 3.71985C9.28106 3.65285 9.55806 3.26785 9.49106 2.85885C9.42506 2.44985 9.03606 2.17385 8.63006 2.23985C4.83306 2.86085 2.86306 4.83185 2.24106 8.62885C2.17406 9.03685 2.45106 9.42285 2.86006 9.48985Z" fill="currentColor"/>
<path fill-rule="evenodd" clip-rule="evenodd" d="M15.1301 3.72025C18.2741 4.23525 19.7661 5.72725 20.2811 8.87025C20.3411 9.23925 20.6591 9.49925 21.0201 9.49925C21.0611 9.49925 21.1011 9.49625 21.1421 9.49025C21.5511 9.42225 21.8281 9.03625 21.7611 8.62825C21.1391 4.83125 19.1691 2.86125 15.3721 2.24025C14.9641 2.17225 14.5781 2.44925 14.5111 2.85925C14.4441 3.26825 14.7211 3.65325 15.1301 3.72025Z" fill="currentColor"/>
</svg>
