<svg width="24" height="24" viewBox="0 0 24 24" fill="none" xmlns="http://www.w3.org/2000/svg">
<path fill-rule="evenodd" clip-rule="evenodd" d="M21.4658 2.74131C21.4188 2.65331 21.3478 2.58131 21.2598 2.53431C19.1738 1.42431 6.69482 5.29231 3.46682 7.15431C2.62582 7.63931 2.25082 8.20931 2.35382 8.84531C2.65082 10.6873 7.61382 12.0833 10.3068 12.7083L15.3638 7.65231C15.6568 7.35931 16.1318 7.35931 16.4248 7.65231C16.7178 7.94531 16.7178 8.42031 16.4248 8.71331L11.3188 13.8173C11.9598 16.5383 13.3408 21.3533 15.1538 21.6453C15.2218 21.6563 15.2898 21.6623 15.3568 21.6623C15.9108 21.6623 16.4108 21.2823 16.8438 20.5323C18.7058 17.3073 22.5768 4.83031 21.4658 2.74131Z" fill="#484848"/>
</svg>
