<svg width="24" height="24" viewBox="0 0 24 24" fill="none" xmlns="http://www.w3.org/2000/svg">
<path fill-rule="evenodd" clip-rule="evenodd" d="M15.7207 10.2213L11.8227 14.1203C11.6817 14.2613 11.4917 14.3403 11.2927 14.3403C11.0937 14.3403 10.9027 14.2613 10.7617 14.1203L8.86969 12.2263C8.57669 11.9333 8.57669 11.4573 8.87069 11.1653C9.16269 10.8723 9.63769 10.8723 9.93069 11.1653L11.2927 12.5293L14.6597 9.16027C14.9527 8.86727 15.4277 8.86727 15.7207 9.16027C16.0137 9.45327 16.0137 9.92827 15.7207 10.2213ZM19.6877 4.82527C19.0817 4.21827 15.7537 2.07227 11.9997 2.07227C8.24369 2.07227 4.91769 4.21827 4.31169 4.82527C3.73069 5.40727 3.73969 5.86027 3.78369 8.37427C3.80269 9.39427 3.82769 10.7823 3.82769 12.7003C3.82769 19.2203 9.14969 21.9273 11.9997 21.9273C14.8487 21.9273 20.1717 19.2203 20.1717 12.7003C20.1717 10.7813 20.1967 9.39227 20.2157 8.37327C20.2607 5.85927 20.2687 5.40727 19.6877 4.82527Z" fill="#484848"/>
</svg>
