<svg width="24" height="24" viewBox="0 0 24 24" fill="none" xmlns="http://www.w3.org/2000/svg">
<path fill-rule="evenodd" clip-rule="evenodd" d="M14.4101 13.1158C14.7031 13.4088 14.7031 13.8838 14.4101 14.1768C14.2641 14.3228 14.0721 14.3958 13.8801 14.3958C13.6881 14.3958 13.4961 14.3228 13.3491 14.1768L12.0001 12.8278L10.6511 14.1768C10.5041 14.3228 10.3121 14.3958 10.1201 14.3958C9.92909 14.3958 9.73709 14.3228 9.59009 14.1768C9.29709 13.8838 9.29709 13.4088 9.59009 13.1158L10.9391 11.7668L9.59009 10.4188C9.29709 10.1258 9.29709 9.65078 9.59009 9.35778C9.88309 9.06478 10.3581 9.06478 10.6511 9.35778L12.0001 10.7068L13.3491 9.35778C13.6421 9.06478 14.1171 9.06478 14.4101 9.35778C14.7031 9.65078 14.7031 10.1258 14.4101 10.4188L13.0611 11.7668L14.4101 13.1158ZM19.6881 4.82578C19.0811 4.21878 15.7541 2.07178 12.0001 2.07178C8.24709 2.07178 4.91909 4.21878 4.31209 4.82578C3.73109 5.40678 3.73909 5.85978 3.78409 8.37478C3.80309 9.39378 3.82709 10.7818 3.82709 12.6998C3.82709 19.2198 9.15109 21.9278 12.0001 21.9278C14.8501 21.9278 20.1731 19.2198 20.1731 12.6998C20.1731 10.7828 20.1981 9.39478 20.2161 8.37678C20.2611 5.85978 20.2691 5.40678 19.6881 4.82578Z" fill="#484848"/>
</svg>
