<svg width="24" height="24" viewBox="0 0 24 24" fill="none" xmlns="http://www.w3.org/2000/svg">
<path fill-rule="evenodd" clip-rule="evenodd" d="M12 9.58795C10.67 9.58795 9.58804 10.67 9.58804 12C9.58804 13.33 10.67 14.412 12 14.412C13.33 14.412 14.412 13.33 14.412 12C14.412 10.67 13.33 9.58795 12 9.58795Z" fill="currentColor"/>
<path fill-rule="evenodd" clip-rule="evenodd" d="M12 15.9122C9.84305 15.9122 8.08805 14.1572 8.08805 12.0002C8.08805 9.84324 9.84305 8.08824 12 8.08824C14.157 8.08824 15.912 9.84324 15.912 12.0002C15.912 14.1572 14.157 15.9122 12 15.9122ZM12 4.19824C6.59805 4.19824 2.24805 8.46624 2.24805 12.0002C2.24805 15.5342 6.59805 19.8022 12 19.8022C17.402 19.8022 21.752 15.5342 21.752 12.0002C21.752 8.46624 17.402 4.19824 12 4.19824Z" fill="currentColor"/>
</svg>
