<svg width="24" height="24" viewBox="0 0 24 24" fill="none" xmlns="http://www.w3.org/2000/svg">
<path fill-rule="evenodd" clip-rule="evenodd" d="M21.4315 9.72949C21.0445 8.08349 19.3265 7.99849 17.9455 7.92949C17.0765 7.88549 16.1775 7.84149 15.8015 7.45249C15.4185 7.05649 15.1195 6.29749 14.8285 5.56349C14.2615 4.12749 13.6185 2.50049 11.9995 2.50049C10.3815 2.50049 9.73953 4.12749 9.17153 5.56349C8.88153 6.29749 8.58153 7.05649 8.19953 7.45249C7.82253 7.84149 6.92353 7.88549 6.05453 7.92949C4.67353 7.99849 2.95553 8.08349 2.56853 9.72949C2.20153 11.2915 3.34853 12.2365 4.36053 13.0705C5.05253 13.6405 5.70653 14.1805 5.85153 14.8405C5.99253 15.4815 5.78053 16.3095 5.57553 17.1115C5.22353 18.4905 4.82353 20.0525 6.15853 21.0595C6.57553 21.3745 6.99853 21.4995 7.41653 21.4995C8.32153 21.4995 9.20353 20.9155 9.95853 20.4155C10.6575 19.9535 11.3805 19.4745 11.9995 19.4745C12.6185 19.4745 13.3425 19.9535 14.0405 20.4155C15.1455 21.1465 16.5195 22.0545 17.8425 21.0595C19.1775 20.0525 18.7775 18.4895 18.4245 17.1095C18.2195 16.3085 18.0085 15.4805 18.1485 14.8405C18.2935 14.1805 18.9475 13.6415 19.6395 13.0705C20.6515 12.2365 21.7985 11.2915 21.4315 9.72949Z" fill="currentColor"/>
</svg>
