<svg width="24" height="24" viewBox="0 0 24 24" fill="none" xmlns="http://www.w3.org/2000/svg">
<path fill-rule="evenodd" clip-rule="evenodd" d="M12.0032 8.21845C11.5942 7.44545 9.43115 3.58545 7.04015 3.58545C4.64915 3.58545 2.48515 7.44545 2.07615 8.21845C1.81815 8.70645 2.00415 9.31145 2.49215 9.57045C2.97815 9.82545 3.58515 9.64245 3.84415 9.15445C4.43415 8.04245 5.29815 6.85745 6.04015 6.17145V17.2044C6.04015 17.7575 6.48715 18.2044 7.04015 18.2044C7.59315 18.2044 8.04015 17.7575 8.04015 17.2044V6.17145C8.78215 6.85845 9.64615 8.04245 10.2352 9.15445C10.4152 9.49245 10.7622 9.68645 11.1202 9.68645C11.2782 9.68645 11.4392 9.64845 11.5872 9.57045C12.0752 9.31145 12.2612 8.70645 12.0032 8.21845Z" fill="currentColor"/>
<path fill-rule="evenodd" clip-rule="evenodd" d="M21.508 14.4323C21.024 14.1733 20.415 14.3593 20.156 14.8463C19.568 15.9563 18.708 17.1383 17.97 17.8253V6.79535C17.97 6.24335 17.523 5.79535 16.97 5.79535C16.417 5.79535 15.97 6.24335 15.97 6.79535V17.8293C15.228 17.1433 14.364 15.9593 13.774 14.8463C13.515 14.3593 12.905 14.1723 12.422 14.4323C11.934 14.6903 11.748 15.2943 12.006 15.7833C12.415 16.5563 14.578 20.4143 16.97 20.4143C19.352 20.4143 21.515 16.5563 21.924 15.7833C22.182 15.2943 21.996 14.6903 21.508 14.4323Z" fill="currentColor"/>
</svg>
