<svg width="24" height="24" viewBox="0 0 24 24" fill="none" xmlns="http://www.w3.org/2000/svg">
<path fill-rule="evenodd" clip-rule="evenodd" d="M19.899 11.9991C19.899 12.7751 20.362 13.5571 21.395 13.5571C21.671 13.5571 21.895 13.7801 21.895 14.0571C21.895 19.3521 21.444 21.0261 12 21.0261C2.55598 21.0261 2.10498 19.3521 2.10498 14.0571C2.10498 13.7801 2.32798 13.5571 2.60498 13.5571C3.07798 13.5571 3.45398 13.3991 3.72298 13.0871C3.96298 12.8091 4.09998 12.4121 4.09998 11.9991C4.09998 11.2251 3.63798 10.4421 2.60498 10.4421C2.32798 10.4421 2.10498 10.2191 2.10498 9.94212C2.10498 4.64912 2.55598 2.97412 12 2.97412C21.444 2.97412 21.895 4.64912 21.895 9.94212C21.895 10.2191 21.671 10.4421 21.395 10.4421C20.362 10.4421 19.899 11.2251 19.899 11.9991ZM10.9987 9.41782C11.1702 9.05706 11.4434 8.59985 11.9999 8.59985C12.5565 8.59985 12.8297 9.05706 13.0012 9.41782C13.0468 9.51388 13.0895 9.61272 13.1298 9.70629L13.1319 9.71105C13.1721 9.80433 13.21 9.89227 13.2492 9.97525C13.331 10.1484 13.4062 10.2722 13.4861 10.3483C13.5417 10.4006 13.6501 10.4437 13.8428 10.4691C13.9734 10.4864 14.1102 10.4926 14.2598 10.4993C14.3299 10.5025 14.4028 10.5058 14.4792 10.5105C14.7015 10.5239 14.9512 10.549 15.163 10.6352C15.3888 10.7271 15.5845 10.8948 15.6587 11.1827C15.7287 11.4563 15.664 11.6912 15.5354 11.8853C15.4148 12.0674 15.237 12.2158 15.0765 12.3401C15.0283 12.3774 14.9818 12.4125 14.9369 12.4464C14.821 12.5338 14.7163 12.6129 14.6226 12.6999C14.4957 12.8178 14.4267 12.9183 14.4035 13.0146C14.3769 13.1263 14.3869 13.2657 14.4256 13.4432C14.4446 13.5303 14.4689 13.6203 14.4955 13.7158L14.5085 13.7621C14.5308 13.842 14.5543 13.9259 14.5748 14.0084C14.6228 14.2024 14.664 14.424 14.6334 14.6386C14.6007 14.8684 14.4875 15.0781 14.2583 15.2367C13.7802 15.5661 13.2935 15.3284 12.9459 15.1272C12.8737 15.0854 12.807 15.0449 12.7429 15.006C12.633 14.9392 12.5309 14.8772 12.4216 14.8212C12.255 14.7357 12.1186 14.691 11.9999 14.691C11.8813 14.691 11.7449 14.7357 11.5782 14.8212C11.469 14.8772 11.3669 14.9392 11.257 15.0059C11.1929 15.0448 11.1262 15.0854 11.0539 15.1272C10.7064 15.3284 10.2201 15.5664 9.74203 15.237C9.5131 15.0783 9.39958 14.8682 9.36692 14.6385C9.33641 14.424 9.37751 14.2025 9.42551 14.0085C9.44592 13.9261 9.46934 13.8423 9.49164 13.7625L9.50464 13.7159C9.5312 13.6204 9.55547 13.5304 9.57439 13.4434C9.61298 13.2658 9.62296 13.1263 9.59633 13.0146C9.57312 12.9183 9.50417 12.8178 9.37724 12.6999C9.2836 12.6129 9.17882 12.5338 9.06297 12.4464C9.01813 12.4126 8.97147 12.3774 8.92333 12.3401C8.76289 12.2158 8.58507 12.0674 8.46444 11.8853C8.33589 11.6912 8.27105 11.4568 8.34105 11.1832C8.41524 10.8952 8.61109 10.7271 8.83689 10.6352C9.04868 10.549 9.29839 10.5239 9.52066 10.5105C9.59704 10.5058 9.66996 10.5025 9.74009 10.4993C9.88963 10.4926 10.0265 10.4864 10.1571 10.4691C10.3498 10.4437 10.4582 10.4006 10.5137 10.3483C10.5937 10.2722 10.6688 10.1484 10.7506 9.97525C10.7899 9.89224 10.8277 9.80439 10.868 9.71108L10.87 9.70629C10.9104 9.61272 10.953 9.51388 10.9987 9.41782Z" fill="currentColor"/>
</svg>
