<svg width="24" height="24" viewBox="0 0 24 24" fill="none" xmlns="http://www.w3.org/2000/svg">
<path fill-rule="evenodd" clip-rule="evenodd" d="M14.109 14.544C14.109 14.958 13.773 15.294 13.359 15.294C12.945 15.294 12.609 14.958 12.609 14.544V9.255C12.609 8.841 12.945 8.505 13.359 8.505C13.773 8.505 14.109 8.841 14.109 9.255V14.544ZM21.5 13.55C20.451 13.55 19.982 12.772 19.982 11.999C19.982 11.228 20.451 10.449 21.5 10.449C21.776 10.449 22 10.226 22 9.949C22 5.094 21.595 3.296 14.109 3.038V6.255C14.109 6.669 13.773 7.005 13.359 7.005C12.945 7.005 12.609 6.669 12.609 6.255V3.007C12.403 3.006 12.216 3 12 3C2.455 3 2 4.67 2 9.949C2 10.226 2.224 10.449 2.5 10.449C3.549 10.449 4.018 11.228 4.018 11.999C4.018 12.409 3.88 12.804 3.637 13.08C3.364 13.392 2.982 13.55 2.5 13.55C2.224 13.55 2 13.773 2 14.05C2 19.33 2.455 21 12 21C12.216 21 12.403 20.995 12.609 20.993V17.544C12.609 17.13 12.945 16.794 13.359 16.794C13.773 16.794 14.109 17.13 14.109 17.544V20.962C21.595 20.704 22 18.906 22 14.05C22 13.773 21.776 13.55 21.5 13.55Z" fill="currentColor"/>
</svg>
