<svg width="24" height="24" viewBox="0 0 24 24" fill="none" xmlns="http://www.w3.org/2000/svg">
<path fill-rule="evenodd" clip-rule="evenodd" d="M16.191 13.517H16.178L11.649 13.444C11.239 13.437 10.911 13.103 10.911 12.694V7.846C10.911 7.432 11.247 7.096 11.661 7.096C12.075 7.096 12.411 7.432 12.411 7.846V11.955L16.203 12.017C16.617 12.024 16.947 12.365 16.941 12.779C16.934 13.189 16.599 13.517 16.191 13.517ZM12 2.25C6.624 2.25 2.25 6.624 2.25 12C2.25 17.376 6.624 21.75 12 21.75C17.376 21.75 21.75 17.376 21.75 12C21.75 6.624 17.376 2.25 12 2.25Z" fill="currentColor"/>
</svg>
