<svg width="24" height="24" viewBox="0 0 24 24" fill="none" xmlns="http://www.w3.org/2000/svg">
<path fill-rule="evenodd" clip-rule="evenodd" d="M12.7501 16.443C12.7501 16.857 12.4141 17.193 12.0001 17.193C11.5861 17.193 11.2501 16.857 11.2501 16.443V14.222C11.2501 13.808 11.5861 13.472 12.0001 13.472C12.4141 13.472 12.7501 13.808 12.7501 14.222V16.443ZM12.0001 8.39C10.4971 8.39 9.23609 8.501 8.18909 8.744V7.313C8.22309 5.238 9.87409 3.592 11.9491 3.567H11.9971C13.6641 3.567 15.1631 4.674 15.6531 6.274C15.7741 6.67 16.1901 6.895 16.5901 6.771C16.9851 6.65 17.2091 6.231 17.0871 5.835C16.3981 3.587 14.2361 2.052 11.9311 2.067C9.03809 2.103 6.73609 4.396 6.68909 7.301V9.258C4.65609 10.227 3.84009 12.079 3.84009 15.161C3.84009 20.161 5.97609 21.933 12.0001 21.933C18.0241 21.933 20.1601 20.161 20.1601 15.161C20.1601 10.162 18.0241 8.39 12.0001 8.39Z" fill="currentColor"/>
</svg>
