<svg width="24" height="24" viewBox="0 0 24 24" fill="none" xmlns="http://www.w3.org/2000/svg">
<path fill-rule="evenodd" clip-rule="evenodd" d="M12.8699 4.16929L14.5089 5.81229C14.6549 5.95929 14.8479 6.03329 15.0399 6.03329C15.2309 6.03329 15.4229 5.95929 15.5689 5.81429C15.8629 5.52129 15.8629 5.04629 15.5709 4.75329L12.6509 1.82529C12.3699 1.54229 11.8699 1.54229 11.5889 1.82529L8.66895 4.75329C8.37695 5.04629 8.37695 5.52129 8.67095 5.81429C8.96495 6.10629 9.43895 6.10629 9.73095 5.81229L11.3699 4.16929V7.15729C11.8799 7.14729 12.3799 7.14729 12.8699 7.15729V4.16929Z" fill="#484848"/>
<path fill-rule="evenodd" clip-rule="evenodd" d="M16.4 7.2871C15.28 7.2071 14.0999 7.16729 12.8699 7.15729L12.87 14.3971C12.87 14.8071 12.53 15.1471 12.12 15.1471C11.71 15.1471 11.37 14.8071 11.37 14.3971L11.3699 7.15729C10.1599 7.16729 8.9 7.2171 7.6 7.2871H7.58C3.55 7.6571 2.25 9.4871 2.25 14.7871C2.25 22.3871 5.1 22.3871 12 22.3871C18.9 22.3871 21.75 22.3871 21.75 14.7871C21.75 9.4871 20.45 7.6571 16.4 7.2871Z" fill="#484848"/>
</svg>
