<svg width="24" height="24" viewBox="0 0 24 24" fill="none" xmlns="http://www.w3.org/2000/svg">
<path fill-rule="evenodd" clip-rule="evenodd" d="M21.9014 6.93494C21.1214 6.09494 18.7214 7.60494 17.3614 8.56494C17.5914 9.55494 17.7014 10.7049 17.7014 12.0049C17.7014 13.2949 17.5914 14.4249 17.3714 15.4149C18.4614 16.1849 20.2414 17.3149 21.2814 17.3149C21.5414 17.3149 21.7614 17.2449 21.9014 17.0849C22.8314 16.0949 22.8314 7.93494 21.9014 6.93494Z" fill="currentColor"/>
<path fill-rule="evenodd" clip-rule="evenodd" d="M8.81137 4.57495C3.34137 4.57495 1.40137 6.52495 1.40137 12.005C1.40137 17.485 3.34137 19.425 8.81137 19.425C14.2714 19.425 16.2014 17.485 16.2014 12.005C16.2014 6.52495 14.2714 4.57495 8.81137 4.57495Z" fill="currentColor"/>
</svg>
