<svg width="24" height="24" viewBox="0 0 24 24" fill="none" xmlns="http://www.w3.org/2000/svg">
<path fill-rule="evenodd" clip-rule="evenodd" d="M6.33027 10.798H17.6693C17.9463 10.798 18.1693 10.574 18.1693 10.298V8.044C18.1693 4.643 15.4023 1.875 11.9993 1.875C8.59827 1.875 5.83027 4.643 5.83027 8.044V10.298C5.83027 10.574 6.05427 10.798 6.33027 10.798Z" fill="currentColor"/>
<path fill-rule="evenodd" clip-rule="evenodd" d="M19.134 12.8028H4.86597C4.45197 12.8028 4.11597 13.1388 4.11597 13.5528C4.11597 13.9668 4.45197 14.3028 4.86597 14.3028H5.88097C6.22297 17.1048 8.44797 19.3298 11.25 19.6718V21.3748C11.25 21.7888 11.586 22.1248 12 22.1248C12.414 22.1248 12.75 21.7888 12.75 21.3748V19.6718C15.553 19.3298 17.777 17.1048 18.119 14.3028H19.134C19.548 14.3028 19.884 13.9668 19.884 13.5528C19.884 13.1388 19.548 12.8028 19.134 12.8028Z" fill="currentColor"/>
</svg>
