<svg width="24" height="24" viewBox="0 0 24 24" fill="none" xmlns="http://www.w3.org/2000/svg">
<path fill-rule="evenodd" clip-rule="evenodd" d="M13.4938 9.03863H10.5038C10.0938 9.03863 9.75382 8.69863 9.75382 8.28863C9.75382 7.87863 10.0938 7.53863 10.5038 7.53863H13.4938C13.9038 7.53863 14.2438 7.87863 14.2438 8.28863C14.2438 8.69863 13.9038 9.03863 13.4938 9.03863ZM11.4938 4.76863H12.5038C12.9138 4.76863 13.2538 5.10863 13.2538 5.51863C13.2538 5.92863 12.9138 6.26863 12.5038 6.26863H11.4938C11.0838 6.26863 10.7438 5.92863 10.7438 5.51863C10.7438 5.10863 11.0838 4.76863 11.4938 4.76863ZM12.0038 2.34863C8.75382 2.34863 6.11382 4.98863 6.11382 8.23863V10.3786C6.11382 10.6586 6.33382 10.8786 6.61382 10.8786H17.3838C17.6638 10.8786 17.8838 10.6586 17.8838 10.3786V8.23863C17.8838 4.98863 15.2438 2.34863 12.0038 2.34863Z" fill="#484848"/>
<path fill-rule="evenodd" clip-rule="evenodd" d="M18.7779 12.7206H5.22192C4.80792 12.7206 4.47192 13.0566 4.47192 13.4706C4.47192 13.8846 4.80792 14.2206 5.22192 14.2206H6.16692C6.50592 16.8656 8.60392 18.9646 11.2499 19.3026V20.9016C11.2499 21.3156 11.5859 21.6516 11.9999 21.6516C12.4139 21.6516 12.7499 21.3156 12.7499 20.9016V19.3036C15.3959 18.9646 17.4939 16.8656 17.8329 14.2206H18.7779C19.1919 14.2206 19.5279 13.8846 19.5279 13.4706C19.5279 13.0566 19.1919 12.7206 18.7779 12.7206Z" fill="#484848"/>
</svg>
