<svg width="24" height="24" viewBox="0 0 24 24" fill="none" xmlns="http://www.w3.org/2000/svg">
<path fill-rule="evenodd" clip-rule="evenodd" d="M19.0604 7.99005C18.8604 7.62705 18.4034 7.49605 18.0414 7.69605C17.6784 7.89505 17.5464 8.35205 17.7474 8.71505C18.8684 10.748 18.8684 13.269 17.7474 15.295C17.5464 15.657 17.6784 16.114 18.0404 16.314C18.1554 16.378 18.2804 16.408 18.4034 16.408C18.6664 16.408 18.9234 16.268 19.0604 16.021C20.4284 13.549 20.4284 10.47 19.0604 7.99005Z" fill="#484848"/>
<path fill-rule="evenodd" clip-rule="evenodd" d="M13.9271 5.26141C12.2531 4.26641 10.7151 5.44541 9.59312 6.30541C9.13412 6.65741 8.70012 6.98841 8.37112 7.09641C7.92512 7.24341 7.53812 7.29041 7.16512 7.33441C6.51112 7.41241 5.83612 7.49341 5.09612 8.12141C3.90812 9.13041 3.91112 10.7234 3.91412 12.0044C3.91112 13.2844 3.90812 14.8774 5.09712 15.8884C5.83812 16.5174 6.51412 16.5974 7.16812 16.6754C7.54112 16.7204 7.92712 16.7664 8.37212 16.9114C8.69912 17.0204 9.13212 17.3524 9.59012 17.7024C10.4051 18.3274 11.4371 19.1184 12.5951 19.1184C13.0341 19.1184 13.4911 19.0054 13.9611 18.7264C15.3011 17.7764 15.7751 16.0174 15.7751 12.0044C15.7751 7.94241 15.3181 6.24541 13.9271 5.26141Z" fill="#484848"/>
</svg>
