<svg width="24" height="24" viewBox="0 0 24 24" fill="none" xmlns="http://www.w3.org/2000/svg">
<path fill-rule="evenodd" clip-rule="evenodd" d="M19.9465 5.40848C19.7165 5.06448 19.2485 4.97148 18.9055 5.20348C18.5615 5.43348 18.4695 5.89948 18.7005 6.24448C21.0115 9.69148 21.0115 14.3215 18.7005 17.7655C18.4695 18.1095 18.5615 18.5755 18.9055 18.8065C19.0335 18.8925 19.1785 18.9335 19.3225 18.9335C19.5645 18.9335 19.8015 18.8175 19.9465 18.6015C22.5925 14.6585 22.5925 9.35648 19.9465 5.40848Z" fill="currentColor"/>
<path fill-rule="evenodd" clip-rule="evenodd" d="M16.5144 7.61255C16.1514 7.81155 16.0194 8.26855 16.2204 8.63155C17.3704 10.7165 17.3704 13.3015 16.2204 15.3785C16.0194 15.7405 16.1514 16.1965 16.5134 16.3975C16.6284 16.4615 16.7534 16.4916 16.8764 16.4916C17.1394 16.4916 17.3954 16.3516 17.5334 16.1046C18.9304 13.5816 18.9314 10.4395 17.5334 7.90655C17.3324 7.54355 16.8764 7.41255 16.5144 7.61255Z" fill="currentColor"/>
<path fill-rule="evenodd" clip-rule="evenodd" d="M12.2933 5.11848C10.5873 4.10348 9.01825 5.30848 7.87225 6.18548C7.40225 6.54548 6.95825 6.88548 6.62125 6.99648C6.16325 7.14648 5.76825 7.19448 5.38525 7.24048C4.71825 7.31948 4.02925 7.40148 3.27425 8.04248C2.06525 9.06948 2.06725 10.6975 2.06925 12.0055C2.06725 13.3125 2.06525 14.9405 3.27525 15.9685C4.02925 16.6085 4.71825 16.6905 5.38525 16.7695C5.76825 16.8155 6.16325 16.8635 6.62125 17.0145C6.95825 17.1255 7.40125 17.4655 7.87125 17.8245C8.70225 18.4615 9.75625 19.2685 10.9383 19.2685C11.3853 19.2685 11.8503 19.1535 12.3283 18.8695C13.6943 17.8985 14.1783 16.1015 14.1783 12.0055C14.1783 7.85448 13.7113 6.12248 12.2933 5.11848Z" fill="currentColor"/>
</svg>
