<svg width="24" height="24" viewBox="0 0 24 24" fill="none" xmlns="http://www.w3.org/2000/svg">
<path fill-rule="evenodd" clip-rule="evenodd" d="M15.1767 12.8707C14.9887 12.7877 14.7687 12.8287 14.6227 12.9747L10.1137 17.4847C10.0087 17.5907 9.95568 17.7377 9.96968 17.8867C9.98368 18.0347 10.0637 18.1687 10.1867 18.2527C10.7317 18.6207 11.4617 19.0277 12.2947 19.0277C12.7297 19.0277 13.1937 18.9167 13.6737 18.6307C14.8567 17.7897 15.3617 16.3087 15.4757 13.3487C15.4847 13.1417 15.3647 12.9527 15.1767 12.8707Z" fill="currentColor"/>
<path fill-rule="evenodd" clip-rule="evenodd" d="M20.2128 3.79739C19.9198 3.50439 19.4448 3.50439 19.1518 3.79739L15.1928 7.75739C14.9228 6.46139 14.4448 5.64639 13.6378 5.07739C11.9538 4.08339 10.4088 5.26939 9.28076 6.13439C8.81976 6.48839 8.38476 6.82239 8.05676 6.93039C7.60776 7.07739 7.21876 7.12439 6.84276 7.17039C6.18376 7.24939 5.50176 7.33239 4.75676 7.96539C3.54876 8.99039 3.56076 10.6574 3.56876 11.8664C3.56076 13.0834 3.54876 14.7504 4.75876 15.7784C5.35376 16.2794 5.90676 16.4294 6.44076 16.5094L3.80776 19.1424C3.51476 19.4354 3.51476 19.9094 3.80776 20.2024C3.95476 20.3494 4.14676 20.4224 4.33776 20.4224C4.52976 20.4224 4.72176 20.3494 4.86876 20.2024L20.2128 4.85839C20.5058 4.56539 20.5058 4.09039 20.2128 3.79739Z" fill="currentColor"/>
</svg>
