<svg width="24" height="24" viewBox="0 0 24 24" fill="none" xmlns="http://www.w3.org/2000/svg">
<path fill-rule="evenodd" clip-rule="evenodd" d="M9.49021 4.86249C9.49021 4.01349 10.0782 3.32349 10.8002 3.32349H13.2002C13.9222 3.32349 14.5102 4.01349 14.5102 4.86249V4.88649C13.7442 4.80949 12.9102 4.77149 12.0002 4.77149C11.0892 4.77149 10.2552 4.80949 9.49021 4.88649V4.86249ZM2.50621 10.7815C5.11521 12.3895 8.49521 13.2765 12.0202 13.2795C15.5382 13.2765 18.9092 12.3925 21.5162 10.7915C20.9882 7.52849 19.3232 5.79249 16.0102 5.11749V4.86249C16.0102 3.18649 14.7492 1.82349 13.2002 1.82349H10.8002C9.25121 1.82349 7.99021 3.18649 7.99021 4.86249V5.11749C4.68221 5.79149 3.01821 7.52249 2.48621 10.7735C2.49321 10.7775 2.50021 10.7775 2.50621 10.7815Z" fill="#484848"/>
<path fill-rule="evenodd" clip-rule="evenodd" d="M12.75 14.8174V16.9804C12.75 17.3944 12.414 17.7304 12 17.7304C11.586 17.7304 11.25 17.3944 11.25 16.9804V14.8164C7.98904 14.7074 4.87104 13.8934 2.31404 12.4844C2.29904 12.8034 2.29004 13.1314 2.29004 13.4734C2.29004 19.8994 4.83104 22.1764 12 22.1764C19.169 22.1764 21.71 19.8994 21.71 13.4734C21.71 13.1394 21.702 12.8184 21.688 12.5074C19.127 13.9084 16.009 14.7144 12.75 14.8174Z" fill="#484848"/>
</svg>
