<svg width="24" height="24" viewBox="0 0 24 24" fill="none" xmlns="http://www.w3.org/2000/svg">
<path fill-rule="evenodd" clip-rule="evenodd" d="M8.38009 7.19396C9.34183 5.69967 11.0205 4.70825 12.932 4.70825C15.8125 4.70825 18.1671 6.9597 18.3322 9.79883C18.3956 9.79616 18.4593 9.79481 18.5233 9.79481C20.9962 9.79481 23.0009 11.7995 23.0009 14.2724C23.0009 16.7453 20.9962 18.7499 18.5233 18.7499H6.87467C3.62978 18.7499 0.999268 16.1194 0.999268 12.8745C0.999268 9.62964 3.62978 6.99913 6.87467 6.99913C7.39433 6.99913 7.89905 7.06678 8.38009 7.19396ZM12.0001 15.7499C12.1801 15.7499 12.3453 15.6865 12.4746 15.5807L14.9685 13.5856C15.292 13.3268 15.3444 12.8549 15.0857 12.5314C14.8269 12.208 14.355 12.1555 14.0315 12.4143L12.7501 13.4394V9.99994C12.7501 9.58573 12.4143 9.24994 12.0001 9.24994C11.5858 9.24994 11.2501 9.58573 11.2501 9.99994V13.4395L9.96855 12.4143C9.6451 12.1555 9.17313 12.208 8.91438 12.5314C8.65562 12.8549 8.70806 13.3268 9.03151 13.5856L11.5288 15.5835C11.6561 15.6863 11.8177 15.7485 11.9937 15.7499L12.0001 15.7499Z" fill="#6C6D6D"/>
</svg>
