<svg width="24" height="24" viewBox="0 0 24 24" fill="none" xmlns="http://www.w3.org/2000/svg">
<path fill-rule="evenodd" clip-rule="evenodd" d="M8.38009 7.19396C9.34183 5.69967 11.0205 4.70825 12.932 4.70825C15.8125 4.70825 18.1671 6.9597 18.3322 9.79883C18.3956 9.79616 18.4593 9.79481 18.5233 9.79481C20.9962 9.79481 23.0009 11.7995 23.0009 14.2724C23.0009 16.7453 20.9962 18.7499 18.5233 18.7499H6.87467C3.62978 18.7499 0.999268 16.1194 0.999268 12.8745C0.999268 9.62964 3.62978 6.99913 6.87467 6.99913C7.39433 6.99913 7.89905 7.06678 8.38009 7.19396ZM15.0304 11.5303C15.3233 11.2374 15.3233 10.7625 15.0304 10.4696C14.7375 10.1767 14.2626 10.1767 13.9697 10.4696L11.0001 13.4393L9.53039 11.9696C9.2375 11.6767 8.76262 11.6767 8.46973 11.9696C8.17684 12.2625 8.17684 12.7374 8.46973 13.0303L10.4697 15.0303C10.7626 15.3232 11.2375 15.3232 11.5304 15.0303L15.0304 11.5303Z" fill="#6C6D6D"/>
</svg>
