<svg width="24" height="24" viewBox="0 0 24 24" fill="none" xmlns="http://www.w3.org/2000/svg">
<path d="M21.0304 4.83038C21.3233 4.53749 21.3233 4.06261 21.0304 3.76972C20.7375 3.47683 20.2626 3.47683 19.9697 3.76972L3.96973 19.7697C3.67684 20.0626 3.67684 20.5375 3.96973 20.8304C4.26262 21.1233 4.7375 21.1233 5.03039 20.8304L7.11071 18.7501H18.5233C20.9962 18.7501 23.0009 16.7454 23.0009 14.2725C23.0009 11.7996 20.9962 9.79493 18.5233 9.79493C18.4593 9.79493 18.3956 9.79628 18.3322 9.79895C18.2945 9.15027 18.1425 8.53227 17.896 7.96479L21.0304 4.83038Z" fill="#6C6D6D"/>
<path d="M12.932 4.70837C14.0389 4.70837 15.0681 5.04083 15.9253 5.61134C16.0522 5.69579 16.0649 5.87451 15.9572 5.9823L4.09647 17.843C4.01672 17.9227 3.89314 17.9397 3.79711 17.8805C2.11837 16.8462 0.999268 14.9911 0.999268 12.8747C0.999268 9.62976 3.62978 6.99925 6.87467 6.99925C7.39433 6.99925 7.89905 7.0669 8.38009 7.19408C9.34183 5.69979 11.0205 4.70837 12.932 4.70837Z" fill="#6C6D6D"/>
</svg>
