<svg width="24" height="24" viewBox="0 0 24 24" fill="none" xmlns="http://www.w3.org/2000/svg">
<path fill-rule="evenodd" clip-rule="evenodd" d="M7.26759 4.65843C10.4166 4.38469 13.5835 4.38469 16.7325 4.65843L18.2428 4.78971C19.6878 4.91533 20.8585 6.01497 21.0742 7.44937C21.5279 10.4661 21.5279 13.5337 21.0742 16.5504C21.0345 16.8143 20.9625 17.0668 20.8624 17.3041C20.7961 17.4614 20.5913 17.4853 20.4764 17.3589L16.055 12.4954C15.8552 12.2756 15.5446 12.1945 15.2629 12.2884L12.7321 13.132L9.06061 9.00161C8.92338 8.84722 8.72856 8.75627 8.52209 8.7502C8.31562 8.74413 8.11579 8.82349 7.96973 8.96955L3.0556 13.8837C2.90436 14.0349 2.64642 13.9386 2.63436 13.7251C2.51613 11.6312 2.61332 9.52822 2.92592 7.44936C3.14162 6.01497 4.31229 4.91533 5.75736 4.78971L7.26759 4.65843ZM14.0001 8.99988C14.0001 8.17145 14.6716 7.49988 15.5001 7.49988C16.3285 7.49988 17.0001 8.17145 17.0001 8.99988C17.0001 9.82831 16.3285 10.4999 15.5001 10.4999C14.6716 10.4999 14.0001 9.82831 14.0001 8.99988Z" fill="#6C6D6D"/>
<path d="M2.96139 16.0992C2.90604 16.1546 2.87975 16.2326 2.89077 16.3102C2.90217 16.3903 2.91389 16.4703 2.92592 16.5504C3.14162 17.9848 4.31229 19.0844 5.75736 19.21L7.26759 19.3413C10.4166 19.6151 13.5835 19.6151 16.7325 19.3413L18.2428 19.21C18.6674 19.1731 19.0683 19.0521 19.4283 18.8632C19.5647 18.7916 19.5877 18.6113 19.4841 18.4973L15.3833 13.9864C15.3167 13.9131 15.2132 13.8861 15.1192 13.9174L12.7372 14.7114C12.4526 14.8063 12.1388 14.7224 11.9395 14.4982L8.64409 10.7908C8.54853 10.6833 8.38217 10.6784 8.28046 10.7801L2.96139 16.0992Z" fill="#6C6D6D"/>
</svg>
