<svg width="24" height="24" viewBox="0 0 24 24" fill="none" xmlns="http://www.w3.org/2000/svg">
<path fill-rule="evenodd" clip-rule="evenodd" d="M5 16.2499C5.41421 16.2499 5.75 16.5857 5.75 16.9999V18.9999C5.75 19.138 5.86193 19.2499 6 19.2499H18C18.1381 19.2499 18.25 19.138 18.25 18.9999V16.9999C18.25 16.5857 18.5858 16.2499 19 16.2499C19.4142 16.2499 19.75 16.5857 19.75 16.9999V18.9999C19.75 19.9664 18.9665 20.7499 18 20.7499H6C5.0335 20.7499 4.25 19.9664 4.25 18.9999V16.9999C4.25 16.5857 4.58579 16.2499 5 16.2499Z" fill="#6C6D6D"/>
<path fill-rule="evenodd" clip-rule="evenodd" d="M10.7379 16.1272C10.2235 16.1272 9.79438 15.734 9.74946 15.2216C9.59582 13.4689 9.56872 11.7076 9.66829 9.95132C9.42131 9.93768 9.17443 9.92186 8.92765 9.90387L7.4381 9.79529C6.8638 9.75343 6.54276 9.11306 6.85281 8.62784C7.91486 6.96575 9.28333 5.52083 10.8853 4.37008L11.4821 3.9414C11.7916 3.71908 12.2084 3.71908 12.5179 3.9414L13.1147 4.37008C14.7166 5.52083 16.0851 6.96575 17.1472 8.62784C17.4572 9.11306 17.1362 9.75343 16.5619 9.79529L15.0723 9.90387C14.8256 9.92186 14.5787 9.93768 14.3317 9.95132C14.4313 11.7076 14.4042 13.4689 14.2505 15.2216C14.2056 15.734 13.7765 16.1272 13.2621 16.1272H10.7379Z" fill="#6C6D6D"/>
</svg>
