<svg width="24" height="24" viewBox="0 0 24 24" fill="none" xmlns="http://www.w3.org/2000/svg">
<path d="M9.49991 15.2501C9.08569 15.2501 8.74991 15.5859 8.74991 16.0001C8.74991 16.4143 9.08569 16.7501 9.49991 16.7501H11.2499V18.5001C11.2499 18.9143 11.5857 19.2501 11.9999 19.2501C12.4141 19.2501 12.7499 18.9143 12.7499 18.5001V16.7501H14.4999C14.9141 16.7501 15.2499 16.4143 15.2499 16.0001C15.2499 15.5859 14.9141 15.2501 14.4999 15.2501H12.7499V13.5001C12.7499 13.0859 12.4141 12.7501 11.9999 12.7501C11.5857 12.7501 11.2499 13.0859 11.2499 13.5001V15.2501H9.49991Z" fill="#6C6D6D"/>
<path fill-rule="evenodd" clip-rule="evenodd" d="M7.24991 5.46126V6.69904C6.88062 6.7269 6.51151 6.758 6.14263 6.79236C4.47354 6.94781 3.19727 8.34848 3.19727 10.0248V17.9754C3.19727 19.6517 4.47354 21.0523 6.14263 21.2078C10.039 21.5707 13.9608 21.5707 17.8572 21.2078C19.5262 21.0523 20.8025 19.6517 20.8025 17.9754V10.0248C20.8025 8.34848 19.5262 6.94781 17.8572 6.79236C17.4883 6.758 17.1192 6.7269 16.7499 6.69905V5.46126C16.7499 4.59501 16.1162 3.85912 15.2595 3.73062L14.0396 3.54763C12.6874 3.3448 11.3124 3.3448 9.96023 3.54763L8.74031 3.73062C7.88365 3.85912 7.24991 4.59501 7.24991 5.46126ZM13.8171 5.03104C12.6124 4.85033 11.3874 4.85033 10.1827 5.03104L8.96282 5.21402C8.84044 5.23238 8.74991 5.33751 8.74991 5.46126V6.60385C10.9151 6.49229 13.0847 6.49229 15.2499 6.60385V5.46126C15.2499 5.33751 15.1594 5.23238 15.037 5.21402L13.8171 5.03104ZM17.7181 8.28589C13.9142 7.93161 10.0856 7.93161 6.28174 8.28589C5.38384 8.36952 4.69727 9.12301 4.69727 10.0248V10.2501H19.3025V10.0248C19.3025 9.12301 18.6159 8.36952 17.7181 8.28589ZM19.3025 11.7501H4.69727V17.9754C4.69727 18.8771 5.38384 19.6306 6.28174 19.7143C10.0856 20.0685 13.9142 20.0685 17.7181 19.7143C18.6159 19.6306 19.3025 18.8771 19.3025 17.9754V11.7501Z" fill="#6C6D6D"/>
</svg>
