<svg width="24" height="24" viewBox="0 0 24 24" fill="none" xmlns="http://www.w3.org/2000/svg">
<path fill-rule="evenodd" clip-rule="evenodd" d="M11.9999 3.74976L19.2736 3.95541C20.5588 3.99175 21.6218 4.9674 21.7679 6.2448C22.0915 9.07241 22.0915 11.9277 21.7679 14.7553C21.6218 16.0327 20.5588 17.0084 19.2736 17.0447L13.2499 17.215V19.2501H16.9999C17.4142 19.2501 17.7499 19.5858 17.7499 20.0001C17.7499 20.4143 17.4142 20.7501 16.9999 20.7501H6.99994C6.58573 20.7501 6.24994 20.4143 6.24994 20.0001C6.24994 19.5858 6.58573 19.2501 6.99994 19.2501H10.7499V17.215L4.72629 17.0447C3.44108 17.0084 2.37806 16.0327 2.2319 14.7553C1.90838 11.9277 1.90838 9.07241 2.2319 6.2448C2.37806 4.9674 3.44108 3.99175 4.7263 3.95541L11.9999 3.74976ZM4.99994 13.7501C4.58573 13.7501 4.24994 14.0858 4.24994 14.5001C4.24994 14.9143 4.58573 15.2501 4.99994 15.2501H18.9999C19.4142 15.2501 19.7499 14.9143 19.7499 14.5001C19.7499 14.0858 19.4142 13.7501 18.9999 13.7501H4.99994Z" fill="#6C6D6D"/>
</svg>
