<svg width="24" height="24" viewBox="0 0 24 24" fill="none" xmlns="http://www.w3.org/2000/svg">
<path d="M6.91798 1.59958C6.31253 1.53191 5.68737 1.53191 5.08192 1.59958C4.57609 1.65611 4.16566 2.05413 4.10563 2.56743C4.03315 3.18709 4.03315 3.81309 4.10563 4.43275C4.16566 4.94605 4.57609 5.34407 5.08193 5.4006C5.68737 5.46827 6.31253 5.46827 6.91798 5.4006C7.42381 5.34407 7.83424 4.94605 7.89428 4.43275C7.96675 3.81309 7.96675 3.18709 7.89428 2.56743C7.83424 2.05413 7.42381 1.65611 6.91798 1.59958Z" fill="#6C6D6D"/>
<path d="M12.918 1.59958C12.3125 1.53191 11.6874 1.53191 11.0819 1.59958C10.5761 1.65611 10.1657 2.05413 10.1056 2.56743C10.0332 3.18709 10.0332 3.81309 10.1056 4.43275C10.1657 4.94605 10.5761 5.34407 11.0819 5.4006C11.6874 5.46827 12.3125 5.46827 12.918 5.4006C13.4238 5.34407 13.8342 4.94605 13.8943 4.43275C13.9668 3.81309 13.9668 3.18709 13.8943 2.56743C13.8342 2.05413 13.4238 1.65611 12.918 1.59958Z" fill="#6C6D6D"/>
<path d="M18.918 1.59958C18.3125 1.53191 17.6874 1.53191 17.0819 1.59958C16.5761 1.65611 16.1657 2.05413 16.1056 2.56743C16.0332 3.18709 16.0332 3.81309 16.1056 4.43275C16.1657 4.94605 16.5761 5.34407 17.0819 5.4006C17.6874 5.46827 18.3125 5.46827 18.918 5.4006C19.4238 5.34407 19.8342 4.94605 19.8943 4.43275C19.9668 3.81309 19.9668 3.18709 19.8943 2.56743C19.8342 2.05413 19.4238 1.65611 18.918 1.59958Z" fill="#6C6D6D"/>
<path d="M6.91798 7.09958C6.31253 7.03191 5.68737 7.03191 5.08192 7.09958C4.57609 7.15611 4.16566 7.55413 4.10563 8.06743C4.03315 8.68709 4.03315 9.31309 4.10563 9.93275C4.16566 10.446 4.57609 10.8441 5.08193 10.9006C5.68737 10.9683 6.31253 10.9683 6.91798 10.9006C7.42381 10.8441 7.83424 10.446 7.89428 9.93275C7.96675 9.31309 7.96675 8.68709 7.89428 8.06743C7.83424 7.55413 7.42381 7.15611 6.91798 7.09958Z" fill="#6C6D6D"/>
<path d="M12.918 7.09958C12.3125 7.03191 11.6874 7.03191 11.0819 7.09958C10.5761 7.15611 10.1657 7.55413 10.1056 8.06743C10.0332 8.68709 10.0332 9.31309 10.1056 9.93275C10.1657 10.446 10.5761 10.8441 11.0819 10.9006C11.6874 10.9683 12.3125 10.9683 12.918 10.9006C13.4238 10.8441 13.8342 10.446 13.8943 9.93275C13.9668 9.31309 13.9668 8.68709 13.8943 8.06743C13.8342 7.55413 13.4238 7.15611 12.918 7.09958Z" fill="#6C6D6D"/>
<path d="M18.918 7.09958C18.3125 7.03191 17.6874 7.03191 17.0819 7.09958C16.5761 7.15611 16.1657 7.55413 16.1056 8.06743C16.0332 8.68709 16.0332 9.31309 16.1056 9.93275C16.1657 10.446 16.5761 10.8441 17.0819 10.9006C17.6874 10.9683 18.3125 10.9683 18.918 10.9006C19.4238 10.8441 19.8342 10.446 19.8943 9.93275C19.9668 9.31309 19.9668 8.68709 19.8943 8.06743C19.8342 7.55413 19.4238 7.15611 18.918 7.09958Z" fill="#6C6D6D"/>
<path d="M6.91798 12.5996C6.31253 12.5319 5.68737 12.5319 5.08192 12.5996C4.57609 12.6561 4.16566 13.0541 4.10563 13.5674C4.03315 14.1871 4.03315 14.8131 4.10563 15.4327C4.16566 15.946 4.57609 16.3441 5.08193 16.4006C5.68737 16.4683 6.31253 16.4683 6.91798 16.4006C7.42381 16.3441 7.83424 15.946 7.89428 15.4327C7.96675 14.8131 7.96675 14.1871 7.89428 13.5674C7.83424 13.0541 7.42381 12.6561 6.91798 12.5996Z" fill="#6C6D6D"/>
<path d="M12.918 12.5996C12.3125 12.5319 11.6874 12.5319 11.0819 12.5996C10.5761 12.6561 10.1657 13.0541 10.1056 13.5674C10.0332 14.1871 10.0332 14.8131 10.1056 15.4327C10.1657 15.946 10.5761 16.3441 11.0819 16.4006C11.6874 16.4683 12.3125 16.4683 12.918 16.4006C13.4238 16.3441 13.8342 15.946 13.8943 15.4327C13.9668 14.8131 13.9668 14.1871 13.8943 13.5674C13.8342 13.0541 13.4238 12.6561 12.918 12.5996Z" fill="#6C6D6D"/>
<path d="M12.918 18.0996C12.3125 18.0319 11.6874 18.0319 11.0819 18.0996C10.5761 18.1561 10.1657 18.5541 10.1056 19.0674C10.0332 19.6871 10.0332 20.3131 10.1056 20.9327C10.1657 21.446 10.5761 21.8441 11.0819 21.9006C11.6874 21.9683 12.3125 21.9683 12.918 21.9006C13.4238 21.8441 13.8342 21.446 13.8943 20.9327C13.9668 20.3131 13.9668 19.6871 13.8943 19.0674C13.8342 18.5541 13.4238 18.1561 12.918 18.0996Z" fill="#6C6D6D"/>
<path d="M18.918 12.5996C18.3125 12.5319 17.6874 12.5319 17.0819 12.5996C16.5761 12.6561 16.1657 13.0541 16.1056 13.5674C16.0332 14.1871 16.0332 14.8131 16.1056 15.4327C16.1657 15.946 16.5761 16.3441 17.0819 16.4006C17.6874 16.4683 18.3125 16.4683 18.918 16.4006C19.4238 16.3441 19.8342 15.946 19.8943 15.4327C19.9668 14.8131 19.9668 14.1871 19.8943 13.5674C19.8342 13.0541 19.4238 12.6561 18.918 12.5996Z" fill="#6C6D6D"/>
</svg>
