<svg width="24" height="24" viewBox="0 0 24 24" fill="none" xmlns="http://www.w3.org/2000/svg">
<path fill-rule="evenodd" clip-rule="evenodd" d="M18.7502 11.0002L18.7441 11.2434L18.7502 11.5002L18.7443 11.745L18.7502 12.0002L18.5615 20.2534C18.538 21.2805 17.7568 22.1311 16.7354 22.2417C13.5877 22.5826 10.4123 22.5826 7.26453 22.2417C6.24313 22.1311 5.46194 21.2805 5.43846 20.2534L5.24979 12.0002L5.25566 11.7434L5.24981 11.5002L5.25596 11.2444L5.24976 11.0002L5.41846 4.35869C5.41957 4.3148 5.4217 4.27115 5.42481 4.22776L5.43593 3.76559C5.46136 2.70888 6.26844 1.83587 7.3199 1.72769C7.4074 1.71869 7.49493 1.70994 7.58247 1.70144C7.70121 1.67385 7.82296 1.65373 7.94722 1.64162C10.6427 1.3789 13.3573 1.3789 16.0528 1.64162C16.177 1.65373 16.2988 1.67385 16.4175 1.70144C16.5051 1.70993 16.5926 1.71869 16.6802 1.72769C17.7316 1.83587 18.5387 2.70889 18.5641 3.76559L18.5753 4.22881C18.5783 4.27185 18.5804 4.31516 18.5815 4.35869L18.7502 11.0002ZM16 17.7501C16.4142 17.7501 16.75 17.4143 16.75 17.0001C16.75 16.5859 16.4142 16.2501 16 16.2501H8C7.58579 16.2501 7.25 16.5859 7.25 17.0001C7.25 17.4143 7.58579 17.7501 8 17.7501H16ZM12 21.7002C12.8284 21.7002 13.5 21.0286 13.5 20.2002C13.5 19.3717 12.8284 18.7002 12 18.7002C11.1716 18.7002 10.5 19.3717 10.5 20.2002C10.5 21.0286 11.1716 21.7002 12 21.7002Z" fill="#6C6D6D"/>
</svg>
