<svg width="24" height="24" viewBox="0 0 24 24" fill="none" xmlns="http://www.w3.org/2000/svg">
<path fill-rule="evenodd" clip-rule="evenodd" d="M13.0138 2.65376C16.1731 3.1526 18.5 5.87574 18.5 9.07422L18.5 14.9256C18.5 18.124 16.1731 20.8472 13.0138 21.346C12.3421 21.4521 11.6579 21.4521 10.9862 21.346C7.82691 20.8472 5.5 18.124 5.5 14.9256V9.07422C5.5 5.87574 7.82691 3.1526 10.9862 2.65376C11.6579 2.54771 12.3421 2.54771 13.0138 2.65376ZM11.25 9.99989C11.25 10.4141 11.5858 10.7499 12 10.7499C12.4142 10.7499 12.75 10.4141 12.75 9.99989V6.99989C12.75 6.58567 12.4142 6.24989 12 6.24989C11.5858 6.24989 11.25 6.58567 11.25 6.99989V9.99989Z" fill="#6C6D6D"/>
</svg>
