<svg width="24" height="24" viewBox="0 0 24 24" fill="none" xmlns="http://www.w3.org/2000/svg">
<path fill-rule="evenodd" clip-rule="evenodd" d="M6.96638 5.81408C9.31916 5.60371 11.6868 5.62207 14.036 5.86891L14.6438 5.93276C15.8037 6.05463 16.7372 6.93445 16.9314 8.07955L20.2098 6.3378C20.432 6.21976 20.6985 6.22098 20.9196 6.34104C21.1407 6.46109 21.2868 6.684 21.3088 6.93462L21.3337 7.21846C21.6126 10.4001 21.6126 13.6001 21.3337 16.7818L21.3088 17.0656C21.2868 17.3162 21.1407 17.5391 20.9196 17.6592C20.6985 17.7793 20.432 17.7805 20.2098 17.6624L16.9314 15.9207C16.7372 17.0658 15.8037 17.9456 14.6438 18.0675L14.036 18.1313C11.6868 18.3782 9.31916 18.3965 6.96638 18.1862L5.3846 18.0447C4.1927 17.9382 3.22968 17.0276 3.05657 15.8436C2.68394 13.2948 2.68394 10.7054 3.05657 8.1567C3.22968 6.97263 4.1927 6.06208 5.3846 5.95551L6.96638 5.81408ZM17.1164 14.3667C17.1966 14.3793 17.2762 14.4053 17.3519 14.4455L19.9069 15.803C20.0882 13.271 20.0882 10.7293 19.9069 8.19726L17.3519 9.55471C17.2762 9.59495 17.1966 9.6209 17.1164 9.63351C17.2566 11.2081 17.2566 12.7921 17.1164 14.3667Z" fill="#6C6D6D"/>
</svg>
