<svg width="24" height="24" viewBox="0 0 24 24" fill="none" xmlns="http://www.w3.org/2000/svg">
<path d="M7.31673 3.76882C10.4043 3.42374 13.5957 3.42374 16.6832 3.76882C17.8424 3.89838 18.8601 4.52525 19.5038 5.43565L11.5 13.4394L9.03033 10.9697C8.73744 10.6768 8.26256 10.6768 7.96967 10.9697C7.67678 11.2626 7.67678 11.7375 7.96967 12.0304L10.9697 15.0304C11.2626 15.3233 11.7374 15.3233 12.0303 15.0304L20.1458 6.91497C20.1682 7.02453 20.1862 7.13579 20.1994 7.24855C20.5686 10.4055 20.5686 13.5947 20.1994 16.7516C19.9845 18.5885 18.5096 20.0272 16.6832 20.2313C13.5957 20.5764 10.4043 20.5764 7.31673 20.2313C5.49035 20.0272 4.01545 18.5885 3.8006 16.7516C3.43137 13.5947 3.43137 10.4055 3.8006 7.24855C4.01545 5.41159 5.49035 3.97294 7.31673 3.76882Z" fill="#6C6D6D"/>
</svg>
