<svg width="24" height="24" viewBox="0 0 24 24" fill="none" xmlns="http://www.w3.org/2000/svg">
<path fill-rule="evenodd" clip-rule="evenodd" d="M7.31673 3.76882C10.4043 3.42374 13.5957 3.42374 16.6832 3.76882C18.5096 3.97294 19.9845 5.41159 20.1994 7.24855C20.5686 10.4055 20.5686 13.5947 20.1994 16.7516C19.9845 18.5885 18.5096 20.0272 16.6832 20.2313C13.5957 20.5764 10.4043 20.5764 7.31673 20.2313C5.49035 20.0272 4.01545 18.5885 3.8006 16.7516C3.43137 13.5947 3.43137 10.4055 3.8006 7.24855C4.01545 5.41159 5.49035 3.97294 7.31673 3.76882ZM13 8.00007C13 8.55235 12.5523 9.00007 12 9.00007C11.4477 9.00007 11 8.55235 11 8.00007C11 7.44778 11.4477 7.00007 12 7.00007C12.5523 7.00007 13 7.44778 13 8.00007ZM12 10.7501C12.4142 10.7501 12.75 11.0859 12.75 11.5001V16.5001C12.75 16.9143 12.4142 17.2501 12 17.2501C11.5858 17.2501 11.25 16.9143 11.25 16.5001V11.5001C11.25 11.0859 11.5858 10.7501 12 10.7501Z" fill="#6C6D6D"/>
</svg>
