<svg width="24" height="24" viewBox="0 0 24 24" fill="none" xmlns="http://www.w3.org/2000/svg">
<path fill-rule="evenodd" clip-rule="evenodd" d="M9.72967 3.99268C10.8216 2.39501 13.1784 2.39502 14.2704 3.99268L14.7023 4.62463C17.4084 8.58385 19.7333 12.7905 21.6461 17.1881L21.7363 17.3956C22.4103 18.9453 21.392 20.705 19.7124 20.8927C14.5868 21.4656 9.41329 21.4656 4.28766 20.8927C2.60811 20.705 1.58975 18.9453 2.2638 17.3956L2.35402 17.1881C4.26675 12.7905 6.59171 8.58384 9.29775 4.62463L9.72967 3.99268ZM13.0001 9.00005C13.0001 9.55233 12.5523 10 12.0001 10C11.4478 10 11.0001 9.55233 11.0001 9.00005C11.0001 8.44776 11.4478 8.00005 12.0001 8.00005C12.5523 8.00005 13.0001 8.44776 13.0001 9.00005ZM12.0001 11.75C12.4143 11.75 12.7501 12.0858 12.7501 12.5V17.5C12.7501 17.9143 12.4143 18.25 12.0001 18.25C11.5858 18.25 11.2501 17.9143 11.2501 17.5V12.5C11.2501 12.0858 11.5858 11.75 12.0001 11.75Z" fill="#6C6D6D"/>
</svg>
