<svg width="24" height="24" viewBox="0 0 24 24" fill="none" xmlns="http://www.w3.org/2000/svg">
<path d="M14.6041 2.76067C13.0635 2.58531 11.508 2.58531 9.9674 2.76067L8.37207 2.94225C8.13609 2.96911 7.95157 3.15827 7.93058 3.39484L7.80795 4.77662C7.60178 7.09985 7.60178 9.43677 7.80795 11.76L7.93058 13.1418C7.95347 13.3998 8.16961 13.5976 8.42862 13.5976H10.5V21C10.5 21.2124 10.6343 21.4017 10.8347 21.4719C11.0352 21.5421 11.2582 21.478 11.3907 21.3121L11.7814 20.8229C14.1108 17.9064 15.9657 14.6408 17.2777 11.1464L17.4681 10.6392C17.5258 10.4856 17.5045 10.3135 17.4111 10.1787C17.3177 10.0439 17.1641 9.96343 17 9.96343H14.287L16.6124 3.61092C16.6651 3.46694 16.6489 3.30675 16.5683 3.1763C16.4877 3.04586 16.3518 2.95959 16.1995 2.94225L14.6041 2.76067Z" fill="#6C6D6D"/>
</svg>
