<svg width="24" height="24" viewBox="0 0 24 24" fill="none" xmlns="http://www.w3.org/2000/svg">
<path fill-rule="evenodd" clip-rule="evenodd" d="M5.30619 6.75828L5.65303 9.8799L5.17693 9.92171C4.07635 10.0184 3.18559 10.8571 3.02292 11.9498C2.67253 14.3037 2.67253 16.6965 3.02292 19.0504C3.18559 20.1431 4.07635 20.9818 5.17693 21.0785L6.31138 21.1781C7.53158 21.2853 8.75527 21.3391 9.97898 21.3398C10.154 21.3398 10.245 21.128 10.1326 20.9939C9.11353 19.778 8.49995 18.2107 8.49995 16.5001C8.49995 13.1207 10.8947 10.3006 14.0798 9.64424C14.2559 9.60796 14.3929 9.46564 14.4128 9.28695L14.6937 6.75828C14.7342 6.3943 14.7342 6.02696 14.6937 5.66298L14.671 5.45809C14.4295 3.2847 12.7209 1.56504 10.5491 1.30953C10.1843 1.26661 9.81565 1.26661 9.45083 1.30953C7.27904 1.56504 5.57044 3.2847 5.32895 5.45809L5.30619 5.66298C5.26575 6.02696 5.26575 6.3943 5.30619 6.75828ZM10.3738 2.79926C10.1254 2.77004 9.87448 2.77004 9.62609 2.79926C8.14747 2.97322 6.98419 4.14402 6.81978 5.62373L6.79701 5.82863C6.7688 6.08252 6.7688 6.33875 6.79701 6.59263L7.14861 9.75696C9.04733 9.62827 10.9526 9.62827 12.8513 9.75696L13.2029 6.59263C13.2311 6.33874 13.2311 6.08252 13.2029 5.82863L13.1801 5.62373C13.0157 4.14402 11.8524 2.97322 10.3738 2.79926Z" fill="#6C6D6D"/>
<path d="M16.25 15.0001C16.25 14.5859 15.9142 14.2501 15.5 14.2501C15.0857 14.2501 14.75 14.5859 14.75 15.0001V16.7728C14.75 17.0128 14.8648 17.2382 15.0588 17.3794L16.0588 18.1067C16.3938 18.3503 16.8629 18.2762 17.1065 17.9412C17.3501 17.6062 17.2761 17.1372 16.9411 16.8936L16.25 16.3909V15.0001Z" fill="#6C6D6D"/>
<path fill-rule="evenodd" clip-rule="evenodd" d="M15.5 22.0001C18.5375 22.0001 21 19.5377 21 16.5001C21 13.4625 18.5375 11.0001 15.5 11.0001C12.4624 11.0001 9.99995 13.4625 9.99995 16.5001C9.99995 19.5377 12.4624 22.0001 15.5 22.0001ZM15.5 20.5001C17.7091 20.5001 19.5 18.7092 19.5 16.5001C19.5 14.291 17.7091 12.5001 15.5 12.5001C13.2908 12.5001 11.5 14.291 11.5 16.5001C11.5 18.7092 13.2908 20.5001 15.5 20.5001Z" fill="#6C6D6D"/>
</svg>
