<svg width="24" height="24" viewBox="0 0 24 24" fill="none" xmlns="http://www.w3.org/2000/svg">
<path fill-rule="evenodd" clip-rule="evenodd" d="M10.6636 11.8387L10.8509 12.0001L10.6636 12.1614C8.6882 13.8634 7.04577 15.9173 5.81976 18.2186C5.33865 19.1217 5.93595 20.2227 6.9553 20.3119L8.12884 20.4145C10.7047 20.6397 13.2952 20.6397 15.8711 20.4145L17.0446 20.3119C18.0639 20.2227 18.6612 19.1217 18.1801 18.2186C16.9541 15.9173 15.3117 13.8634 13.3363 12.1614L13.149 12.0001L13.3363 11.8387C15.3117 10.1367 16.9541 8.08285 18.1801 5.78153C18.6612 4.87846 18.0639 3.77738 17.0446 3.68826L15.8711 3.58565C13.2952 3.36045 10.7047 3.36045 8.12884 3.58565L6.9553 3.68826C5.93595 3.77738 5.33865 4.87846 5.81976 5.78154C7.04577 8.08285 8.6882 10.1367 10.6636 11.8387ZM11.9999 9.75006C11.801 9.75006 11.6102 9.67104 11.4696 9.53039L9.46957 7.53039C9.25507 7.31589 9.1909 6.9933 9.30699 6.71304C9.42308 6.43279 9.69655 6.25006 9.9999 6.25006H13.9999C14.3032 6.25006 14.5767 6.43279 14.6928 6.71304C14.8089 6.9933 14.7447 7.31589 14.5302 7.53039L12.5302 9.53039C12.3896 9.67104 12.1988 9.75006 11.9999 9.75006ZM11.9999 14.2501C11.801 14.2501 11.6102 14.3291 11.4696 14.4697L9.46957 16.4697C9.25507 16.6842 9.1909 17.0068 9.30699 17.2871C9.42308 17.5673 9.69655 17.7501 9.9999 17.7501H13.9999C14.3032 17.7501 14.5767 17.5673 14.6928 17.2871C14.8089 17.0068 14.7447 16.6842 14.5302 16.4697L12.5302 14.4697C12.3896 14.3291 12.1988 14.2501 11.9999 14.2501Z" fill="#6C6D6D"/>
</svg>
