<svg width="24" height="24" viewBox="0 0 24 24" fill="none" xmlns="http://www.w3.org/2000/svg">
<path fill-rule="evenodd" clip-rule="evenodd" d="M10.5328 3.81157C10.2853 3.84763 10.0429 3.91258 9.81057 4.00509C8.42735 4.55582 7.60674 5.9878 7.8309 7.45965L7.86195 7.66346C7.90041 7.91599 7.96672 8.16349 8.05968 8.40142L8.97458 10.7431C11.1638 10.5943 13.3612 10.6072 15.5489 10.7818L17.0451 10.9013C18.0132 10.9786 18.8037 11.7063 18.9606 12.6647C19.3223 14.8736 19.3223 17.1266 18.9606 19.3355C18.8037 20.2939 18.0132 21.0217 17.0451 21.0989L15.5489 21.2184C13.1868 21.407 10.8134 21.407 8.45124 21.2184L6.95511 21.0989C5.98701 21.0217 5.19651 20.2939 5.03958 19.3355C4.67789 17.1266 4.67789 14.8736 5.03958 12.6647C5.19651 11.7063 5.98701 10.9786 6.95511 10.9013L7.4117 10.8648L6.66253 8.94728C6.52926 8.60617 6.43419 8.25135 6.37905 7.88931L6.348 7.6855C6.01875 5.52367 7.22405 3.42038 9.25571 2.61149C9.59699 2.47561 9.95303 2.38021 10.3165 2.32724C12.4804 2.01194 14.5759 3.23078 15.3717 5.26761L15.4467 5.45964C15.58 5.80075 15.675 6.15557 15.7302 6.51761L15.8715 7.44562C15.9131 7.71862 15.7255 7.97363 15.4525 8.0152L14.9582 8.09049C14.6852 8.13207 14.4302 7.94447 14.3886 7.67147L14.2473 6.74346C14.2088 6.49092 14.1425 6.24343 14.0496 6.00549L13.9745 5.81347C13.4327 4.42673 12.0061 3.5969 10.5328 3.81157ZM12.0001 14.5001C11.1716 14.5001 10.5001 15.1717 10.5001 16.0001C10.5001 16.8285 11.1716 17.5001 12.0001 17.5001C12.8285 17.5001 13.5001 16.8285 13.5001 16.0001C13.5001 15.1717 12.8285 14.5001 12.0001 14.5001Z" fill="#6C6D6D"/>
</svg>
