<svg width="24" height="24" viewBox="0 0 24 24" fill="none" xmlns="http://www.w3.org/2000/svg">
<path d="M7.48334 5.25954C6.33891 5.38744 5.42286 6.29069 5.29045 7.4228C4.93476 10.4639 4.93476 13.5362 5.29045 16.5773C5.42286 17.7094 6.33891 18.6127 7.48334 18.7406C10.4602 19.0733 13.5398 19.0733 16.5166 18.7406C17.6611 18.6127 18.5771 17.7094 18.7095 16.5773C18.9651 14.3922 19.037 12.191 18.9253 9.9968C18.9224 9.94014 18.9436 9.88487 18.9837 9.84475L20.0225 8.80597C20.1427 8.68574 20.3482 8.76092 20.3609 8.93048C20.557 11.5354 20.5031 14.1544 20.1994 16.7516C19.9845 18.5885 18.5096 20.0272 16.6832 20.2313C13.5957 20.5764 10.4043 20.5764 7.31673 20.2313C5.49035 20.0272 4.01545 18.5885 3.8006 16.7516C3.43137 13.5947 3.43137 10.4055 3.8006 7.24855C4.01545 5.41159 5.49035 3.97294 7.31673 3.76882C10.4043 3.42374 13.5957 3.42374 16.6832 3.76882C17.3265 3.84071 17.9261 4.06574 18.4425 4.40738C18.5441 4.4746 18.5542 4.61744 18.468 4.70359L17.6652 5.50647C17.5995 5.57215 17.4976 5.58319 17.4158 5.53933C17.1423 5.39283 16.8385 5.29551 16.5166 5.25954C13.5398 4.92683 10.4602 4.92683 7.48334 5.25954Z" fill="#6C6D6D"/>
<path d="M21.0303 6.0304C21.3232 5.73751 21.3232 5.26263 21.0303 4.96974C20.7374 4.67685 20.2625 4.67685 19.9696 4.96974L11.5 13.4394L9.0303 10.9697C8.73741 10.6768 8.26253 10.6768 7.96964 10.9697C7.67675 11.2626 7.67675 11.7375 7.96964 12.0304L10.9696 15.0304C11.2625 15.3233 11.7374 15.3233 12.0303 15.0304L21.0303 6.0304Z" fill="#6C6D6D"/>
</svg>
