<svg width="24" height="24" viewBox="0 0 24 24" fill="none" xmlns="http://www.w3.org/2000/svg">
<path d="M12 10.7501C12.4142 10.7501 12.75 11.0859 12.75 11.5001V16.5001C12.75 16.9143 12.4142 17.2501 12 17.2501C11.5858 17.2501 11.25 16.9143 11.25 16.5001L11.25 11.5001C11.25 11.0859 11.5858 10.7501 12 10.7501Z" fill="#6C6D6D"/>
<path d="M12 9.00007C12.5523 9.00007 13 8.55235 13 8.00007C13 7.44778 12.5523 7.00007 12 7.00007C11.4477 7.00007 11 7.44778 11 8.00007C11 8.55235 11.4477 9.00007 12 9.00007Z" fill="#6C6D6D"/>
<path fill-rule="evenodd" clip-rule="evenodd" d="M7.31673 3.76882C10.4043 3.42374 13.5957 3.42374 16.6832 3.76882C18.5096 3.97294 19.9845 5.41159 20.1994 7.24855C20.5686 10.4055 20.5686 13.5947 20.1994 16.7516C19.9845 18.5885 18.5096 20.0272 16.6832 20.2313C13.5957 20.5764 10.4043 20.5764 7.31673 20.2313C5.49035 20.0272 4.01545 18.5885 3.8006 16.7516C3.43137 13.5947 3.43137 10.4055 3.8006 7.24855C4.01545 5.41159 5.49035 3.97294 7.31673 3.76882ZM16.5166 5.25954C13.5398 4.92683 10.4602 4.92683 7.48334 5.25954C6.33891 5.38744 5.42286 6.29069 5.29045 7.4228C4.93476 10.4639 4.93476 13.5362 5.29045 16.5773C5.42286 17.7094 6.33891 18.6127 7.48334 18.7406C10.4602 19.0733 13.5398 19.0733 16.5166 18.7406C17.6611 18.6127 18.5771 17.7094 18.7095 16.5773C19.0652 13.5362 19.0652 10.4639 18.7095 7.4228C18.5771 6.29069 17.6611 5.38744 16.5166 5.25954Z" fill="#6C6D6D"/>
</svg>
