<svg width="24" height="24" viewBox="0 0 24 24" fill="none" xmlns="http://www.w3.org/2000/svg">
<path fill-rule="evenodd" clip-rule="evenodd" d="M5.62554 9.63137L5.30631 6.75828C5.26587 6.3943 5.26587 6.02696 5.30631 5.66298L5.32908 5.45809C5.57056 3.2847 7.27917 1.56504 9.45095 1.30953C9.81578 1.26661 10.1844 1.26661 10.5492 1.30953C12.721 1.56504 14.4296 3.2847 14.6711 5.45809L14.6938 5.66298C14.7343 6.02696 14.7343 6.3943 14.6938 6.75828L14.4129 9.28695C14.393 9.46564 14.2561 9.60795 14.08 9.64423C13.0844 9.84938 12.166 10.2659 11.3739 10.8449C11.2997 10.8991 11.21 10.9282 11.1182 10.9257C9.55165 10.8829 7.9833 10.9301 6.42085 11.0673L5.2864 11.1669C4.76167 11.213 4.33698 11.6129 4.25942 12.1339C3.9272 14.3657 3.9272 16.6345 4.25942 18.8663C4.33698 19.3873 4.76167 19.7872 5.2864 19.8333L6.42085 19.9329C7.36691 20.016 8.31513 20.0661 9.26381 20.0831C9.40274 20.0856 9.5301 20.1597 9.60517 20.2766C9.82391 20.6174 10.0714 20.9379 10.3442 21.2348C10.4655 21.3668 10.3771 21.5885 10.1979 21.5893C8.89395 21.5954 7.58982 21.5413 6.28964 21.4272L5.15519 21.3275C3.93943 21.2208 2.95546 20.2943 2.77577 19.0872C2.42175 16.7089 2.42175 14.2913 2.77577 11.913C2.95546 10.7059 3.93943 9.77943 5.15519 9.67267L5.62554 9.63137ZM9.62621 2.79926C9.8746 2.77004 10.1256 2.77004 10.3739 2.79926C11.8526 2.97322 13.0158 4.14402 13.1802 5.62373L13.203 5.82863C13.2312 6.08252 13.2312 6.33874 13.203 6.59263L12.8791 9.50827C10.962 9.37784 9.0382 9.37784 7.12109 9.50827L6.79714 6.59263C6.76893 6.33875 6.76893 6.08252 6.79714 5.82863L6.8199 5.62373C6.98431 4.14402 8.14759 2.97322 9.62621 2.79926Z" fill="#6C6D6D"/>
<path d="M16.2501 15.0001C16.2501 14.5859 15.9143 14.2501 15.5001 14.2501C15.0859 14.2501 14.7501 14.5859 14.7501 15.0001V16.7728C14.7501 17.0128 14.8649 17.2382 15.0589 17.3794L16.0589 18.1067C16.3939 18.3503 16.863 18.2762 17.1066 17.9412C17.3503 17.6062 17.2762 17.1372 16.9412 16.8936L16.2501 16.3909V15.0001Z" fill="#6C6D6D"/>
<path fill-rule="evenodd" clip-rule="evenodd" d="M15.5001 22.0001C18.5376 22.0001 21.0001 19.5377 21.0001 16.5001C21.0001 13.4625 18.5376 11.0001 15.5001 11.0001C12.4625 11.0001 10.0001 13.4625 10.0001 16.5001C10.0001 19.5377 12.4625 22.0001 15.5001 22.0001ZM15.5001 20.5001C17.7092 20.5001 19.5001 18.7092 19.5001 16.5001C19.5001 14.291 17.7092 12.5001 15.5001 12.5001C13.2909 12.5001 11.5001 14.291 11.5001 16.5001C11.5001 18.7092 13.2909 20.5001 15.5001 20.5001Z" fill="#6C6D6D"/>
</svg>
