<svg width="24" height="24" viewBox="0 0 24 24" fill="none" xmlns="http://www.w3.org/2000/svg">
<path d="M10.5001 16.0001C10.5001 15.1717 11.1716 14.5001 12.0001 14.5001C12.8285 14.5001 13.5001 15.1717 13.5001 16.0001C13.5001 16.8285 12.8285 17.5001 12.0001 17.5001C11.1716 17.5001 10.5001 16.8285 10.5001 16.0001Z" fill="#6C6D6D"/>
<path fill-rule="evenodd" clip-rule="evenodd" d="M7.62171 10.5973L7.30627 7.75828C7.26583 7.3943 7.26583 7.02696 7.30627 6.66298L7.32904 6.45809C7.57053 4.2847 9.27913 2.56504 11.4509 2.30953C11.8157 2.26661 12.1843 2.26661 12.5492 2.30953C14.7209 2.56504 16.4295 4.2847 16.671 6.45809L16.6938 6.66298C16.7342 7.02696 16.7342 7.3943 16.6938 7.75828L16.3784 10.5972L17.065 10.6521C18.1477 10.7385 19.0318 11.5524 19.2073 12.6243C19.5734 14.8599 19.5734 17.1403 19.2073 19.3759C19.0318 20.4478 18.1477 21.2617 17.065 21.3482L15.5688 21.4676C13.1935 21.6572 10.8067 21.6572 8.43134 21.4676L6.93521 21.3482C5.85249 21.2617 4.96838 20.4478 4.79286 19.3759C4.42679 17.1403 4.42679 14.8599 4.79286 12.6243C4.96838 11.5524 5.85248 10.7385 6.93521 10.6521L7.62171 10.5973ZM11.6262 3.79926C11.8746 3.77004 12.1255 3.77004 12.3739 3.79926C13.8525 3.97322 15.0158 5.14402 15.1802 6.62373L15.203 6.82863C15.2312 7.08252 15.2312 7.33874 15.203 7.59263L14.8818 10.4831C12.9626 10.3595 11.0375 10.3595 9.11826 10.4831L8.7971 7.59263C8.76889 7.33875 8.76889 7.08252 8.7971 6.82863L8.81986 6.62373C8.98428 5.14402 10.1475 3.97322 11.6262 3.79926ZM15.4495 12.0279C13.1535 11.8446 10.8466 11.8446 8.55071 12.0279L7.05458 12.1473C6.65965 12.1788 6.33717 12.4757 6.27315 12.8667C5.93336 14.9418 5.93336 17.0584 6.27315 19.1335C6.33717 19.5245 6.65965 19.8214 7.05458 19.8529L8.55071 19.9723C10.8466 20.1556 13.1535 20.1556 15.4495 19.9723L16.9456 19.8529C17.3405 19.8214 17.663 19.5245 17.727 19.1335C18.0668 17.0584 18.0668 14.9418 17.727 12.8667C17.663 12.4757 17.3405 12.1788 16.9456 12.1473L15.4495 12.0279Z" fill="#6C6D6D"/>
</svg>
