<svg width="24" height="24" viewBox="0 0 24 24" fill="none" xmlns="http://www.w3.org/2000/svg">
<path d="M6.4288 2.41309C6.70116 2.10101 6.66896 1.62723 6.35689 1.35487C6.04481 1.08251 5.57103 1.1147 5.29867 1.42678L4.00686 2.90695C3.2741 3.74655 2.85987 4.81707 2.83663 5.93122L2.77995 8.64888C2.77131 9.063 3.10003 9.40572 3.51415 9.41436C3.92827 9.42299 4.27099 9.09428 4.27963 8.68016L4.3363 5.9625C4.3522 5.20018 4.63562 4.46773 5.13699 3.89326L6.4288 2.41309Z" fill="#6C6D6D"/>
<path fill-rule="evenodd" clip-rule="evenodd" d="M6.237 7.70087C6.3759 5.48013 8.21749 3.75012 10.4426 3.75012H11V3.00012C11 2.44784 11.4477 2.00012 12 2.00012C12.5523 2.00012 13 2.44784 13 3.00012V3.75012H13.5574C15.7825 3.75012 17.6241 5.48013 17.763 7.70087L17.984 11.2343C18.0682 12.5815 18.5205 13.8798 19.2916 14.9877C19.9882 15.9888 19.368 17.3713 18.1571 17.5166L14.75 17.9255V19.0001C14.75 20.5189 13.5188 21.7501 12 21.7501C10.4812 21.7501 9.24998 20.5189 9.24998 19.0001V17.9255L5.84285 17.5166C4.63192 17.3713 4.0117 15.9888 4.70839 14.9877C5.47945 13.8798 5.93173 12.5815 6.016 11.2343L6.237 7.70087ZM10.4426 5.25012C9.00956 5.25012 7.82353 6.36429 7.73407 7.7945L7.51307 11.328C7.41168 12.9491 6.86742 14.5113 5.93957 15.8445C5.88922 15.9169 5.93405 16.0168 6.02157 16.0273L9.75923 16.4759C11.2477 16.6545 12.7522 16.6545 14.2407 16.4759L17.9784 16.0273C18.0659 16.0168 18.1107 15.9169 18.0604 15.8445C17.1325 14.5113 16.5883 12.9491 16.4869 11.328L16.2659 7.7945C16.1764 6.36429 14.9904 5.25012 13.5574 5.25012H10.4426ZM12 20.2501C11.3096 20.2501 10.75 19.6905 10.75 19.0001V18.2501H13.25V19.0001C13.25 19.6905 12.6903 20.2501 12 20.2501Z" fill="#6C6D6D"/>
<path d="M17.6431 1.35487C17.331 1.62723 17.2988 2.10101 17.5712 2.41309L18.863 3.89326C19.3643 4.46773 19.6478 5.20018 19.6637 5.9625L19.7203 8.68016C19.729 9.09428 20.0717 9.42299 20.4858 9.41436C20.8999 9.40572 21.2287 9.063 21.22 8.64888L21.1633 5.93122C21.1401 4.81707 20.7259 3.74655 19.9931 2.90695L18.7013 1.42678C18.4289 1.1147 17.9552 1.08251 17.6431 1.35487Z" fill="#6C6D6D"/>
</svg>
