<svg width="24" height="24" viewBox="0 0 24 24" fill="none" xmlns="http://www.w3.org/2000/svg">
<path fill-rule="evenodd" clip-rule="evenodd" d="M10.4188 4.23047C11.0599 3.12556 12.75 3.5804 12.75 4.85783V16.5385C12.75 17.5593 12.1845 18.4962 11.2812 18.9718L8.00554 20.6965C6.70853 21.3795 5.1969 20.2607 5.4711 18.8207L6.17108 15.1447C6.25628 14.6973 6.09136 14.2389 5.74062 13.9484L3.24172 11.878C2.07743 10.9134 2.60184 9.02588 4.09683 8.80008L7.52648 8.28207C7.90154 8.22542 8.23059 8.00153 8.42097 7.67345L10.4188 4.23047ZM11.25 5.78679L9.71837 8.42627C9.29955 9.14806 8.57564 9.64062 7.7505 9.76525L4.32085 10.2833C4.10728 10.3155 4.03236 10.5852 4.19869 10.723L6.69759 12.7933C7.46922 13.4326 7.83205 14.441 7.6446 15.4253L6.94462 19.1013C6.90545 19.307 7.1214 19.4668 7.30669 19.3693L10.5823 17.6445C10.9929 17.4283 11.25 17.0025 11.25 16.5385V5.78679Z" fill="#6C6D6D"/>
</svg>
