<svg width="24" height="24" viewBox="0 0 24 24" fill="none" xmlns="http://www.w3.org/2000/svg">
<path d="M10.5001 16.0001C10.5001 15.1717 11.1717 14.5001 12.0001 14.5001C12.8285 14.5001 13.5001 15.1717 13.5001 16.0001C13.5001 16.8285 12.8285 17.5001 12.0001 17.5001C11.1717 17.5001 10.5001 16.8285 10.5001 16.0001Z" fill="#6C6D6D"/>
<path fill-rule="evenodd" clip-rule="evenodd" d="M9.81058 4.00509C10.0429 3.91258 10.2853 3.84763 10.5328 3.81157C12.0061 3.5969 13.4328 4.42673 13.9745 5.81347L14.0496 6.00549C14.1425 6.24343 14.2088 6.49092 14.2473 6.74346L14.4639 8.16577L15.9468 7.93992L15.7302 6.51761C15.6751 6.15557 15.58 5.80075 15.4467 5.45964L15.3717 5.26761C14.5759 3.23078 12.4805 2.01194 10.3165 2.32724C9.95304 2.38021 9.59701 2.47561 9.25572 2.61149C7.22407 3.42038 6.01876 5.52367 6.34802 7.6855L6.37906 7.88931C6.4342 8.25135 6.52927 8.60617 6.66254 8.94728L7.31669 10.6216L6.93521 10.6521C5.85248 10.7385 4.96838 11.5524 4.79286 12.6243C4.42679 14.86 4.42679 17.1403 4.79286 19.3759C4.96838 20.4478 5.85249 21.2617 6.93521 21.3482L8.43134 21.4676C10.8067 21.6572 13.1935 21.6572 15.5688 21.4676L17.065 21.3482C18.1477 21.2617 19.0318 20.4478 19.2073 19.3759C19.5734 17.1403 19.5734 14.86 19.2073 12.6243C19.0318 11.5524 18.1477 10.7385 17.065 10.6521L15.5688 10.5326C13.3427 10.3549 11.1066 10.3437 8.87925 10.4991L8.0597 8.40142C7.96674 8.16349 7.90042 7.91599 7.86196 7.66346L7.83092 7.45965C7.60675 5.9878 8.42736 4.55582 9.81058 4.00509ZM15.4495 12.0279C13.1535 11.8446 10.8466 11.8446 8.55071 12.0279L7.05458 12.1473C6.65965 12.1788 6.33717 12.4757 6.27315 12.8667C5.93336 14.9418 5.93336 17.0584 6.27315 19.1335C6.33717 19.5245 6.65965 19.8214 7.05458 19.8529L8.55071 19.9724C10.8466 20.1556 13.1535 20.1556 15.4495 19.9724L16.9456 19.8529C17.3405 19.8214 17.663 19.5245 17.727 19.1335C18.0668 17.0584 18.0668 14.9418 17.727 12.8667C17.663 12.4757 17.3405 12.1788 16.9456 12.1473L15.4495 12.0279Z" fill="#6C6D6D"/>
</svg>
