<svg width="24" height="24" viewBox="0 0 24 24" fill="none" xmlns="http://www.w3.org/2000/svg">
<path fill-rule="evenodd" clip-rule="evenodd" d="M7.24997 5.46126V6.88185L5.55604 7.01858C4.35836 7.11526 3.38139 8.01703 3.1893 9.20316C3.14756 9.46094 3.10959 9.71917 3.07541 9.97778C3.05845 10.1061 3.12688 10.2303 3.24388 10.2857L3.32093 10.3222C8.74964 12.8927 15.2503 12.8927 20.679 10.3222L20.756 10.2857C20.873 10.2303 20.9415 10.1061 20.9245 9.97779C20.8903 9.71918 20.8524 9.46094 20.8106 9.20316C20.6185 8.01703 19.6416 7.11526 18.4439 7.01858L16.75 6.88185V5.46126C16.75 4.59501 16.1162 3.85912 15.2596 3.73062L14.0397 3.54763C12.6874 3.3448 11.3125 3.3448 9.96029 3.54763L8.74037 3.73062C7.88371 3.85912 7.24997 4.59501 7.24997 5.46126ZM13.8171 5.03104C12.6124 4.85033 11.3875 4.85033 10.1828 5.03104L8.96288 5.21402C8.8405 5.23238 8.74997 5.33751 8.74997 5.46126V6.77627C10.9149 6.65225 13.0851 6.65225 15.25 6.77627V5.46126C15.25 5.33751 15.1594 5.23238 15.0371 5.21402L13.8171 5.03104Z" fill="#6C6D6D"/>
<path d="M21.1183 12.0709C21.1108 11.9308 20.9641 11.8433 20.8358 11.9001C15.2649 14.3667 8.73501 14.3667 3.16409 11.9001C3.03579 11.8433 2.88911 11.9308 2.88165 12.0709C2.77987 13.9824 2.88243 15.902 3.1893 17.797C3.38139 18.9831 4.35836 19.8849 5.55604 19.9815L7.42796 20.1326C10.471 20.3783 13.5289 20.3783 16.572 20.1326L18.4439 19.9815C19.6416 19.8849 20.6185 18.9831 20.8106 17.797C21.1175 15.902 21.2201 13.9824 21.1183 12.0709Z" fill="#6C6D6D"/>
</svg>
