<svg width="24" height="24" viewBox="0 0 24 24" fill="none" xmlns="http://www.w3.org/2000/svg">
<path d="M12.5115 2.63419C12.1782 2.53177 11.8219 2.53177 11.4886 2.63419L8.50285 3.55186C6.9685 4.02345 5.51132 4.71679 4.17753 5.60989C3.32969 6.1776 3.73157 7.50009 4.75193 7.50009H19.2481C20.2685 7.50009 20.6703 6.1776 19.8225 5.60989C18.4887 4.71679 17.0315 4.02345 15.4972 3.55186L12.5115 2.63419Z" fill="#6C6D6D"/>
<path d="M4.25 21.0001C4.25 20.5859 4.58579 20.2501 5 20.2501H19C19.4142 20.2501 19.75 20.5859 19.75 21.0001C19.75 21.4143 19.4142 21.7501 19 21.7501H5C4.58579 21.7501 4.25 21.4143 4.25 21.0001Z" fill="#6C6D6D"/>
<path d="M6.25 17.0001C6.25 17.4143 6.58579 17.7501 7 17.7501C7.41421 17.7501 7.75 17.4143 7.75 17.0001L7.75 11.0001C7.75 10.5859 7.41421 10.2501 7 10.2501C6.58579 10.2501 6.25 10.5859 6.25 11.0001L6.25 17.0001Z" fill="#6C6D6D"/>
<path d="M12 17.7501C11.5858 17.7501 11.25 17.4143 11.25 17.0001L11.25 11.0001C11.25 10.5859 11.5858 10.2501 12 10.2501C12.4142 10.2501 12.75 10.5859 12.75 11.0001V17.0001C12.75 17.4143 12.4142 17.7501 12 17.7501Z" fill="#6C6D6D"/>
<path d="M16.25 17.0001C16.25 17.4143 16.5858 17.7501 17 17.7501C17.4142 17.7501 17.75 17.4143 17.75 17.0001V11.0001C17.75 10.5859 17.4142 10.2501 17 10.2501C16.5858 10.2501 16.25 10.5859 16.25 11.0001V17.0001Z" fill="#6C6D6D"/>
</svg>
