<svg width="24" height="24" viewBox="0 0 24 24" fill="none" xmlns="http://www.w3.org/2000/svg">
<path fill-rule="evenodd" clip-rule="evenodd" d="M19.1841 4.66606L12 4.49976L4.81592 4.66606C3.36417 4.69556 2.13342 5.74209 1.87094 7.17022C1.28407 10.3633 1.28407 13.6366 1.87094 16.8297C2.13342 18.2578 3.36416 19.3044 4.81592 19.3339L12 19.5002L19.1841 19.3339C20.6359 19.3044 21.8666 18.2578 22.1291 16.8297C22.716 13.6366 22.716 10.3633 22.1291 7.17022C21.8666 5.74209 20.6359 4.69556 19.1841 4.66606ZM21 10.9999C21 11.5522 20.5523 11.9999 20 11.9999H4C3.44772 11.9999 3 11.5522 3 10.9999C3 10.4477 3.44772 9.99994 4 9.99994H20C20.5523 9.99994 21 10.4477 21 10.9999Z" fill="#6C6D6D"/>
</svg>
