<svg width="24" height="24" viewBox="0 0 24 24" fill="none" xmlns="http://www.w3.org/2000/svg">
<path fill-rule="evenodd" clip-rule="evenodd" d="M7.25003 5.46126V6.94976C6.88848 6.97713 6.5271 7.00764 6.16594 7.04128C4.72505 7.17548 3.60132 8.51218 3.46196 9.95051C3.44598 10.1154 3.5817 10.2501 3.74739 10.2501H20.2527C20.4183 10.2501 20.5541 10.1154 20.5381 9.95051C20.3987 8.51218 19.275 7.17548 17.8341 7.04128C17.4729 7.00764 17.1116 6.97713 16.75 6.94976V5.46126C16.75 4.59501 16.1163 3.85912 15.2596 3.73062L14.0397 3.54763C12.6875 3.3448 11.3126 3.3448 9.96035 3.54763L8.74043 3.73062C7.88378 3.85912 7.25003 4.59501 7.25003 5.46126ZM13.8172 5.03104C12.6125 4.85033 11.3876 4.85033 10.1829 5.03104L8.96295 5.21402C8.84056 5.23238 8.75003 5.33751 8.75003 5.46126V6.85418C10.9152 6.74218 13.0848 6.74218 15.25 6.85418V5.46126C15.25 5.33751 15.1595 5.23238 15.0371 5.21402L13.8172 5.03104Z" fill="#6C6D6D"/>
<path fill-rule="evenodd" clip-rule="evenodd" d="M20.5527 12.0501C20.5527 11.8844 20.4183 11.7501 20.2527 11.7501H3.74739C3.5817 11.7501 3.44739 11.8844 3.44739 12.0501V17.9754C3.44739 19.5226 4.62538 20.8154 6.16594 20.9589C10.0469 21.3203 13.9531 21.3203 17.8341 20.9589C19.3747 20.8154 20.5527 19.5226 20.5527 17.9754V12.0501ZM9.50003 15.2501C9.08582 15.2501 8.75003 15.5859 8.75003 16.0001C8.75003 16.4143 9.08582 16.7501 9.50003 16.7501H11.25V18.5001C11.25 18.9143 11.5858 19.2501 12 19.2501C12.4142 19.2501 12.75 18.9143 12.75 18.5001V16.7501H14.5C14.9142 16.7501 15.25 16.4143 15.25 16.0001C15.25 15.5859 14.9142 15.2501 14.5 15.2501H12.75V13.5001C12.75 13.0859 12.4142 12.7501 12 12.7501C11.5858 12.7501 11.25 13.0859 11.25 13.5001V15.2501H9.50003Z" fill="#6C6D6D"/>
</svg>
