<svg width="24" height="24" viewBox="0 0 24 24" fill="none" xmlns="http://www.w3.org/2000/svg">
<path d="M18.955 3.10577C19.2479 2.81288 19.2479 2.338 18.955 2.04511C18.6621 1.75222 18.1872 1.75222 17.8944 2.04511L17.1872 2.75222C16.6918 3.24765 16.7171 4.01752 17.1494 4.49983C20.0519 7.73859 19.9466 12.7208 16.8337 15.8337C15.2237 17.4437 13.1136 18.2492 11.0033 18.2501L11.0001 18.2501L10.997 18.2501C9.02928 18.2494 7.0618 17.5492 5.49984 16.1494C5.01752 15.7171 4.24765 15.6918 3.75222 16.1872L3.04511 16.8944C2.75222 17.1872 2.75222 17.6621 3.04511 17.955C3.338 18.2479 3.81288 18.2479 4.10577 17.955L4.65622 17.4046C6.276 18.7952 8.24379 19.5674 10.2501 19.7213V21.2501H8.50006C8.08585 21.2501 7.75006 21.5858 7.75006 22.0001C7.75006 22.4143 8.08585 22.7501 8.50006 22.7501H13.5001C13.9143 22.7501 14.2501 22.4143 14.2501 22.0001C14.2501 21.5858 13.9143 21.2501 13.5001 21.2501H11.7501V19.7214C13.9897 19.5496 16.1814 18.6073 17.8944 16.8944C21.5235 13.2652 21.6936 7.4873 18.4046 3.65622L18.955 3.10577Z" fill="#6C6D6D"/>
<path fill-rule="evenodd" clip-rule="evenodd" d="M4.50006 10.0001C4.50006 6.41021 7.41021 3.50006 11.0001 3.50006C14.5899 3.50006 17.5001 6.41021 17.5001 10.0001C17.5001 13.5899 14.5899 16.5001 11.0001 16.5001C7.41021 16.5001 4.50006 13.5899 4.50006 10.0001ZM13.0001 6.25006C11.4813 6.25006 10.2501 7.48128 10.2501 9.00006C10.2501 10.5188 11.4813 11.7501 13.0001 11.7501C14.5188 11.7501 15.7501 10.5188 15.7501 9.00006C15.7501 7.48128 14.5188 6.25006 13.0001 6.25006ZM6.25006 12.5001C6.25006 11.8097 6.80971 11.2501 7.50006 11.2501C8.19042 11.2501 8.75006 11.8097 8.75006 12.5001C8.75006 13.1904 8.19042 13.7501 7.50006 13.7501C6.80971 13.7501 6.25006 13.1904 6.25006 12.5001Z" fill="#6C6D6D"/>
</svg>
