<svg width="24" height="24" viewBox="0 0 24 24" fill="none" xmlns="http://www.w3.org/2000/svg">
<path d="M9.99994 9.00008C9.99994 7.89551 10.8954 7.00008 11.9999 7.00008C13.1045 7.00008 13.9999 7.89551 13.9999 9.00008C13.9999 10.1047 13.1045 11.0001 11.9999 11.0001C10.8954 11.0001 9.99994 10.1047 9.99994 9.00008Z" fill="#6C6D6D"/>
<path d="M10.9999 12.5001C9.34308 12.5001 7.99994 13.8432 7.99994 15.5001C7.99994 16.0524 8.44765 16.5001 8.99994 16.5001H14.9999C15.5522 16.5001 15.9999 16.0524 15.9999 15.5001C15.9999 13.8432 14.6568 12.5001 12.9999 12.5001H10.9999Z" fill="#6C6D6D"/>
<path fill-rule="evenodd" clip-rule="evenodd" d="M7.54347 2.88277C10.4993 2.45802 13.5006 2.45802 16.4564 2.88277C17.9219 3.09335 19.051 4.28274 19.1851 5.7572L19.3121 7.15293C19.6055 10.3777 19.6055 13.6225 19.3121 16.8472L19.1851 18.243C19.051 19.7174 17.9219 20.9068 16.4564 21.1174C13.5006 21.5421 10.4993 21.5421 7.54347 21.1174C6.07798 20.9068 4.94888 19.7174 4.81475 18.243L4.68779 16.8472C4.39444 13.6225 4.39444 10.3777 4.68779 7.15293L4.81475 5.7572C4.94888 4.28274 6.07798 3.09335 7.54347 2.88277ZM16.2431 4.36751C13.4288 3.96311 10.5711 3.96311 7.75682 4.36751C6.97903 4.47928 6.37977 5.11054 6.30859 5.89309L6.18162 7.28882C5.89649 10.4232 5.89649 13.577 6.18162 16.7113L6.30859 18.1071C6.37977 18.8896 6.97903 19.5209 7.75682 19.6327C10.5711 20.0371 13.4288 20.0371 16.2431 19.6327C17.0209 19.5209 17.6201 18.8896 17.6913 18.1071L17.8183 16.7113C18.1034 13.577 18.1034 10.4232 17.8183 7.28882L17.6913 5.89309C17.6201 5.11054 17.0209 4.47928 16.2431 4.36751Z" fill="#6C6D6D"/>
</svg>
