<svg width="24" height="24" viewBox="0 0 24 24" fill="none" xmlns="http://www.w3.org/2000/svg">
<path fill-rule="evenodd" clip-rule="evenodd" d="M13.2977 18.7499C13.4639 18.7499 13.6174 18.6608 13.6997 18.5163L17.0456 12.6431C17.4892 11.8646 17.6753 10.9657 17.5774 10.0751L17.2243 6.86142C17.1615 6.28964 16.7126 5.83673 16.1414 5.76878L14.0243 5.51694C12.6268 5.35069 11.2097 5.4948 9.87426 5.939C9.21472 6.15837 8.68645 6.65896 8.43194 7.30575L6.72785 11.6363C6.68619 11.7422 6.6574 11.8527 6.64209 11.9654C6.51285 12.9175 7.34632 13.7207 8.29299 13.5563L11.7088 12.963C12.7878 12.7756 13.7197 13.7278 13.5091 14.8025L12.8437 18.1984C12.7877 18.4841 13.0065 18.7499 13.2977 18.7499ZM15.003 19.2588C14.6539 19.8716 14.0029 20.2499 13.2977 20.2499C12.0623 20.25 11.1342 19.1223 11.3717 17.9099L12.0371 14.5141C12.04 14.4995 12.0384 14.4906 12.0364 14.4843C12.034 14.4764 12.0289 14.4672 12.0205 14.4586C12.0122 14.4501 12.0031 14.4448 11.9953 14.4422C11.9889 14.4401 11.9801 14.4383 11.9655 14.4409L8.54967 15.0342C6.60349 15.3722 4.89002 13.721 5.15572 11.7637C5.18719 11.5319 5.24638 11.3047 5.33203 11.0871L7.03612 6.75649C7.4534 5.69606 8.31951 4.87532 9.40084 4.51566C10.9457 4.00183 12.5849 3.83513 14.2015 4.02744L16.3186 4.27928C17.5828 4.42967 18.5763 5.43207 18.7153 6.69757L19.0685 9.91125C19.2009 11.1163 18.9491 12.3323 18.349 13.3856L15.003 19.2588Z" fill="#6C6D6D"/>
</svg>
