<svg width="24" height="24" viewBox="0 0 24 24" fill="none" xmlns="http://www.w3.org/2000/svg">
<path fill-rule="evenodd" clip-rule="evenodd" d="M19.8066 5.37072C20.4739 5.85234 20.9451 6.59094 21.0742 7.44945C21.1195 7.7503 21.1602 8.05166 21.1964 8.35342C21.4766 10.9563 21.4641 13.9581 21.0742 16.5505C20.8585 17.9849 19.6879 19.0845 18.2428 19.2101L16.7326 19.3414C13.5835 19.6151 10.4167 19.6151 7.26762 19.3414L5.75739 19.2101C4.31232 19.0845 3.14165 17.9849 2.92595 16.5505C2.53613 13.9581 2.52364 10.9562 2.80379 8.35326C2.84 8.05155 2.88072 7.75025 2.92595 7.44945C3.05487 6.59213 3.52495 5.85438 4.19086 5.37272L4.19009 5.36599L4.23735 5.33973C4.40986 5.21966 4.59494 5.11653 4.79017 5.03261L9.20612 2.57931C10.9427 1.61451 13.0544 1.61451 14.791 2.57931L19.1968 5.02695C19.4014 5.11377 19.5949 5.22167 19.7747 5.34802L19.8071 5.36602L19.8066 5.37072ZM18.9656 6.61448L14.0625 3.89054C12.779 3.17744 11.2182 3.17744 9.93458 3.89054L5.04292 6.60814C4.70944 6.85975 4.47484 7.23651 4.40928 7.67251C4.39758 7.75028 4.3862 7.82808 4.37514 7.90592L9.93608 10.9953C11.2197 11.7084 12.7805 11.7084 14.064 10.9953L19.6251 7.90589C19.614 7.82806 19.6026 7.75027 19.5909 7.67251C19.5259 7.24016 19.2947 6.86606 18.9656 6.61448ZM19.7056 15.4805C19.944 13.5015 19.9783 11.5042 19.8086 9.51987L14.7925 12.3066C13.0559 13.2714 10.9442 13.2714 9.20761 12.3066L4.19159 9.5199C4.02187 11.5042 4.05621 13.5015 4.29461 15.4805C4.32867 15.7632 4.36689 16.0456 4.40927 16.3274C4.43327 16.487 4.47991 16.6386 4.54575 16.7791C4.78885 17.2977 5.29373 17.6642 5.88729 17.7158L7.39753 17.847C10.4601 18.1133 13.5401 18.1133 16.6027 17.8471L18.1129 17.7158C18.5844 17.6748 18.9999 17.4352 19.2727 17.0785C19.4364 16.8644 19.5487 16.6082 19.5909 16.3274C19.6333 16.0456 19.6715 15.7632 19.7056 15.4805Z" fill="#6C6D6D"/>
</svg>
