<svg width="24" height="24" viewBox="0 0 24 24" fill="none" xmlns="http://www.w3.org/2000/svg">
<path fill-rule="evenodd" clip-rule="evenodd" d="M4.47645 10.481C6.4185 14.7108 9.87386 18.0738 14.1699 19.8974L14.9276 20.235C16.5487 20.9572 18.454 20.4443 19.4934 19.0058L20.7678 17.242C21.3126 16.4879 21.1722 15.4393 20.4481 14.8551L18.2234 13.0603C17.4492 12.4358 16.3108 12.5812 15.7185 13.3804L15.2224 14.0499C13.028 12.919 11.2356 11.1266 10.1047 8.93221L10.7742 8.43605C11.5734 7.84381 11.7188 6.70542 11.0943 5.93125L9.29923 3.7062C8.71523 2.98231 7.667 2.8417 6.91288 3.38611L5.13959 4.66627C3.69161 5.71158 3.18168 7.63299 3.92078 9.25874L4.47528 10.4785L4.47645 10.481ZM14.7618 18.5191C10.808 16.8425 7.62754 13.7483 5.84023 9.85641L5.83963 9.85511L5.28629 8.63795C4.84283 7.6625 5.14879 6.50966 6.01758 5.88247L7.79087 4.60231C7.8986 4.52454 8.04835 4.54462 8.13178 4.64804L9.92682 6.87308C10.016 6.98368 9.99526 7.14631 9.88109 7.23091L8.71272 8.09677C8.42896 8.30705 8.33037 8.68681 8.47598 9.00857C9.81391 11.965 12.1896 14.3407 15.146 15.6786C15.4678 15.8242 15.8475 15.7256 16.0578 15.4419L16.9237 14.2735C17.0083 14.1593 17.1709 14.1385 17.2815 14.2278L19.5063 16.0226C19.6097 16.106 19.6298 16.2558 19.5519 16.3636L18.2776 18.1273C17.6539 18.9904 16.5107 19.2982 15.5381 18.8648L14.7743 18.5244L14.7618 18.5191Z" fill="#6C6D6D"/>
<path d="M13.75 9.00003C13.75 9.19894 13.829 9.38971 13.9696 9.53036C14.1103 9.67101 14.301 9.75003 14.5 9.75003H18.3284C18.7426 9.75003 19.0784 9.41424 19.0784 9.00003C19.0784 8.58582 18.7426 8.25003 18.3284 8.25003H16.3106L19.4696 5.09102C19.7625 4.79813 19.7625 4.32325 19.4696 4.03036C19.1767 3.73747 18.7019 3.73747 18.409 4.03036L15.25 7.18937V5.1716C15.25 4.75739 14.9142 4.4216 14.5 4.4216C14.0857 4.4216 13.75 4.75739 13.75 5.1716V9.00003Z" fill="#6C6D6D"/>
</svg>
