<svg width="24" height="24" viewBox="0 0 24 24" fill="none" xmlns="http://www.w3.org/2000/svg">
<path fill-rule="evenodd" clip-rule="evenodd" d="M6.66426 4.41431C6.66426 4.00009 7.00005 3.66431 7.41426 3.66431H10.2427C10.6569 3.66431 10.9927 4.00009 10.9927 4.41431C10.9927 4.82852 10.6569 5.16431 10.2427 5.16431H9.22492L11.8233 7.76266C11.9209 7.86029 12.0792 7.86029 12.1768 7.76266L16.0555 3.88398C16.3484 3.59108 16.8233 3.59108 17.1162 3.88398C17.4091 4.17687 17.4091 4.65174 17.1162 4.94464L13.2375 8.82332C12.5541 9.50673 11.446 9.50673 10.7626 8.82332L8.16426 6.22497V7.24273C8.16426 7.65695 7.82847 7.99273 7.41426 7.99273C7.00005 7.99273 6.66426 7.65695 6.66426 7.24273V4.41431Z" fill="#6C6D6D"/>
<path fill-rule="evenodd" clip-rule="evenodd" d="M17.9719 13.5722C13.9561 12.0841 9.51923 12.1451 5.53797 13.7553L5.5254 13.7604L4.74456 14.0598C3.75039 14.4411 3.15964 15.4671 3.32897 16.5184L3.67501 18.6666C3.69615 18.7978 3.81627 18.8896 3.94842 18.8755L6.79066 18.5714C6.93195 18.5563 7.03225 18.4266 7.01135 18.2861L6.79744 16.8476C6.74549 16.4983 6.94429 16.1601 7.27478 16.0355C10.3113 14.8911 13.6711 14.8911 16.7076 16.0355C17.0381 16.1601 17.2369 16.4983 17.185 16.8477L16.9711 18.2861C16.9502 18.4266 17.0505 18.5563 17.1918 18.5714L20.0344 18.8755C20.1665 18.8896 20.2866 18.7979 20.3078 18.6668L20.6565 16.5076C20.8273 15.4498 20.2285 14.4183 19.2252 14.0421L17.9732 13.5727L17.9719 13.5722ZM4.98191 12.3622C9.30913 10.6139 14.1305 10.5486 18.4946 12.1663L18.4972 12.1672L19.7518 12.6376C21.424 13.2646 22.422 14.9838 22.1373 16.7468L21.7886 18.9059C21.6403 19.8241 20.7997 20.4659 19.8749 20.367L17.0322 20.0629C16.0432 19.9571 15.3411 19.0493 15.4874 18.0654L15.61 17.2412C13.2586 16.4892 10.7238 16.4892 8.37246 17.2412L8.49504 18.0654C8.64135 19.0493 7.93924 19.9571 6.9502 20.0629L4.10796 20.3669C3.18286 20.4659 2.34206 19.8237 2.1941 18.9052L1.84806 16.7569C1.56584 15.0048 2.55042 13.2948 4.20738 12.6593L4.98191 12.3622Z" fill="#6C6D6D"/>
</svg>
