<svg width="24" height="24" viewBox="0 0 24 24" fill="none" xmlns="http://www.w3.org/2000/svg">
<path d="M19.8361 16.9064C20.2793 12.6469 20.2793 8.35292 19.8361 4.09343C19.6975 2.76112 18.1614 2.08623 17.0863 2.88535L12.9827 5.93576C11.6891 6.89732 10.1202 7.41658 8.5084 7.41658H4.6792C4.12691 7.41658 3.6792 7.86429 3.6792 8.41658V12.5832C3.6792 13.1355 4.12691 13.5832 4.6792 13.5832L8.50839 13.5832C10.1202 13.5832 11.6891 14.1025 12.9827 15.0641L17.0863 18.1145C18.1614 18.9136 19.6975 18.2387 19.8361 16.9064Z" fill="#6C6D6D"/>
<path d="M9.09262 15.8019C9.15006 15.5774 9.10055 15.339 8.95848 15.156C8.8164 14.973 8.59773 14.8659 8.36604 14.8659L6.36604 14.8659C6.08196 14.8659 5.82226 15.0264 5.69522 15.2805L4.69522 17.2805C4.52444 17.6221 4.63756 18.0374 4.95794 18.2452L7.09191 19.6292C7.29452 19.7606 7.548 19.7864 7.77293 19.6985C7.99786 19.6106 8.16672 19.4198 8.22659 19.1859L9.09262 15.8019Z" fill="#6C6D6D"/>
</svg>
