<svg width="24" height="24" viewBox="0 0 24 24" fill="none" xmlns="http://www.w3.org/2000/svg">
<path fill-rule="evenodd" clip-rule="evenodd" d="M16.4564 2.88277C13.5006 2.45802 10.4993 2.45802 7.54347 2.88277C6.07798 3.09335 4.94888 4.28274 4.81475 5.7572L4.68779 7.15293C4.39444 10.3777 4.39444 13.6225 4.68779 16.8472L4.81475 18.243C4.94888 19.7174 6.07798 20.9068 7.54347 21.1174C10.4993 21.5421 13.5006 21.5421 16.4564 21.1174C17.9219 20.9068 19.051 19.7174 19.1851 18.243L19.3121 16.8472C19.6055 13.6225 19.6055 10.3777 19.3121 7.15293L19.1851 5.7572C19.051 4.28274 17.9219 3.09335 16.4564 2.88277ZM9.99994 9.00009C9.99994 7.89552 10.8954 7.00009 11.9999 7.00009C13.1045 7.00009 13.9999 7.89552 13.9999 9.00009C13.9999 10.1047 13.1045 11.0001 11.9999 11.0001C10.8954 11.0001 9.99994 10.1047 9.99994 9.00009ZM7.99994 15.5001C7.99994 13.8432 9.34308 12.5001 10.9999 12.5001H12.9999C14.6568 12.5001 15.9999 13.8432 15.9999 15.5001C15.9999 16.0524 15.5522 16.5001 14.9999 16.5001H8.99994C8.44765 16.5001 7.99994 16.0524 7.99994 15.5001Z" fill="#6C6D6D"/>
</svg>
