<svg width="24" height="24" viewBox="0 0 24 24" fill="none" xmlns="http://www.w3.org/2000/svg">
<path d="M2.55394 16.0607C2.4578 16.2506 2.49237 16.4805 2.6401 16.6337C2.78782 16.7868 3.01632 16.8297 3.20954 16.7406L5.70888 15.587C7.80948 14.6175 10.1018 14.174 12.3902 14.2783C12.4174 15.0132 12.4577 15.7477 12.5112 16.4815L12.5797 17.4204C12.6212 17.9901 13.2564 18.3085 13.7376 18.001C15.8266 16.6662 17.6427 14.9462 19.089 12.9328L19.5492 12.2922C19.6744 12.1179 19.6744 11.8831 19.5492 11.7088L19.089 11.0681C17.6427 9.05474 15.8266 7.33479 13.7376 5.99997C13.2564 5.69243 12.6212 6.01087 12.5797 6.58051L12.5112 7.51948C12.4653 8.14933 12.4291 8.77972 12.4025 9.41041H11.7595C8.17848 9.41041 4.90176 11.4241 3.28406 14.6188L2.55394 16.0607Z" fill="#6C6D6D"/>
</svg>
