<svg width="24" height="24" viewBox="0 0 24 24" fill="none" xmlns="http://www.w3.org/2000/svg">
<path fill-rule="evenodd" clip-rule="evenodd" d="M6.06662 3.87384C5.36393 3.79531 4.63594 3.79531 3.93325 3.87384C3.9202 3.8753 3.90729 3.88121 3.89668 3.89167C3.88631 3.90189 3.88227 3.91222 3.88124 3.92098C3.7974 4.63786 3.7974 5.36206 3.88124 6.07893C3.88227 6.0877 3.88631 6.09802 3.89668 6.10824C3.90729 6.1187 3.9202 6.12461 3.93325 6.12607C4.63594 6.2046 5.36393 6.2046 6.06662 6.12607C6.07967 6.12461 6.09258 6.1187 6.10319 6.10824C6.11356 6.09802 6.1176 6.0877 6.11863 6.07893C6.20247 5.36206 6.20247 4.63786 6.11863 3.92098C6.1176 3.91222 6.11356 3.90189 6.10319 3.89167C6.09258 3.88121 6.07967 3.8753 6.06662 3.87384ZM3.76664 2.38312C4.58006 2.29221 5.41981 2.29221 6.23323 2.38312C6.94555 2.46274 7.52384 3.02317 7.60847 3.74673C7.70586 4.57938 7.70586 5.42053 7.60847 6.25318C7.52384 6.97674 6.94555 7.53717 6.23323 7.61679C5.41981 7.7077 4.58006 7.7077 3.76664 7.61679C3.05432 7.53717 2.47603 6.97674 2.3914 6.25318C2.29401 5.42053 2.29401 4.57938 2.3914 3.74673C2.47603 3.02317 3.05432 2.46274 3.76664 2.38312Z" fill="#6C6D6D"/>
<path fill-rule="evenodd" clip-rule="evenodd" d="M13.0666 3.87384C12.3639 3.79531 11.6359 3.79531 10.9333 3.87384C10.9202 3.8753 10.9073 3.88121 10.8967 3.89167C10.8863 3.90189 10.8823 3.91222 10.8812 3.92098C10.7974 4.63786 10.7974 5.36206 10.8812 6.07893C10.8823 6.0877 10.8863 6.09802 10.8967 6.10824C10.9073 6.1187 10.9202 6.12461 10.9333 6.12607C11.6359 6.2046 12.3639 6.2046 13.0666 6.12607C13.0797 6.12461 13.0926 6.1187 13.1032 6.10824C13.1136 6.09802 13.1176 6.0877 13.1186 6.07893C13.2025 5.36206 13.2025 4.63786 13.1186 3.92098C13.1176 3.91222 13.1136 3.90189 13.1032 3.89167C13.0926 3.88121 13.0797 3.8753 13.0666 3.87384ZM10.7666 2.38312C11.5801 2.29221 12.4198 2.29221 13.2332 2.38312C13.9456 2.46274 14.5238 3.02317 14.6085 3.74673C14.7059 4.57938 14.7059 5.42053 14.6085 6.25318C14.5238 6.97674 13.9456 7.53717 13.2332 7.61679C12.4198 7.7077 11.5801 7.7077 10.7666 7.61679C10.0543 7.53717 9.47603 6.97674 9.3914 6.25318C9.29401 5.42053 9.29401 4.57938 9.3914 3.74673C9.47603 3.02317 10.0543 2.46274 10.7666 2.38312Z" fill="#6C6D6D"/>
<path fill-rule="evenodd" clip-rule="evenodd" d="M20.0666 3.87384C19.3639 3.79531 18.6359 3.79531 17.9333 3.87384C17.9202 3.8753 17.9073 3.88121 17.8967 3.89167C17.8863 3.90189 17.8823 3.91222 17.8812 3.92098C17.7974 4.63786 17.7974 5.36206 17.8812 6.07893C17.8823 6.0877 17.8863 6.09802 17.8967 6.10824C17.9073 6.1187 17.9202 6.12461 17.9333 6.12607C18.6359 6.2046 19.3639 6.2046 20.0666 6.12607C20.0797 6.12461 20.0926 6.1187 20.1032 6.10824C20.1136 6.09802 20.1176 6.0877 20.1186 6.07893C20.2025 5.36206 20.2025 4.63786 20.1186 3.92098C20.1176 3.91222 20.1136 3.90189 20.1032 3.89167C20.0926 3.88121 20.0797 3.8753 20.0666 3.87384ZM17.7666 2.38312C18.5801 2.29221 19.4198 2.29221 20.2332 2.38312C20.9456 2.46274 21.5238 3.02317 21.6085 3.74673C21.7059 4.57938 21.7059 5.42053 21.6085 6.25318C21.5238 6.97674 20.9456 7.53717 20.2332 7.61679C19.4198 7.7077 18.5801 7.7077 17.7666 7.61679C17.0543 7.53717 16.476 6.97674 16.3914 6.25318C16.294 5.42053 16.294 4.57938 16.3914 3.74673C16.476 3.02317 17.0543 2.46274 17.7666 2.38312Z" fill="#6C6D6D"/>
<path fill-rule="evenodd" clip-rule="evenodd" d="M6.06662 10.8738C5.36393 10.7953 4.63594 10.7953 3.93325 10.8738C3.9202 10.8753 3.90729 10.8812 3.89668 10.8917C3.88631 10.9019 3.88227 10.9122 3.88124 10.921C3.7974 11.6379 3.7974 12.3621 3.88124 13.0789C3.88227 13.0877 3.88631 13.098 3.89668 13.1082C3.90729 13.1187 3.9202 13.1246 3.93325 13.1261C4.63594 13.2046 5.36393 13.2046 6.06662 13.1261C6.07967 13.1246 6.09258 13.1187 6.10319 13.1082C6.11356 13.098 6.1176 13.0877 6.11863 13.0789C6.20247 12.3621 6.20247 11.6379 6.11863 10.921C6.1176 10.9122 6.11356 10.9019 6.10319 10.8917C6.09258 10.8812 6.07967 10.8753 6.06662 10.8738ZM3.76664 9.38312C4.58006 9.29221 5.41981 9.29221 6.23323 9.38312C6.94555 9.46274 7.52384 10.0232 7.60847 10.7467C7.70586 11.5794 7.70586 12.4205 7.60847 13.2532C7.52384 13.9767 6.94555 14.5372 6.23323 14.6168C5.41981 14.7077 4.58006 14.7077 3.76664 14.6168C3.05432 14.5372 2.47603 13.9767 2.3914 13.2532C2.29401 12.4205 2.29401 11.5794 2.3914 10.7467C2.47603 10.0232 3.05432 9.46274 3.76664 9.38312Z" fill="#6C6D6D"/>
<path fill-rule="evenodd" clip-rule="evenodd" d="M13.0666 10.8738C12.3639 10.7953 11.6359 10.7953 10.9333 10.8738C10.9202 10.8753 10.9073 10.8812 10.8967 10.8917C10.8863 10.9019 10.8823 10.9122 10.8812 10.921C10.7974 11.6379 10.7974 12.3621 10.8812 13.0789C10.8823 13.0877 10.8863 13.098 10.8967 13.1082C10.9073 13.1187 10.9202 13.1246 10.9333 13.1261C11.6359 13.2046 12.3639 13.2046 13.0666 13.1261C13.0797 13.1246 13.0926 13.1187 13.1032 13.1082C13.1136 13.098 13.1176 13.0877 13.1186 13.0789C13.2025 12.3621 13.2025 11.6379 13.1186 10.921C13.1176 10.9122 13.1136 10.9019 13.1032 10.8917C13.0926 10.8812 13.0797 10.8753 13.0666 10.8738ZM10.7666 9.38312C11.5801 9.29221 12.4198 9.29221 13.2332 9.38312C13.9456 9.46274 14.5238 10.0232 14.6085 10.7467C14.7059 11.5794 14.7059 12.4205 14.6085 13.2532C14.5238 13.9767 13.9456 14.5372 13.2332 14.6168C12.4198 14.7077 11.5801 14.7077 10.7666 14.6168C10.0543 14.5372 9.47603 13.9767 9.3914 13.2532C9.29401 12.4205 9.29401 11.5794 9.3914 10.7467C9.47603 10.0232 10.0543 9.46274 10.7666 9.38312Z" fill="#6C6D6D"/>
<path fill-rule="evenodd" clip-rule="evenodd" d="M20.0666 10.8738C19.3639 10.7953 18.6359 10.7953 17.9333 10.8738C17.9202 10.8753 17.9073 10.8812 17.8967 10.8917C17.8863 10.9019 17.8823 10.9122 17.8812 10.921C17.7974 11.6379 17.7974 12.3621 17.8812 13.0789C17.8823 13.0877 17.8863 13.098 17.8967 13.1082C17.9073 13.1187 17.9202 13.1246 17.9333 13.1261C18.6359 13.2046 19.3639 13.2046 20.0666 13.1261C20.0797 13.1246 20.0926 13.1187 20.1032 13.1082C20.1136 13.098 20.1176 13.0877 20.1186 13.0789C20.2025 12.3621 20.2025 11.6379 20.1186 10.921C20.1176 10.9122 20.1136 10.9019 20.1032 10.8917C20.0926 10.8812 20.0797 10.8753 20.0666 10.8738ZM17.7666 9.38312C18.5801 9.29221 19.4198 9.29221 20.2332 9.38312C20.9456 9.46274 21.5238 10.0232 21.6085 10.7467C21.7059 11.5794 21.7059 12.4205 21.6085 13.2532C21.5238 13.9767 20.9456 14.5372 20.2332 14.6168C19.4198 14.7077 18.5801 14.7077 17.7666 14.6168C17.0543 14.5372 16.476 13.9767 16.3914 13.2532C16.294 12.4205 16.294 11.5794 16.3914 10.7467C16.476 10.0232 17.0543 9.46274 17.7666 9.38312Z" fill="#6C6D6D"/>
<path fill-rule="evenodd" clip-rule="evenodd" d="M6.06662 17.8738C5.36393 17.7953 4.63594 17.7953 3.93325 17.8738C3.9202 17.8753 3.90729 17.8812 3.89668 17.8917C3.88631 17.9019 3.88227 17.9122 3.88124 17.921C3.7974 18.6379 3.7974 19.3621 3.88124 20.0789C3.88227 20.0877 3.88631 20.098 3.89668 20.1082C3.90729 20.1187 3.9202 20.1246 3.93325 20.1261C4.63594 20.2046 5.36393 20.2046 6.06662 20.1261C6.07967 20.1246 6.09258 20.1187 6.10319 20.1082C6.11356 20.098 6.1176 20.0877 6.11863 20.0789C6.20247 19.3621 6.20247 18.6379 6.11863 17.921C6.1176 17.9122 6.11356 17.9019 6.10319 17.8917C6.09258 17.8812 6.07967 17.8753 6.06662 17.8738ZM3.76664 16.3831C4.58006 16.2922 5.41981 16.2922 6.23323 16.3831C6.94555 16.4627 7.52384 17.0232 7.60847 17.7467C7.70586 18.5794 7.70586 19.4205 7.60847 20.2532C7.52384 20.9767 6.94555 21.5372 6.23323 21.6168C5.41981 21.7077 4.58006 21.7077 3.76664 21.6168C3.05432 21.5372 2.47603 20.9767 2.3914 20.2532C2.29401 19.4205 2.29401 18.5794 2.3914 17.7467C2.47603 17.0232 3.05432 16.4627 3.76664 16.3831Z" fill="#6C6D6D"/>
<path fill-rule="evenodd" clip-rule="evenodd" d="M13.0666 17.8738C12.3639 17.7953 11.6359 17.7953 10.9333 17.8738C10.9202 17.8753 10.9073 17.8812 10.8967 17.8917C10.8863 17.9019 10.8823 17.9122 10.8812 17.921C10.7974 18.6379 10.7974 19.3621 10.8812 20.0789C10.8823 20.0877 10.8863 20.098 10.8967 20.1082C10.9073 20.1187 10.9202 20.1246 10.9333 20.1261C11.6359 20.2046 12.3639 20.2046 13.0666 20.1261C13.0797 20.1246 13.0926 20.1187 13.1032 20.1082C13.1136 20.098 13.1176 20.0877 13.1186 20.0789C13.2025 19.3621 13.2025 18.6379 13.1186 17.921C13.1176 17.9122 13.1136 17.9019 13.1032 17.8917C13.0926 17.8812 13.0797 17.8753 13.0666 17.8738ZM10.7666 16.3831C11.5801 16.2922 12.4198 16.2922 13.2332 16.3831C13.9456 16.4627 14.5238 17.0232 14.6085 17.7467C14.7059 18.5794 14.7059 19.4205 14.6085 20.2532C14.5238 20.9767 13.9456 21.5372 13.2332 21.6168C12.4198 21.7077 11.5801 21.7077 10.7666 21.6168C10.0543 21.5372 9.47603 20.9767 9.3914 20.2532C9.29401 19.4205 9.29401 18.5794 9.3914 17.7467C9.47603 17.0232 10.0543 16.4627 10.7666 16.3831Z" fill="#6C6D6D"/>
<path fill-rule="evenodd" clip-rule="evenodd" d="M20.0666 17.8738C19.3639 17.7953 18.6359 17.7953 17.9333 17.8738C17.9202 17.8753 17.9073 17.8812 17.8967 17.8917C17.8863 17.9019 17.8823 17.9122 17.8812 17.921C17.7974 18.6379 17.7974 19.3621 17.8812 20.0789C17.8823 20.0877 17.8863 20.098 17.8967 20.1082C17.9073 20.1187 17.9202 20.1246 17.9333 20.1261C18.6359 20.2046 19.3639 20.2046 20.0666 20.1261C20.0797 20.1246 20.0926 20.1187 20.1032 20.1082C20.1136 20.098 20.1176 20.0877 20.1186 20.0789C20.2025 19.3621 20.2025 18.6379 20.1186 17.921C20.1176 17.9122 20.1136 17.9019 20.1032 17.8917C20.0926 17.8812 20.0797 17.8753 20.0666 17.8738ZM17.7666 16.3831C18.5801 16.2922 19.4198 16.2922 20.2332 16.3831C20.9456 16.4627 21.5238 17.0232 21.6085 17.7467C21.7059 18.5794 21.7059 19.4205 21.6085 20.2532C21.5238 20.9767 20.9456 21.5372 20.2332 21.6168C19.4198 21.7077 18.5801 21.7077 17.7666 21.6168C17.0543 21.5372 16.476 20.9767 16.3914 20.2532C16.294 19.4205 16.294 18.5794 16.3914 17.7467C16.476 17.0232 17.0543 16.4627 17.7666 16.3831Z" fill="#6C6D6D"/>
</svg>
