<svg width="24" height="24" viewBox="0 0 24 24" fill="none" xmlns="http://www.w3.org/2000/svg">
<path fill-rule="evenodd" clip-rule="evenodd" d="M18.028 9.96432C18.028 9.55011 17.6922 9.21432 17.278 9.21432L14.7854 9.21432V6.72168C14.7854 6.30747 14.4496 5.97168 14.0354 5.97168C13.6212 5.97168 13.2854 6.30747 13.2854 6.72168V9.96432C13.2854 10.3785 13.6212 10.7143 14.0354 10.7143L17.278 10.7143C17.6922 10.7143 18.028 10.3785 18.028 9.96432Z" fill="#6C6D6D"/>
<path fill-rule="evenodd" clip-rule="evenodd" d="M14.0354 18.028C14.4496 18.028 14.7854 17.6922 14.7854 17.278L14.7854 14.7854L17.278 14.7854C17.6922 14.7854 18.028 14.4496 18.028 14.0354C18.028 13.6212 17.6922 13.2854 17.278 13.2854L14.0354 13.2854C13.6212 13.2854 13.2854 13.6212 13.2854 14.0354L13.2854 17.278C13.2854 17.6922 13.6212 18.028 14.0354 18.028Z" fill="#6C6D6D"/>
<path fill-rule="evenodd" clip-rule="evenodd" d="M9.96432 18.028C9.55011 18.028 9.21432 17.6922 9.21432 17.278V14.7854H6.72168C6.30747 14.7854 5.97168 14.4496 5.97168 14.0354C5.97168 13.6212 6.30747 13.2854 6.72168 13.2854L9.96432 13.2854C10.3785 13.2854 10.7143 13.6212 10.7143 14.0354L10.7143 17.278C10.7143 17.6922 10.3785 18.028 9.96432 18.028Z" fill="#6C6D6D"/>
<path fill-rule="evenodd" clip-rule="evenodd" d="M5.97171 9.96432C5.97171 9.55011 6.30749 9.21432 6.72171 9.21432H9.21435L9.21435 6.72168C9.21435 6.30747 9.55013 5.97168 9.96435 5.97168C10.3786 5.97168 10.7143 6.30747 10.7143 6.72168L10.7143 9.96432C10.7143 10.3785 10.3786 10.7143 9.96435 10.7143L6.72171 10.7143C6.30749 10.7143 5.97171 10.3785 5.97171 9.96432Z" fill="#6C6D6D"/>
</svg>
