<svg width="24" height="24" viewBox="0 0 24 24" fill="none" xmlns="http://www.w3.org/2000/svg">
<path fill-rule="evenodd" clip-rule="evenodd" d="M13.6641 6.34302C13.6641 6.75723 13.9999 7.09302 14.4141 7.09302L16.9068 7.09302V9.58566C16.9068 9.99987 17.2426 10.3357 17.6568 10.3357C18.071 10.3357 18.4068 9.99987 18.4068 9.58566V6.34302C18.4068 5.9288 18.071 5.59302 17.6568 5.59302L14.4141 5.59302C13.9999 5.59302 13.6641 5.9288 13.6641 6.34302Z" fill="#6C6D6D"/>
<path fill-rule="evenodd" clip-rule="evenodd" d="M17.6567 13.6641C17.2425 13.6641 16.9067 13.9999 16.9067 14.4141L16.9067 16.9067L14.4141 16.9067C13.9999 16.9067 13.6641 17.2425 13.6641 17.6567C13.6641 18.071 13.9999 18.4067 14.4141 18.4067L17.6567 18.4067C18.071 18.4067 18.4067 18.071 18.4067 17.6567L18.4067 14.4141C18.4067 13.9999 18.071 13.6641 17.6567 13.6641Z" fill="#6C6D6D"/>
<path fill-rule="evenodd" clip-rule="evenodd" d="M6.34304 13.6641C6.75726 13.6641 7.09304 13.9999 7.09304 14.4141L7.09304 16.9067L9.58569 16.9067C9.9999 16.9067 10.3357 17.2425 10.3357 17.6567C10.3357 18.071 9.9999 18.4067 9.58569 18.4067L6.34304 18.4067C5.92883 18.4067 5.59304 18.071 5.59304 17.6567L5.59304 14.4141C5.59304 13.9999 5.92883 13.6641 6.34304 13.6641Z" fill="#6C6D6D"/>
<path fill-rule="evenodd" clip-rule="evenodd" d="M10.3357 6.34302C10.3357 6.75723 9.99987 7.09302 9.58566 7.09302L7.09302 7.09302L7.09302 9.58566C7.09302 9.99987 6.75723 10.3357 6.34302 10.3357C5.9288 10.3357 5.59302 9.99987 5.59302 9.58566L5.59302 6.34302C5.59302 5.9288 5.92881 5.59302 6.34302 5.59302L9.58566 5.59302C9.99987 5.59302 10.3357 5.9288 10.3357 6.34302Z" fill="#6C6D6D"/>
</svg>
