<svg width="24" height="24" viewBox="0 0 24 24" fill="none" xmlns="http://www.w3.org/2000/svg">
<path fill-rule="evenodd" clip-rule="evenodd" d="M11.1986 2.58728C11.6969 2.31042 12.3029 2.31043 12.8012 2.58728L20.0012 6.58728C20.525 6.87829 20.8499 7.43041 20.8499 8.02964V15.9705C20.8499 16.5697 20.525 17.1219 20.0012 17.4129L12.8012 21.4129C12.3029 21.6897 11.6969 21.6897 11.1986 21.4129L3.99859 17.4129C3.47477 17.1219 3.1499 16.5697 3.1499 15.9705V8.02964C3.1499 7.43041 3.47477 6.87829 3.99859 6.58728L11.1986 2.58728ZM12.0728 3.89852C12.0274 3.87335 11.9724 3.87335 11.9271 3.89851L4.72706 7.89852C4.67944 7.92497 4.6499 7.97516 4.6499 8.02964V15.9705C4.6499 16.025 4.67944 16.0752 4.72705 16.1016L11.9271 20.1016C11.9724 20.1268 12.0274 20.1268 12.0728 20.1016L19.2728 16.1016C19.3204 16.0752 19.3499 16.025 19.3499 15.9705V8.02964C19.3499 7.97516 19.3204 7.92497 19.2728 7.89852L12.0728 3.89852Z" fill="#6C6D6D"/>
<path fill-rule="evenodd" clip-rule="evenodd" d="M7.2499 12.0001C7.2499 9.37672 9.37655 7.25008 11.9999 7.25008C14.6233 7.25008 16.7499 9.37672 16.7499 12.0001C16.7499 14.6234 14.6233 16.7501 11.9999 16.7501C9.37655 16.7501 7.2499 14.6234 7.2499 12.0001ZM11.9999 8.75008C10.205 8.75008 8.7499 10.2051 8.7499 12.0001C8.7499 13.795 10.205 15.2501 11.9999 15.2501C13.7948 15.2501 15.2499 13.795 15.2499 12.0001C15.2499 10.2051 13.7948 8.75008 11.9999 8.75008Z" fill="#6C6D6D"/>
</svg>
