<svg width="24" height="24" viewBox="0 0 24 24" fill="none" xmlns="http://www.w3.org/2000/svg">
<path fill-rule="evenodd" clip-rule="evenodd" d="M13.1547 3.36026C12.4836 3.00999 11.5742 3.00459 10.8977 3.35396C8.30478 4.6931 5.95291 6.22853 3.89194 7.93154C3.57323 8.19489 3.34705 8.57758 3.35091 9.02802C3.35475 9.47662 3.58554 9.85419 3.90231 10.1132C5.94616 11.7844 8.29997 13.3212 10.8455 14.6497C11.5166 15 12.426 15.0054 13.1024 14.656C15.6954 13.3169 18.0473 11.7815 20.1083 10.0785C20.427 9.8151 20.6531 9.43242 20.6493 8.98197C20.6454 8.53338 20.4147 8.1558 20.0979 7.89679C18.054 6.22562 15.7002 4.6888 13.1547 3.36026ZM11.5861 4.68671C11.8257 4.56294 12.2194 4.56411 12.4607 4.69004C14.89 5.95796 17.1284 7.41666 19.0677 8.99223C17.1169 10.5932 14.8851 12.0471 12.4141 13.3233C12.1745 13.4471 11.7808 13.4459 11.5395 13.32C9.11016 12.052 6.87175 10.5933 4.93253 9.01777C6.88333 7.41684 9.11508 5.96285 11.5861 4.68671Z" fill="#6C6D6D"/>
<path d="M21.1971 12.698C21.4165 13.0494 21.3095 13.512 20.9581 13.7314L14.8509 17.5443C14.0221 18.0617 12.9939 18.3009 12 18.301C11.0061 18.301 9.97782 18.0619 9.14896 17.5446L3.10863 13.7749C2.75724 13.5556 2.65015 13.093 2.86946 12.7416C3.08876 12.3902 3.55141 12.2831 3.9028 12.5024L9.94313 16.2721C10.4873 16.6117 11.2265 16.801 11.9999 16.801C12.7734 16.8009 13.5125 16.6116 14.0565 16.2719L20.1637 12.459C20.5151 12.2397 20.9778 12.3467 21.1971 12.698Z" fill="#6C6D6D"/>
<path d="M21.1971 16.4527C21.4165 16.804 21.3095 17.2667 20.9582 17.4861L15.6693 20.7889C14.6117 21.4494 13.2887 21.7602 12 21.7602C10.7113 21.7603 9.3882 21.4497 8.33042 20.7894L3.10855 17.5296C2.75719 17.3102 2.65016 16.8476 2.86951 16.4962C3.08885 16.1448 3.55151 16.0378 3.90288 16.2572L9.12474 19.517C9.89776 19.9995 10.9317 20.2603 11.9999 20.2602C13.0681 20.2602 14.1019 19.9993 14.8748 19.5167L20.1637 16.2138C20.515 15.9944 20.9777 16.1013 21.1971 16.4527Z" fill="#6C6D6D"/>
</svg>
