<svg width="24" height="24" viewBox="0 0 24 24" fill="none" xmlns="http://www.w3.org/2000/svg">
<path d="M7.70007 9.45007C7.28586 9.45007 6.95007 9.78586 6.95007 10.2001C6.95007 10.6143 7.28586 10.9501 7.70007 10.9501H12.7001C13.1143 10.9501 13.4501 10.6143 13.4501 10.2001C13.4501 9.78586 13.1143 9.45007 12.7001 9.45007H7.70007Z" fill="#6C6D6D"/>
<path fill-rule="evenodd" clip-rule="evenodd" d="M5.39866 14.9446C7.85544 17.4014 11.7349 17.5685 14.3851 15.4458L19.5408 20.6014C19.8337 20.8943 20.3085 20.8943 20.6014 20.6014C20.8943 20.3085 20.8943 19.8337 20.6014 19.5408L15.4458 14.3851C17.5685 11.7349 17.4014 7.85544 14.9446 5.39866C12.3086 2.76262 8.0347 2.76262 5.39866 5.39866C2.76262 8.0347 2.76262 12.3086 5.39866 14.9446ZM6.45932 6.45932C4.40907 8.50957 4.40907 11.8337 6.45932 13.8839C8.50807 15.9327 11.8288 15.9342 13.8794 13.8884L13.8839 13.8839L13.8885 13.8794C15.9342 11.8288 15.9327 8.50807 13.8839 6.45932C11.8337 4.40907 8.50957 4.40907 6.45932 6.45932Z" fill="#6C6D6D"/>
</svg>
